<?xml version="1.0" encoding="utf-8" standalone="no"?>
<!DOCTYPE svg PUBLIC "-//W3C//DTD SVG 1.1//EN"
  "http://www.w3.org/Graphics/SVG/1.1/DTD/svg11.dtd">
<!-- Created with matplotlib (http://matplotlib.org/) -->
<svg height="415pt" version="1.1" viewBox="0 0 538 415" width="538pt" xmlns="http://www.w3.org/2000/svg" xmlns:xlink="http://www.w3.org/1999/xlink">
 <defs>
  <style type="text/css">
*{stroke-linecap:butt;stroke-linejoin:round;stroke-miterlimit:100000;}
  </style>
 </defs>
 <g id="figure_1">
  <g id="patch_1">
   <path d="M 0 415.456343 
L 538.8 415.456343 
L 538.8 0 
L 0 0 
z
" style="fill:#ffffff;"/>
  </g>
  <g id="axes_1">
   <g id="patch_2">
    <path d="M 85.2 359.056343 
L 531.6 359.056343 
L 531.6 13.456343 
L 85.2 13.456343 
z
" style="fill:#ffffff;"/>
   </g>
   <g id="line2d_1">
    <defs>
     <path d="M 0 1.5 
C 0.397805 1.5 0.77937 1.341951 1.06066 1.06066 
C 1.341951 0.77937 1.5 0.397805 1.5 0 
C 1.5 -0.397805 1.341951 -0.77937 1.06066 -1.06066 
C 0.77937 -1.341951 0.397805 -1.5 0 -1.5 
C -0.397805 -1.5 -0.77937 -1.341951 -1.06066 -1.06066 
C -1.341951 -0.77937 -1.5 -0.397805 -1.5 0 
C -1.5 0.397805 -1.341951 0.77937 -1.06066 1.06066 
C -0.77937 1.341951 -0.397805 1.5 0 1.5 
z
" id="mf0078d678c" style="stroke:#00bfbf;stroke-width:0.5;"/>
    </defs>
    <g>
     <use style="fill:#00bfbf;stroke:#00bfbf;stroke-width:0.5;" x="463.816925881" xlink:href="#mf0078d678c" y="223.57951238"/>
     <use style="fill:#00bfbf;stroke:#00bfbf;stroke-width:0.5;" x="463.816925881" xlink:href="#mf0078d678c" y="223.57951238"/>
    </g>
   </g>
   <g id="line2d_2">
    <path d="M 49.252971 359.056343 
L 49.252971 355.237677 
L 64.734514 355.237677 
L 64.734514 353.103085 
L 73.790636 353.103085 
L 73.790636 352.05188 
L 80.216056 352.05188 
L 80.216056 351.118666 
L 85.2 351.118666 
L 85.2 349.810022 
L 89.272178 349.810022 
L 89.272178 349.305873 
L 92.715156 349.305873 
L 92.715156 348.608644 
L 95.697599 348.608644 
L 95.697599 347.353633 
L 98.3283 347.353633 
L 98.3283 346.602772 
L 100.681543 346.602772 
L 100.681543 345.88409 
L 102.810309 345.88409 
L 102.810309 345.315581 
L 104.753721 345.315581 
L 104.753721 344.97233 
L 106.541486 344.97233 
L 106.541486 344.382368 
L 108.196699 344.382368 
L 108.196699 343.910398 
L 109.737665 343.910398 
L 109.737665 343.459881 
L 111.179142 343.459881 
L 111.179142 343.073724 
L 112.533201 343.073724 
L 112.533201 342.623207 
L 113.809843 342.623207 
L 113.809843 342.215597 
L 115.017442 342.215597 
L 115.017442 341.829439 
L 116.163085 341.829439 
L 116.163085 341.614908 
L 117.252821 341.614908 
L 117.252821 341.32529 
L 118.291852 341.32529 
L 118.291852 340.960586 
L 119.284688 340.960586 
L 119.284688 340.638788 
L 120.235264 340.638788 
L 120.235264 340.327717 
L 121.147029 340.327717 
L 121.147029 340.145365 
L 122.023029 340.145365 
L 122.023029 339.866473 
L 122.865965 339.866473 
L 122.865965 339.694848 
L 123.678241 339.694848 
L 123.678241 339.415957 
L 124.462011 339.415957 
L 124.462011 339.104886 
L 125.219207 339.104886 
L 125.219207 338.954713 
L 125.951573 338.954713 
L 125.951573 338.825994 
L 126.660684 338.825994 
L 126.660684 338.482743 
L 127.347974 338.482743 
L 127.347974 338.150219 
L 128.014744 338.150219 
L 128.014744 337.903508 
L 128.662185 337.903508 
L 128.662185 337.721156 
L 129.903346 337.624616 
L 129.903346 337.51735 
L 130.498985 337.51735 
L 130.498985 337.388631 
L 131.079151 337.388631 
L 131.079151 337.184826 
L 131.644628 337.184826 
L 131.644628 336.905935 
L 132.196141 336.905935 
L 132.196141 336.63777 
L 133.25992 336.530504 
L 133.25992 336.251613 
L 133.773395 336.251613 
L 133.773395 336.037081 
L 134.275329 336.037081 
L 134.275329 335.897635 
L 134.766231 335.897635 
L 134.766231 335.69383 
L 135.716806 335.608017 
L 135.716806 335.532931 
L 136.177341 335.532931 
L 136.177341 335.404212 
L 136.628571 335.404212 
L 136.628571 335.157501 
L 137.504572 335.050235 
L 137.504572 334.910789 
L 137.930016 334.910789 
L 137.930016 334.792796 
L 138.757338 334.706984 
L 138.757338 334.556811 
L 139.159784 334.556811 
L 139.159784 334.428092 
L 140.32536 334.353006 
L 140.32536 334.235014 
L 140.70075 334.235014 
L 140.70075 333.913216 
L 141.433115 333.80595 
L 141.433115 333.645051 
L 141.790485 333.645051 
L 141.790485 333.494879 
L 142.142227 333.494879 
L 142.142227 333.36616 
L 142.829516 333.280347 
L 142.829516 333.151628 
L 143.16539 333.151628 
L 143.16539 333.033636 
L 144.143728 332.947823 
L 144.143728 332.765471 
L 144.772928 332.765471 
L 144.772928 332.529486 
L 145.081004 332.529486 
L 145.081004 332.261321 
L 146.272494 332.154055 
L 146.272494 332.078969 
L 146.845222 331.993157 
L 146.845222 331.885891 
L 147.677684 331.778625 
L 147.677684 331.692812 
L 148.215906 331.596273 
L 148.215906 331.499733 
L 148.741463 331.4461 
L 148.741463 331.167209 
L 148.999676 331.167209 
L 148.999676 331.03849 
L 149.507314 331.03849 
L 149.507314 330.877591 
L 150.003671 330.845411 
L 150.003671 330.641606 
L 150.247774 330.641606 
L 150.247774 330.523614 
L 150.489237 330.523614 
L 150.489237 330.405621 
L 151.198349 330.309082 
L 151.198349 330.201816 
L 151.429803 330.201816 
L 151.429803 330.083824 
L 152.110114 329.976558 
L 152.110114 329.804932 
L 152.552409 329.751299 
L 152.552409 329.633307 
L 152.986114 329.526041 
L 152.986114 329.504588 
L 153.411559 329.408048 
L 153.411559 329.375869 
L 153.62128 329.375869 
L 153.62128 329.236423 
L 154.238881 329.139884 
L 154.238881 329.054071 
L 155.036649 329.000438 
L 155.036649 328.871719 
L 155.231717 328.871719 
L 155.231717 328.700093 
L 155.616816 328.64646 
L 155.616816 328.528468 
L 156.182292 328.421202 
L 156.182292 328.30321 
L 157.272028 328.20667 
L 157.272028 328.131584 
L 157.448591 328.131584 
L 157.448591 327.906326 
L 158.141209 327.79906 
L 158.141209 327.723974 
L 158.479627 327.627434 
L 158.479627 327.509442 
L 158.812994 327.509442 
L 158.812994 327.391449 
L 159.465161 327.316363 
L 159.465161 327.198371 
L 160.40904 327.101832 
L 160.40904 327.080378 
L 160.562547 327.080378 
L 160.562547 326.919479 
L 161.016836 326.876573 
L 161.016836 326.769307 
L 161.314643 326.769307 
L 161.314643 326.554775 
L 161.754037 326.522596 
L 161.754037 326.38315 
L 162.184953 326.286611 
L 162.184953 326.243704 
L 162.607713 326.136438 
L 162.607713 326.082805 
L 163.022619 326.082805 
L 163.022619 325.954086 
L 163.159226 325.954086 
L 163.159226 325.814641 
L 163.295003 325.814641 
L 163.295003 325.696648 
L 163.697449 325.653742 
L 163.697449 325.535749 
L 164.863025 325.449937 
L 164.863025 325.374851 
L 165.362155 325.289038 
L 165.362155 325.224678 
L 166.09054 325.117412 
L 166.09054 325.0316 
L 166.446014 325.020873 
L 166.446014 324.52745 
L 166.911346 324.420184 
L 166.911346 324.366551 
L 167.367181 324.259285 
L 167.367181 324.248559 
L 167.924196 324.141293 
L 168.033951 324.012574 
L 168.57478 323.948214 
L 168.681392 323.883855 
L 169.310593 323.787315 
L 169.413758 323.486971 
L 170.222358 323.444064 
L 170.321405 323.336798 
L 170.71326 323.250986 
L 170.810159 323.154446 
L 171.382886 323.07936 
L 171.476929 322.972094 
L 171.84919 322.961368 
L 171.84919 322.800469 
L 172.215348 322.757563 
L 172.305957 322.661023 
L 172.48608 322.564484 
L 172.48608 322.500124 
L 173.451601 322.435765 
L 173.53734 322.349952 
L 173.792602 322.264139 
L 173.792602 322.23196 
L 173.96117 322.23196 
L 173.96117 321.995975 
L 174.377106 321.899435 
L 174.459372 321.75999 
L 174.866216 321.684904 
L 174.946704 321.566911 
L 175.186439 321.491825 
L 175.186439 321.448919 
L 175.813432 321.352379 
L 175.890583 321.28802 
L 176.573204 321.19148 
L 176.647779 321.137848 
L 177.016963 321.030582 
L 177.090073 320.934042 
L 177.380144 320.826776 
L 177.380144 320.794597 
L 177.523779 320.794597 
L 177.523779 320.644424 
L 178.228416 320.558612 
L 178.228416 320.429893 
L 178.57257 320.365533 
L 178.57257 320.268994 
L 178.911501 320.183181 
L 178.978675 320.065189 
L 179.443316 319.957923 
L 179.508911 319.861383 
L 179.834028 319.818477 
L 179.898487 319.700484 
L 180.657829 319.593219 
L 180.657829 319.571765 
L 181.331917 319.485953 
L 181.331917 319.453773 
L 181.572082 319.410867 
L 181.572082 319.314327 
L 182.277461 319.239241 
L 182.335249 319.121249 
L 182.621969 319.056889 
L 182.621969 318.981803 
L 183.350658 318.89599 
L 183.350658 318.767271 
L 183.624712 318.692185 
L 183.733399 318.563466 
L 183.895445 318.477653 
L 183.895445 318.413294 
L 184.479751 318.316754 
L 184.532119 318.284575 
L 184.792135 318.263121 
L 184.792135 318.166582 
L 185.100211 318.080769 
L 185.100211 318.037863 
L 185.404095 317.962777 
L 185.454343 317.887691 
L 186.243305 317.801878 
L 186.291701 317.748245 
L 186.675147 317.673159 
L 186.675147 317.608799 
L 187.005345 317.51226 
L 187.098798 317.437174 
L 187.284538 317.340635 
L 187.284538 317.319182 
L 187.922728 317.222642 
L 187.922728 317.201189 
L 188.323569 317.10465 
L 188.323569 317.00811 
L 188.717343 316.986657 
L 188.76067 316.857938 
L 189.061629 316.750672 
L 189.061629 316.739946 
L 189.400689 316.643406 
L 189.484656 316.493234 
L 189.817402 316.396695 
L 189.89982 316.085624 
L 190.145263 315.978358 
L 190.18591 315.924725 
L 190.588355 315.828186 
L 190.667982 315.635107 
L 190.905171 315.592201 
L 190.944459 315.452755 
L 191.100923 315.377669 
L 191.100923 315.313309 
L 191.640074 315.259676 
L 191.640074 315.195317 
L 192.054746 315.130957 
L 192.054746 315.077324 
L 192.897682 315.012965 
L 192.969499 314.894972 
L 193.28985 314.798433 
L 193.28985 314.77698 
L 193.882698 314.669714 
L 193.951422 314.583901 
L 194.460217 314.508815 
L 194.460217 314.465909 
L 194.85907 314.358643 
L 194.95768 314.283557 
L 195.186091 314.176291 
L 195.283271 314.122658 
L 195.347823 314.069025 
L 195.444304 313.940306 
L 196.045853 313.843766 
L 196.108242 313.790133 
L 196.263456 313.693594 
L 196.32524 313.586328 
L 196.783257 313.511242 
L 196.843622 313.36107 
L 197.291235 313.253804 
L 197.379691 313.178718 
L 197.816792 313.082179 
L 197.874431 313.007092 
L 198.217177 312.899826 
L 198.217177 312.85692 
L 198.582643 312.792561 
L 198.666139 312.663842 
L 198.887281 312.567302 
L 198.997037 312.470763 
L 199.430742 312.374224 
L 199.537865 312.299137 
L 199.987493 312.202598 
L 200.091985 312.116785 
L 200.607236 312.00952 
L 200.607236 311.94516 
L 201.135754 311.8808 
L 201.185443 311.816441 
L 201.383101 311.741355 
L 201.407685 311.676995 
L 201.917809 311.580456 
L 201.96579 311.47319 
L 202.275179 311.40883 
L 202.275179 311.323018 
L 203.20112 311.269385 
L 203.246425 311.097759 
L 203.449166 310.990493 
L 203.471579 310.872501 
L 203.805112 310.840321 
L 203.849209 310.690149 
L 204.328616 310.582883 
L 204.328616 310.550703 
L 204.692145 310.475617 
L 204.734526 310.379078 
L 205.195493 310.271812 
L 205.298945 310.110913 
L 205.422457 310.014374 
L 205.524865 309.885655 
L 205.687748 309.842748 
L 205.687748 309.756936 
L 206.069898 309.64967 
L 206.069898 309.628217 
L 206.386714 309.574584 
L 206.386714 309.488771 
L 206.601947 309.456591 
L 206.679702 309.242059 
L 206.949733 309.188426 
L 207.007175 309.038254 
L 207.592243 308.941715 
L 207.648058 308.855902 
L 208.034903 308.748636 
L 208.034903 308.727183 
L 208.32521 308.652097 
L 208.433109 308.469745 
L 208.806705 308.373206 
L 208.806705 308.319573 
L 209.104628 308.212307 
L 209.191501 308.115767 
L 209.501477 308.029955 
L 209.501477 307.954869 
L 209.992008 307.858329 
L 210.025444 307.815423 
L 210.175289 307.708157 
L 210.175289 307.69743 
L 210.716276 307.600891 
L 210.748646 307.568711 
L 211.037882 307.472172 
L 211.085726 307.407812 
L 211.386381 307.375633 
L 211.449164 307.193281 
L 211.883774 307.150374 
L 211.914497 306.968022 
L 212.579912 306.871483 
L 212.609693 306.81785 
L 213.022499 306.732037 
L 213.022499 306.689131 
L 213.656163 306.592592 
L 213.741195 306.549685 
L 214.147682 306.453146 
L 214.230867 306.399513 
L 214.791154 306.302974 
L 214.831604 306.206434 
L 214.992675 306.120622 
L 214.992675 306.088442 
L 215.271785 306.013356 
L 215.271785 305.970449 
L 215.612586 305.884637 
L 215.716411 305.777371 
L 215.922622 305.691558 
L 216.025019 305.648652 
L 216.392319 305.584292 
L 216.492589 305.498479 
L 217.230601 305.40194 
L 217.327186 305.316127 
L 217.756721 305.230315 
L 217.839291 305.155229 
L 218.385922 305.047963 
L 218.408888 305.015783 
L 218.750585 304.908517 
L 218.77318 304.833431 
L 219.209275 304.747618 
L 219.308714 304.586719 
L 219.407712 304.49018 
L 219.429653 304.350734 
L 219.885488 304.264922 
L 219.981968 304.157656 
L 220.205481 304.061116 
L 220.311135 303.932397 
L 220.965501 303.825131 
L 221.037039 303.750045 
L 221.290677 303.664233 
L 221.290677 303.621326 
L 221.769734 303.51406 
L 221.799336 303.460427 
L 221.956557 303.417521 
L 221.985913 303.235169 
L 222.773729 303.170809 
L 222.849122 303.04209 
L 223.415775 302.945551 
L 223.507313 302.891918 
L 223.662071 302.795379 
L 223.734529 302.6023 
L 224.093334 302.516487 
L 224.093334 302.484308 
L 224.862984 302.377042 
L 224.94879 302.291229 
L 225.47355 302.183963 
L 225.47355 302.151783 
L 225.887943 302.087424 
L 225.887943 302.012338 
L 226.41541 301.947978 
L 226.41541 301.894345 
L 226.828594 301.797806 
L 226.867924 301.72272 
L 227.541396 301.636907 
L 227.541396 301.604727 
L 228.091235 301.518915 
L 228.091235 301.465282 
L 228.474807 301.358016 
L 228.518645 301.261476 
L 229.009547 301.18639 
L 229.109289 301.122031 
L 229.64311 301.036218 
L 229.684716 300.971859 
L 230.319881 300.864593 
L 230.360246 300.7466 
L 230.560983 300.650061 
L 230.660678 300.478435 
L 230.819272 300.381896 
L 230.891586 300.220997 
L 231.493787 300.124458 
L 231.602133 299.985012 
L 231.773139 299.888473 
L 231.873861 299.781207 
L 232.560389 299.695394 
L 232.560389 299.663215 
L 233.024529 299.566675 
L 233.113834 299.437956 
L 233.682875 299.33069 
L 233.740723 299.244878 
L 234.333626 299.180518 
L 234.367356 299.073252 
L 234.712953 298.965986 
L 234.795768 298.912353 
L 235.167391 298.837267 
L 235.221524 298.783634 
L 236.292972 298.697821 
L 236.390674 298.569102 
L 236.726777 298.48329 
L 236.757082 298.408204 
L 237.117577 298.333117 
L 237.167188 298.204398 
L 237.555294 298.107859 
L 237.642787 298.01132 
L 238.060908 297.925507 
L 238.11322 297.786061 
L 238.471344 297.710975 
L 238.550671 297.57153 
L 238.717733 297.47499 
L 238.828418 297.399904 
L 239.130001 297.346271 
L 239.220592 297.217552 
L 239.827054 297.131739 
L 239.936766 296.981567 
L 240.141577 296.895754 
L 240.141577 296.863575 
L 240.45601 296.767035 
L 240.554168 296.691949 
L 240.782944 296.59541 
L 240.80822 296.509597 
L 241.150816 296.413058 
L 241.1881 296.295065 
L 241.727899 296.198526 
L 241.81661 296.134166 
L 241.941018 296.026901 
L 241.941018 295.983994 
L 242.412249 295.876728 
L 242.4514 295.726556 
L 242.723546 295.61929 
L 242.827637 295.554931 
L 243.057227 295.447665 
L 243.13703 295.329672 
L 243.35221 295.233133 
L 243.35221 295.200953 
L 244.098508 295.093687 
L 244.098508 295.072234 
L 244.594386 295.018601 
L 244.594386 294.954242 
L 244.838256 294.857702 
L 244.943462 294.750436 
L 246.205132 294.64317 
L 246.205132 294.621717 
L 246.526837 294.514451 
L 246.614662 294.396459 
L 246.779617 294.310646 
L 246.863246 294.246287 
L 247.31454 294.149747 
L 247.31454 294.128294 
L 247.716761 294.021028 
L 247.716761 293.999575 
L 248.350425 293.903036 
L 248.350425 293.881583 
L 248.589434 293.82795 
L 248.666564 293.656324 
L 248.908091 293.570511 
L 248.908091 293.473972 
L 249.628735 293.398886 
L 249.628735 293.3238 
L 249.795469 293.248714 
L 249.795469 293.205807 
L 250.551163 293.098542 
L 250.551163 293.055635 
L 250.931678 292.948369 
L 251.041119 292.905463 
L 251.676384 292.798197 
L 251.769361 292.669478 
L 252.017973 292.562212 
L 252.081602 292.44422 
L 252.281488 292.358407 
L 252.392045 292.304774 
L 252.880441 292.197508 
L 252.970991 292.143875 
L 253.439848 292.058062 
L 253.439848 291.993703 
L 253.833366 291.94007 
L 253.833366 291.864984 
L 254.413231 291.757718 
L 254.41781 291.650452 
L 255.176227 291.543186 
L 255.209393 291.50028 
L 255.66429 291.40374 
L 255.701063 291.307201 
L 256.082504 291.210662 
L 256.110108 291.146302 
L 256.401055 291.060489 
L 256.48051 290.910317 
L 256.855134 290.803051 
L 256.855134 290.792325 
L 257.416557 290.685059 
L 257.442562 290.631426 
L 257.693052 290.55634 
L 257.764108 290.406167 
L 257.952492 290.331081 
L 257.972024 290.191636 
L 258.500668 290.105823 
L 258.529251 290.030737 
L 258.863788 289.934198 
L 258.863788 289.869838 
L 260.070597 289.762572 
L 260.120306 289.741119 
L 260.411006 289.676759 
L 260.46171 289.505134 
L 261.010284 289.419321 
L 261.088533 289.312055 
L 261.613814 289.204789 
L 261.613814 289.129703 
L 262.410506 289.033164 
L 262.410506 288.990258 
L 262.80552 288.882992 
L 262.854213 288.722093 
L 263.290815 288.614827 
L 263.290815 288.593374 
L 263.776331 288.507561 
L 263.869482 288.357389 
L 264.385239 288.250123 
L 264.44961 288.207217 
L 264.61553 288.13213 
L 264.61553 288.057044 
L 264.867859 287.949778 
L 264.955147 287.885419 
L 265.312177 287.799606 
L 265.368327 287.735247 
L 266.161619 287.627981 
L 266.168383 287.552895 
L 266.431944 287.456355 
L 266.504014 287.381269 
L 266.949914 287.274003 
L 266.949914 287.241823 
L 267.297247 287.145284 
L 267.375555 287.059471 
L 267.9074 286.973659 
L 267.9074 286.941479 
L 268.353399 286.834213 
L 268.454975 286.759127 
L 268.70631 286.684041 
L 268.795477 286.619681 
L 268.993023 286.555322 
L 269.060862 286.458782 
L 269.83172 286.362243 
L 269.918802 286.287157 
L 270.395131 286.190618 
L 270.487852 286.018992 
L 270.915168 285.933179 
L 270.915168 285.901 
L 271.279654 285.80446 
L 271.351629 285.761554 
L 271.62346 285.654288 
L 271.709118 285.493389 
L 272.098348 285.386123 
L 272.195637 285.300311 
L 272.418626 285.193045 
L 272.484988 285.010693 
L 272.734376 284.92488 
L 272.79076 284.881974 
L 273.404704 284.785434 
L 273.491605 284.613809 
L 273.597577 284.613809 
L 273.659565 284.356371 
L 274.367831 284.249105 
L 274.453872 284.120386 
L 274.893823 284.023846 
L 274.946844 283.94876 
L 275.445247 283.852221 
L 275.480935 283.798588 
L 275.988614 283.702049 
L 276.049532 283.530423 
L 276.337074 283.455337 
L 276.43125 283.380251 
L 276.680181 283.272985 
L 276.680181 283.230079 
L 277.10199 283.122813 
L 277.10199 283.112086 
L 277.46465 283.037 
L 277.46465 282.994094 
L 277.796614 282.940461 
L 277.796614 282.876101 
L 278.282344 282.779562 
L 278.332617 282.736656 
L 279.419139 282.62939 
L 279.452745 282.59721 
L 279.911422 282.489944 
L 279.911422 282.468491 
L 280.385932 282.361225 
L 280.473079 282.253959 
L 280.662622 282.15742 
L 280.662622 282.12524 
L 281.698569 282.050154 
L 281.698569 281.964341 
L 282.06138 281.867802 
L 282.10781 281.814169 
L 282.673735 281.706903 
L 282.77879 281.546004 
L 283.529276 281.449465 
L 283.529276 281.406559 
L 284.031556 281.310019 
L 284.068609 281.256386 
L 284.478142 281.159847 
L 284.522194 281.116941 
L 284.955088 281.031128 
L 284.980155 280.977495 
L 285.306374 280.870229 
L 285.306374 280.816596 
L 285.54454 280.77369 
L 285.54454 280.67715 
L 286.048961 280.580611 
L 286.080043 280.494798 
L 286.896895 280.398259 
L 286.944436 280.323173 
L 287.60218 280.215907 
L 287.638935 280.140821 
L 288.265765 280.033555 
L 288.265765 279.979922 
L 288.95121 279.872656 
L 289.051945 279.808297 
L 289.734761 279.701031 
L 289.803411 279.615218 
L 289.961535 279.561585 
L 290.000659 279.422139 
L 290.664076 279.314874 
L 290.735336 279.218334 
L 291.246385 279.132521 
L 291.246385 279.100342 
L 291.810464 279.003802 
L 291.810464 278.982349 
L 292.021457 278.939443 
L 292.021457 278.85363 
L 293.19119 278.757091 
L 293.291012 278.660552 
L 293.76428 278.553286 
L 293.76428 278.510379 
L 294.261208 278.435293 
L 294.360964 278.338754 
L 294.630373 278.231488 
L 294.718705 278.145675 
L 295.185474 278.049136 
L 295.212392 277.995503 
L 295.820188 277.888237 
L 295.830585 277.759518 
L 296.202055 277.652252 
L 296.202055 277.641525 
L 296.720561 277.544986 
L 296.82297 277.480627 
L 297.001914 277.384087 
L 297.001914 277.362634 
L 297.35422 277.255368 
L 297.450104 277.191009 
L 297.920508 277.083743 
L 297.920508 277.073016 
L 298.301125 276.987203 
L 298.411886 276.890664 
L 298.749403 276.783398 
L 298.799672 276.686859 
L 299.069807 276.579593 
L 299.157999 276.52596 
L 300.038797 276.429421 
L 300.113193 276.225616 
L 300.566619 276.11835 
L 300.618172 276.000357 
L 301.428909 275.893091 
L 301.50494 275.796552 
L 301.63081 275.710739 
L 301.740848 275.603473 
L 302.009655 275.506934 
L 302.009655 275.464028 
L 302.662702 275.367488 
L 302.662702 275.335309 
L 303.27743 275.249496 
L 303.367647 275.088597 
L 303.924643 274.981331 
L 303.924643 274.949151 
L 304.367544 274.884792 
L 304.367544 274.831159 
L 305.011456 274.756073 
L 305.011456 274.713166 
L 305.229016 274.605901 
L 305.229016 274.552268 
L 305.587357 274.445002 
L 305.587357 274.412822 
L 306.093609 274.316283 
L 306.093609 274.284103 
L 306.481431 274.251923 
L 306.544531 274.091024 
L 306.948867 273.983758 
L 306.948867 273.940852 
L 308.023583 273.865766 
L 308.106491 273.704867 
L 309.096898 273.608328 
L 309.096898 273.565421 
L 309.722938 273.458155 
L 309.722938 273.447429 
L 310.009178 273.35089 
L 310.116832 273.275803 
L 310.526003 273.200717 
L 310.595141 273.082725 
L 311.589627 272.986185 
L 311.698752 272.793107 
L 312.178669 272.696568 
L 312.259036 272.503489 
L 312.460486 272.417676 
L 312.460486 272.34259 
L 312.986253 272.299684 
L 312.986253 272.203144 
L 313.257631 272.149511 
L 313.257631 272.085152 
L 313.731585 271.977886 
L 313.739142 271.859894 
L 314.654052 271.763354 
L 314.743684 271.581002 
L 315.294605 271.484463 
L 315.324126 271.355744 
L 315.509501 271.248478 
L 315.588077 271.205572 
L 315.942949 271.141212 
L 315.984716 271.02322 
L 316.52083 270.915954 
L 316.526791 270.840867 
L 316.844796 270.733602 
L 316.844796 270.701422 
L 317.148816 270.594156 
L 317.231055 270.508343 
L 317.410458 270.42253 
L 317.448754 270.347444 
L 317.992467 270.283085 
L 317.992467 270.218725 
L 318.329189 270.111459 
L 318.329189 270.036373 
L 318.798616 269.929107 
L 318.823853 269.789662 
L 319.291379 269.693122 
L 319.350607 269.585856 
L 319.560084 269.54295 
L 319.611561 269.457137 
L 320.404901 269.349871 
L 320.408837 269.317692 
L 320.675938 269.221152 
L 320.732551 269.10316 
L 320.879006 268.995894 
L 320.879006 268.963714 
L 321.287828 268.888628 
L 321.287828 268.845722 
L 321.557259 268.781362 
L 321.609876 268.674096 
L 322.106357 268.56683 
L 322.216841 268.405932 
L 322.575595 268.341572 
L 322.586633 268.245033 
L 322.992511 268.169947 
L 322.992511 268.105587 
L 323.534075 268.009048 
L 323.629578 267.933962 
L 324.337077 267.826696 
L 324.337077 267.805243 
L 324.775774 267.71943 
L 324.876378 267.579984 
L 325.236787 267.472718 
L 325.236787 267.408359 
L 325.515501 267.301093 
L 325.601022 267.204554 
L 325.84255 267.140194 
L 325.935958 267.022201 
L 326.593571 266.914936 
L 326.593571 266.839849 
L 327.18461 266.754037 
L 327.238172 266.614591 
L 327.695957 266.507325 
L 327.705335 266.400059 
L 328.357112 266.292793 
L 328.448749 266.164074 
L 329.656273 266.056808 
L 329.656273 266.024629 
L 329.939837 265.949542 
L 330.022038 265.874456 
L 330.629009 265.76719 
L 330.73397 265.563385 
L 331.057999 265.466846 
L 331.057999 265.402486 
L 331.625763 265.305947 
L 331.666363 265.209408 
L 332.304223 265.102142 
L 332.304223 265.069962 
L 332.975662 264.984149 
L 333.047703 264.823251 
L 333.53446 264.726711 
L 333.587411 264.619445 
L 333.981885 264.512179 
L 334.055808 264.404914 
L 334.551908 264.340554 
L 334.616334 264.276194 
L 334.826647 264.168929 
L 334.879869 264.126022 
L 335.030908 264.040209 
L 335.030908 263.997303 
L 335.690193 263.900764 
L 335.690193 263.836404 
L 336.178742 263.750592 
L 336.178742 263.686232 
L 336.697649 263.611146 
L 336.803686 263.546786 
L 337.233878 263.460974 
L 337.315597 263.396614 
L 337.831734 263.300075 
L 337.831734 263.203535 
L 338.970882 263.106996 
L 339.013129 263.03191 
L 339.376337 262.924644 
L 339.423578 262.860285 
L 339.977848 262.763745 
L 340.041967 262.720839 
L 341.213008 262.613573 
L 341.213008 262.602846 
L 342.013408 262.506307 
L 342.067698 262.441948 
L 343.069573 262.334682 
L 343.069573 262.302502 
L 343.63448 262.227416 
L 343.680051 262.05579 
L 344.354239 261.969978 
L 344.461347 261.884165 
L 344.69274 261.776899 
L 344.717576 261.744719 
L 345.664 261.637453 
L 345.675585 261.58382 
L 346.013927 261.487281 
L 346.096774 261.24057 
L 346.506126 261.14403 
L 346.613492 261.026038 
L 346.964297 260.929498 
L 346.964297 260.897319 
L 347.167458 260.822233 
L 347.167458 260.779326 
L 348.381623 260.67206 
L 348.476017 260.586248 
L 348.971527 260.478982 
L 348.971527 260.446802 
L 349.497794 260.371716 
L 349.536606 260.275176 
L 349.750322 260.20009 
L 349.770704 260.017738 
L 350.284255 259.921199 
L 350.284255 259.856839 
L 351.298214 259.749574 
L 351.298214 259.706667 
L 352.008408 259.610128 
L 352.118891 259.535042 
L 352.516747 259.438502 
L 352.57378 259.395596 
L 353.566426 259.32051 
L 353.674512 259.095252 
L 354.350761 258.987986 
L 354.409706 258.9129 
L 354.7251 258.81636 
L 354.7251 258.762727 
L 355.361471 258.655461 
L 355.442873 258.548195 
L 356.029473 258.44093 
L 356.137404 258.247851 
L 356.412183 258.151312 
L 356.454281 258.065499 
L 356.893153 257.958233 
L 356.893153 257.926053 
L 357.299524 257.818787 
L 357.309149 257.786608 
L 357.77908 257.690068 
L 357.77908 257.657888 
L 358.224634 257.561349 
L 358.224634 257.507716 
L 358.545321 257.40045 
L 358.545321 257.389724 
L 359.146947 257.303911 
L 359.146947 257.250278 
L 359.81483 257.185919 
L 359.81483 257.100106 
L 360.393868 257.02502 
L 360.409471 256.92848 
L 360.780558 256.842668 
L 360.850867 256.746128 
L 361.170495 256.638862 
L 361.243134 256.574503 
L 361.54892 256.48869 
L 361.566721 256.370698 
L 362.228677 256.263432 
L 362.330769 256.038173 
L 362.773205 255.930908 
L 362.867836 255.898728 
L 363.32699 255.823642 
L 363.412144 255.727102 
L 363.96428 255.652016 
L 363.985631 255.57693 
L 364.385507 255.501844 
L 364.406309 255.383851 
L 364.87248 255.308765 
L 364.947536 255.16932 
L 365.508408 255.10496 
L 365.565636 255.040601 
L 365.856972 254.933335 
L 365.939935 254.879702 
L 366.327763 254.793889 
L 366.333562 254.69735 
L 366.485802 254.654443 
L 366.490515 254.547177 
L 366.942928 254.450638 
L 366.942928 254.397005 
L 367.292285 254.289739 
L 367.292285 254.257559 
L 367.996335 254.16102 
L 368.087622 254.053754 
L 368.326633 253.967942 
L 368.37909 253.828496 
L 369.359025 253.72123 
L 369.421477 253.65687 
L 369.923094 253.581784 
L 369.929174 253.506698 
L 370.434046 253.453065 
L 370.434046 253.388706 
L 370.79959 253.292166 
L 370.79959 253.227807 
L 371.062641 253.152721 
L 371.168012 253.066908 
L 371.515227 252.970369 
L 371.517368 252.927462 
L 371.791516 252.820196 
L 371.791516 252.77729 
L 372.358086 252.680751 
L 372.420092 252.562758 
L 372.70594 252.455492 
L 372.70594 252.444766 
L 373.254859 252.348226 
L 373.255889 252.283867 
L 373.46945 252.198054 
L 373.565316 252.133695 
L 373.727272 252.037155 
L 373.826208 251.940616 
L 374.457376 251.83335 
L 374.457376 251.80117 
L 375.318876 251.726084 
L 375.32613 251.672451 
L 375.960267 251.565185 
L 376.008724 251.490099 
L 377.1039 251.382833 
L 377.200541 251.232661 
L 377.721568 251.136122 
L 377.727286 251.082489 
L 378.166326 250.98595 
L 378.273674 250.88941 
L 379.309263 250.825051 
L 379.309263 250.749965 
L 379.884184 250.653425 
L 379.954631 250.578339 
L 380.132094 250.503253 
L 380.145006 250.428167 
L 380.443703 250.320901 
L 380.443703 250.299448 
L 380.989349 250.192182 
L 380.989349 250.170729 
L 381.351387 250.095643 
L 381.351387 250.04201 
L 381.74223 249.934744 
L 381.74223 249.913291 
L 382.499256 249.806025 
L 382.499256 249.741665 
L 382.737868 249.666579 
L 382.737868 249.602219 
L 383.518768 249.50568 
L 383.620821 249.387688 
L 383.994325 249.312602 
L 384.086735 249.226789 
L 384.731085 249.119523 
L 384.773771 249.087343 
L 385.150768 249.00153 
L 385.188566 248.904991 
L 385.489668 248.797725 
L 385.597835 248.6261 
L 386.054253 248.551014 
L 386.054253 248.486654 
L 386.463297 248.379388 
L 386.488823 248.325755 
L 386.937784 248.239943 
L 386.937784 248.207763 
L 387.455805 248.100497 
L 387.455805 248.068317 
L 387.695757 247.961051 
L 387.757549 247.853785 
L 388.604393 247.789426 
L 388.604393 247.735793 
L 388.977833 247.628527 
L 388.977833 247.6178 
L 389.624999 247.521261 
L 389.731632 247.413995 
L 389.984056 247.349636 
L 390.01321 247.231643 
L 390.279089 247.156557 
L 390.279089 247.092197 
L 390.894718 247.017111 
L 390.894718 246.974205 
L 391.679138 246.877666 
L 391.781765 246.748947 
L 392.148366 246.67386 
L 392.20437 246.588048 
L 392.907252 246.480782 
L 392.953895 246.427149 
L 393.194582 246.341336 
L 393.194582 246.309156 
L 393.699729 246.212617 
L 393.810106 245.29013 
L 393.826399 245.204318 
L 393.911144 244.560722 
L 393.990106 244.453456 
L 394.093024 244.013666 
L 394.137667 243.917127 
L 394.242876 243.691868 
L 394.310758 243.595329 
L 394.408965 243.509516 
L 394.458428 243.402251 
L 394.555352 243.209172 
L 394.592555 243.134086 
L 394.699036 242.823015 
L 394.832625 242.726475 
L 394.924082 242.640663 
L 395.096207 242.533397 
L 395.19359 242.436857 
L 395.487159 242.329592 
L 395.548748 242.308138 
L 396.07302 242.200872 
L 396.184123 242.104333 
L 396.311474 242.007794 
L 396.402134 241.911255 
L 396.760434 241.803989 
L 396.851368 241.728902 
L 397.049817 241.632363 
L 397.134952 241.568004 
L 397.215829 241.482191 
L 397.309526 241.407105 
L 397.554292 241.299839 
L 397.614352 241.192573 
L 397.898848 241.096034 
L 397.986418 241.020948 
L 398.232013 240.913682 
L 398.318144 240.827869 
L 398.642299 240.720603 
L 398.744255 240.63479 
L 399.139857 240.527524 
L 399.139857 240.506071 
L 399.683548 240.398805 
L 399.683548 240.377352 
L 400.539488 240.270086 
L 400.640192 240.195 
L 400.997689 240.087734 
L 401.102781 239.905382 
L 401.342802 239.798116 
L 401.436473 239.733757 
L 402.285247 239.637217 
L 402.285247 239.605038 
L 402.821388 239.508498 
L 402.822148 239.454865 
L 403.396364 239.358326 
L 403.396364 239.31542 
L 403.632383 239.229607 
L 403.680104 239.133068 
L 404.320574 239.025802 
L 404.368357 238.993622 
L 404.84721 238.918536 
L 404.931483 238.832723 
L 405.149774 238.725457 
L 405.187106 238.682551 
L 405.537999 238.596738 
L 405.576058 238.500199 
L 406.071546 238.392933 
L 406.071546 238.350027 
L 406.406458 238.296394 
L 406.421143 238.210581 
L 407.338734 238.135495 
L 407.338734 238.060409 
L 407.738879 237.953143 
L 407.738879 237.910236 
L 408.45618 237.802971 
L 408.535876 237.749338 
L 409.253061 237.652798 
L 409.36408 236.966297 
L 409.37924 236.869757 
L 409.468996 236.537233 
L 409.558633 236.45142 
L 409.667307 236.301248 
L 409.836733 236.193982 
L 409.933641 236.086716 
L 410.09562 235.97945 
L 410.10787 235.947271 
L 410.460394 235.840005 
L 410.536521 235.743465 
L 410.948089 235.636199 
L 411.034769 235.496754 
L 411.290879 235.389488 
L 411.331403 235.335855 
L 411.594433 235.228589 
L 411.667243 235.164229 
L 412.035873 235.056964 
L 412.131733 235.014057 
L 412.490611 234.906791 
L 412.546261 234.853158 
L 412.926324 234.767346 
L 413.03649 234.66008 
L 413.275376 234.56354 
L 413.368588 234.509907 
L 413.798941 234.413368 
L 413.828112 234.370462 
L 414.444546 234.273923 
L 414.444546 234.231016 
L 414.67221 234.12375 
L 414.752342 233.973578 
L 415.236852 233.866312 
L 415.294042 233.834132 
L 415.582765 233.726866 
L 415.655053 233.673233 
L 416.103628 233.565968 
L 416.135147 233.480155 
L 416.817235 233.383616 
L 416.877794 233.340709 
L 417.633209 233.27635 
L 417.664505 233.190537 
L 418.285219 233.104724 
L 418.395429 232.729294 
L 418.412242 232.643481 
L 418.513332 232.375316 
L 418.567053 232.278777 
L 418.661946 232.032065 
L 418.849639 231.924799 
L 418.849639 231.903346 
L 419.170077 231.806807 
L 419.242444 231.656635 
L 419.453343 231.560095 
L 419.531827 231.506462 
L 419.824823 231.399196 
L 419.929769 231.238298 
L 420.202339 231.141758 
L 420.245522 231.088125 
L 420.84073 230.980859 
L 420.901259 230.94868 
L 421.399396 230.85214 
L 421.460834 230.798507 
L 421.687401 230.691241 
L 421.734461 230.616155 
L 422.063859 230.508889 
L 422.158265 230.465983 
L 422.756579 230.358717 
L 422.774131 230.326537 
L 423.200399 230.219272 
L 423.238614 230.197818 
L 423.797896 230.090552 
L 423.797896 230.079826 
L 424.339671 230.00474 
L 424.378844 229.94038 
L 424.740105 229.833114 
L 424.839793 229.586403 
L 424.942643 229.479137 
L 425.023969 229.457684 
L 425.401133 229.371871 
L 425.438158 229.296785 
L 425.755168 229.189519 
L 425.755168 229.168066 
L 426.16928 229.0608 
L 426.179156 229.039347 
L 427.122957 228.942807 
L 427.139027 228.910628 
L 427.608092 228.814088 
L 427.65303 228.760455 
L 428.436572 228.653189 
L 428.436572 228.631736 
L 429.315386 228.535197 
L 429.403144 228.481564 
L 429.762364 228.374298 
L 429.859473 228.245579 
L 429.993114 228.138313 
L 430.044352 228.08468 
L 430.30209 227.988141 
L 430.409507 227.913055 
L 430.704904 227.805789 
L 430.780669 227.773609 
L 431.745831 227.687796 
L 431.845544 227.634163 
L 432.416398 227.537624 
L 432.416398 227.516171 
L 432.881518 227.408905 
L 432.881518 227.387452 
L 433.808533 227.280186 
L 433.903836 227.14074 
L 434.169725 227.033474 
L 434.278049 226.979841 
L 434.561356 226.904755 
L 434.650045 226.829669 
L 435.389192 226.73313 
L 435.492637 226.690223 
L 436.32309 226.582958 
L 436.369919 226.561504 
L 437.27159 226.454238 
L 437.364974 226.379152 
L 437.722512 226.271886 
L 437.795577 226.22898 
L 438.346204 226.121714 
L 438.427778 226.100261 
L 438.992265 225.992995 
L 438.992265 225.982269 
L 439.84604 225.875003 
L 439.893468 225.853549 
L 440.260361 225.746284 
L 440.334136 225.660471 
L 440.825631 225.553205 
L 440.825631 225.531752 
L 441.722951 225.435212 
L 441.762302 225.403033 
L 442.993404 225.295767 
L 443.100197 225.263587 
L 443.716851 225.156321 
L 443.781015 225.124141 
L 444.483817 225.016875 
L 444.568252 224.973969 
L 445.2 224.952516 
L 445.2 224.952516 
" style="fill:none;stroke:#00bfbf;stroke-linecap:square;stroke-width:1.5;"/>
   </g>
   <g id="line2d_3">
    <defs>
     <path d="M -6 0 
L 6 0 
M 0 6 
L 0 -6 
" id="m124e208a59" style="stroke:#00bfbf;stroke-width:1.5;"/>
    </defs>
    <g>
     <use style="fill:none;stroke:#00bfbf;stroke-width:1.5;" x="102.810309299" xlink:href="#m124e208a59" y="345.884090424"/>
     <use style="fill:none;stroke:#00bfbf;stroke-width:1.5;" x="195.983289884" xlink:href="#m124e208a59" y="313.854492982"/>
     <use style="fill:none;stroke:#00bfbf;stroke-width:1.5;" x="276.049531834" xlink:href="#m124e208a59" y="283.530423333"/>
     <use style="fill:none;stroke:#00bfbf;stroke-width:1.5;" x="369.043157918" xlink:href="#m124e208a59" y="253.76413636"/>
     <use style="fill:none;stroke:#00bfbf;stroke-width:1.5;" x="433.827230908" xlink:href="#m124e208a59" y="227.258732716"/>
     <use style="fill:none;stroke:#00bfbf;stroke-width:1.5;" x="445.2" xlink:href="#m124e208a59" y="224.952515887"/>
    </g>
   </g>
   <g id="line2d_4"/>
   <g id="line2d_5">
    <path clip-path="url(#pad0502a7ea)" d="M 393.771429 246.158984 
" style="fill:none;stroke:#00bfbf;stroke-linecap:square;"/>
    <defs>
     <path d="M -12 12 
L 12 -12 
M -12 -12 
L 12 12 
" id="md3c453db41" style="stroke:#00bfbf;stroke-width:3.0;"/>
    </defs>
    <g clip-path="url(#pad0502a7ea)">
     <use style="fill:#00bfbf;stroke:#00bfbf;stroke-width:3.0;" x="393.771428571" xlink:href="#md3c453db41" y="246.15898412"/>
    </g>
   </g>
   <g id="line2d_6">
    <path d="M 445.2 224.952516 
L 484.8 352.212778 
" style="fill:none;stroke:#00bfbf;stroke-linecap:square;stroke-width:1.5;"/>
    <g>
     <use style="fill:none;stroke:#00bfbf;stroke-width:1.5;" x="445.2" xlink:href="#m124e208a59" y="224.952515887"/>
     <use style="fill:none;stroke:#00bfbf;stroke-width:1.5;" x="484.8" xlink:href="#m124e208a59" y="352.212778465"/>
    </g>
   </g>
   <g id="line2d_7">
    <path d="M 445.2 359.056343 
L 445.2 16.878125 
" style="fill:none;stroke:#000000;stroke-linecap:square;"/>
   </g>
   <g id="patch_3">
    <path d="M 85.2 13.456343 
L 531.6 13.456343 
" style="fill:none;stroke:#000000;stroke-linecap:square;stroke-linejoin:miter;"/>
   </g>
   <g id="patch_4">
    <path d="M 531.6 359.056343 
L 531.6 13.456343 
" style="fill:none;stroke:#000000;stroke-linecap:square;stroke-linejoin:miter;"/>
   </g>
   <g id="patch_5">
    <path d="M 85.2 359.056343 
L 531.6 359.056343 
" style="fill:none;stroke:#000000;stroke-linecap:square;stroke-linejoin:miter;"/>
   </g>
   <g id="patch_6">
    <path d="M 85.2 359.056343 
L 85.2 13.456343 
" style="fill:none;stroke:#000000;stroke-linecap:square;stroke-linejoin:miter;"/>
   </g>
   <g id="matplotlib.axis_1">
    <g id="xtick_1">
     <g id="line2d_8">
      <path clip-path="url(#pad0502a7ea)" d="M 85.2 359.056343 
L 85.2 13.456343 
" style="fill:none;stroke:#000000;stroke-dasharray:1.000000,3.000000;stroke-dashoffset:0.0;stroke-width:0.5;"/>
     </g>
     <g id="line2d_9">
      <defs>
       <path d="M 0 0 
L 0 -4 
" id="m8e2afbaf28" style="stroke:#000000;stroke-width:0.5;"/>
      </defs>
      <g>
       <use style="stroke:#000000;stroke-width:0.5;" x="85.2" xlink:href="#m8e2afbaf28" y="359.056342822"/>
      </g>
     </g>
     <g id="line2d_10">
      <defs>
       <path d="M 0 0 
L 0 4 
" id="m16b38e00ca" style="stroke:#000000;stroke-width:0.5;"/>
      </defs>
      <g>
       <use style="stroke:#000000;stroke-width:0.5;" x="85.2" xlink:href="#m16b38e00ca" y="13.4563428218"/>
      </g>
     </g>
     <g id="text_1">
      <!-- 0 -->
      <defs>
       <path d="M 31.78125 66.40625 
Q 24.171875 66.40625 20.328125 58.90625 
Q 16.5 51.421875 16.5 36.375 
Q 16.5 21.390625 20.328125 13.890625 
Q 24.171875 6.390625 31.78125 6.390625 
Q 39.453125 6.390625 43.28125 13.890625 
Q 47.125 21.390625 47.125 36.375 
Q 47.125 51.421875 43.28125 58.90625 
Q 39.453125 66.40625 31.78125 66.40625 
M 31.78125 74.21875 
Q 44.046875 74.21875 50.515625 64.515625 
Q 56.984375 54.828125 56.984375 36.375 
Q 56.984375 17.96875 50.515625 8.265625 
Q 44.046875 -1.421875 31.78125 -1.421875 
Q 19.53125 -1.421875 13.0625 8.265625 
Q 6.59375 17.96875 6.59375 36.375 
Q 6.59375 54.828125 13.0625 64.515625 
Q 19.53125 74.21875 31.78125 74.21875 
" id="BitstreamVeraSans-Roman-30"/>
      </defs>
      <g transform="translate(78.8375 378.253217822)scale(0.2 -0.2)">
       <use xlink:href="#BitstreamVeraSans-Roman-30"/>
      </g>
     </g>
    </g>
    <g id="xtick_2">
     <g id="line2d_11">
      <path clip-path="url(#pad0502a7ea)" d="M 136.628571 359.056343 
L 136.628571 13.456343 
" style="fill:none;stroke:#000000;stroke-dasharray:1.000000,3.000000;stroke-dashoffset:0.0;stroke-width:0.5;"/>
     </g>
     <g id="line2d_12">
      <g>
       <use style="stroke:#000000;stroke-width:0.5;" x="136.628571429" xlink:href="#m8e2afbaf28" y="359.056342822"/>
      </g>
     </g>
     <g id="line2d_13">
      <g>
       <use style="stroke:#000000;stroke-width:0.5;" x="136.628571429" xlink:href="#m16b38e00ca" y="13.4563428218"/>
      </g>
     </g>
     <g id="text_2">
      <!-- 1 -->
      <defs>
       <path d="M 12.40625 8.296875 
L 28.515625 8.296875 
L 28.515625 63.921875 
L 10.984375 60.40625 
L 10.984375 69.390625 
L 28.421875 72.90625 
L 38.28125 72.90625 
L 38.28125 8.296875 
L 54.390625 8.296875 
L 54.390625 0 
L 12.40625 0 
z
" id="BitstreamVeraSans-Roman-31"/>
      </defs>
      <g transform="translate(130.266071429 378.253217822)scale(0.2 -0.2)">
       <use xlink:href="#BitstreamVeraSans-Roman-31"/>
      </g>
     </g>
    </g>
    <g id="xtick_3">
     <g id="line2d_14">
      <path clip-path="url(#pad0502a7ea)" d="M 188.057143 359.056343 
L 188.057143 13.456343 
" style="fill:none;stroke:#000000;stroke-dasharray:1.000000,3.000000;stroke-dashoffset:0.0;stroke-width:0.5;"/>
     </g>
     <g id="line2d_15">
      <g>
       <use style="stroke:#000000;stroke-width:0.5;" x="188.057142857" xlink:href="#m8e2afbaf28" y="359.056342822"/>
      </g>
     </g>
     <g id="line2d_16">
      <g>
       <use style="stroke:#000000;stroke-width:0.5;" x="188.057142857" xlink:href="#m16b38e00ca" y="13.4563428218"/>
      </g>
     </g>
     <g id="text_3">
      <!-- 2 -->
      <defs>
       <path d="M 19.1875 8.296875 
L 53.609375 8.296875 
L 53.609375 0 
L 7.328125 0 
L 7.328125 8.296875 
Q 12.9375 14.109375 22.625 23.890625 
Q 32.328125 33.6875 34.8125 36.53125 
Q 39.546875 41.84375 41.421875 45.53125 
Q 43.3125 49.21875 43.3125 52.78125 
Q 43.3125 58.59375 39.234375 62.25 
Q 35.15625 65.921875 28.609375 65.921875 
Q 23.96875 65.921875 18.8125 64.3125 
Q 13.671875 62.703125 7.8125 59.421875 
L 7.8125 69.390625 
Q 13.765625 71.78125 18.9375 73 
Q 24.125 74.21875 28.421875 74.21875 
Q 39.75 74.21875 46.484375 68.546875 
Q 53.21875 62.890625 53.21875 53.421875 
Q 53.21875 48.921875 51.53125 44.890625 
Q 49.859375 40.875 45.40625 35.40625 
Q 44.1875 33.984375 37.640625 27.21875 
Q 31.109375 20.453125 19.1875 8.296875 
" id="BitstreamVeraSans-Roman-32"/>
      </defs>
      <g transform="translate(181.694642857 378.253217822)scale(0.2 -0.2)">
       <use xlink:href="#BitstreamVeraSans-Roman-32"/>
      </g>
     </g>
    </g>
    <g id="xtick_4">
     <g id="line2d_17">
      <path clip-path="url(#pad0502a7ea)" d="M 239.485714 359.056343 
L 239.485714 13.456343 
" style="fill:none;stroke:#000000;stroke-dasharray:1.000000,3.000000;stroke-dashoffset:0.0;stroke-width:0.5;"/>
     </g>
     <g id="line2d_18">
      <g>
       <use style="stroke:#000000;stroke-width:0.5;" x="239.485714286" xlink:href="#m8e2afbaf28" y="359.056342822"/>
      </g>
     </g>
     <g id="line2d_19">
      <g>
       <use style="stroke:#000000;stroke-width:0.5;" x="239.485714286" xlink:href="#m16b38e00ca" y="13.4563428218"/>
      </g>
     </g>
     <g id="text_4">
      <!-- 3 -->
      <defs>
       <path d="M 40.578125 39.3125 
Q 47.65625 37.796875 51.625 33 
Q 55.609375 28.21875 55.609375 21.1875 
Q 55.609375 10.40625 48.1875 4.484375 
Q 40.765625 -1.421875 27.09375 -1.421875 
Q 22.515625 -1.421875 17.65625 -0.515625 
Q 12.796875 0.390625 7.625 2.203125 
L 7.625 11.71875 
Q 11.71875 9.328125 16.59375 8.109375 
Q 21.484375 6.890625 26.8125 6.890625 
Q 36.078125 6.890625 40.9375 10.546875 
Q 45.796875 14.203125 45.796875 21.1875 
Q 45.796875 27.640625 41.28125 31.265625 
Q 36.765625 34.90625 28.71875 34.90625 
L 20.21875 34.90625 
L 20.21875 43.015625 
L 29.109375 43.015625 
Q 36.375 43.015625 40.234375 45.921875 
Q 44.09375 48.828125 44.09375 54.296875 
Q 44.09375 59.90625 40.109375 62.90625 
Q 36.140625 65.921875 28.71875 65.921875 
Q 24.65625 65.921875 20.015625 65.03125 
Q 15.375 64.15625 9.8125 62.3125 
L 9.8125 71.09375 
Q 15.4375 72.65625 20.34375 73.4375 
Q 25.25 74.21875 29.59375 74.21875 
Q 40.828125 74.21875 47.359375 69.109375 
Q 53.90625 64.015625 53.90625 55.328125 
Q 53.90625 49.265625 50.4375 45.09375 
Q 46.96875 40.921875 40.578125 39.3125 
" id="BitstreamVeraSans-Roman-33"/>
      </defs>
      <g transform="translate(233.123214286 378.253217822)scale(0.2 -0.2)">
       <use xlink:href="#BitstreamVeraSans-Roman-33"/>
      </g>
     </g>
    </g>
    <g id="xtick_5">
     <g id="line2d_20">
      <path clip-path="url(#pad0502a7ea)" d="M 290.914286 359.056343 
L 290.914286 13.456343 
" style="fill:none;stroke:#000000;stroke-dasharray:1.000000,3.000000;stroke-dashoffset:0.0;stroke-width:0.5;"/>
     </g>
     <g id="line2d_21">
      <g>
       <use style="stroke:#000000;stroke-width:0.5;" x="290.914285714" xlink:href="#m8e2afbaf28" y="359.056342822"/>
      </g>
     </g>
     <g id="line2d_22">
      <g>
       <use style="stroke:#000000;stroke-width:0.5;" x="290.914285714" xlink:href="#m16b38e00ca" y="13.4563428218"/>
      </g>
     </g>
     <g id="text_5">
      <!-- 4 -->
      <defs>
       <path d="M 37.796875 64.3125 
L 12.890625 25.390625 
L 37.796875 25.390625 
z
M 35.203125 72.90625 
L 47.609375 72.90625 
L 47.609375 25.390625 
L 58.015625 25.390625 
L 58.015625 17.1875 
L 47.609375 17.1875 
L 47.609375 0 
L 37.796875 0 
L 37.796875 17.1875 
L 4.890625 17.1875 
L 4.890625 26.703125 
z
" id="BitstreamVeraSans-Roman-34"/>
      </defs>
      <g transform="translate(284.551785714 378.253217822)scale(0.2 -0.2)">
       <use xlink:href="#BitstreamVeraSans-Roman-34"/>
      </g>
     </g>
    </g>
    <g id="xtick_6">
     <g id="line2d_23">
      <path clip-path="url(#pad0502a7ea)" d="M 342.342857 359.056343 
L 342.342857 13.456343 
" style="fill:none;stroke:#000000;stroke-dasharray:1.000000,3.000000;stroke-dashoffset:0.0;stroke-width:0.5;"/>
     </g>
     <g id="line2d_24">
      <g>
       <use style="stroke:#000000;stroke-width:0.5;" x="342.342857143" xlink:href="#m8e2afbaf28" y="359.056342822"/>
      </g>
     </g>
     <g id="line2d_25">
      <g>
       <use style="stroke:#000000;stroke-width:0.5;" x="342.342857143" xlink:href="#m16b38e00ca" y="13.4563428218"/>
      </g>
     </g>
     <g id="text_6">
      <!-- 5 -->
      <defs>
       <path d="M 10.796875 72.90625 
L 49.515625 72.90625 
L 49.515625 64.59375 
L 19.828125 64.59375 
L 19.828125 46.734375 
Q 21.96875 47.46875 24.109375 47.828125 
Q 26.265625 48.1875 28.421875 48.1875 
Q 40.625 48.1875 47.75 41.5 
Q 54.890625 34.8125 54.890625 23.390625 
Q 54.890625 11.625 47.5625 5.09375 
Q 40.234375 -1.421875 26.90625 -1.421875 
Q 22.3125 -1.421875 17.546875 -0.640625 
Q 12.796875 0.140625 7.71875 1.703125 
L 7.71875 11.625 
Q 12.109375 9.234375 16.796875 8.0625 
Q 21.484375 6.890625 26.703125 6.890625 
Q 35.15625 6.890625 40.078125 11.328125 
Q 45.015625 15.765625 45.015625 23.390625 
Q 45.015625 31 40.078125 35.4375 
Q 35.15625 39.890625 26.703125 39.890625 
Q 22.75 39.890625 18.8125 39.015625 
Q 14.890625 38.140625 10.796875 36.28125 
z
" id="BitstreamVeraSans-Roman-35"/>
      </defs>
      <g transform="translate(335.980357143 378.253217822)scale(0.2 -0.2)">
       <use xlink:href="#BitstreamVeraSans-Roman-35"/>
      </g>
     </g>
    </g>
    <g id="xtick_7">
     <g id="line2d_26">
      <path clip-path="url(#pad0502a7ea)" d="M 393.771429 359.056343 
L 393.771429 13.456343 
" style="fill:none;stroke:#000000;stroke-dasharray:1.000000,3.000000;stroke-dashoffset:0.0;stroke-width:0.5;"/>
     </g>
     <g id="line2d_27">
      <g>
       <use style="stroke:#000000;stroke-width:0.5;" x="393.771428571" xlink:href="#m8e2afbaf28" y="359.056342822"/>
      </g>
     </g>
     <g id="line2d_28">
      <g>
       <use style="stroke:#000000;stroke-width:0.5;" x="393.771428571" xlink:href="#m16b38e00ca" y="13.4563428218"/>
      </g>
     </g>
     <g id="text_7">
      <!-- 6 -->
      <defs>
       <path d="M 33.015625 40.375 
Q 26.375 40.375 22.484375 35.828125 
Q 18.609375 31.296875 18.609375 23.390625 
Q 18.609375 15.53125 22.484375 10.953125 
Q 26.375 6.390625 33.015625 6.390625 
Q 39.65625 6.390625 43.53125 10.953125 
Q 47.40625 15.53125 47.40625 23.390625 
Q 47.40625 31.296875 43.53125 35.828125 
Q 39.65625 40.375 33.015625 40.375 
M 52.59375 71.296875 
L 52.59375 62.3125 
Q 48.875 64.0625 45.09375 64.984375 
Q 41.3125 65.921875 37.59375 65.921875 
Q 27.828125 65.921875 22.671875 59.328125 
Q 17.53125 52.734375 16.796875 39.40625 
Q 19.671875 43.65625 24.015625 45.921875 
Q 28.375 48.1875 33.59375 48.1875 
Q 44.578125 48.1875 50.953125 41.515625 
Q 57.328125 34.859375 57.328125 23.390625 
Q 57.328125 12.15625 50.6875 5.359375 
Q 44.046875 -1.421875 33.015625 -1.421875 
Q 20.359375 -1.421875 13.671875 8.265625 
Q 6.984375 17.96875 6.984375 36.375 
Q 6.984375 53.65625 15.1875 63.9375 
Q 23.390625 74.21875 37.203125 74.21875 
Q 40.921875 74.21875 44.703125 73.484375 
Q 48.484375 72.75 52.59375 71.296875 
" id="BitstreamVeraSans-Roman-36"/>
      </defs>
      <g transform="translate(387.408928571 378.253217822)scale(0.2 -0.2)">
       <use xlink:href="#BitstreamVeraSans-Roman-36"/>
      </g>
     </g>
    </g>
    <g id="xtick_8">
     <g id="line2d_29">
      <path clip-path="url(#pad0502a7ea)" d="M 445.2 359.056343 
L 445.2 13.456343 
" style="fill:none;stroke:#000000;stroke-dasharray:1.000000,3.000000;stroke-dashoffset:0.0;stroke-width:0.5;"/>
     </g>
     <g id="line2d_30">
      <g>
       <use style="stroke:#000000;stroke-width:0.5;" x="445.2" xlink:href="#m8e2afbaf28" y="359.056342822"/>
      </g>
     </g>
     <g id="line2d_31">
      <g>
       <use style="stroke:#000000;stroke-width:0.5;" x="445.2" xlink:href="#m16b38e00ca" y="13.4563428218"/>
      </g>
     </g>
     <g id="text_8">
      <!-- 7 -->
      <defs>
       <path d="M 8.203125 72.90625 
L 55.078125 72.90625 
L 55.078125 68.703125 
L 28.609375 0 
L 18.3125 0 
L 43.21875 64.59375 
L 8.203125 64.59375 
z
" id="BitstreamVeraSans-Roman-37"/>
      </defs>
      <g transform="translate(438.8375 378.253217822)scale(0.2 -0.2)">
       <use xlink:href="#BitstreamVeraSans-Roman-37"/>
      </g>
     </g>
    </g>
    <g id="xtick_9">
     <g id="line2d_32">
      <path clip-path="url(#pad0502a7ea)" d="M 496.628571 359.056343 
L 496.628571 13.456343 
" style="fill:none;stroke:#000000;stroke-dasharray:1.000000,3.000000;stroke-dashoffset:0.0;stroke-width:0.5;"/>
     </g>
     <g id="line2d_33">
      <g>
       <use style="stroke:#000000;stroke-width:0.5;" x="496.628571429" xlink:href="#m8e2afbaf28" y="359.056342822"/>
      </g>
     </g>
     <g id="line2d_34">
      <g>
       <use style="stroke:#000000;stroke-width:0.5;" x="496.628571429" xlink:href="#m16b38e00ca" y="13.4563428218"/>
      </g>
     </g>
     <g id="text_9">
      <!-- 8 -->
      <defs>
       <path d="M 31.78125 34.625 
Q 24.75 34.625 20.71875 30.859375 
Q 16.703125 27.09375 16.703125 20.515625 
Q 16.703125 13.921875 20.71875 10.15625 
Q 24.75 6.390625 31.78125 6.390625 
Q 38.8125 6.390625 42.859375 10.171875 
Q 46.921875 13.96875 46.921875 20.515625 
Q 46.921875 27.09375 42.890625 30.859375 
Q 38.875 34.625 31.78125 34.625 
M 21.921875 38.8125 
Q 15.578125 40.375 12.03125 44.71875 
Q 8.5 49.078125 8.5 55.328125 
Q 8.5 64.0625 14.71875 69.140625 
Q 20.953125 74.21875 31.78125 74.21875 
Q 42.671875 74.21875 48.875 69.140625 
Q 55.078125 64.0625 55.078125 55.328125 
Q 55.078125 49.078125 51.53125 44.71875 
Q 48 40.375 41.703125 38.8125 
Q 48.828125 37.15625 52.796875 32.3125 
Q 56.78125 27.484375 56.78125 20.515625 
Q 56.78125 9.90625 50.3125 4.234375 
Q 43.84375 -1.421875 31.78125 -1.421875 
Q 19.734375 -1.421875 13.25 4.234375 
Q 6.78125 9.90625 6.78125 20.515625 
Q 6.78125 27.484375 10.78125 32.3125 
Q 14.796875 37.15625 21.921875 38.8125 
M 18.3125 54.390625 
Q 18.3125 48.734375 21.84375 45.5625 
Q 25.390625 42.390625 31.78125 42.390625 
Q 38.140625 42.390625 41.71875 45.5625 
Q 45.3125 48.734375 45.3125 54.390625 
Q 45.3125 60.0625 41.71875 63.234375 
Q 38.140625 66.40625 31.78125 66.40625 
Q 25.390625 66.40625 21.84375 63.234375 
Q 18.3125 60.0625 18.3125 54.390625 
" id="BitstreamVeraSans-Roman-38"/>
      </defs>
      <g transform="translate(490.266071429 378.253217822)scale(0.2 -0.2)">
       <use xlink:href="#BitstreamVeraSans-Roman-38"/>
      </g>
     </g>
    </g>
    <g id="xtick_10">
     <g id="line2d_35">
      <defs>
       <path d="M 0 0 
L 0 -2 
" id="mff1e830559" style="stroke:#000000;stroke-width:0.5;"/>
      </defs>
      <g>
       <use style="stroke:#000000;stroke-width:0.5;" x="100.681542634" xlink:href="#mff1e830559" y="359.056342822"/>
      </g>
     </g>
     <g id="line2d_36">
      <defs>
       <path d="M 0 0 
L 0 2 
" id="m22d088f2e1" style="stroke:#000000;stroke-width:0.5;"/>
      </defs>
      <g>
       <use style="stroke:#000000;stroke-width:0.5;" x="100.681542634" xlink:href="#m22d088f2e1" y="13.4563428218"/>
      </g>
     </g>
    </g>
    <g id="xtick_11">
     <g id="line2d_37">
      <g>
       <use style="stroke:#000000;stroke-width:0.5;" x="116.163085268" xlink:href="#mff1e830559" y="359.056342822"/>
      </g>
     </g>
     <g id="line2d_38">
      <g>
       <use style="stroke:#000000;stroke-width:0.5;" x="116.163085268" xlink:href="#m22d088f2e1" y="13.4563428218"/>
      </g>
     </g>
    </g>
    <g id="xtick_12">
     <g id="line2d_39">
      <g>
       <use style="stroke:#000000;stroke-width:0.5;" x="125.219207163" xlink:href="#mff1e830559" y="359.056342822"/>
      </g>
     </g>
     <g id="line2d_40">
      <g>
       <use style="stroke:#000000;stroke-width:0.5;" x="125.219207163" xlink:href="#m22d088f2e1" y="13.4563428218"/>
      </g>
     </g>
    </g>
    <g id="xtick_13">
     <g id="line2d_41">
      <g>
       <use style="stroke:#000000;stroke-width:0.5;" x="131.644627902" xlink:href="#mff1e830559" y="359.056342822"/>
      </g>
     </g>
     <g id="line2d_42">
      <g>
       <use style="stroke:#000000;stroke-width:0.5;" x="131.644627902" xlink:href="#m22d088f2e1" y="13.4563428218"/>
      </g>
     </g>
    </g>
    <g id="xtick_14">
     <g id="line2d_43">
      <g>
       <use style="stroke:#000000;stroke-width:0.5;" x="152.110114063" xlink:href="#mff1e830559" y="359.056342822"/>
      </g>
     </g>
     <g id="line2d_44">
      <g>
       <use style="stroke:#000000;stroke-width:0.5;" x="152.110114063" xlink:href="#m22d088f2e1" y="13.4563428218"/>
      </g>
     </g>
    </g>
    <g id="xtick_15">
     <g id="line2d_45">
      <g>
       <use style="stroke:#000000;stroke-width:0.5;" x="167.591656697" xlink:href="#mff1e830559" y="359.056342822"/>
      </g>
     </g>
     <g id="line2d_46">
      <g>
       <use style="stroke:#000000;stroke-width:0.5;" x="167.591656697" xlink:href="#m22d088f2e1" y="13.4563428218"/>
      </g>
     </g>
    </g>
    <g id="xtick_16">
     <g id="line2d_47">
      <g>
       <use style="stroke:#000000;stroke-width:0.5;" x="176.647778591" xlink:href="#mff1e830559" y="359.056342822"/>
      </g>
     </g>
     <g id="line2d_48">
      <g>
       <use style="stroke:#000000;stroke-width:0.5;" x="176.647778591" xlink:href="#m22d088f2e1" y="13.4563428218"/>
      </g>
     </g>
    </g>
    <g id="xtick_17">
     <g id="line2d_49">
      <g>
       <use style="stroke:#000000;stroke-width:0.5;" x="183.073199331" xlink:href="#mff1e830559" y="359.056342822"/>
      </g>
     </g>
     <g id="line2d_50">
      <g>
       <use style="stroke:#000000;stroke-width:0.5;" x="183.073199331" xlink:href="#m22d088f2e1" y="13.4563428218"/>
      </g>
     </g>
    </g>
    <g id="xtick_18">
     <g id="line2d_51">
      <g>
       <use style="stroke:#000000;stroke-width:0.5;" x="203.538685491" xlink:href="#mff1e830559" y="359.056342822"/>
      </g>
     </g>
     <g id="line2d_52">
      <g>
       <use style="stroke:#000000;stroke-width:0.5;" x="203.538685491" xlink:href="#m22d088f2e1" y="13.4563428218"/>
      </g>
     </g>
    </g>
    <g id="xtick_19">
     <g id="line2d_53">
      <g>
       <use style="stroke:#000000;stroke-width:0.5;" x="219.020228125" xlink:href="#mff1e830559" y="359.056342822"/>
      </g>
     </g>
     <g id="line2d_54">
      <g>
       <use style="stroke:#000000;stroke-width:0.5;" x="219.020228125" xlink:href="#m22d088f2e1" y="13.4563428218"/>
      </g>
     </g>
    </g>
    <g id="xtick_20">
     <g id="line2d_55">
      <g>
       <use style="stroke:#000000;stroke-width:0.5;" x="228.07635002" xlink:href="#mff1e830559" y="359.056342822"/>
      </g>
     </g>
     <g id="line2d_56">
      <g>
       <use style="stroke:#000000;stroke-width:0.5;" x="228.07635002" xlink:href="#m22d088f2e1" y="13.4563428218"/>
      </g>
     </g>
    </g>
    <g id="xtick_21">
     <g id="line2d_57">
      <g>
       <use style="stroke:#000000;stroke-width:0.5;" x="234.50177076" xlink:href="#mff1e830559" y="359.056342822"/>
      </g>
     </g>
     <g id="line2d_58">
      <g>
       <use style="stroke:#000000;stroke-width:0.5;" x="234.50177076" xlink:href="#m22d088f2e1" y="13.4563428218"/>
      </g>
     </g>
    </g>
    <g id="xtick_22">
     <g id="line2d_59">
      <g>
       <use style="stroke:#000000;stroke-width:0.5;" x="254.96725692" xlink:href="#mff1e830559" y="359.056342822"/>
      </g>
     </g>
     <g id="line2d_60">
      <g>
       <use style="stroke:#000000;stroke-width:0.5;" x="254.96725692" xlink:href="#m22d088f2e1" y="13.4563428218"/>
      </g>
     </g>
    </g>
    <g id="xtick_23">
     <g id="line2d_61">
      <g>
       <use style="stroke:#000000;stroke-width:0.5;" x="270.448799554" xlink:href="#mff1e830559" y="359.056342822"/>
      </g>
     </g>
     <g id="line2d_62">
      <g>
       <use style="stroke:#000000;stroke-width:0.5;" x="270.448799554" xlink:href="#m22d088f2e1" y="13.4563428218"/>
      </g>
     </g>
    </g>
    <g id="xtick_24">
     <g id="line2d_63">
      <g>
       <use style="stroke:#000000;stroke-width:0.5;" x="279.504921448" xlink:href="#mff1e830559" y="359.056342822"/>
      </g>
     </g>
     <g id="line2d_64">
      <g>
       <use style="stroke:#000000;stroke-width:0.5;" x="279.504921448" xlink:href="#m22d088f2e1" y="13.4563428218"/>
      </g>
     </g>
    </g>
    <g id="xtick_25">
     <g id="line2d_65">
      <g>
       <use style="stroke:#000000;stroke-width:0.5;" x="285.930342188" xlink:href="#mff1e830559" y="359.056342822"/>
      </g>
     </g>
     <g id="line2d_66">
      <g>
       <use style="stroke:#000000;stroke-width:0.5;" x="285.930342188" xlink:href="#m22d088f2e1" y="13.4563428218"/>
      </g>
     </g>
    </g>
    <g id="xtick_26">
     <g id="line2d_67">
      <g>
       <use style="stroke:#000000;stroke-width:0.5;" x="306.395828348" xlink:href="#mff1e830559" y="359.056342822"/>
      </g>
     </g>
     <g id="line2d_68">
      <g>
       <use style="stroke:#000000;stroke-width:0.5;" x="306.395828348" xlink:href="#m22d088f2e1" y="13.4563428218"/>
      </g>
     </g>
    </g>
    <g id="xtick_27">
     <g id="line2d_69">
      <g>
       <use style="stroke:#000000;stroke-width:0.5;" x="321.877370983" xlink:href="#mff1e830559" y="359.056342822"/>
      </g>
     </g>
     <g id="line2d_70">
      <g>
       <use style="stroke:#000000;stroke-width:0.5;" x="321.877370983" xlink:href="#m22d088f2e1" y="13.4563428218"/>
      </g>
     </g>
    </g>
    <g id="xtick_28">
     <g id="line2d_71">
      <g>
       <use style="stroke:#000000;stroke-width:0.5;" x="330.933492877" xlink:href="#mff1e830559" y="359.056342822"/>
      </g>
     </g>
     <g id="line2d_72">
      <g>
       <use style="stroke:#000000;stroke-width:0.5;" x="330.933492877" xlink:href="#m22d088f2e1" y="13.4563428218"/>
      </g>
     </g>
    </g>
    <g id="xtick_29">
     <g id="line2d_73">
      <g>
       <use style="stroke:#000000;stroke-width:0.5;" x="337.358913617" xlink:href="#mff1e830559" y="359.056342822"/>
      </g>
     </g>
     <g id="line2d_74">
      <g>
       <use style="stroke:#000000;stroke-width:0.5;" x="337.358913617" xlink:href="#m22d088f2e1" y="13.4563428218"/>
      </g>
     </g>
    </g>
    <g id="xtick_30">
     <g id="line2d_75">
      <g>
       <use style="stroke:#000000;stroke-width:0.5;" x="357.824399777" xlink:href="#mff1e830559" y="359.056342822"/>
      </g>
     </g>
     <g id="line2d_76">
      <g>
       <use style="stroke:#000000;stroke-width:0.5;" x="357.824399777" xlink:href="#m22d088f2e1" y="13.4563428218"/>
      </g>
     </g>
    </g>
    <g id="xtick_31">
     <g id="line2d_77">
      <g>
       <use style="stroke:#000000;stroke-width:0.5;" x="373.305942411" xlink:href="#mff1e830559" y="359.056342822"/>
      </g>
     </g>
     <g id="line2d_78">
      <g>
       <use style="stroke:#000000;stroke-width:0.5;" x="373.305942411" xlink:href="#m22d088f2e1" y="13.4563428218"/>
      </g>
     </g>
    </g>
    <g id="xtick_32">
     <g id="line2d_79">
      <g>
       <use style="stroke:#000000;stroke-width:0.5;" x="382.362064305" xlink:href="#mff1e830559" y="359.056342822"/>
      </g>
     </g>
     <g id="line2d_80">
      <g>
       <use style="stroke:#000000;stroke-width:0.5;" x="382.362064305" xlink:href="#m22d088f2e1" y="13.4563428218"/>
      </g>
     </g>
    </g>
    <g id="xtick_33">
     <g id="line2d_81">
      <g>
       <use style="stroke:#000000;stroke-width:0.5;" x="388.787485045" xlink:href="#mff1e830559" y="359.056342822"/>
      </g>
     </g>
     <g id="line2d_82">
      <g>
       <use style="stroke:#000000;stroke-width:0.5;" x="388.787485045" xlink:href="#m22d088f2e1" y="13.4563428218"/>
      </g>
     </g>
    </g>
    <g id="xtick_34">
     <g id="line2d_83">
      <g>
       <use style="stroke:#000000;stroke-width:0.5;" x="409.252971206" xlink:href="#mff1e830559" y="359.056342822"/>
      </g>
     </g>
     <g id="line2d_84">
      <g>
       <use style="stroke:#000000;stroke-width:0.5;" x="409.252971206" xlink:href="#m22d088f2e1" y="13.4563428218"/>
      </g>
     </g>
    </g>
    <g id="xtick_35">
     <g id="line2d_85">
      <g>
       <use style="stroke:#000000;stroke-width:0.5;" x="424.73451384" xlink:href="#mff1e830559" y="359.056342822"/>
      </g>
     </g>
     <g id="line2d_86">
      <g>
       <use style="stroke:#000000;stroke-width:0.5;" x="424.73451384" xlink:href="#m22d088f2e1" y="13.4563428218"/>
      </g>
     </g>
    </g>
    <g id="xtick_36">
     <g id="line2d_87">
      <g>
       <use style="stroke:#000000;stroke-width:0.5;" x="433.790635734" xlink:href="#mff1e830559" y="359.056342822"/>
      </g>
     </g>
     <g id="line2d_88">
      <g>
       <use style="stroke:#000000;stroke-width:0.5;" x="433.790635734" xlink:href="#m22d088f2e1" y="13.4563428218"/>
      </g>
     </g>
    </g>
    <g id="xtick_37">
     <g id="line2d_89">
      <g>
       <use style="stroke:#000000;stroke-width:0.5;" x="440.216056474" xlink:href="#mff1e830559" y="359.056342822"/>
      </g>
     </g>
     <g id="line2d_90">
      <g>
       <use style="stroke:#000000;stroke-width:0.5;" x="440.216056474" xlink:href="#m22d088f2e1" y="13.4563428218"/>
      </g>
     </g>
    </g>
    <g id="xtick_38">
     <g id="line2d_91">
      <g>
       <use style="stroke:#000000;stroke-width:0.5;" x="460.681542634" xlink:href="#mff1e830559" y="359.056342822"/>
      </g>
     </g>
     <g id="line2d_92">
      <g>
       <use style="stroke:#000000;stroke-width:0.5;" x="460.681542634" xlink:href="#m22d088f2e1" y="13.4563428218"/>
      </g>
     </g>
    </g>
    <g id="xtick_39">
     <g id="line2d_93">
      <g>
       <use style="stroke:#000000;stroke-width:0.5;" x="476.163085268" xlink:href="#mff1e830559" y="359.056342822"/>
      </g>
     </g>
     <g id="line2d_94">
      <g>
       <use style="stroke:#000000;stroke-width:0.5;" x="476.163085268" xlink:href="#m22d088f2e1" y="13.4563428218"/>
      </g>
     </g>
    </g>
    <g id="xtick_40">
     <g id="line2d_95">
      <g>
       <use style="stroke:#000000;stroke-width:0.5;" x="485.219207163" xlink:href="#mff1e830559" y="359.056342822"/>
      </g>
     </g>
     <g id="line2d_96">
      <g>
       <use style="stroke:#000000;stroke-width:0.5;" x="485.219207163" xlink:href="#m22d088f2e1" y="13.4563428218"/>
      </g>
     </g>
    </g>
    <g id="xtick_41">
     <g id="line2d_97">
      <g>
       <use style="stroke:#000000;stroke-width:0.5;" x="491.644627902" xlink:href="#mff1e830559" y="359.056342822"/>
      </g>
     </g>
     <g id="line2d_98">
      <g>
       <use style="stroke:#000000;stroke-width:0.5;" x="491.644627902" xlink:href="#m22d088f2e1" y="13.4563428218"/>
      </g>
     </g>
    </g>
    <g id="xtick_42">
     <g id="line2d_99">
      <g>
       <use style="stroke:#000000;stroke-width:0.5;" x="512.110114063" xlink:href="#mff1e830559" y="359.056342822"/>
      </g>
     </g>
     <g id="line2d_100">
      <g>
       <use style="stroke:#000000;stroke-width:0.5;" x="512.110114063" xlink:href="#m22d088f2e1" y="13.4563428218"/>
      </g>
     </g>
    </g>
    <g id="xtick_43">
     <g id="line2d_101">
      <g>
       <use style="stroke:#000000;stroke-width:0.5;" x="527.591656697" xlink:href="#mff1e830559" y="359.056342822"/>
      </g>
     </g>
     <g id="line2d_102">
      <g>
       <use style="stroke:#000000;stroke-width:0.5;" x="527.591656697" xlink:href="#m22d088f2e1" y="13.4563428218"/>
      </g>
     </g>
    </g>
    <g id="text_10">
     <!-- log10 of (# f-evals / dimension) -->
     <defs>
      <path id="BitstreamVeraSans-Roman-20"/>
      <path d="M 51.125 44 
L 36.921875 44 
L 32.8125 27.6875 
L 47.125 27.6875 
z
M 43.796875 71.78125 
L 38.71875 51.515625 
L 52.984375 51.515625 
L 58.109375 71.78125 
L 65.921875 71.78125 
L 60.890625 51.515625 
L 76.125 51.515625 
L 76.125 44 
L 58.984375 44 
L 54.984375 27.6875 
L 70.515625 27.6875 
L 70.515625 20.21875 
L 53.078125 20.21875 
L 48 0 
L 40.1875 0 
L 45.21875 20.21875 
L 30.90625 20.21875 
L 25.875 0 
L 18.015625 0 
L 23.09375 20.21875 
L 7.71875 20.21875 
L 7.71875 27.6875 
L 24.90625 27.6875 
L 29 44 
L 13.28125 44 
L 13.28125 51.515625 
L 30.90625 51.515625 
L 35.890625 71.78125 
z
" id="BitstreamVeraSans-Roman-23"/>
      <path d="M 52 44.1875 
Q 55.375 50.25 60.0625 53.125 
Q 64.75 56 71.09375 56 
Q 79.640625 56 84.28125 50.015625 
Q 88.921875 44.046875 88.921875 33.015625 
L 88.921875 0 
L 79.890625 0 
L 79.890625 32.71875 
Q 79.890625 40.578125 77.09375 44.375 
Q 74.3125 48.1875 68.609375 48.1875 
Q 61.625 48.1875 57.5625 43.546875 
Q 53.515625 38.921875 53.515625 30.90625 
L 53.515625 0 
L 44.484375 0 
L 44.484375 32.71875 
Q 44.484375 40.625 41.703125 44.40625 
Q 38.921875 48.1875 33.109375 48.1875 
Q 26.21875 48.1875 22.15625 43.53125 
Q 18.109375 38.875 18.109375 30.90625 
L 18.109375 0 
L 9.078125 0 
L 9.078125 54.6875 
L 18.109375 54.6875 
L 18.109375 46.1875 
Q 21.1875 51.21875 25.484375 53.609375 
Q 29.78125 56 35.6875 56 
Q 41.65625 56 45.828125 52.96875 
Q 50 49.953125 52 44.1875 
" id="BitstreamVeraSans-Roman-6d"/>
      <path d="M 54.890625 33.015625 
L 54.890625 0 
L 45.90625 0 
L 45.90625 32.71875 
Q 45.90625 40.484375 42.875 44.328125 
Q 39.84375 48.1875 33.796875 48.1875 
Q 26.515625 48.1875 22.3125 43.546875 
Q 18.109375 38.921875 18.109375 30.90625 
L 18.109375 0 
L 9.078125 0 
L 9.078125 54.6875 
L 18.109375 54.6875 
L 18.109375 46.1875 
Q 21.34375 51.125 25.703125 53.5625 
Q 30.078125 56 35.796875 56 
Q 45.21875 56 50.046875 50.171875 
Q 54.890625 44.34375 54.890625 33.015625 
" id="BitstreamVeraSans-Roman-6e"/>
      <path d="M 31 75.875 
Q 24.46875 64.65625 21.28125 53.65625 
Q 18.109375 42.671875 18.109375 31.390625 
Q 18.109375 20.125 21.3125 9.0625 
Q 24.515625 -2 31 -13.1875 
L 23.1875 -13.1875 
Q 15.875 -1.703125 12.234375 9.375 
Q 8.59375 20.453125 8.59375 31.390625 
Q 8.59375 42.28125 12.203125 53.3125 
Q 15.828125 64.359375 23.1875 75.875 
z
" id="BitstreamVeraSans-Roman-28"/>
      <path d="M 30.609375 48.390625 
Q 23.390625 48.390625 19.1875 42.75 
Q 14.984375 37.109375 14.984375 27.296875 
Q 14.984375 17.484375 19.15625 11.84375 
Q 23.34375 6.203125 30.609375 6.203125 
Q 37.796875 6.203125 41.984375 11.859375 
Q 46.1875 17.53125 46.1875 27.296875 
Q 46.1875 37.015625 41.984375 42.703125 
Q 37.796875 48.390625 30.609375 48.390625 
M 30.609375 56 
Q 42.328125 56 49.015625 48.375 
Q 55.71875 40.765625 55.71875 27.296875 
Q 55.71875 13.875 49.015625 6.21875 
Q 42.328125 -1.421875 30.609375 -1.421875 
Q 18.84375 -1.421875 12.171875 6.21875 
Q 5.515625 13.875 5.515625 27.296875 
Q 5.515625 40.765625 12.171875 48.375 
Q 18.84375 56 30.609375 56 
" id="BitstreamVeraSans-Roman-6f"/>
      <path d="M 9.421875 75.984375 
L 18.40625 75.984375 
L 18.40625 0 
L 9.421875 0 
z
" id="BitstreamVeraSans-Roman-6c"/>
      <path d="M 2.984375 54.6875 
L 12.5 54.6875 
L 29.59375 8.796875 
L 46.6875 54.6875 
L 56.203125 54.6875 
L 35.6875 0 
L 23.484375 0 
z
" id="BitstreamVeraSans-Roman-76"/>
      <path d="M 9.421875 54.6875 
L 18.40625 54.6875 
L 18.40625 0 
L 9.421875 0 
z
M 9.421875 75.984375 
L 18.40625 75.984375 
L 18.40625 64.59375 
L 9.421875 64.59375 
z
" id="BitstreamVeraSans-Roman-69"/>
      <path d="M 4.890625 31.390625 
L 31.203125 31.390625 
L 31.203125 23.390625 
L 4.890625 23.390625 
z
" id="BitstreamVeraSans-Roman-2d"/>
      <path d="M 25.390625 72.90625 
L 33.6875 72.90625 
L 8.296875 -9.28125 
L 0 -9.28125 
z
" id="BitstreamVeraSans-Roman-2f"/>
      <path d="M 56.203125 29.59375 
L 56.203125 25.203125 
L 14.890625 25.203125 
Q 15.484375 15.921875 20.484375 11.0625 
Q 25.484375 6.203125 34.421875 6.203125 
Q 39.59375 6.203125 44.453125 7.46875 
Q 49.3125 8.734375 54.109375 11.28125 
L 54.109375 2.78125 
Q 49.265625 0.734375 44.1875 -0.34375 
Q 39.109375 -1.421875 33.890625 -1.421875 
Q 20.796875 -1.421875 13.15625 6.1875 
Q 5.515625 13.8125 5.515625 26.8125 
Q 5.515625 40.234375 12.765625 48.109375 
Q 20.015625 56 32.328125 56 
Q 43.359375 56 49.78125 48.890625 
Q 56.203125 41.796875 56.203125 29.59375 
M 47.21875 32.234375 
Q 47.125 39.59375 43.09375 43.984375 
Q 39.0625 48.390625 32.421875 48.390625 
Q 24.90625 48.390625 20.390625 44.140625 
Q 15.875 39.890625 15.1875 32.171875 
z
" id="BitstreamVeraSans-Roman-65"/>
      <path d="M 45.40625 46.390625 
L 45.40625 75.984375 
L 54.390625 75.984375 
L 54.390625 0 
L 45.40625 0 
L 45.40625 8.203125 
Q 42.578125 3.328125 38.25 0.953125 
Q 33.9375 -1.421875 27.875 -1.421875 
Q 17.96875 -1.421875 11.734375 6.484375 
Q 5.515625 14.40625 5.515625 27.296875 
Q 5.515625 40.1875 11.734375 48.09375 
Q 17.96875 56 27.875 56 
Q 33.9375 56 38.25 53.625 
Q 42.578125 51.265625 45.40625 46.390625 
M 14.796875 27.296875 
Q 14.796875 17.390625 18.875 11.75 
Q 22.953125 6.109375 30.078125 6.109375 
Q 37.203125 6.109375 41.296875 11.75 
Q 45.40625 17.390625 45.40625 27.296875 
Q 45.40625 37.203125 41.296875 42.84375 
Q 37.203125 48.484375 30.078125 48.484375 
Q 22.953125 48.484375 18.875 42.84375 
Q 14.796875 37.203125 14.796875 27.296875 
" id="BitstreamVeraSans-Roman-64"/>
      <path d="M 45.40625 27.984375 
Q 45.40625 37.75 41.375 43.109375 
Q 37.359375 48.484375 30.078125 48.484375 
Q 22.859375 48.484375 18.828125 43.109375 
Q 14.796875 37.75 14.796875 27.984375 
Q 14.796875 18.265625 18.828125 12.890625 
Q 22.859375 7.515625 30.078125 7.515625 
Q 37.359375 7.515625 41.375 12.890625 
Q 45.40625 18.265625 45.40625 27.984375 
M 54.390625 6.78125 
Q 54.390625 -7.171875 48.1875 -13.984375 
Q 42 -20.796875 29.203125 -20.796875 
Q 24.46875 -20.796875 20.265625 -20.09375 
Q 16.0625 -19.390625 12.109375 -17.921875 
L 12.109375 -9.1875 
Q 16.0625 -11.328125 19.921875 -12.34375 
Q 23.78125 -13.375 27.78125 -13.375 
Q 36.625 -13.375 41.015625 -8.765625 
Q 45.40625 -4.15625 45.40625 5.171875 
L 45.40625 9.625 
Q 42.625 4.78125 38.28125 2.390625 
Q 33.9375 0 27.875 0 
Q 17.828125 0 11.671875 7.65625 
Q 5.515625 15.328125 5.515625 27.984375 
Q 5.515625 40.671875 11.671875 48.328125 
Q 17.828125 56 27.875 56 
Q 33.9375 56 38.28125 53.609375 
Q 42.625 51.21875 45.40625 46.390625 
L 45.40625 54.6875 
L 54.390625 54.6875 
z
" id="BitstreamVeraSans-Roman-67"/>
      <path d="M 37.109375 75.984375 
L 37.109375 68.5 
L 28.515625 68.5 
Q 23.6875 68.5 21.796875 66.546875 
Q 19.921875 64.59375 19.921875 59.515625 
L 19.921875 54.6875 
L 34.71875 54.6875 
L 34.71875 47.703125 
L 19.921875 47.703125 
L 19.921875 0 
L 10.890625 0 
L 10.890625 47.703125 
L 2.296875 47.703125 
L 2.296875 54.6875 
L 10.890625 54.6875 
L 10.890625 58.5 
Q 10.890625 67.625 15.140625 71.796875 
Q 19.390625 75.984375 28.609375 75.984375 
z
" id="BitstreamVeraSans-Roman-66"/>
      <path d="M 34.28125 27.484375 
Q 23.390625 27.484375 19.1875 25 
Q 14.984375 22.515625 14.984375 16.5 
Q 14.984375 11.71875 18.140625 8.90625 
Q 21.296875 6.109375 26.703125 6.109375 
Q 34.1875 6.109375 38.703125 11.40625 
Q 43.21875 16.703125 43.21875 25.484375 
L 43.21875 27.484375 
z
M 52.203125 31.203125 
L 52.203125 0 
L 43.21875 0 
L 43.21875 8.296875 
Q 40.140625 3.328125 35.546875 0.953125 
Q 30.953125 -1.421875 24.3125 -1.421875 
Q 15.921875 -1.421875 10.953125 3.296875 
Q 6 8.015625 6 15.921875 
Q 6 25.140625 12.171875 29.828125 
Q 18.359375 34.515625 30.609375 34.515625 
L 43.21875 34.515625 
L 43.21875 35.40625 
Q 43.21875 41.609375 39.140625 45 
Q 35.0625 48.390625 27.6875 48.390625 
Q 23 48.390625 18.546875 47.265625 
Q 14.109375 46.140625 10.015625 43.890625 
L 10.015625 52.203125 
Q 14.9375 54.109375 19.578125 55.046875 
Q 24.21875 56 28.609375 56 
Q 40.484375 56 46.34375 49.84375 
Q 52.203125 43.703125 52.203125 31.203125 
" id="BitstreamVeraSans-Roman-61"/>
      <path d="M 44.28125 53.078125 
L 44.28125 44.578125 
Q 40.484375 46.53125 36.375 47.5 
Q 32.28125 48.484375 27.875 48.484375 
Q 21.1875 48.484375 17.84375 46.4375 
Q 14.5 44.390625 14.5 40.28125 
Q 14.5 37.15625 16.890625 35.375 
Q 19.28125 33.59375 26.515625 31.984375 
L 29.59375 31.296875 
Q 39.15625 29.25 43.1875 25.515625 
Q 47.21875 21.78125 47.21875 15.09375 
Q 47.21875 7.46875 41.1875 3.015625 
Q 35.15625 -1.421875 24.609375 -1.421875 
Q 20.21875 -1.421875 15.453125 -0.5625 
Q 10.6875 0.296875 5.421875 2 
L 5.421875 11.28125 
Q 10.40625 8.6875 15.234375 7.390625 
Q 20.0625 6.109375 24.8125 6.109375 
Q 31.15625 6.109375 34.5625 8.28125 
Q 37.984375 10.453125 37.984375 14.40625 
Q 37.984375 18.0625 35.515625 20.015625 
Q 33.0625 21.96875 24.703125 23.78125 
L 21.578125 24.515625 
Q 13.234375 26.265625 9.515625 29.90625 
Q 5.8125 33.546875 5.8125 39.890625 
Q 5.8125 47.609375 11.28125 51.796875 
Q 16.75 56 26.8125 56 
Q 31.78125 56 36.171875 55.265625 
Q 40.578125 54.546875 44.28125 53.078125 
" id="BitstreamVeraSans-Roman-73"/>
      <path d="M 8.015625 75.875 
L 15.828125 75.875 
Q 23.140625 64.359375 26.78125 53.3125 
Q 30.421875 42.28125 30.421875 31.390625 
Q 30.421875 20.453125 26.78125 9.375 
Q 23.140625 -1.703125 15.828125 -13.1875 
L 8.015625 -13.1875 
Q 14.5 -2 17.703125 9.0625 
Q 20.90625 20.125 20.90625 31.390625 
Q 20.90625 42.671875 17.703125 53.65625 
Q 14.5 64.65625 8.015625 75.875 
" id="BitstreamVeraSans-Roman-29"/>
     </defs>
     <g transform="translate(166.05515625 401.089780322)scale(0.18 -0.18)">
      <use xlink:href="#BitstreamVeraSans-Roman-6c"/>
      <use x="27.783203125" xlink:href="#BitstreamVeraSans-Roman-6f"/>
      <use x="88.96484375" xlink:href="#BitstreamVeraSans-Roman-67"/>
      <use x="152.44140625" xlink:href="#BitstreamVeraSans-Roman-31"/>
      <use x="216.064453125" xlink:href="#BitstreamVeraSans-Roman-30"/>
      <use x="279.6875" xlink:href="#BitstreamVeraSans-Roman-20"/>
      <use x="311.474609375" xlink:href="#BitstreamVeraSans-Roman-6f"/>
      <use x="372.65625" xlink:href="#BitstreamVeraSans-Roman-66"/>
      <use x="407.861328125" xlink:href="#BitstreamVeraSans-Roman-20"/>
      <use x="439.6484375" xlink:href="#BitstreamVeraSans-Roman-28"/>
      <use x="478.662109375" xlink:href="#BitstreamVeraSans-Roman-23"/>
      <use x="562.451171875" xlink:href="#BitstreamVeraSans-Roman-20"/>
      <use x="594.23828125" xlink:href="#BitstreamVeraSans-Roman-66"/>
      <use x="629.365234375" xlink:href="#BitstreamVeraSans-Roman-2d"/>
      <use x="665.44921875" xlink:href="#BitstreamVeraSans-Roman-65"/>
      <use x="726.97265625" xlink:href="#BitstreamVeraSans-Roman-76"/>
      <use x="786.15234375" xlink:href="#BitstreamVeraSans-Roman-61"/>
      <use x="847.431640625" xlink:href="#BitstreamVeraSans-Roman-6c"/>
      <use x="875.21484375" xlink:href="#BitstreamVeraSans-Roman-73"/>
      <use x="927.314453125" xlink:href="#BitstreamVeraSans-Roman-20"/>
      <use x="959.1015625" xlink:href="#BitstreamVeraSans-Roman-2f"/>
      <use x="992.79296875" xlink:href="#BitstreamVeraSans-Roman-20"/>
      <use x="1024.58007812" xlink:href="#BitstreamVeraSans-Roman-64"/>
      <use x="1088.05664062" xlink:href="#BitstreamVeraSans-Roman-69"/>
      <use x="1115.83984375" xlink:href="#BitstreamVeraSans-Roman-6d"/>
      <use x="1213.25195312" xlink:href="#BitstreamVeraSans-Roman-65"/>
      <use x="1274.77539062" xlink:href="#BitstreamVeraSans-Roman-6e"/>
      <use x="1338.15429688" xlink:href="#BitstreamVeraSans-Roman-73"/>
      <use x="1390.25390625" xlink:href="#BitstreamVeraSans-Roman-69"/>
      <use x="1418.03710938" xlink:href="#BitstreamVeraSans-Roman-6f"/>
      <use x="1479.21875" xlink:href="#BitstreamVeraSans-Roman-6e"/>
      <use x="1542.59765625" xlink:href="#BitstreamVeraSans-Roman-29"/>
     </g>
    </g>
   </g>
   <g id="matplotlib.axis_2">
    <g id="ytick_1">
     <g id="line2d_103">
      <path clip-path="url(#pad0502a7ea)" d="M 85.2 359.056343 
L 531.6 359.056343 
" style="fill:none;stroke:#000000;stroke-dasharray:1.000000,3.000000;stroke-dashoffset:0.0;stroke-width:0.5;"/>
     </g>
     <g id="line2d_104">
      <defs>
       <path d="M 0 0 
L 4 0 
" id="mfad92d4f46" style="stroke:#000000;stroke-width:0.5;"/>
      </defs>
      <g>
       <use style="stroke:#000000;stroke-width:0.5;" x="85.2" xlink:href="#mfad92d4f46" y="359.056342822"/>
      </g>
     </g>
     <g id="line2d_105">
      <defs>
       <path d="M 0 0 
L -4 0 
" id="ma6bb0adc49" style="stroke:#000000;stroke-width:0.5;"/>
      </defs>
      <g>
       <use style="stroke:#000000;stroke-width:0.5;" x="531.6" xlink:href="#ma6bb0adc49" y="359.056342822"/>
      </g>
     </g>
     <g id="text_11">
      <!-- 0.0 -->
      <defs>
       <path d="M 10.6875 12.40625 
L 21 12.40625 
L 21 0 
L 10.6875 0 
z
" id="BitstreamVeraSans-Roman-2e"/>
      </defs>
      <g transform="translate(49.39375 364.575092822)scale(0.2 -0.2)">
       <use xlink:href="#BitstreamVeraSans-Roman-30"/>
       <use x="63.623046875" xlink:href="#BitstreamVeraSans-Roman-2e"/>
       <use x="95.41015625" xlink:href="#BitstreamVeraSans-Roman-30"/>
      </g>
     </g>
    </g>
    <g id="ytick_2">
     <g id="line2d_106">
      <path clip-path="url(#pad0502a7ea)" d="M 85.2 290.620699 
L 531.6 290.620699 
" style="fill:none;stroke:#000000;stroke-dasharray:1.000000,3.000000;stroke-dashoffset:0.0;stroke-width:0.5;"/>
     </g>
     <g id="line2d_107">
      <g>
       <use style="stroke:#000000;stroke-width:0.5;" x="85.2" xlink:href="#mfad92d4f46" y="290.620699257"/>
      </g>
     </g>
     <g id="line2d_108">
      <g>
       <use style="stroke:#000000;stroke-width:0.5;" x="531.6" xlink:href="#ma6bb0adc49" y="290.620699257"/>
      </g>
     </g>
     <g id="text_12">
      <!-- 0.2 -->
      <g transform="translate(49.39375 296.139449257)scale(0.2 -0.2)">
       <use xlink:href="#BitstreamVeraSans-Roman-30"/>
       <use x="63.623046875" xlink:href="#BitstreamVeraSans-Roman-2e"/>
       <use x="95.41015625" xlink:href="#BitstreamVeraSans-Roman-32"/>
      </g>
     </g>
    </g>
    <g id="ytick_3">
     <g id="line2d_109">
      <path clip-path="url(#pad0502a7ea)" d="M 85.2 222.185056 
L 531.6 222.185056 
" style="fill:none;stroke:#000000;stroke-dasharray:1.000000,3.000000;stroke-dashoffset:0.0;stroke-width:0.5;"/>
     </g>
     <g id="line2d_110">
      <g>
       <use style="stroke:#000000;stroke-width:0.5;" x="85.2" xlink:href="#mfad92d4f46" y="222.185055693"/>
      </g>
     </g>
     <g id="line2d_111">
      <g>
       <use style="stroke:#000000;stroke-width:0.5;" x="531.6" xlink:href="#ma6bb0adc49" y="222.185055693"/>
      </g>
     </g>
     <g id="text_13">
      <!-- 0.4 -->
      <g transform="translate(49.39375 227.703805693)scale(0.2 -0.2)">
       <use xlink:href="#BitstreamVeraSans-Roman-30"/>
       <use x="63.623046875" xlink:href="#BitstreamVeraSans-Roman-2e"/>
       <use x="95.41015625" xlink:href="#BitstreamVeraSans-Roman-34"/>
      </g>
     </g>
    </g>
    <g id="ytick_4">
     <g id="line2d_112">
      <path clip-path="url(#pad0502a7ea)" d="M 85.2 153.749412 
L 531.6 153.749412 
" style="fill:none;stroke:#000000;stroke-dasharray:1.000000,3.000000;stroke-dashoffset:0.0;stroke-width:0.5;"/>
     </g>
     <g id="line2d_113">
      <g>
       <use style="stroke:#000000;stroke-width:0.5;" x="85.2" xlink:href="#mfad92d4f46" y="153.749412129"/>
      </g>
     </g>
     <g id="line2d_114">
      <g>
       <use style="stroke:#000000;stroke-width:0.5;" x="531.6" xlink:href="#ma6bb0adc49" y="153.749412129"/>
      </g>
     </g>
     <g id="text_14">
      <!-- 0.6 -->
      <g transform="translate(49.39375 159.268162129)scale(0.2 -0.2)">
       <use xlink:href="#BitstreamVeraSans-Roman-30"/>
       <use x="63.623046875" xlink:href="#BitstreamVeraSans-Roman-2e"/>
       <use x="95.41015625" xlink:href="#BitstreamVeraSans-Roman-36"/>
      </g>
     </g>
    </g>
    <g id="ytick_5">
     <g id="line2d_115">
      <path clip-path="url(#pad0502a7ea)" d="M 85.2 85.313769 
L 531.6 85.313769 
" style="fill:none;stroke:#000000;stroke-dasharray:1.000000,3.000000;stroke-dashoffset:0.0;stroke-width:0.5;"/>
     </g>
     <g id="line2d_116">
      <g>
       <use style="stroke:#000000;stroke-width:0.5;" x="85.2" xlink:href="#mfad92d4f46" y="85.3137685644"/>
      </g>
     </g>
     <g id="line2d_117">
      <g>
       <use style="stroke:#000000;stroke-width:0.5;" x="531.6" xlink:href="#ma6bb0adc49" y="85.3137685644"/>
      </g>
     </g>
     <g id="text_15">
      <!-- 0.8 -->
      <g transform="translate(49.39375 90.8325185644)scale(0.2 -0.2)">
       <use xlink:href="#BitstreamVeraSans-Roman-30"/>
       <use x="63.623046875" xlink:href="#BitstreamVeraSans-Roman-2e"/>
       <use x="95.41015625" xlink:href="#BitstreamVeraSans-Roman-38"/>
      </g>
     </g>
    </g>
    <g id="ytick_6">
     <g id="line2d_118">
      <path clip-path="url(#pad0502a7ea)" d="M 85.2 16.878125 
L 531.6 16.878125 
" style="fill:none;stroke:#000000;stroke-dasharray:1.000000,3.000000;stroke-dashoffset:0.0;stroke-width:0.5;"/>
     </g>
     <g id="line2d_119">
      <g>
       <use style="stroke:#000000;stroke-width:0.5;" x="85.2" xlink:href="#mfad92d4f46" y="16.878125"/>
      </g>
     </g>
     <g id="line2d_120">
      <g>
       <use style="stroke:#000000;stroke-width:0.5;" x="531.6" xlink:href="#ma6bb0adc49" y="16.878125"/>
      </g>
     </g>
     <g id="text_16">
      <!-- 1.0 -->
      <g transform="translate(49.39375 22.396875)scale(0.2 -0.2)">
       <use xlink:href="#BitstreamVeraSans-Roman-31"/>
       <use x="63.623046875" xlink:href="#BitstreamVeraSans-Roman-2e"/>
       <use x="95.41015625" xlink:href="#BitstreamVeraSans-Roman-30"/>
      </g>
     </g>
    </g>
    <g id="text_17">
     <!-- Proportion of function+target pairs -->
     <defs>
      <path d="M 19.671875 64.796875 
L 19.671875 37.40625 
L 32.078125 37.40625 
Q 38.96875 37.40625 42.71875 40.96875 
Q 46.484375 44.53125 46.484375 51.125 
Q 46.484375 57.671875 42.71875 61.234375 
Q 38.96875 64.796875 32.078125 64.796875 
z
M 9.8125 72.90625 
L 32.078125 72.90625 
Q 44.34375 72.90625 50.609375 67.359375 
Q 56.890625 61.8125 56.890625 51.125 
Q 56.890625 40.328125 50.609375 34.8125 
Q 44.34375 29.296875 32.078125 29.296875 
L 19.671875 29.296875 
L 19.671875 0 
L 9.8125 0 
z
" id="BitstreamVeraSans-Roman-50"/>
      <path d="M 46 62.703125 
L 46 35.5 
L 73.1875 35.5 
L 73.1875 27.203125 
L 46 27.203125 
L 46 0 
L 37.796875 0 
L 37.796875 27.203125 
L 10.59375 27.203125 
L 10.59375 35.5 
L 37.796875 35.5 
L 37.796875 62.703125 
z
" id="BitstreamVeraSans-Roman-2b"/>
      <path d="M 18.109375 8.203125 
L 18.109375 -20.796875 
L 9.078125 -20.796875 
L 9.078125 54.6875 
L 18.109375 54.6875 
L 18.109375 46.390625 
Q 20.953125 51.265625 25.265625 53.625 
Q 29.59375 56 35.59375 56 
Q 45.5625 56 51.78125 48.09375 
Q 58.015625 40.1875 58.015625 27.296875 
Q 58.015625 14.40625 51.78125 6.484375 
Q 45.5625 -1.421875 35.59375 -1.421875 
Q 29.59375 -1.421875 25.265625 0.953125 
Q 20.953125 3.328125 18.109375 8.203125 
M 48.6875 27.296875 
Q 48.6875 37.203125 44.609375 42.84375 
Q 40.53125 48.484375 33.40625 48.484375 
Q 26.265625 48.484375 22.1875 42.84375 
Q 18.109375 37.203125 18.109375 27.296875 
Q 18.109375 17.390625 22.1875 11.75 
Q 26.265625 6.109375 33.40625 6.109375 
Q 40.53125 6.109375 44.609375 11.75 
Q 48.6875 17.390625 48.6875 27.296875 
" id="BitstreamVeraSans-Roman-70"/>
      <path d="M 18.3125 70.21875 
L 18.3125 54.6875 
L 36.8125 54.6875 
L 36.8125 47.703125 
L 18.3125 47.703125 
L 18.3125 18.015625 
Q 18.3125 11.328125 20.140625 9.421875 
Q 21.96875 7.515625 27.59375 7.515625 
L 36.8125 7.515625 
L 36.8125 0 
L 27.59375 0 
Q 17.1875 0 13.234375 3.875 
Q 9.28125 7.765625 9.28125 18.015625 
L 9.28125 47.703125 
L 2.6875 47.703125 
L 2.6875 54.6875 
L 9.28125 54.6875 
L 9.28125 70.21875 
z
" id="BitstreamVeraSans-Roman-74"/>
      <path d="M 8.5 21.578125 
L 8.5 54.6875 
L 17.484375 54.6875 
L 17.484375 21.921875 
Q 17.484375 14.15625 20.5 10.265625 
Q 23.53125 6.390625 29.59375 6.390625 
Q 36.859375 6.390625 41.078125 11.03125 
Q 45.3125 15.671875 45.3125 23.6875 
L 45.3125 54.6875 
L 54.296875 54.6875 
L 54.296875 0 
L 45.3125 0 
L 45.3125 8.40625 
Q 42.046875 3.421875 37.71875 1 
Q 33.40625 -1.421875 27.6875 -1.421875 
Q 18.265625 -1.421875 13.375 4.4375 
Q 8.5 10.296875 8.5 21.578125 
" id="BitstreamVeraSans-Roman-75"/>
      <path d="M 41.109375 46.296875 
Q 39.59375 47.171875 37.8125 47.578125 
Q 36.03125 48 33.890625 48 
Q 26.265625 48 22.1875 43.046875 
Q 18.109375 38.09375 18.109375 28.8125 
L 18.109375 0 
L 9.078125 0 
L 9.078125 54.6875 
L 18.109375 54.6875 
L 18.109375 46.1875 
Q 20.953125 51.171875 25.484375 53.578125 
Q 30.03125 56 36.53125 56 
Q 37.453125 56 38.578125 55.875 
Q 39.703125 55.765625 41.0625 55.515625 
z
" id="BitstreamVeraSans-Roman-72"/>
      <path d="M 48.78125 52.59375 
L 48.78125 44.1875 
Q 44.96875 46.296875 41.140625 47.34375 
Q 37.3125 48.390625 33.40625 48.390625 
Q 24.65625 48.390625 19.8125 42.84375 
Q 14.984375 37.3125 14.984375 27.296875 
Q 14.984375 17.28125 19.8125 11.734375 
Q 24.65625 6.203125 33.40625 6.203125 
Q 37.3125 6.203125 41.140625 7.25 
Q 44.96875 8.296875 48.78125 10.40625 
L 48.78125 2.09375 
Q 45.015625 0.34375 40.984375 -0.53125 
Q 36.96875 -1.421875 32.421875 -1.421875 
Q 20.0625 -1.421875 12.78125 6.34375 
Q 5.515625 14.109375 5.515625 27.296875 
Q 5.515625 40.671875 12.859375 48.328125 
Q 20.21875 56 33.015625 56 
Q 37.15625 56 41.109375 55.140625 
Q 45.0625 54.296875 48.78125 52.59375 
" id="BitstreamVeraSans-Roman-63"/>
     </defs>
     <g transform="translate(40.6503125 344.245717822)rotate(-90.0)scale(0.18 -0.18)">
      <use xlink:href="#BitstreamVeraSans-Roman-50"/>
      <use x="60.287109375" xlink:href="#BitstreamVeraSans-Roman-72"/>
      <use x="101.369140625" xlink:href="#BitstreamVeraSans-Roman-6f"/>
      <use x="162.55078125" xlink:href="#BitstreamVeraSans-Roman-70"/>
      <use x="226.02734375" xlink:href="#BitstreamVeraSans-Roman-6f"/>
      <use x="287.208984375" xlink:href="#BitstreamVeraSans-Roman-72"/>
      <use x="328.322265625" xlink:href="#BitstreamVeraSans-Roman-74"/>
      <use x="367.53125" xlink:href="#BitstreamVeraSans-Roman-69"/>
      <use x="395.314453125" xlink:href="#BitstreamVeraSans-Roman-6f"/>
      <use x="456.49609375" xlink:href="#BitstreamVeraSans-Roman-6e"/>
      <use x="519.875" xlink:href="#BitstreamVeraSans-Roman-20"/>
      <use x="551.662109375" xlink:href="#BitstreamVeraSans-Roman-6f"/>
      <use x="612.84375" xlink:href="#BitstreamVeraSans-Roman-66"/>
      <use x="648.048828125" xlink:href="#BitstreamVeraSans-Roman-20"/>
      <use x="679.8359375" xlink:href="#BitstreamVeraSans-Roman-66"/>
      <use x="715.041015625" xlink:href="#BitstreamVeraSans-Roman-75"/>
      <use x="778.419921875" xlink:href="#BitstreamVeraSans-Roman-6e"/>
      <use x="841.798828125" xlink:href="#BitstreamVeraSans-Roman-63"/>
      <use x="896.779296875" xlink:href="#BitstreamVeraSans-Roman-74"/>
      <use x="935.98828125" xlink:href="#BitstreamVeraSans-Roman-69"/>
      <use x="963.771484375" xlink:href="#BitstreamVeraSans-Roman-6f"/>
      <use x="1024.953125" xlink:href="#BitstreamVeraSans-Roman-6e"/>
      <use x="1088.33203125" xlink:href="#BitstreamVeraSans-Roman-2b"/>
      <use x="1172.12109375" xlink:href="#BitstreamVeraSans-Roman-74"/>
      <use x="1211.33007812" xlink:href="#BitstreamVeraSans-Roman-61"/>
      <use x="1272.609375" xlink:href="#BitstreamVeraSans-Roman-72"/>
      <use x="1313.70703125" xlink:href="#BitstreamVeraSans-Roman-67"/>
      <use x="1377.18359375" xlink:href="#BitstreamVeraSans-Roman-65"/>
      <use x="1438.70703125" xlink:href="#BitstreamVeraSans-Roman-74"/>
      <use x="1477.91601562" xlink:href="#BitstreamVeraSans-Roman-20"/>
      <use x="1509.703125" xlink:href="#BitstreamVeraSans-Roman-70"/>
      <use x="1573.1796875" xlink:href="#BitstreamVeraSans-Roman-61"/>
      <use x="1634.45898438" xlink:href="#BitstreamVeraSans-Roman-69"/>
      <use x="1662.2421875" xlink:href="#BitstreamVeraSans-Roman-72"/>
      <use x="1703.35546875" xlink:href="#BitstreamVeraSans-Roman-73"/>
     </g>
    </g>
   </g>
   <g id="text_18">
    <!-- 5-D -->
    <defs>
     <path d="M 19.671875 64.796875 
L 19.671875 8.109375 
L 31.59375 8.109375 
Q 46.6875 8.109375 53.6875 14.9375 
Q 60.6875 21.78125 60.6875 36.53125 
Q 60.6875 51.171875 53.6875 57.984375 
Q 46.6875 64.796875 31.59375 64.796875 
z
M 9.8125 72.90625 
L 30.078125 72.90625 
Q 51.265625 72.90625 61.171875 64.09375 
Q 71.09375 55.28125 71.09375 36.53125 
Q 71.09375 17.671875 61.125 8.828125 
Q 51.171875 0 30.078125 0 
L 9.8125 0 
z
" id="BitstreamVeraSans-Roman-44"/>
    </defs>
    <g transform="translate(492.0 356.351840965)scale(0.15 -0.15)">
     <use xlink:href="#BitstreamVeraSans-Roman-35"/>
     <use x="63.623046875" xlink:href="#BitstreamVeraSans-Roman-2d"/>
     <use x="99.70703125" xlink:href="#BitstreamVeraSans-Roman-44"/>
    </g>
   </g>
   <g id="text_19">
    <!-- bbob-biobj - f1-f55 -->
    <defs>
     <path d="M 9.421875 54.6875 
L 18.40625 54.6875 
L 18.40625 -0.984375 
Q 18.40625 -11.421875 14.421875 -16.109375 
Q 10.453125 -20.796875 1.609375 -20.796875 
L -1.8125 -20.796875 
L -1.8125 -13.1875 
L 0.59375 -13.1875 
Q 5.71875 -13.1875 7.5625 -10.8125 
Q 9.421875 -8.453125 9.421875 -0.984375 
z
M 9.421875 75.984375 
L 18.40625 75.984375 
L 18.40625 64.59375 
L 9.421875 64.59375 
z
" id="BitstreamVeraSans-Roman-6a"/>
     <path d="M 48.6875 27.296875 
Q 48.6875 37.203125 44.609375 42.84375 
Q 40.53125 48.484375 33.40625 48.484375 
Q 26.265625 48.484375 22.1875 42.84375 
Q 18.109375 37.203125 18.109375 27.296875 
Q 18.109375 17.390625 22.1875 11.75 
Q 26.265625 6.109375 33.40625 6.109375 
Q 40.53125 6.109375 44.609375 11.75 
Q 48.6875 17.390625 48.6875 27.296875 
M 18.109375 46.390625 
Q 20.953125 51.265625 25.265625 53.625 
Q 29.59375 56 35.59375 56 
Q 45.5625 56 51.78125 48.09375 
Q 58.015625 40.1875 58.015625 27.296875 
Q 58.015625 14.40625 51.78125 6.484375 
Q 45.5625 -1.421875 35.59375 -1.421875 
Q 29.59375 -1.421875 25.265625 0.953125 
Q 20.953125 3.328125 18.109375 8.203125 
L 18.109375 0 
L 9.078125 0 
L 9.078125 75.984375 
L 18.109375 75.984375 
z
" id="BitstreamVeraSans-Roman-62"/>
    </defs>
    <g transform="translate(89.664 33.0273396968)scale(0.1666 -0.1666)">
     <use xlink:href="#BitstreamVeraSans-Roman-62"/>
     <use x="63.4765625" xlink:href="#BitstreamVeraSans-Roman-62"/>
     <use x="126.953125" xlink:href="#BitstreamVeraSans-Roman-6f"/>
     <use x="188.134765625" xlink:href="#BitstreamVeraSans-Roman-62"/>
     <use x="251.611328125" xlink:href="#BitstreamVeraSans-Roman-2d"/>
     <use x="287.6953125" xlink:href="#BitstreamVeraSans-Roman-62"/>
     <use x="351.171875" xlink:href="#BitstreamVeraSans-Roman-69"/>
     <use x="378.955078125" xlink:href="#BitstreamVeraSans-Roman-6f"/>
     <use x="440.13671875" xlink:href="#BitstreamVeraSans-Roman-62"/>
     <use x="503.61328125" xlink:href="#BitstreamVeraSans-Roman-6a"/>
     <use x="531.396484375" xlink:href="#BitstreamVeraSans-Roman-20"/>
     <use x="563.18359375" xlink:href="#BitstreamVeraSans-Roman-2d"/>
     <use x="599.267578125" xlink:href="#BitstreamVeraSans-Roman-20"/>
     <use x="631.0546875" xlink:href="#BitstreamVeraSans-Roman-66"/>
     <use x="666.259765625" xlink:href="#BitstreamVeraSans-Roman-31"/>
     <use x="729.8828125" xlink:href="#BitstreamVeraSans-Roman-2d"/>
     <use x="765.966796875" xlink:href="#BitstreamVeraSans-Roman-66"/>
     <use x="801.171875" xlink:href="#BitstreamVeraSans-Roman-35"/>
     <use x="864.794921875" xlink:href="#BitstreamVeraSans-Roman-35"/>
    </g>
    <!-- 58 targets in 1..-1.0e-4 -->
    <g transform="translate(89.664 51.6828953218)scale(0.1666 -0.1666)">
     <use xlink:href="#BitstreamVeraSans-Roman-35"/>
     <use x="63.623046875" xlink:href="#BitstreamVeraSans-Roman-38"/>
     <use x="127.24609375" xlink:href="#BitstreamVeraSans-Roman-20"/>
     <use x="159.033203125" xlink:href="#BitstreamVeraSans-Roman-74"/>
     <use x="198.2421875" xlink:href="#BitstreamVeraSans-Roman-61"/>
     <use x="259.521484375" xlink:href="#BitstreamVeraSans-Roman-72"/>
     <use x="300.619140625" xlink:href="#BitstreamVeraSans-Roman-67"/>
     <use x="364.095703125" xlink:href="#BitstreamVeraSans-Roman-65"/>
     <use x="425.619140625" xlink:href="#BitstreamVeraSans-Roman-74"/>
     <use x="464.828125" xlink:href="#BitstreamVeraSans-Roman-73"/>
     <use x="516.927734375" xlink:href="#BitstreamVeraSans-Roman-20"/>
     <use x="548.71484375" xlink:href="#BitstreamVeraSans-Roman-69"/>
     <use x="576.498046875" xlink:href="#BitstreamVeraSans-Roman-6e"/>
     <use x="639.876953125" xlink:href="#BitstreamVeraSans-Roman-20"/>
     <use x="671.6640625" xlink:href="#BitstreamVeraSans-Roman-31"/>
     <use x="735.287109375" xlink:href="#BitstreamVeraSans-Roman-2e"/>
     <use x="767.07421875" xlink:href="#BitstreamVeraSans-Roman-2e"/>
     <use x="798.861328125" xlink:href="#BitstreamVeraSans-Roman-2d"/>
     <use x="834.9453125" xlink:href="#BitstreamVeraSans-Roman-31"/>
     <use x="898.568359375" xlink:href="#BitstreamVeraSans-Roman-2e"/>
     <use x="930.35546875" xlink:href="#BitstreamVeraSans-Roman-30"/>
     <use x="993.978515625" xlink:href="#BitstreamVeraSans-Roman-65"/>
     <use x="1055.50195312" xlink:href="#BitstreamVeraSans-Roman-2d"/>
     <use x="1091.5859375" xlink:href="#BitstreamVeraSans-Roman-34"/>
    </g>
    <!-- 5 instances -->
    <g transform="translate(89.664 70.3384509468)scale(0.1666 -0.1666)">
     <use xlink:href="#BitstreamVeraSans-Roman-35"/>
     <use x="63.623046875" xlink:href="#BitstreamVeraSans-Roman-20"/>
     <use x="95.41015625" xlink:href="#BitstreamVeraSans-Roman-69"/>
     <use x="123.193359375" xlink:href="#BitstreamVeraSans-Roman-6e"/>
     <use x="186.572265625" xlink:href="#BitstreamVeraSans-Roman-73"/>
     <use x="238.671875" xlink:href="#BitstreamVeraSans-Roman-74"/>
     <use x="277.880859375" xlink:href="#BitstreamVeraSans-Roman-61"/>
     <use x="339.16015625" xlink:href="#BitstreamVeraSans-Roman-6e"/>
     <use x="402.5390625" xlink:href="#BitstreamVeraSans-Roman-63"/>
     <use x="457.51953125" xlink:href="#BitstreamVeraSans-Roman-65"/>
     <use x="519.04296875" xlink:href="#BitstreamVeraSans-Roman-73"/>
    </g>
   </g>
   <g id="text_20">
    <!-- 1.2 -->
    <g style="fill:#808080;" transform="translate(300.4484375 353.520655322)scale(0.1 -0.1)">
     <use xlink:href="#BitstreamVeraSans-Roman-31"/>
     <use x="63.623046875" xlink:href="#BitstreamVeraSans-Roman-2e"/>
     <use x="95.41015625" xlink:href="#BitstreamVeraSans-Roman-32"/>
    </g>
   </g>
  </g>
 </g>
 <defs>
  <clipPath id="pad0502a7ea">
   <rect height="345.6" width="446.4" x="85.2" y="13.4563428218"/>
  </clipPath>
 </defs>
</svg>
