<?xml version="1.0" encoding="utf-8" standalone="no"?>
<!DOCTYPE svg PUBLIC "-//W3C//DTD SVG 1.1//EN"
  "http://www.w3.org/Graphics/SVG/1.1/DTD/svg11.dtd">
<!-- Created with matplotlib (http://matplotlib.org/) -->
<svg height="407pt" version="1.1" viewBox="0 0 460 407" width="460pt" xmlns="http://www.w3.org/2000/svg" xmlns:xlink="http://www.w3.org/1999/xlink">
 <defs>
  <style type="text/css">
*{stroke-linecap:butt;stroke-linejoin:round;stroke-miterlimit:100000;}
  </style>
 </defs>
 <g id="figure_1">
  <g id="patch_1">
   <path d="M 0 407.7125 
L 460.8 407.7125 
L 460.8 0 
L 0 0 
z
" style="fill:#ffffff;"/>
  </g>
  <g id="axes_1">
   <g id="patch_2">
    <path d="M 7.2 352.8 
L 453.6 352.8 
L 453.6 7.2 
L 7.2 7.2 
z
" style="fill:#ffffff;"/>
   </g>
   <g id="line2d_1">
    <path clip-path="url(#pfdcbca9149)" d="M 209.789226 352.8 
L 209.789226 351.555716 
L 233.993496 351.555716 
L 233.993496 350.311431 
L 240.767571 350.311431 
L 240.767571 349.067147 
L 250.920705 349.067147 
L 250.920705 347.822862 
L 253.198567 347.822862 
L 253.198567 346.578578 
L 258.422861 346.578578 
L 258.422861 345.334293 
L 258.6362 345.334293 
L 258.6362 344.090009 
L 258.950786 344.090009 
L 258.950786 342.845725 
L 260.525368 342.845725 
L 260.525368 341.60144 
L 262.452302 341.60144 
L 262.452302 340.357156 
L 262.668801 340.357156 
L 262.668801 339.112871 
L 263.00561 339.112871 
L 263.00561 337.868587 
L 265.03451 337.868587 
L 265.03451 336.624302 
L 265.69691 336.624302 
L 265.69691 335.380018 
L 266.061674 335.380018 
L 266.061674 334.135734 
L 269.075312 334.135734 
L 269.075312 332.891449 
L 269.737774 332.891449 
L 269.737774 331.647165 
L 270.257664 331.647165 
L 270.350145 329.158596 
L 270.572697 329.158596 
L 270.572697 327.914311 
L 271.112114 327.914311 
L 271.112114 326.670027 
L 272.292015 326.670027 
L 272.292015 325.425743 
L 273.037282 325.425743 
L 273.037282 324.181458 
L 273.665764 324.181458 
L 273.75959 319.20432 
L 273.929488 319.20432 
L 273.929488 317.960036 
L 274.508597 317.960036 
L 274.508597 316.715752 
L 274.643598 316.715752 
L 274.643598 315.471467 
L 276.809354 315.471467 
L 276.809354 314.227183 
L 276.964395 314.227183 
L 276.964395 312.982898 
L 277.26564 312.982898 
L 277.26564 311.738614 
L 277.456541 311.738614 
L 277.456541 310.494329 
L 278.103434 310.494329 
L 278.116865 308.005761 
L 278.909888 308.005761 
L 278.909888 306.761476 
L 279.07979 306.761476 
L 279.07979 305.517192 
L 279.44364 305.517192 
L 279.44364 304.272907 
L 280.220845 304.272907 
L 280.220845 303.028623 
L 280.472893 303.028623 
L 280.472893 301.784338 
L 281.444992 301.784338 
L 281.444992 300.540054 
L 281.846285 300.540054 
L 281.846285 299.29577 
L 282.198061 299.29577 
L 282.198061 298.051485 
L 282.416417 298.051485 
L 282.416417 296.807201 
L 282.83716 296.807201 
L 282.89372 293.074347 
L 282.970678 293.074347 
L 282.970678 291.830063 
L 283.305039 291.830063 
L 283.305039 290.585779 
L 284.23012 290.585779 
L 284.247591 288.09721 
L 284.816824 288.09721 
L 284.816824 286.852925 
L 285.214467 286.852925 
L 285.214467 285.608641 
L 285.564803 285.608641 
L 285.564803 284.364356 
L 286.131752 284.364356 
L 286.236367 281.875788 
L 286.300939 281.875788 
L 286.300939 280.631503 
L 286.54308 280.631503 
L 286.651986 278.142934 
L 287.389046 278.142934 
L 287.389046 276.89865 
L 287.563594 276.89865 
L 287.631059 273.165797 
L 287.728902 273.165797 
L 287.782804 270.677228 
L 288.025352 270.677228 
L 288.136306 268.188659 
L 288.174907 268.188659 
L 288.283779 265.70009 
L 288.441088 265.70009 
L 288.441088 264.455806 
L 288.614374 264.455806 
L 288.690954 261.967237 
L 288.729698 261.967237 
L 288.729698 260.722952 
L 289.505234 260.722952 
L 289.505234 259.478668 
L 289.733788 259.478668 
L 289.768207 256.990099 
L 290.055451 256.990099 
L 290.122988 253.257246 
L 290.331907 253.257246 
L 290.397121 249.524392 
L 290.587138 249.524392 
L 290.671842 247.035824 
L 290.760075 247.035824 
L 290.86649 244.547255 
L 291.185484 244.547255 
L 291.237006 242.058686 
L 291.424879 242.058686 
L 291.424879 240.814401 
L 291.738749 240.814401 
L 291.793446 238.325833 
L 291.919331 238.325833 
L 291.919331 237.081548 
L 292.138971 237.081548 
L 292.138971 235.837264 
L 292.278334 235.837264 
L 292.278334 234.592979 
L 292.457415 234.592979 
L 292.516501 232.10441 
L 292.729114 232.10441 
L 292.729114 230.860126 
L 293.118697 230.860126 
L 293.118697 229.615842 
L 293.264967 229.615842 
L 293.278258 227.127273 
L 293.378526 227.127273 
L 293.412933 224.638704 
L 293.510669 224.638704 
L 293.510669 223.394419 
L 293.761629 223.394419 
L 293.80602 220.905851 
L 293.892496 220.905851 
L 293.990183 218.417282 
L 294.178275 218.417282 
L 294.28119 214.684428 
L 294.347376 214.684428 
L 294.418138 209.707291 
L 294.480721 209.707291 
L 294.480721 208.463006 
L 294.899161 208.463006 
L 294.899161 207.218722 
L 295.317531 207.218722 
L 295.317531 205.974437 
L 295.50885 205.974437 
L 295.562385 203.485869 
L 295.675421 203.485869 
L 295.687924 200.9973 
L 295.858565 200.9973 
L 295.910899 198.508731 
L 296.327037 198.508731 
L 296.327037 197.264446 
L 296.488281 197.264446 
L 296.488281 196.020162 
L 296.750968 196.020162 
L 296.766068 192.287309 
L 297.048964 192.287309 
L 297.060799 189.79874 
L 297.19121 189.79874 
L 297.19121 188.554455 
L 297.38664 188.554455 
L 297.38664 187.310171 
L 297.716676 187.310171 
L 297.716676 186.065887 
L 297.859777 186.065887 
L 297.911135 182.333033 
L 298.202872 182.333033 
L 298.244686 179.844464 
L 298.39647 179.844464 
L 298.487721 176.111611 
L 298.642124 176.111611 
L 298.689135 172.378758 
L 298.844263 172.378758 
L 298.844263 171.134473 
L 298.964626 171.134473 
L 298.964626 169.890189 
L 299.110996 169.890189 
L 299.138979 163.668767 
L 299.29122 163.668767 
L 299.348399 159.935914 
L 299.421477 159.935914 
L 299.421477 158.691629 
L 299.73407 158.691629 
L 299.820921 156.20306 
L 299.906004 156.20306 
L 299.991961 152.470207 
L 300.08912 152.470207 
L 300.177839 149.981638 
L 300.310102 149.981638 
L 300.310102 148.737354 
L 300.450377 148.737354 
L 300.528102 146.248785 
L 300.583391 146.248785 
L 300.583391 145.0045 
L 300.861231 145.0045 
L 300.861231 143.760216 
L 301.001764 143.760216 
L 301.045209 141.271647 
L 301.118517 141.271647 
L 301.228502 137.538794 
L 301.24711 137.538794 
L 301.24711 136.294509 
L 301.546801 136.294509 
L 301.625632 133.805941 
L 301.680903 133.805941 
L 301.709537 131.317372 
L 301.874821 131.317372 
L 301.880239 128.828803 
L 302.135851 128.828803 
L 302.173548 126.340234 
L 302.262216 126.340234 
L 302.284259 123.851665 
L 302.663131 123.851665 
L 302.663131 122.607381 
L 302.873032 122.607381 
L 302.873032 121.363096 
L 303.070736 121.363096 
L 303.070736 120.118812 
L 303.307337 120.118812 
L 303.307337 118.874527 
L 303.473521 118.874527 
L 303.502903 116.385959 
L 303.644995 116.385959 
L 303.644995 115.141674 
L 303.979175 115.141674 
L 303.979175 113.89739 
L 304.123393 113.89739 
L 304.123393 112.653105 
L 304.320972 112.653105 
L 304.404042 108.920252 
L 304.521381 108.920252 
L 304.521381 107.675968 
L 304.685805 107.675968 
L 304.685805 106.431683 
L 304.850491 106.431683 
L 304.928001 102.69883 
L 304.966555 102.69883 
L 304.997421 100.210261 
L 305.0992 100.210261 
L 305.203989 96.477408 
L 305.237106 96.477408 
L 305.237106 95.233123 
L 305.425098 95.233123 
L 305.425098 93.988839 
L 305.584804 93.988839 
L 305.584804 92.744554 
L 305.885676 92.744554 
L 305.967405 90.255986 
L 306.025589 90.255986 
L 306.08712 87.767417 
L 306.255991 87.767417 
L 306.255991 86.523132 
L 306.432894 86.523132 
L 306.473885 84.034563 
L 306.759545 84.034563 
L 306.773029 81.545995 
L 307.068943 81.545995 
L 307.068943 80.30171 
L 307.524542 80.30171 
L 307.524542 79.057426 
L 307.900977 79.057426 
L 307.900977 77.813141 
L 308.258092 77.813141 
L 308.296933 75.324572 
L 308.675659 75.324572 
L 308.675659 74.080288 
L 308.95397 74.080288 
L 308.95397 72.836004 
L 309.148216 72.836004 
L 309.24684 70.347435 
L 309.628699 70.347435 
L 309.681547 67.858866 
L 309.839452 67.858866 
L 309.839452 66.614581 
L 310.105973 66.614581 
L 310.105973 65.370297 
L 310.238874 65.370297 
L 310.238874 64.126013 
L 311.342789 64.126013 
L 311.342789 62.881728 
L 311.955327 62.881728 
L 311.955327 61.637444 
L 312.108301 61.637444 
L 312.108301 60.393159 
L 312.479445 60.393159 
L 312.479445 59.148875 
L 314.270067 59.148875 
L 314.270067 57.90459 
L 314.636162 57.90459 
L 314.636162 56.660306 
L 315.497004 56.660306 
L 315.533142 52.927453 
L 315.641692 52.927453 
L 315.641692 51.683168 
L 315.801556 51.683168 
L 315.801556 50.438884 
L 316.673846 50.438884 
L 316.673846 49.194599 
L 317.103373 49.194599 
L 317.103373 47.950315 
L 317.252863 47.950315 
L 317.252863 46.706031 
L 317.487658 46.706031 
L 317.487658 45.461746 
L 318.207065 45.461746 
L 318.207065 44.217462 
L 318.529463 44.217462 
L 318.529463 42.973177 
L 319.266921 42.973177 
L 319.266921 41.728893 
L 319.818775 41.728893 
L 319.818775 40.484608 
L 320.185941 40.484608 
L 320.293318 37.99604 
L 321.002122 37.99604 
L 321.002122 36.751755 
L 321.491295 36.751755 
L 321.491295 35.507471 
L 322.613361 35.507471 
L 322.613361 34.263186 
L 322.904665 34.263186 
L 322.904665 33.018902 
L 325.41504 33.018902 
L 325.41504 31.774617 
L 329.647797 31.774617 
L 329.727472 29.286049 
L 330.297475 29.286049 
L 330.297475 28.041764 
L 330.970629 28.041764 
L 330.970629 26.79748 
L 331.337109 26.79748 
L 331.337109 25.553195 
L 332.702326 25.553195 
L 332.702326 24.308911 
L 337.770821 24.308911 
L 337.770821 23.064626 
L 338.777697 23.064626 
L 338.777697 21.820342 
L 339.319483 21.820342 
L 339.319483 20.576058 
L 341.682836 20.576058 
L 341.682836 19.331773 
L 342.790771 19.331773 
L 342.790771 18.087489 
L 345.901603 18.087489 
L 345.901603 16.843204 
L 347.881993 16.843204 
L 347.881993 15.59892 
L 351.692671 15.59892 
L 351.692671 14.354635 
L 354.934554 14.354635 
L 354.934554 13.110351 
L 362.480903 13.110351 
L 362.480903 11.866067 
L 390.073129 11.866067 
L 390.073129 10.621782 
L 390.073129 10.621782 
L 453.6 10.621782 
L 453.6 10.621782 
" style="fill:none;stroke:#ff0000;stroke-linecap:square;stroke-width:3.0;"/>
   </g>
   <g id="line2d_2">
    <path clip-path="url(#pfdcbca9149)" d="M 273.037282 352.8 
L 273.037282 351.555716 
L 274.643598 351.555716 
L 274.643598 350.311431 
L 277.865682 350.311431 
L 277.865682 349.067147 
L 278.909888 349.067147 
L 278.909888 347.822862 
L 279.44364 347.822862 
L 279.44364 346.578578 
L 279.664214 346.578578 
L 279.664214 345.334293 
L 280.241784 345.334293 
L 280.241784 344.090009 
L 280.919481 344.090009 
L 280.919481 342.845725 
L 281.578598 342.845725 
L 281.578598 341.60144 
L 281.773607 341.60144 
L 281.773607 340.357156 
L 282.524462 340.357156 
L 282.524462 339.112871 
L 282.83716 339.112871 
L 282.89372 336.624302 
L 283.755004 336.624302 
L 283.755004 335.380018 
L 284.23012 335.380018 
L 284.23012 334.135734 
L 284.749933 334.135734 
L 284.848653 331.647165 
L 285.571543 331.647165 
L 285.571543 330.40288 
L 285.812456 330.40288 
L 285.812456 329.158596 
L 286.291927 329.158596 
L 286.291927 327.914311 
L 286.54308 327.914311 
L 286.651986 324.181458 
L 286.730846 324.181458 
L 286.776923 321.692889 
L 287.037999 321.692889 
L 287.037999 320.448605 
L 287.563594 320.448605 
L 287.631059 317.960036 
L 287.863264 317.960036 
L 287.863264 316.715752 
L 288.25254 316.715752 
L 288.283779 314.227183 
L 288.513482 314.227183 
L 288.513482 312.982898 
L 289.505234 312.982898 
L 289.505234 311.738614 
L 289.938989 311.738614 
L 289.938989 310.494329 
L 290.055451 310.494329 
L 290.055451 309.250045 
L 290.331907 309.250045 
L 290.397121 305.517192 
L 290.671842 305.517192 
L 290.671842 304.272907 
L 291.012752 304.272907 
L 291.012752 303.028623 
L 291.434678 303.028623 
L 291.434678 301.784338 
L 291.793446 301.784338 
L 291.793446 300.540054 
L 291.919331 300.540054 
L 292.007362 296.807201 
L 292.235882 296.807201 
L 292.278334 294.318632 
L 292.426226 294.318632 
L 292.516501 290.585779 
L 292.729114 290.585779 
L 292.729114 289.341494 
L 293.278258 289.341494 
L 293.378526 286.852925 
L 293.412933 286.852925 
L 293.412933 285.608641 
L 293.892496 285.608641 
L 293.990183 281.875788 
L 294.139132 281.875788 
L 294.178275 279.387219 
L 294.252176 279.387219 
L 294.347376 274.410081 
L 294.814502 274.410081 
L 294.899161 271.921512 
L 295.193604 271.921512 
L 295.193604 270.677228 
L 295.317531 270.677228 
L 295.317531 269.432943 
L 295.562385 269.432943 
L 295.562385 268.188659 
L 295.675421 268.188659 
L 295.784489 265.70009 
L 295.910899 265.70009 
L 295.910899 264.455806 
L 296.493539 264.455806 
L 296.493539 263.211521 
L 296.714982 263.211521 
L 296.769096 259.478668 
L 297.008511 259.478668 
L 297.048964 256.990099 
L 297.135126 256.990099 
L 297.19121 254.50153 
L 297.38664 254.50153 
L 297.38664 253.257246 
L 297.859777 253.257246 
L 297.936975 250.768677 
L 298.111085 250.768677 
L 298.111085 249.524392 
L 298.230833 249.524392 
L 298.244686 247.035824 
L 298.642124 247.035824 
L 298.689135 243.30297 
L 298.844263 243.30297 
L 298.844263 242.058686 
L 298.964626 242.058686 
L 298.964626 240.814401 
L 299.110996 240.814401 
L 299.12873 237.081548 
L 299.29122 237.081548 
L 299.343936 234.592979 
L 299.428727 234.592979 
L 299.428727 233.348695 
L 299.73407 233.348695 
L 299.73407 232.10441 
L 299.991961 232.10441 
L 299.991961 230.860126 
L 300.210044 230.860126 
L 300.210044 229.615842 
L 300.332133 229.615842 
L 300.396825 227.127273 
L 300.450377 227.127273 
L 300.528102 224.638704 
L 300.583391 224.638704 
L 300.62323 222.150135 
L 301.045209 222.150135 
L 301.128516 217.172997 
L 301.177435 217.172997 
L 301.24711 214.684428 
L 301.398548 214.684428 
L 301.466324 212.19586 
L 301.546801 212.19586 
L 301.625632 208.463006 
L 301.680903 208.463006 
L 301.751903 204.730153 
L 301.874821 204.730153 
L 301.893921 200.9973 
L 302.025319 200.9973 
L 302.135851 197.264446 
L 302.155473 197.264446 
L 302.206872 193.531593 
L 302.284259 193.531593 
L 302.353781 189.79874 
L 302.47056 189.79874 
L 302.47056 188.554455 
L 302.785097 188.554455 
L 302.878407 182.333033 
L 302.937048 182.333033 
L 302.983673 178.60018 
L 303.070736 178.60018 
L 303.070736 177.355896 
L 303.201832 177.355896 
L 303.307337 174.867327 
L 303.317796 174.867327 
L 303.317796 173.623042 
L 303.486124 173.623042 
L 303.581949 169.890189 
L 303.644995 169.890189 
L 303.736062 164.913051 
L 303.762071 164.913051 
L 303.762071 163.668767 
L 303.979175 163.668767 
L 303.986862 161.180198 
L 304.123393 161.180198 
L 304.227208 158.691629 
L 304.320972 158.691629 
L 304.404042 153.714491 
L 304.521381 153.714491 
L 304.630435 151.225923 
L 304.685805 151.225923 
L 304.685805 149.981638 
L 304.928001 149.981638 
L 304.997421 143.760216 
L 305.0992 143.760216 
L 305.21001 138.783078 
L 305.237106 138.783078 
L 305.328394 135.050225 
L 305.400664 135.050225 
L 305.425098 132.561656 
L 305.584804 132.561656 
L 305.584804 131.317372 
L 305.821288 131.317372 
L 305.885676 128.828803 
L 305.939907 128.828803 
L 306.043038 122.607381 
L 306.08712 122.607381 
L 306.109376 118.874527 
L 306.203015 118.874527 
L 306.20706 116.385959 
L 306.414067 116.385959 
L 306.473885 112.653105 
L 306.672008 112.653105 
L 306.759545 110.164536 
L 307.026163 110.164536 
L 307.026163 108.920252 
L 307.323341 108.920252 
L 307.399262 106.431683 
L 307.766562 106.431683 
L 307.766562 105.187399 
L 307.900977 105.187399 
L 307.946325 102.69883 
L 308.258092 102.69883 
L 308.258092 101.454545 
L 308.397034 101.454545 
L 308.397034 100.210261 
L 308.675659 100.210261 
L 308.675659 98.965977 
L 308.95397 98.965977 
L 308.95397 97.721692 
L 309.137287 97.721692 
L 309.24684 93.988839 
L 309.628699 93.988839 
L 309.681547 91.50027 
L 310.105973 91.50027 
L 310.105973 90.255986 
L 310.238874 90.255986 
L 310.344408 87.767417 
L 310.750376 87.767417 
L 310.750376 86.523132 
L 311.342789 86.523132 
L 311.342789 85.278848 
L 311.955327 85.278848 
L 311.955327 84.034563 
L 312.108301 84.034563 
L 312.108301 82.790279 
L 312.479445 82.790279 
L 312.479445 81.545995 
L 312.711262 81.545995 
L 312.711262 80.30171 
L 313.624894 80.30171 
L 313.624894 79.057426 
L 314.270067 79.057426 
L 314.270067 77.813141 
L 315.497004 77.813141 
L 315.524569 75.324572 
L 315.641692 75.324572 
L 315.641692 74.080288 
L 315.801556 74.080288 
L 315.801556 72.836004 
L 316.673846 72.836004 
L 316.673846 71.591719 
L 317.103373 71.591719 
L 317.103373 70.347435 
L 317.252863 70.347435 
L 317.252863 69.10315 
L 318.069907 69.10315 
L 318.069907 67.858866 
L 318.758097 67.858866 
L 318.758097 66.614581 
L 319.044281 66.614581 
L 319.044281 65.370297 
L 319.266921 65.370297 
L 319.266921 64.126013 
L 319.597462 64.126013 
L 319.597462 62.881728 
L 319.818775 62.881728 
L 319.818775 61.637444 
L 320.185941 61.637444 
L 320.293318 59.148875 
L 320.953272 59.148875 
L 321.002122 56.660306 
L 321.66918 56.660306 
L 321.66918 55.416022 
L 322.194608 55.416022 
L 322.194608 54.171737 
L 322.613361 54.171737 
L 322.613361 52.927453 
L 322.904665 52.927453 
L 322.904665 51.683168 
L 323.650945 51.683168 
L 323.650945 50.438884 
L 324.993495 50.438884 
L 324.993495 49.194599 
L 325.573048 49.194599 
L 325.573048 47.950315 
L 325.974188 47.950315 
L 326.006547 45.461746 
L 326.588284 45.461746 
L 326.588284 44.217462 
L 329.647797 44.217462 
L 329.647797 42.973177 
L 330.297475 42.973177 
L 330.297475 41.728893 
L 330.522642 41.728893 
L 330.522642 40.484608 
L 330.903518 40.484608 
L 330.970629 37.99604 
L 332.702326 37.99604 
L 332.702326 36.751755 
L 334.159461 36.751755 
L 334.159461 35.507471 
L 336.677646 35.507471 
L 336.677646 34.263186 
L 338.405715 34.263186 
L 338.405715 33.018902 
L 338.777697 33.018902 
L 338.777697 31.774617 
L 339.690515 31.774617 
L 339.690515 30.530333 
L 340.968451 30.530333 
L 340.968451 29.286049 
L 342.283501 29.286049 
L 342.283501 28.041764 
L 342.790771 28.041764 
L 342.790771 26.79748 
L 345.759425 26.79748 
L 345.759425 25.553195 
L 346.330049 25.553195 
L 346.330049 24.308911 
L 351.692671 24.308911 
L 351.692671 23.064626 
L 352.538669 23.064626 
L 352.538669 21.820342 
L 354.934554 21.820342 
L 354.934554 20.576058 
L 356.780383 20.576058 
L 356.780383 19.331773 
L 376.842515 19.331773 
L 376.842515 18.087489 
L 382.357596 18.087489 
L 382.357596 16.843204 
L 388.376769 16.843204 
L 388.376769 15.59892 
L 399.974953 15.59892 
L 399.974953 14.354635 
L 400.724596 14.354635 
L 400.724596 13.110351 
L 401.545825 13.110351 
L 401.545825 11.866067 
L 446.076232 11.866067 
L 446.076232 10.621782 
L 446.076232 10.621782 
L 453.6 10.621782 
L 453.6 10.621782 
" style="fill:none;stroke:#00bfbf;stroke-linecap:square;"/>
   </g>
   <g id="line2d_3">
    <path clip-path="url(#pfdcbca9149)" d="M 273.037282 352.8 
L 273.037282 351.555716 
L 274.643598 351.555716 
L 274.643598 350.311431 
L 277.865682 350.311431 
L 277.865682 349.067147 
L 278.909888 349.067147 
L 278.909888 347.822862 
L 279.44364 347.822862 
L 279.44364 346.578578 
L 279.664214 346.578578 
L 279.664214 345.334293 
L 280.241784 345.334293 
L 280.241784 344.090009 
L 280.919481 344.090009 
L 280.919481 342.845725 
L 281.578598 342.845725 
L 281.578598 341.60144 
L 281.773607 341.60144 
L 281.773607 340.357156 
L 282.524462 340.357156 
L 282.524462 339.112871 
L 282.83716 339.112871 
L 282.89372 336.624302 
L 283.755004 336.624302 
L 283.755004 335.380018 
L 284.23012 335.380018 
L 284.23012 334.135734 
L 284.749933 334.135734 
L 284.848653 331.647165 
L 285.571543 331.647165 
L 285.571543 330.40288 
L 285.812456 330.40288 
L 285.812456 329.158596 
L 286.291927 329.158596 
L 286.291927 327.914311 
L 286.54308 327.914311 
L 286.651986 324.181458 
L 286.730846 324.181458 
L 286.776923 321.692889 
L 287.037999 321.692889 
L 287.037999 320.448605 
L 287.563594 320.448605 
L 287.631059 317.960036 
L 287.863264 317.960036 
L 287.863264 316.715752 
L 288.25254 316.715752 
L 288.283779 314.227183 
L 288.513482 314.227183 
L 288.513482 312.982898 
L 289.505234 312.982898 
L 289.505234 311.738614 
L 289.938989 311.738614 
L 289.938989 310.494329 
L 290.055451 310.494329 
L 290.055451 309.250045 
L 290.331907 309.250045 
L 290.397121 305.517192 
L 290.671842 305.517192 
L 290.671842 304.272907 
L 291.012752 304.272907 
L 291.012752 303.028623 
L 291.434678 303.028623 
L 291.434678 301.784338 
L 291.793446 301.784338 
L 291.793446 300.540054 
L 291.919331 300.540054 
L 292.007362 296.807201 
L 292.235882 296.807201 
L 292.278334 294.318632 
L 292.426226 294.318632 
L 292.516501 290.585779 
L 292.729114 290.585779 
L 292.729114 289.341494 
L 293.278258 289.341494 
L 293.378526 286.852925 
L 293.412933 286.852925 
L 293.412933 285.608641 
L 293.892496 285.608641 
L 293.990183 281.875788 
L 294.139132 281.875788 
L 294.178275 279.387219 
L 294.252176 279.387219 
L 294.347376 274.410081 
L 294.814502 274.410081 
L 294.899161 271.921512 
L 295.193604 271.921512 
L 295.193604 270.677228 
L 295.317531 270.677228 
L 295.317531 269.432943 
L 295.562385 269.432943 
L 295.562385 268.188659 
L 295.675421 268.188659 
L 295.784489 265.70009 
L 295.910899 265.70009 
L 295.910899 264.455806 
L 296.493539 264.455806 
L 296.493539 263.211521 
L 296.714982 263.211521 
L 296.769096 259.478668 
L 297.008511 259.478668 
L 297.048964 256.990099 
L 297.135126 256.990099 
L 297.19121 254.50153 
L 297.38664 254.50153 
L 297.38664 253.257246 
L 297.859777 253.257246 
L 297.936975 250.768677 
L 298.111085 250.768677 
L 298.111085 249.524392 
L 298.230833 249.524392 
L 298.244686 247.035824 
L 298.642124 247.035824 
L 298.689135 243.30297 
L 298.844263 243.30297 
L 298.844263 242.058686 
L 298.964626 242.058686 
L 298.964626 240.814401 
L 299.110996 240.814401 
L 299.12873 237.081548 
L 299.29122 237.081548 
L 299.343936 234.592979 
L 299.428727 234.592979 
L 299.428727 233.348695 
L 299.73407 233.348695 
L 299.73407 232.10441 
L 299.991961 232.10441 
L 299.991961 230.860126 
L 300.210044 230.860126 
L 300.210044 229.615842 
L 300.332133 229.615842 
L 300.396825 227.127273 
L 300.450377 227.127273 
L 300.528102 224.638704 
L 300.583391 224.638704 
L 300.62323 222.150135 
L 301.045209 222.150135 
L 301.128516 217.172997 
L 301.177435 217.172997 
L 301.24711 214.684428 
L 301.398548 214.684428 
L 301.466324 212.19586 
L 301.546801 212.19586 
L 301.625632 208.463006 
L 301.680903 208.463006 
L 301.751903 204.730153 
L 301.874821 204.730153 
L 301.893921 200.9973 
L 302.025319 200.9973 
L 302.135851 197.264446 
L 302.155473 197.264446 
L 302.206872 193.531593 
L 302.284259 193.531593 
L 302.353781 189.79874 
L 302.47056 189.79874 
L 302.47056 188.554455 
L 302.785097 188.554455 
L 302.878407 182.333033 
L 302.937048 182.333033 
L 302.983673 178.60018 
L 303.070736 178.60018 
L 303.070736 177.355896 
L 303.201832 177.355896 
L 303.307337 174.867327 
L 303.317796 174.867327 
L 303.317796 173.623042 
L 303.486124 173.623042 
L 303.581949 169.890189 
L 303.644995 169.890189 
L 303.736062 164.913051 
L 303.762071 164.913051 
L 303.762071 163.668767 
L 303.979175 163.668767 
L 303.986862 161.180198 
L 304.123393 161.180198 
L 304.227208 158.691629 
L 304.320972 158.691629 
L 304.404042 153.714491 
L 304.521381 153.714491 
L 304.630435 151.225923 
L 304.685805 151.225923 
L 304.685805 149.981638 
L 304.928001 149.981638 
L 304.997421 143.760216 
L 305.0992 143.760216 
L 305.21001 138.783078 
L 305.237106 138.783078 
L 305.328394 135.050225 
L 305.400664 135.050225 
L 305.425098 132.561656 
L 305.584804 132.561656 
L 305.584804 131.317372 
L 305.821288 131.317372 
L 305.885676 128.828803 
L 305.939907 128.828803 
L 306.043038 122.607381 
L 306.08712 122.607381 
L 306.109376 118.874527 
L 306.203015 118.874527 
L 306.20706 116.385959 
L 306.414067 116.385959 
L 306.473885 112.653105 
L 306.672008 112.653105 
L 306.759545 110.164536 
L 307.026163 110.164536 
L 307.026163 108.920252 
L 307.323341 108.920252 
L 307.399262 106.431683 
L 307.766562 106.431683 
L 307.766562 105.187399 
L 307.900977 105.187399 
L 307.946325 102.69883 
L 308.258092 102.69883 
L 308.258092 101.454545 
L 308.397034 101.454545 
L 308.397034 100.210261 
L 308.675659 100.210261 
L 308.675659 98.965977 
L 308.95397 98.965977 
L 308.95397 97.721692 
L 309.137287 97.721692 
L 309.24684 93.988839 
L 309.628699 93.988839 
L 309.681547 91.50027 
L 310.105973 91.50027 
L 310.105973 90.255986 
L 310.238874 90.255986 
L 310.344408 87.767417 
L 310.750376 87.767417 
L 310.750376 86.523132 
L 311.342789 86.523132 
L 311.342789 85.278848 
L 311.955327 85.278848 
L 311.955327 84.034563 
L 312.108301 84.034563 
L 312.108301 82.790279 
L 312.479445 82.790279 
L 312.479445 81.545995 
L 312.711262 81.545995 
L 312.711262 80.30171 
L 313.624894 80.30171 
L 313.624894 79.057426 
L 314.270067 79.057426 
L 314.270067 77.813141 
L 315.497004 77.813141 
L 315.524569 75.324572 
L 315.641692 75.324572 
L 315.641692 74.080288 
L 315.801556 74.080288 
L 315.801556 72.836004 
L 316.673846 72.836004 
L 316.673846 71.591719 
L 317.103373 71.591719 
L 317.103373 70.347435 
L 317.252863 70.347435 
L 317.252863 69.10315 
L 318.069907 69.10315 
L 318.069907 67.858866 
L 318.758097 67.858866 
L 318.758097 66.614581 
L 319.044281 66.614581 
L 319.044281 65.370297 
L 319.266921 65.370297 
L 319.266921 64.126013 
L 319.597462 64.126013 
L 319.597462 62.881728 
L 319.818775 62.881728 
L 319.818775 61.637444 
L 320.185941 61.637444 
L 320.293318 59.148875 
L 320.953272 59.148875 
L 321.002122 56.660306 
L 321.66918 56.660306 
L 321.66918 55.416022 
L 322.194608 55.416022 
L 322.194608 54.171737 
L 322.613361 54.171737 
L 322.613361 52.927453 
L 322.904665 52.927453 
L 322.904665 51.683168 
L 323.650945 51.683168 
L 323.650945 50.438884 
L 324.993495 50.438884 
L 324.993495 49.194599 
L 325.573048 49.194599 
L 325.573048 47.950315 
L 325.974188 47.950315 
L 326.006547 45.461746 
L 326.588284 45.461746 
L 326.588284 44.217462 
L 329.647797 44.217462 
L 329.647797 42.973177 
L 330.297475 42.973177 
L 330.297475 41.728893 
L 330.522642 41.728893 
L 330.522642 40.484608 
L 330.903518 40.484608 
L 330.970629 37.99604 
L 332.702326 37.99604 
L 332.702326 36.751755 
L 334.159461 36.751755 
L 334.159461 35.507471 
L 336.677646 35.507471 
L 336.677646 34.263186 
L 338.405715 34.263186 
L 338.405715 33.018902 
L 338.777697 33.018902 
L 338.777697 31.774617 
L 339.690515 31.774617 
L 339.690515 30.530333 
L 340.968451 30.530333 
L 340.968451 29.286049 
L 342.283501 29.286049 
L 342.283501 28.041764 
L 342.790771 28.041764 
L 342.790771 26.79748 
L 345.759425 26.79748 
L 345.759425 25.553195 
L 346.330049 25.553195 
L 346.330049 24.308911 
L 351.692671 24.308911 
L 351.692671 23.064626 
L 352.538669 23.064626 
L 352.538669 21.820342 
L 354.934554 21.820342 
L 354.934554 20.576058 
L 356.780383 20.576058 
L 356.780383 19.331773 
L 376.842515 19.331773 
L 376.842515 18.087489 
L 382.357596 18.087489 
L 382.357596 16.843204 
L 388.376769 16.843204 
L 388.376769 15.59892 
L 399.974953 15.59892 
L 399.974953 14.354635 
L 400.724596 14.354635 
L 400.724596 13.110351 
L 401.545825 13.110351 
L 401.545825 11.866067 
L 446.076232 11.866067 
L 446.076232 10.621782 
L 446.076232 10.621782 
L 453.6 10.621782 
L 453.6 10.621782 
" style="fill:none;stroke:#bf00bf;stroke-linecap:square;"/>
   </g>
   <g id="line2d_4">
    <path clip-path="url(#pfdcbca9149)" d="M 273.037282 352.8 
L 273.037282 351.555716 
L 274.643598 351.555716 
L 274.643598 350.311431 
L 277.865682 350.311431 
L 277.865682 349.067147 
L 278.909888 349.067147 
L 278.909888 347.822862 
L 279.44364 347.822862 
L 279.44364 346.578578 
L 279.664214 346.578578 
L 279.664214 345.334293 
L 280.241784 345.334293 
L 280.241784 344.090009 
L 280.919481 344.090009 
L 280.919481 342.845725 
L 281.578598 342.845725 
L 281.578598 341.60144 
L 281.773607 341.60144 
L 281.773607 340.357156 
L 282.524462 340.357156 
L 282.524462 339.112871 
L 282.83716 339.112871 
L 282.89372 336.624302 
L 283.755004 336.624302 
L 283.755004 335.380018 
L 284.23012 335.380018 
L 284.23012 334.135734 
L 284.749933 334.135734 
L 284.848653 331.647165 
L 285.571543 331.647165 
L 285.571543 330.40288 
L 285.812456 330.40288 
L 285.812456 329.158596 
L 286.291927 329.158596 
L 286.291927 327.914311 
L 286.54308 327.914311 
L 286.651986 324.181458 
L 286.730846 324.181458 
L 286.776923 321.692889 
L 287.037999 321.692889 
L 287.037999 320.448605 
L 287.563594 320.448605 
L 287.631059 317.960036 
L 287.863264 317.960036 
L 287.863264 316.715752 
L 288.25254 316.715752 
L 288.283779 314.227183 
L 288.513482 314.227183 
L 288.513482 312.982898 
L 289.505234 312.982898 
L 289.505234 311.738614 
L 289.938989 311.738614 
L 289.938989 310.494329 
L 290.055451 310.494329 
L 290.055451 309.250045 
L 290.331907 309.250045 
L 290.397121 305.517192 
L 290.671842 305.517192 
L 290.671842 304.272907 
L 291.012752 304.272907 
L 291.012752 303.028623 
L 291.434678 303.028623 
L 291.434678 301.784338 
L 291.793446 301.784338 
L 291.793446 300.540054 
L 291.919331 300.540054 
L 292.007362 296.807201 
L 292.235882 296.807201 
L 292.278334 294.318632 
L 292.426226 294.318632 
L 292.516501 290.585779 
L 292.729114 290.585779 
L 292.729114 289.341494 
L 293.278258 289.341494 
L 293.378526 286.852925 
L 293.412933 286.852925 
L 293.412933 285.608641 
L 293.892496 285.608641 
L 293.990183 281.875788 
L 294.139132 281.875788 
L 294.178275 279.387219 
L 294.252176 279.387219 
L 294.347376 274.410081 
L 294.814502 274.410081 
L 294.899161 271.921512 
L 295.193604 271.921512 
L 295.193604 270.677228 
L 295.317531 270.677228 
L 295.317531 269.432943 
L 295.562385 269.432943 
L 295.562385 268.188659 
L 295.675421 268.188659 
L 295.784489 265.70009 
L 295.910899 265.70009 
L 295.910899 264.455806 
L 296.493539 264.455806 
L 296.493539 263.211521 
L 296.714982 263.211521 
L 296.769096 259.478668 
L 297.008511 259.478668 
L 297.048964 256.990099 
L 297.135126 256.990099 
L 297.19121 254.50153 
L 297.38664 254.50153 
L 297.38664 253.257246 
L 297.859777 253.257246 
L 297.936975 250.768677 
L 298.111085 250.768677 
L 298.111085 249.524392 
L 298.230833 249.524392 
L 298.244686 247.035824 
L 298.642124 247.035824 
L 298.689135 243.30297 
L 298.844263 243.30297 
L 298.844263 242.058686 
L 298.964626 242.058686 
L 298.964626 240.814401 
L 299.110996 240.814401 
L 299.12873 237.081548 
L 299.29122 237.081548 
L 299.343936 234.592979 
L 299.428727 234.592979 
L 299.428727 233.348695 
L 299.73407 233.348695 
L 299.73407 232.10441 
L 299.991961 232.10441 
L 299.991961 230.860126 
L 300.210044 230.860126 
L 300.210044 229.615842 
L 300.332133 229.615842 
L 300.396825 227.127273 
L 300.450377 227.127273 
L 300.528102 224.638704 
L 300.583391 224.638704 
L 300.62323 222.150135 
L 301.045209 222.150135 
L 301.128516 217.172997 
L 301.177435 217.172997 
L 301.24711 214.684428 
L 301.398548 214.684428 
L 301.466324 212.19586 
L 301.546801 212.19586 
L 301.625632 208.463006 
L 301.680903 208.463006 
L 301.751903 204.730153 
L 301.874821 204.730153 
L 301.893921 200.9973 
L 302.025319 200.9973 
L 302.135851 197.264446 
L 302.155473 197.264446 
L 302.206872 193.531593 
L 302.284259 193.531593 
L 302.353781 189.79874 
L 302.47056 189.79874 
L 302.47056 188.554455 
L 302.785097 188.554455 
L 302.878407 182.333033 
L 302.937048 182.333033 
L 302.983673 178.60018 
L 303.070736 178.60018 
L 303.070736 177.355896 
L 303.201832 177.355896 
L 303.307337 174.867327 
L 303.317796 174.867327 
L 303.317796 173.623042 
L 303.486124 173.623042 
L 303.581949 169.890189 
L 303.644995 169.890189 
L 303.736062 164.913051 
L 303.762071 164.913051 
L 303.762071 163.668767 
L 303.979175 163.668767 
L 303.986862 161.180198 
L 304.123393 161.180198 
L 304.227208 158.691629 
L 304.320972 158.691629 
L 304.404042 153.714491 
L 304.521381 153.714491 
L 304.630435 151.225923 
L 304.685805 151.225923 
L 304.685805 149.981638 
L 304.928001 149.981638 
L 304.997421 143.760216 
L 305.0992 143.760216 
L 305.21001 138.783078 
L 305.237106 138.783078 
L 305.328394 135.050225 
L 305.400664 135.050225 
L 305.425098 132.561656 
L 305.584804 132.561656 
L 305.584804 131.317372 
L 305.821288 131.317372 
L 305.885676 128.828803 
L 305.939907 128.828803 
L 306.043038 122.607381 
L 306.08712 122.607381 
L 306.109376 118.874527 
L 306.203015 118.874527 
L 306.20706 116.385959 
L 306.414067 116.385959 
L 306.473885 112.653105 
L 306.672008 112.653105 
L 306.759545 110.164536 
L 307.026163 110.164536 
L 307.026163 108.920252 
L 307.323341 108.920252 
L 307.399262 106.431683 
L 307.766562 106.431683 
L 307.766562 105.187399 
L 307.900977 105.187399 
L 307.946325 102.69883 
L 308.258092 102.69883 
L 308.258092 101.454545 
L 308.397034 101.454545 
L 308.397034 100.210261 
L 308.675659 100.210261 
L 308.675659 98.965977 
L 308.95397 98.965977 
L 308.95397 97.721692 
L 309.137287 97.721692 
L 309.24684 93.988839 
L 309.628699 93.988839 
L 309.681547 91.50027 
L 310.105973 91.50027 
L 310.105973 90.255986 
L 310.238874 90.255986 
L 310.344408 87.767417 
L 310.750376 87.767417 
L 310.750376 86.523132 
L 311.342789 86.523132 
L 311.342789 85.278848 
L 311.955327 85.278848 
L 311.955327 84.034563 
L 312.108301 84.034563 
L 312.108301 82.790279 
L 312.479445 82.790279 
L 312.479445 81.545995 
L 312.711262 81.545995 
L 312.711262 80.30171 
L 313.624894 80.30171 
L 313.624894 79.057426 
L 314.270067 79.057426 
L 314.270067 77.813141 
L 315.497004 77.813141 
L 315.524569 75.324572 
L 315.641692 75.324572 
L 315.641692 74.080288 
L 315.801556 74.080288 
L 315.801556 72.836004 
L 316.673846 72.836004 
L 316.673846 71.591719 
L 317.103373 71.591719 
L 317.103373 70.347435 
L 317.252863 70.347435 
L 317.252863 69.10315 
L 318.069907 69.10315 
L 318.069907 67.858866 
L 318.758097 67.858866 
L 318.758097 66.614581 
L 319.044281 66.614581 
L 319.044281 65.370297 
L 319.266921 65.370297 
L 319.266921 64.126013 
L 319.597462 64.126013 
L 319.597462 62.881728 
L 319.818775 62.881728 
L 319.818775 61.637444 
L 320.185941 61.637444 
L 320.293318 59.148875 
L 320.953272 59.148875 
L 321.002122 56.660306 
L 321.66918 56.660306 
L 321.66918 55.416022 
L 322.194608 55.416022 
L 322.194608 54.171737 
L 322.613361 54.171737 
L 322.613361 52.927453 
L 322.904665 52.927453 
L 322.904665 51.683168 
L 323.650945 51.683168 
L 323.650945 50.438884 
L 324.993495 50.438884 
L 324.993495 49.194599 
L 325.573048 49.194599 
L 325.573048 47.950315 
L 325.974188 47.950315 
L 326.006547 45.461746 
L 326.588284 45.461746 
L 326.588284 44.217462 
L 329.647797 44.217462 
L 329.647797 42.973177 
L 330.297475 42.973177 
L 330.297475 41.728893 
L 330.522642 41.728893 
L 330.522642 40.484608 
L 330.903518 40.484608 
L 330.970629 37.99604 
L 332.702326 37.99604 
L 332.702326 36.751755 
L 334.159461 36.751755 
L 334.159461 35.507471 
L 336.677646 35.507471 
L 336.677646 34.263186 
L 338.405715 34.263186 
L 338.405715 33.018902 
L 338.777697 33.018902 
L 338.777697 31.774617 
L 339.690515 31.774617 
L 339.690515 30.530333 
L 340.968451 30.530333 
L 340.968451 29.286049 
L 342.283501 29.286049 
L 342.283501 28.041764 
L 342.790771 28.041764 
L 342.790771 26.79748 
L 345.759425 26.79748 
L 345.759425 25.553195 
L 346.330049 25.553195 
L 346.330049 24.308911 
L 351.692671 24.308911 
L 351.692671 23.064626 
L 352.538669 23.064626 
L 352.538669 21.820342 
L 354.934554 21.820342 
L 354.934554 20.576058 
L 356.780383 20.576058 
L 356.780383 19.331773 
L 376.842515 19.331773 
L 376.842515 18.087489 
L 382.357596 18.087489 
L 382.357596 16.843204 
L 388.376769 16.843204 
L 388.376769 15.59892 
L 399.974953 15.59892 
L 399.974953 14.354635 
L 400.724596 14.354635 
L 400.724596 13.110351 
L 401.545825 13.110351 
L 401.545825 11.866067 
L 446.076232 11.866067 
L 446.076232 10.621782 
L 446.076232 10.621782 
L 453.6 10.621782 
L 453.6 10.621782 
" style="fill:none;stroke:#000000;stroke-linecap:square;"/>
   </g>
   <g id="line2d_5">
    <path clip-path="url(#pfdcbca9149)" d="M 273.037282 352.8 
L 273.037282 351.555716 
L 274.643598 351.555716 
L 274.643598 350.311431 
L 277.865682 350.311431 
L 277.865682 349.067147 
L 278.909888 349.067147 
L 278.909888 347.822862 
L 279.44364 347.822862 
L 279.44364 346.578578 
L 279.664214 346.578578 
L 279.664214 345.334293 
L 280.241784 345.334293 
L 280.241784 344.090009 
L 280.919481 344.090009 
L 280.919481 342.845725 
L 281.578598 342.845725 
L 281.578598 341.60144 
L 281.773607 341.60144 
L 281.773607 340.357156 
L 282.524462 340.357156 
L 282.524462 339.112871 
L 282.83716 339.112871 
L 282.89372 336.624302 
L 283.755004 336.624302 
L 283.755004 335.380018 
L 284.23012 335.380018 
L 284.23012 334.135734 
L 284.749933 334.135734 
L 284.848653 331.647165 
L 285.571543 331.647165 
L 285.571543 330.40288 
L 285.812456 330.40288 
L 285.812456 329.158596 
L 286.291927 329.158596 
L 286.291927 327.914311 
L 286.54308 327.914311 
L 286.651986 324.181458 
L 286.730846 324.181458 
L 286.776923 321.692889 
L 287.037999 321.692889 
L 287.037999 320.448605 
L 287.563594 320.448605 
L 287.631059 317.960036 
L 287.863264 317.960036 
L 287.863264 316.715752 
L 288.25254 316.715752 
L 288.283779 314.227183 
L 288.513482 314.227183 
L 288.513482 312.982898 
L 289.505234 312.982898 
L 289.505234 311.738614 
L 289.938989 311.738614 
L 289.938989 310.494329 
L 290.055451 310.494329 
L 290.055451 309.250045 
L 290.331907 309.250045 
L 290.397121 305.517192 
L 290.671842 305.517192 
L 290.671842 304.272907 
L 291.012752 304.272907 
L 291.012752 303.028623 
L 291.434678 303.028623 
L 291.434678 301.784338 
L 291.793446 301.784338 
L 291.793446 300.540054 
L 291.919331 300.540054 
L 292.007362 296.807201 
L 292.235882 296.807201 
L 292.278334 294.318632 
L 292.426226 294.318632 
L 292.516501 290.585779 
L 292.729114 290.585779 
L 292.729114 289.341494 
L 293.278258 289.341494 
L 293.378526 286.852925 
L 293.412933 286.852925 
L 293.412933 285.608641 
L 293.892496 285.608641 
L 293.990183 281.875788 
L 294.139132 281.875788 
L 294.178275 279.387219 
L 294.252176 279.387219 
L 294.347376 274.410081 
L 294.814502 274.410081 
L 294.899161 271.921512 
L 295.193604 271.921512 
L 295.193604 270.677228 
L 295.317531 270.677228 
L 295.317531 269.432943 
L 295.562385 269.432943 
L 295.562385 268.188659 
L 295.675421 268.188659 
L 295.784489 265.70009 
L 295.910899 265.70009 
L 295.910899 264.455806 
L 296.493539 264.455806 
L 296.493539 263.211521 
L 296.714982 263.211521 
L 296.769096 259.478668 
L 297.008511 259.478668 
L 297.048964 256.990099 
L 297.135126 256.990099 
L 297.19121 254.50153 
L 297.38664 254.50153 
L 297.38664 253.257246 
L 297.859777 253.257246 
L 297.936975 250.768677 
L 298.111085 250.768677 
L 298.111085 249.524392 
L 298.230833 249.524392 
L 298.244686 247.035824 
L 298.642124 247.035824 
L 298.689135 243.30297 
L 298.844263 243.30297 
L 298.844263 242.058686 
L 298.964626 242.058686 
L 298.964626 240.814401 
L 299.110996 240.814401 
L 299.12873 237.081548 
L 299.29122 237.081548 
L 299.343936 234.592979 
L 299.428727 234.592979 
L 299.428727 233.348695 
L 299.73407 233.348695 
L 299.73407 232.10441 
L 299.991961 232.10441 
L 299.991961 230.860126 
L 300.210044 230.860126 
L 300.210044 229.615842 
L 300.332133 229.615842 
L 300.396825 227.127273 
L 300.450377 227.127273 
L 300.528102 224.638704 
L 300.583391 224.638704 
L 300.62323 222.150135 
L 301.045209 222.150135 
L 301.128516 217.172997 
L 301.177435 217.172997 
L 301.24711 214.684428 
L 301.398548 214.684428 
L 301.466324 212.19586 
L 301.546801 212.19586 
L 301.625632 208.463006 
L 301.680903 208.463006 
L 301.751903 204.730153 
L 301.874821 204.730153 
L 301.893921 200.9973 
L 302.025319 200.9973 
L 302.135851 197.264446 
L 302.155473 197.264446 
L 302.206872 193.531593 
L 302.284259 193.531593 
L 302.353781 189.79874 
L 302.47056 189.79874 
L 302.47056 188.554455 
L 302.785097 188.554455 
L 302.878407 182.333033 
L 302.937048 182.333033 
L 302.983673 178.60018 
L 303.070736 178.60018 
L 303.070736 177.355896 
L 303.201832 177.355896 
L 303.307337 174.867327 
L 303.317796 174.867327 
L 303.317796 173.623042 
L 303.486124 173.623042 
L 303.581949 169.890189 
L 303.644995 169.890189 
L 303.736062 164.913051 
L 303.762071 164.913051 
L 303.762071 163.668767 
L 303.979175 163.668767 
L 303.986862 161.180198 
L 304.123393 161.180198 
L 304.227208 158.691629 
L 304.320972 158.691629 
L 304.404042 153.714491 
L 304.521381 153.714491 
L 304.630435 151.225923 
L 304.685805 151.225923 
L 304.685805 149.981638 
L 304.928001 149.981638 
L 304.997421 143.760216 
L 305.0992 143.760216 
L 305.21001 138.783078 
L 305.237106 138.783078 
L 305.328394 135.050225 
L 305.400664 135.050225 
L 305.425098 132.561656 
L 305.584804 132.561656 
L 305.584804 131.317372 
L 305.821288 131.317372 
L 305.885676 128.828803 
L 305.939907 128.828803 
L 306.043038 122.607381 
L 306.08712 122.607381 
L 306.109376 118.874527 
L 306.203015 118.874527 
L 306.20706 116.385959 
L 306.414067 116.385959 
L 306.473885 112.653105 
L 306.672008 112.653105 
L 306.759545 110.164536 
L 307.026163 110.164536 
L 307.026163 108.920252 
L 307.323341 108.920252 
L 307.399262 106.431683 
L 307.766562 106.431683 
L 307.766562 105.187399 
L 307.900977 105.187399 
L 307.946325 102.69883 
L 308.258092 102.69883 
L 308.258092 101.454545 
L 308.397034 101.454545 
L 308.397034 100.210261 
L 308.675659 100.210261 
L 308.675659 98.965977 
L 308.95397 98.965977 
L 308.95397 97.721692 
L 309.137287 97.721692 
L 309.24684 93.988839 
L 309.628699 93.988839 
L 309.681547 91.50027 
L 310.105973 91.50027 
L 310.105973 90.255986 
L 310.238874 90.255986 
L 310.344408 87.767417 
L 310.750376 87.767417 
L 310.750376 86.523132 
L 311.342789 86.523132 
L 311.342789 85.278848 
L 311.955327 85.278848 
L 311.955327 84.034563 
L 312.108301 84.034563 
L 312.108301 82.790279 
L 312.479445 82.790279 
L 312.479445 81.545995 
L 312.711262 81.545995 
L 312.711262 80.30171 
L 313.624894 80.30171 
L 313.624894 79.057426 
L 314.270067 79.057426 
L 314.270067 77.813141 
L 315.497004 77.813141 
L 315.524569 75.324572 
L 315.641692 75.324572 
L 315.641692 74.080288 
L 315.801556 74.080288 
L 315.801556 72.836004 
L 316.673846 72.836004 
L 316.673846 71.591719 
L 317.103373 71.591719 
L 317.103373 70.347435 
L 317.252863 70.347435 
L 317.252863 69.10315 
L 318.069907 69.10315 
L 318.069907 67.858866 
L 318.758097 67.858866 
L 318.758097 66.614581 
L 319.044281 66.614581 
L 319.044281 65.370297 
L 319.266921 65.370297 
L 319.266921 64.126013 
L 319.597462 64.126013 
L 319.597462 62.881728 
L 319.818775 62.881728 
L 319.818775 61.637444 
L 320.185941 61.637444 
L 320.293318 59.148875 
L 320.953272 59.148875 
L 321.002122 56.660306 
L 321.66918 56.660306 
L 321.66918 55.416022 
L 322.194608 55.416022 
L 322.194608 54.171737 
L 322.613361 54.171737 
L 322.613361 52.927453 
L 322.904665 52.927453 
L 322.904665 51.683168 
L 323.650945 51.683168 
L 323.650945 50.438884 
L 324.993495 50.438884 
L 324.993495 49.194599 
L 325.573048 49.194599 
L 325.573048 47.950315 
L 325.974188 47.950315 
L 326.006547 45.461746 
L 326.588284 45.461746 
L 326.588284 44.217462 
L 329.647797 44.217462 
L 329.647797 42.973177 
L 330.297475 42.973177 
L 330.297475 41.728893 
L 330.522642 41.728893 
L 330.522642 40.484608 
L 330.903518 40.484608 
L 330.970629 37.99604 
L 332.702326 37.99604 
L 332.702326 36.751755 
L 334.159461 36.751755 
L 334.159461 35.507471 
L 336.677646 35.507471 
L 336.677646 34.263186 
L 338.405715 34.263186 
L 338.405715 33.018902 
L 338.777697 33.018902 
L 338.777697 31.774617 
L 339.690515 31.774617 
L 339.690515 30.530333 
L 340.968451 30.530333 
L 340.968451 29.286049 
L 342.283501 29.286049 
L 342.283501 28.041764 
L 342.790771 28.041764 
L 342.790771 26.79748 
L 345.759425 26.79748 
L 345.759425 25.553195 
L 346.330049 25.553195 
L 346.330049 24.308911 
L 351.692671 24.308911 
L 351.692671 23.064626 
L 352.538669 23.064626 
L 352.538669 21.820342 
L 354.934554 21.820342 
L 354.934554 20.576058 
L 356.780383 20.576058 
L 356.780383 19.331773 
L 376.842515 19.331773 
L 376.842515 18.087489 
L 382.357596 18.087489 
L 382.357596 16.843204 
L 388.376769 16.843204 
L 388.376769 15.59892 
L 399.974953 15.59892 
L 399.974953 14.354635 
L 400.724596 14.354635 
L 400.724596 13.110351 
L 401.545825 13.110351 
L 401.545825 11.866067 
L 446.076232 11.866067 
L 446.076232 10.621782 
L 446.076232 10.621782 
L 453.6 10.621782 
L 453.6 10.621782 
" style="fill:none;stroke:#00bfbf;stroke-linecap:square;"/>
   </g>
   <g id="line2d_6">
    <path clip-path="url(#pfdcbca9149)" d="M 231.381417 352.8 
L 231.381417 351.555716 
L 259.093735 351.555716 
L 259.093735 350.311431 
L 261.055576 350.311431 
L 261.055576 349.067147 
L 269.233791 349.067147 
L 269.233791 347.822862 
L 270.389791 347.822862 
L 270.389791 346.578578 
L 273.037282 346.578578 
L 273.037282 345.334293 
L 274.643598 345.334293 
L 274.643598 344.090009 
L 277.865682 344.090009 
L 277.865682 342.845725 
L 278.909888 342.845725 
L 278.909888 341.60144 
L 279.44364 341.60144 
L 279.44364 340.357156 
L 279.664214 340.357156 
L 279.664214 339.112871 
L 279.863403 339.112871 
L 279.863403 337.868587 
L 280.241784 337.868587 
L 280.241784 336.624302 
L 281.556498 336.624302 
L 281.556498 335.380018 
L 281.773607 335.380018 
L 281.773607 334.135734 
L 282.524462 334.135734 
L 282.524462 332.891449 
L 282.83716 332.891449 
L 282.89372 330.40288 
L 283.224462 330.40288 
L 283.224462 329.158596 
L 284.23012 329.158596 
L 284.23012 327.914311 
L 284.437133 327.914311 
L 284.437133 326.670027 
L 284.749933 326.670027 
L 284.848653 324.181458 
L 285.571543 324.181458 
L 285.571543 322.937174 
L 285.812456 322.937174 
L 285.812456 321.692889 
L 286.291927 321.692889 
L 286.291927 320.448605 
L 286.54308 320.448605 
L 286.651986 316.715752 
L 286.776923 316.715752 
L 286.776923 315.471467 
L 287.037999 315.471467 
L 287.037999 314.227183 
L 287.392023 314.227183 
L 287.392023 312.982898 
L 287.563594 312.982898 
L 287.631059 310.494329 
L 287.863264 310.494329 
L 287.863264 309.250045 
L 288.283779 309.250045 
L 288.283779 308.005761 
L 288.420822 308.005761 
L 288.420822 306.761476 
L 289.505234 306.761476 
L 289.505234 305.517192 
L 289.938989 305.517192 
L 289.938989 304.272907 
L 290.055451 304.272907 
L 290.055451 303.028623 
L 290.331907 303.028623 
L 290.397121 299.29577 
L 290.671842 299.29577 
L 290.671842 298.051485 
L 291.012752 298.051485 
L 291.012752 296.807201 
L 291.147445 296.807201 
L 291.147445 295.562916 
L 291.413245 295.562916 
L 291.413245 294.318632 
L 291.793446 294.318632 
L 291.814792 291.830063 
L 291.919331 291.830063 
L 292.007362 289.341494 
L 292.077192 289.341494 
L 292.077192 288.09721 
L 292.278334 288.09721 
L 292.278334 286.852925 
L 292.426226 286.852925 
L 292.516501 283.120072 
L 292.624172 283.120072 
L 292.729114 280.631503 
L 292.73652 280.631503 
L 292.73652 279.387219 
L 293.278258 279.387219 
L 293.378526 275.654365 
L 293.412933 275.654365 
L 293.412933 274.410081 
L 293.892496 274.410081 
L 293.990183 270.677228 
L 294.139132 270.677228 
L 294.178275 266.944374 
L 294.252176 266.944374 
L 294.347376 261.967237 
L 294.814502 261.967237 
L 294.899161 259.478668 
L 295.193604 259.478668 
L 295.193604 258.234383 
L 295.317531 258.234383 
L 295.317531 256.990099 
L 295.562385 256.990099 
L 295.562385 255.745815 
L 295.675421 255.745815 
L 295.675421 254.50153 
L 295.910899 254.50153 
L 295.910899 253.257246 
L 296.468439 253.257246 
L 296.493539 250.768677 
L 296.713817 250.768677 
L 296.769096 247.035824 
L 297.008511 247.035824 
L 297.048964 244.547255 
L 297.19121 244.547255 
L 297.19121 243.30297 
L 297.38664 243.30297 
L 297.38664 242.058686 
L 297.859777 242.058686 
L 297.936975 239.570117 
L 298.111085 239.570117 
L 298.111085 238.325833 
L 298.244686 238.325833 
L 298.244686 237.081548 
L 298.642124 237.081548 
L 298.689135 233.348695 
L 298.814625 233.348695 
L 298.844263 230.860126 
L 298.964626 230.860126 
L 298.964626 229.615842 
L 299.110996 229.615842 
L 299.12873 225.882988 
L 299.29122 225.882988 
L 299.343936 223.394419 
L 299.428727 223.394419 
L 299.428727 222.150135 
L 299.73407 222.150135 
L 299.73407 220.905851 
L 299.991961 220.905851 
L 299.991961 219.661566 
L 300.158766 219.661566 
L 300.210044 217.172997 
L 300.332133 217.172997 
L 300.396825 214.684428 
L 300.450377 214.684428 
L 300.528102 212.19586 
L 300.583391 212.19586 
L 300.583391 210.951575 
L 300.72079 210.951575 
L 300.72079 209.707291 
L 301.002875 209.707291 
L 301.09128 205.974437 
L 301.118517 205.974437 
L 301.182786 202.241584 
L 301.24711 202.241584 
L 301.24711 200.9973 
L 301.398548 200.9973 
L 301.398548 199.753015 
L 301.546801 199.753015 
L 301.625632 197.264446 
L 301.680903 197.264446 
L 301.751903 193.531593 
L 301.874821 193.531593 
L 301.893921 189.79874 
L 302.025319 189.79874 
L 302.135851 186.065887 
L 302.173548 186.065887 
L 302.284259 182.333033 
L 302.302168 182.333033 
L 302.353781 179.844464 
L 302.450822 179.844464 
L 302.546665 176.111611 
L 302.785097 176.111611 
L 302.873032 171.134473 
L 302.937048 171.134473 
L 303.025026 164.913051 
L 303.070736 164.913051 
L 303.070736 163.668767 
L 303.201832 163.668767 
L 303.307337 161.180198 
L 303.317796 161.180198 
L 303.317796 159.935914 
L 303.486124 159.935914 
L 303.564327 154.958776 
L 303.644995 154.958776 
L 303.704905 152.470207 
L 303.762071 152.470207 
L 303.762071 151.225923 
L 303.979175 151.225923 
L 303.986862 148.737354 
L 304.123393 148.737354 
L 304.123393 147.493069 
L 304.320972 147.493069 
L 304.404042 141.271647 
L 304.521381 141.271647 
L 304.521381 140.027363 
L 304.685805 140.027363 
L 304.685805 138.783078 
L 304.928001 138.783078 
L 304.997421 131.317372 
L 305.0992 131.317372 
L 305.21001 126.340234 
L 305.237106 126.340234 
L 305.328394 123.851665 
L 305.400664 123.851665 
L 305.425098 121.363096 
L 305.584804 121.363096 
L 305.584804 120.118812 
L 305.821288 120.118812 
L 305.885676 117.630243 
L 305.967405 117.630243 
L 306.043038 112.653105 
L 306.08712 112.653105 
L 306.090561 110.164536 
L 306.20706 110.164536 
L 306.20706 108.920252 
L 306.414067 108.920252 
L 306.473885 105.187399 
L 306.672008 105.187399 
L 306.759545 102.69883 
L 307.323341 102.69883 
L 307.399262 100.210261 
L 307.766562 100.210261 
L 307.766562 98.965977 
L 307.900977 98.965977 
L 307.900977 97.721692 
L 308.258092 97.721692 
L 308.258092 96.477408 
L 308.397034 96.477408 
L 308.397034 95.233123 
L 308.675659 95.233123 
L 308.675659 93.988839 
L 308.95397 93.988839 
L 308.95397 92.744554 
L 309.137287 92.744554 
L 309.24684 89.011701 
L 309.582474 89.011701 
L 309.681547 85.278848 
L 310.105973 85.278848 
L 310.105973 84.034563 
L 310.238874 84.034563 
L 310.344408 81.545995 
L 310.409519 81.545995 
L 310.409519 80.30171 
L 310.750376 80.30171 
L 310.750376 79.057426 
L 311.342789 79.057426 
L 311.342789 77.813141 
L 311.955327 77.813141 
L 311.955327 76.568857 
L 312.108301 76.568857 
L 312.108301 75.324572 
L 312.479445 75.324572 
L 312.579083 72.836004 
L 312.711262 72.836004 
L 312.711262 71.591719 
L 313.095842 71.591719 
L 313.095842 70.347435 
L 313.624894 70.347435 
L 313.624894 69.10315 
L 314.270067 69.10315 
L 314.270067 67.858866 
L 314.393399 67.858866 
L 314.393399 66.614581 
L 315.497004 66.614581 
L 315.524569 64.126013 
L 315.641692 64.126013 
L 315.641692 62.881728 
L 315.801556 62.881728 
L 315.801556 61.637444 
L 316.673846 61.637444 
L 316.673846 60.393159 
L 317.103373 60.393159 
L 317.103373 59.148875 
L 317.252863 59.148875 
L 317.252863 57.90459 
L 318.069907 57.90459 
L 318.069907 56.660306 
L 318.561153 56.660306 
L 318.561153 55.416022 
L 318.758097 55.416022 
L 318.758097 54.171737 
L 319.266921 54.171737 
L 319.266921 52.927453 
L 319.597462 52.927453 
L 319.597462 51.683168 
L 319.818775 51.683168 
L 319.818775 50.438884 
L 320.185941 50.438884 
L 320.293318 47.950315 
L 321.002122 47.950315 
L 321.002122 46.706031 
L 321.66918 46.706031 
L 321.66918 45.461746 
L 322.194608 45.461746 
L 322.194608 44.217462 
L 322.613361 44.217462 
L 322.613361 42.973177 
L 322.904665 42.973177 
L 322.904665 41.728893 
L 323.311907 41.728893 
L 323.311907 40.484608 
L 323.650945 40.484608 
L 323.650945 39.240324 
L 324.993495 39.240324 
L 324.993495 37.99604 
L 326.588284 37.99604 
L 326.588284 36.751755 
L 328.751013 36.751755 
L 328.751013 35.507471 
L 329.647797 35.507471 
L 329.647797 34.263186 
L 330.297475 34.263186 
L 330.297475 33.018902 
L 330.970629 33.018902 
L 330.970629 31.774617 
L 332.702326 31.774617 
L 332.702326 30.530333 
L 333.064891 30.530333 
L 333.064891 29.286049 
L 338.777697 29.286049 
L 338.777697 28.041764 
L 339.690515 28.041764 
L 339.690515 26.79748 
L 341.074603 26.79748 
L 341.074603 25.553195 
L 342.790771 25.553195 
L 342.790771 24.308911 
L 343.347486 24.308911 
L 343.347486 23.064626 
L 346.330049 23.064626 
L 346.330049 21.820342 
L 346.610778 21.820342 
L 346.610778 20.576058 
L 348.795182 20.576058 
L 348.795182 19.331773 
L 349.738437 19.331773 
L 349.738437 18.087489 
L 349.97388 18.087489 
L 349.97388 16.843204 
L 351.692671 16.843204 
L 351.692671 15.59892 
L 351.838411 15.59892 
L 351.838411 14.354635 
L 354.934554 14.354635 
L 354.934554 13.110351 
L 364.21745 13.110351 
L 364.21745 11.866067 
L 419.832322 11.866067 
L 419.832322 10.621782 
L 419.832322 10.621782 
L 453.6 10.621782 
L 453.6 10.621782 
" style="fill:none;stroke:#bf00bf;stroke-linecap:square;"/>
   </g>
   <g id="patch_3">
    <path d="M 7.2 7.2 
L 453.6 7.2 
" style="fill:none;stroke:#000000;stroke-linecap:square;stroke-linejoin:miter;"/>
   </g>
   <g id="patch_4">
    <path d="M 453.6 352.8 
L 453.6 7.2 
" style="fill:none;stroke:#000000;stroke-linecap:square;stroke-linejoin:miter;"/>
   </g>
   <g id="patch_5">
    <path d="M 7.2 352.8 
L 453.6 352.8 
" style="fill:none;stroke:#000000;stroke-linecap:square;stroke-linejoin:miter;"/>
   </g>
   <g id="patch_6">
    <path d="M 7.2 352.8 
L 7.2 7.2 
" style="fill:none;stroke:#000000;stroke-linecap:square;stroke-linejoin:miter;"/>
   </g>
   <g id="matplotlib.axis_1">
    <g id="xtick_1"/>
    <g id="xtick_2">
     <g id="line2d_7">
      <path clip-path="url(#pfdcbca9149)" d="M 44.252588 352.8 
L 44.252588 7.2 
" style="fill:none;stroke:#000000;stroke-dasharray:1.000000,3.000000;stroke-dashoffset:0.0;stroke-width:0.5;"/>
     </g>
     <g id="line2d_8">
      <defs>
       <path d="M 0 0 
L 0 -4 
" id="mf8e9c2703c" style="stroke:#000000;stroke-width:0.5;"/>
      </defs>
      <g>
       <use style="stroke:#000000;stroke-width:0.5;" x="44.2525880688" xlink:href="#mf8e9c2703c" y="352.8"/>
      </g>
     </g>
     <g id="line2d_9">
      <defs>
       <path d="M 0 0 
L 0 4 
" id="m75fa2132df" style="stroke:#000000;stroke-width:0.5;"/>
      </defs>
      <g>
       <use style="stroke:#000000;stroke-width:0.5;" x="44.2525880688" xlink:href="#m75fa2132df" y="7.2"/>
      </g>
     </g>
     <g id="text_1">
      <!-- -7 -->
      <defs>
       <path d="M 4.890625 31.390625 
L 31.203125 31.390625 
L 31.203125 23.390625 
L 4.890625 23.390625 
z
" id="BitstreamVeraSans-Roman-2d"/>
       <path d="M 8.203125 72.90625 
L 55.078125 72.90625 
L 55.078125 68.703125 
L 28.609375 0 
L 18.3125 0 
L 43.21875 64.59375 
L 8.203125 64.59375 
z
" id="BitstreamVeraSans-Roman-37"/>
      </defs>
      <g transform="translate(34.2822755688 371.996875)scale(0.2 -0.2)">
       <use xlink:href="#BitstreamVeraSans-Roman-2d"/>
       <use x="36.083984375" xlink:href="#BitstreamVeraSans-Roman-37"/>
      </g>
     </g>
    </g>
    <g id="xtick_3">
     <g id="line2d_10">
      <path clip-path="url(#pfdcbca9149)" d="M 81.465989 352.8 
L 81.465989 7.2 
" style="fill:none;stroke:#000000;stroke-dasharray:1.000000,3.000000;stroke-dashoffset:0.0;stroke-width:0.5;"/>
     </g>
     <g id="line2d_11">
      <g>
       <use style="stroke:#000000;stroke-width:0.5;" x="81.4659891535" xlink:href="#mf8e9c2703c" y="352.8"/>
      </g>
     </g>
     <g id="line2d_12">
      <g>
       <use style="stroke:#000000;stroke-width:0.5;" x="81.4659891535" xlink:href="#m75fa2132df" y="7.2"/>
      </g>
     </g>
     <g id="text_2">
      <!-- -6 -->
      <defs>
       <path d="M 33.015625 40.375 
Q 26.375 40.375 22.484375 35.828125 
Q 18.609375 31.296875 18.609375 23.390625 
Q 18.609375 15.53125 22.484375 10.953125 
Q 26.375 6.390625 33.015625 6.390625 
Q 39.65625 6.390625 43.53125 10.953125 
Q 47.40625 15.53125 47.40625 23.390625 
Q 47.40625 31.296875 43.53125 35.828125 
Q 39.65625 40.375 33.015625 40.375 
M 52.59375 71.296875 
L 52.59375 62.3125 
Q 48.875 64.0625 45.09375 64.984375 
Q 41.3125 65.921875 37.59375 65.921875 
Q 27.828125 65.921875 22.671875 59.328125 
Q 17.53125 52.734375 16.796875 39.40625 
Q 19.671875 43.65625 24.015625 45.921875 
Q 28.375 48.1875 33.59375 48.1875 
Q 44.578125 48.1875 50.953125 41.515625 
Q 57.328125 34.859375 57.328125 23.390625 
Q 57.328125 12.15625 50.6875 5.359375 
Q 44.046875 -1.421875 33.015625 -1.421875 
Q 20.359375 -1.421875 13.671875 8.265625 
Q 6.984375 17.96875 6.984375 36.375 
Q 6.984375 53.65625 15.1875 63.9375 
Q 23.390625 74.21875 37.203125 74.21875 
Q 40.921875 74.21875 44.703125 73.484375 
Q 48.484375 72.75 52.59375 71.296875 
" id="BitstreamVeraSans-Roman-36"/>
      </defs>
      <g transform="translate(71.4956766535 371.996875)scale(0.2 -0.2)">
       <use xlink:href="#BitstreamVeraSans-Roman-2d"/>
       <use x="36.083984375" xlink:href="#BitstreamVeraSans-Roman-36"/>
      </g>
     </g>
    </g>
    <g id="xtick_4">
     <g id="line2d_13">
      <path clip-path="url(#pfdcbca9149)" d="M 118.67939 352.8 
L 118.67939 7.2 
" style="fill:none;stroke:#000000;stroke-dasharray:1.000000,3.000000;stroke-dashoffset:0.0;stroke-width:0.5;"/>
     </g>
     <g id="line2d_14">
      <g>
       <use style="stroke:#000000;stroke-width:0.5;" x="118.679390238" xlink:href="#mf8e9c2703c" y="352.8"/>
      </g>
     </g>
     <g id="line2d_15">
      <g>
       <use style="stroke:#000000;stroke-width:0.5;" x="118.679390238" xlink:href="#m75fa2132df" y="7.2"/>
      </g>
     </g>
     <g id="text_3">
      <!-- -5 -->
      <defs>
       <path d="M 10.796875 72.90625 
L 49.515625 72.90625 
L 49.515625 64.59375 
L 19.828125 64.59375 
L 19.828125 46.734375 
Q 21.96875 47.46875 24.109375 47.828125 
Q 26.265625 48.1875 28.421875 48.1875 
Q 40.625 48.1875 47.75 41.5 
Q 54.890625 34.8125 54.890625 23.390625 
Q 54.890625 11.625 47.5625 5.09375 
Q 40.234375 -1.421875 26.90625 -1.421875 
Q 22.3125 -1.421875 17.546875 -0.640625 
Q 12.796875 0.140625 7.71875 1.703125 
L 7.71875 11.625 
Q 12.109375 9.234375 16.796875 8.0625 
Q 21.484375 6.890625 26.703125 6.890625 
Q 35.15625 6.890625 40.078125 11.328125 
Q 45.015625 15.765625 45.015625 23.390625 
Q 45.015625 31 40.078125 35.4375 
Q 35.15625 39.890625 26.703125 39.890625 
Q 22.75 39.890625 18.8125 39.015625 
Q 14.890625 38.140625 10.796875 36.28125 
z
" id="BitstreamVeraSans-Roman-35"/>
      </defs>
      <g transform="translate(108.709077738 371.996875)scale(0.2 -0.2)">
       <use xlink:href="#BitstreamVeraSans-Roman-2d"/>
       <use x="36.083984375" xlink:href="#BitstreamVeraSans-Roman-35"/>
      </g>
     </g>
    </g>
    <g id="xtick_5">
     <g id="line2d_16">
      <path clip-path="url(#pfdcbca9149)" d="M 155.892791 352.8 
L 155.892791 7.2 
" style="fill:none;stroke:#000000;stroke-dasharray:1.000000,3.000000;stroke-dashoffset:0.0;stroke-width:0.5;"/>
     </g>
     <g id="line2d_17">
      <g>
       <use style="stroke:#000000;stroke-width:0.5;" x="155.892791323" xlink:href="#mf8e9c2703c" y="352.8"/>
      </g>
     </g>
     <g id="line2d_18">
      <g>
       <use style="stroke:#000000;stroke-width:0.5;" x="155.892791323" xlink:href="#m75fa2132df" y="7.2"/>
      </g>
     </g>
     <g id="text_4">
      <!-- -4 -->
      <defs>
       <path d="M 37.796875 64.3125 
L 12.890625 25.390625 
L 37.796875 25.390625 
z
M 35.203125 72.90625 
L 47.609375 72.90625 
L 47.609375 25.390625 
L 58.015625 25.390625 
L 58.015625 17.1875 
L 47.609375 17.1875 
L 47.609375 0 
L 37.796875 0 
L 37.796875 17.1875 
L 4.890625 17.1875 
L 4.890625 26.703125 
z
" id="BitstreamVeraSans-Roman-34"/>
      </defs>
      <g transform="translate(145.922478823 371.996875)scale(0.2 -0.2)">
       <use xlink:href="#BitstreamVeraSans-Roman-2d"/>
       <use x="36.083984375" xlink:href="#BitstreamVeraSans-Roman-34"/>
      </g>
     </g>
    </g>
    <g id="xtick_6">
     <g id="line2d_19">
      <path clip-path="url(#pfdcbca9149)" d="M 193.106192 352.8 
L 193.106192 7.2 
" style="fill:none;stroke:#000000;stroke-dasharray:1.000000,3.000000;stroke-dashoffset:0.0;stroke-width:0.5;"/>
     </g>
     <g id="line2d_20">
      <g>
       <use style="stroke:#000000;stroke-width:0.5;" x="193.106192407" xlink:href="#mf8e9c2703c" y="352.8"/>
      </g>
     </g>
     <g id="line2d_21">
      <g>
       <use style="stroke:#000000;stroke-width:0.5;" x="193.106192407" xlink:href="#m75fa2132df" y="7.2"/>
      </g>
     </g>
     <g id="text_5">
      <!-- -3 -->
      <defs>
       <path d="M 40.578125 39.3125 
Q 47.65625 37.796875 51.625 33 
Q 55.609375 28.21875 55.609375 21.1875 
Q 55.609375 10.40625 48.1875 4.484375 
Q 40.765625 -1.421875 27.09375 -1.421875 
Q 22.515625 -1.421875 17.65625 -0.515625 
Q 12.796875 0.390625 7.625 2.203125 
L 7.625 11.71875 
Q 11.71875 9.328125 16.59375 8.109375 
Q 21.484375 6.890625 26.8125 6.890625 
Q 36.078125 6.890625 40.9375 10.546875 
Q 45.796875 14.203125 45.796875 21.1875 
Q 45.796875 27.640625 41.28125 31.265625 
Q 36.765625 34.90625 28.71875 34.90625 
L 20.21875 34.90625 
L 20.21875 43.015625 
L 29.109375 43.015625 
Q 36.375 43.015625 40.234375 45.921875 
Q 44.09375 48.828125 44.09375 54.296875 
Q 44.09375 59.90625 40.109375 62.90625 
Q 36.140625 65.921875 28.71875 65.921875 
Q 24.65625 65.921875 20.015625 65.03125 
Q 15.375 64.15625 9.8125 62.3125 
L 9.8125 71.09375 
Q 15.4375 72.65625 20.34375 73.4375 
Q 25.25 74.21875 29.59375 74.21875 
Q 40.828125 74.21875 47.359375 69.109375 
Q 53.90625 64.015625 53.90625 55.328125 
Q 53.90625 49.265625 50.4375 45.09375 
Q 46.96875 40.921875 40.578125 39.3125 
" id="BitstreamVeraSans-Roman-33"/>
      </defs>
      <g transform="translate(183.135879907 371.996875)scale(0.2 -0.2)">
       <use xlink:href="#BitstreamVeraSans-Roman-2d"/>
       <use x="36.083984375" xlink:href="#BitstreamVeraSans-Roman-33"/>
      </g>
     </g>
    </g>
    <g id="xtick_7">
     <g id="line2d_22">
      <path clip-path="url(#pfdcbca9149)" d="M 230.319593 352.8 
L 230.319593 7.2 
" style="fill:none;stroke:#000000;stroke-dasharray:1.000000,3.000000;stroke-dashoffset:0.0;stroke-width:0.5;"/>
     </g>
     <g id="line2d_23">
      <g>
       <use style="stroke:#000000;stroke-width:0.5;" x="230.319593492" xlink:href="#mf8e9c2703c" y="352.8"/>
      </g>
     </g>
     <g id="line2d_24">
      <g>
       <use style="stroke:#000000;stroke-width:0.5;" x="230.319593492" xlink:href="#m75fa2132df" y="7.2"/>
      </g>
     </g>
     <g id="text_6">
      <!-- -2 -->
      <defs>
       <path d="M 19.1875 8.296875 
L 53.609375 8.296875 
L 53.609375 0 
L 7.328125 0 
L 7.328125 8.296875 
Q 12.9375 14.109375 22.625 23.890625 
Q 32.328125 33.6875 34.8125 36.53125 
Q 39.546875 41.84375 41.421875 45.53125 
Q 43.3125 49.21875 43.3125 52.78125 
Q 43.3125 58.59375 39.234375 62.25 
Q 35.15625 65.921875 28.609375 65.921875 
Q 23.96875 65.921875 18.8125 64.3125 
Q 13.671875 62.703125 7.8125 59.421875 
L 7.8125 69.390625 
Q 13.765625 71.78125 18.9375 73 
Q 24.125 74.21875 28.421875 74.21875 
Q 39.75 74.21875 46.484375 68.546875 
Q 53.21875 62.890625 53.21875 53.421875 
Q 53.21875 48.921875 51.53125 44.890625 
Q 49.859375 40.875 45.40625 35.40625 
Q 44.1875 33.984375 37.640625 27.21875 
Q 31.109375 20.453125 19.1875 8.296875 
" id="BitstreamVeraSans-Roman-32"/>
      </defs>
      <g transform="translate(220.349280992 371.996875)scale(0.2 -0.2)">
       <use xlink:href="#BitstreamVeraSans-Roman-2d"/>
       <use x="36.083984375" xlink:href="#BitstreamVeraSans-Roman-32"/>
      </g>
     </g>
    </g>
    <g id="xtick_8">
     <g id="line2d_25">
      <path clip-path="url(#pfdcbca9149)" d="M 267.532995 352.8 
L 267.532995 7.2 
" style="fill:none;stroke:#000000;stroke-dasharray:1.000000,3.000000;stroke-dashoffset:0.0;stroke-width:0.5;"/>
     </g>
     <g id="line2d_26">
      <g>
       <use style="stroke:#000000;stroke-width:0.5;" x="267.532994577" xlink:href="#mf8e9c2703c" y="352.8"/>
      </g>
     </g>
     <g id="line2d_27">
      <g>
       <use style="stroke:#000000;stroke-width:0.5;" x="267.532994577" xlink:href="#m75fa2132df" y="7.2"/>
      </g>
     </g>
     <g id="text_7">
      <!-- -1 -->
      <defs>
       <path d="M 12.40625 8.296875 
L 28.515625 8.296875 
L 28.515625 63.921875 
L 10.984375 60.40625 
L 10.984375 69.390625 
L 28.421875 72.90625 
L 38.28125 72.90625 
L 38.28125 8.296875 
L 54.390625 8.296875 
L 54.390625 0 
L 12.40625 0 
z
" id="BitstreamVeraSans-Roman-31"/>
      </defs>
      <g transform="translate(257.562682077 371.996875)scale(0.2 -0.2)">
       <use xlink:href="#BitstreamVeraSans-Roman-2d"/>
       <use x="36.083984375" xlink:href="#BitstreamVeraSans-Roman-31"/>
      </g>
     </g>
    </g>
    <g id="xtick_9">
     <g id="line2d_28">
      <path clip-path="url(#pfdcbca9149)" d="M 304.746396 352.8 
L 304.746396 7.2 
" style="fill:none;stroke:#000000;stroke-dasharray:1.000000,3.000000;stroke-dashoffset:0.0;stroke-width:0.5;"/>
     </g>
     <g id="line2d_29">
      <g>
       <use style="stroke:#000000;stroke-width:0.5;" x="304.746395661" xlink:href="#mf8e9c2703c" y="352.8"/>
      </g>
     </g>
     <g id="line2d_30">
      <g>
       <use style="stroke:#000000;stroke-width:0.5;" x="304.746395661" xlink:href="#m75fa2132df" y="7.2"/>
      </g>
     </g>
     <g id="text_8">
      <!-- 0 -->
      <defs>
       <path d="M 31.78125 66.40625 
Q 24.171875 66.40625 20.328125 58.90625 
Q 16.5 51.421875 16.5 36.375 
Q 16.5 21.390625 20.328125 13.890625 
Q 24.171875 6.390625 31.78125 6.390625 
Q 39.453125 6.390625 43.28125 13.890625 
Q 47.125 21.390625 47.125 36.375 
Q 47.125 51.421875 43.28125 58.90625 
Q 39.453125 66.40625 31.78125 66.40625 
M 31.78125 74.21875 
Q 44.046875 74.21875 50.515625 64.515625 
Q 56.984375 54.828125 56.984375 36.375 
Q 56.984375 17.96875 50.515625 8.265625 
Q 44.046875 -1.421875 31.78125 -1.421875 
Q 19.53125 -1.421875 13.0625 8.265625 
Q 6.59375 17.96875 6.59375 36.375 
Q 6.59375 54.828125 13.0625 64.515625 
Q 19.53125 74.21875 31.78125 74.21875 
" id="BitstreamVeraSans-Roman-30"/>
      </defs>
      <g transform="translate(298.383895661 371.996875)scale(0.2 -0.2)">
       <use xlink:href="#BitstreamVeraSans-Roman-30"/>
      </g>
     </g>
    </g>
    <g id="xtick_10">
     <g id="line2d_31">
      <path clip-path="url(#pfdcbca9149)" d="M 341.959797 352.8 
L 341.959797 7.2 
" style="fill:none;stroke:#000000;stroke-dasharray:1.000000,3.000000;stroke-dashoffset:0.0;stroke-width:0.5;"/>
     </g>
     <g id="line2d_32">
      <g>
       <use style="stroke:#000000;stroke-width:0.5;" x="341.959796746" xlink:href="#mf8e9c2703c" y="352.8"/>
      </g>
     </g>
     <g id="line2d_33">
      <g>
       <use style="stroke:#000000;stroke-width:0.5;" x="341.959796746" xlink:href="#m75fa2132df" y="7.2"/>
      </g>
     </g>
     <g id="text_9">
      <!-- 1 -->
      <g transform="translate(335.597296746 371.996875)scale(0.2 -0.2)">
       <use xlink:href="#BitstreamVeraSans-Roman-31"/>
      </g>
     </g>
    </g>
    <g id="xtick_11">
     <g id="line2d_34">
      <path clip-path="url(#pfdcbca9149)" d="M 379.173198 352.8 
L 379.173198 7.2 
" style="fill:none;stroke:#000000;stroke-dasharray:1.000000,3.000000;stroke-dashoffset:0.0;stroke-width:0.5;"/>
     </g>
     <g id="line2d_35">
      <g>
       <use style="stroke:#000000;stroke-width:0.5;" x="379.173197831" xlink:href="#mf8e9c2703c" y="352.8"/>
      </g>
     </g>
     <g id="line2d_36">
      <g>
       <use style="stroke:#000000;stroke-width:0.5;" x="379.173197831" xlink:href="#m75fa2132df" y="7.2"/>
      </g>
     </g>
     <g id="text_10">
      <!-- 2 -->
      <g transform="translate(372.810697831 371.996875)scale(0.2 -0.2)">
       <use xlink:href="#BitstreamVeraSans-Roman-32"/>
      </g>
     </g>
    </g>
    <g id="xtick_12">
     <g id="line2d_37">
      <path clip-path="url(#pfdcbca9149)" d="M 416.386599 352.8 
L 416.386599 7.2 
" style="fill:none;stroke:#000000;stroke-dasharray:1.000000,3.000000;stroke-dashoffset:0.0;stroke-width:0.5;"/>
     </g>
     <g id="line2d_38">
      <g>
       <use style="stroke:#000000;stroke-width:0.5;" x="416.386598915" xlink:href="#mf8e9c2703c" y="352.8"/>
      </g>
     </g>
     <g id="line2d_39">
      <g>
       <use style="stroke:#000000;stroke-width:0.5;" x="416.386598915" xlink:href="#m75fa2132df" y="7.2"/>
      </g>
     </g>
     <g id="text_11">
      <!-- 3 -->
      <g transform="translate(410.024098915 371.996875)scale(0.2 -0.2)">
       <use xlink:href="#BitstreamVeraSans-Roman-33"/>
      </g>
     </g>
    </g>
    <g id="xtick_13">
     <g id="line2d_40">
      <path clip-path="url(#pfdcbca9149)" d="M 453.6 352.8 
L 453.6 7.2 
" style="fill:none;stroke:#000000;stroke-dasharray:1.000000,3.000000;stroke-dashoffset:0.0;stroke-width:0.5;"/>
     </g>
     <g id="line2d_41">
      <g>
       <use style="stroke:#000000;stroke-width:0.5;" x="453.6" xlink:href="#mf8e9c2703c" y="352.8"/>
      </g>
     </g>
     <g id="line2d_42">
      <g>
       <use style="stroke:#000000;stroke-width:0.5;" x="453.6" xlink:href="#m75fa2132df" y="7.2"/>
      </g>
     </g>
    </g>
    <g id="xtick_14"/>
    <g id="xtick_15">
     <g id="line2d_43">
      <defs>
       <path d="M 0 0 
L 0 -2 
" id="m49b7ea301f" style="stroke:#000000;stroke-width:0.5;"/>
      </defs>
      <g>
       <use style="stroke:#000000;stroke-width:0.5;" x="44.2525880688" xlink:href="#m49b7ea301f" y="352.8"/>
      </g>
     </g>
     <g id="line2d_44">
      <defs>
       <path d="M 0 0 
L 0 2 
" id="m69042cc8d9" style="stroke:#000000;stroke-width:0.5;"/>
      </defs>
      <g>
       <use style="stroke:#000000;stroke-width:0.5;" x="44.2525880688" xlink:href="#m69042cc8d9" y="7.2"/>
      </g>
     </g>
    </g>
    <g id="xtick_16">
     <g id="line2d_45">
      <g>
       <use style="stroke:#000000;stroke-width:0.5;" x="81.4659891535" xlink:href="#m49b7ea301f" y="352.8"/>
      </g>
     </g>
     <g id="line2d_46">
      <g>
       <use style="stroke:#000000;stroke-width:0.5;" x="81.4659891535" xlink:href="#m69042cc8d9" y="7.2"/>
      </g>
     </g>
    </g>
    <g id="xtick_17">
     <g id="line2d_47">
      <g>
       <use style="stroke:#000000;stroke-width:0.5;" x="118.679390238" xlink:href="#m49b7ea301f" y="352.8"/>
      </g>
     </g>
     <g id="line2d_48">
      <g>
       <use style="stroke:#000000;stroke-width:0.5;" x="118.679390238" xlink:href="#m69042cc8d9" y="7.2"/>
      </g>
     </g>
    </g>
    <g id="xtick_18">
     <g id="line2d_49">
      <g>
       <use style="stroke:#000000;stroke-width:0.5;" x="155.892791323" xlink:href="#m49b7ea301f" y="352.8"/>
      </g>
     </g>
     <g id="line2d_50">
      <g>
       <use style="stroke:#000000;stroke-width:0.5;" x="155.892791323" xlink:href="#m69042cc8d9" y="7.2"/>
      </g>
     </g>
    </g>
    <g id="xtick_19">
     <g id="line2d_51">
      <g>
       <use style="stroke:#000000;stroke-width:0.5;" x="193.106192407" xlink:href="#m49b7ea301f" y="352.8"/>
      </g>
     </g>
     <g id="line2d_52">
      <g>
       <use style="stroke:#000000;stroke-width:0.5;" x="193.106192407" xlink:href="#m69042cc8d9" y="7.2"/>
      </g>
     </g>
    </g>
    <g id="xtick_20">
     <g id="line2d_53">
      <g>
       <use style="stroke:#000000;stroke-width:0.5;" x="230.319593492" xlink:href="#m49b7ea301f" y="352.8"/>
      </g>
     </g>
     <g id="line2d_54">
      <g>
       <use style="stroke:#000000;stroke-width:0.5;" x="230.319593492" xlink:href="#m69042cc8d9" y="7.2"/>
      </g>
     </g>
    </g>
    <g id="xtick_21">
     <g id="line2d_55">
      <g>
       <use style="stroke:#000000;stroke-width:0.5;" x="267.532994577" xlink:href="#m49b7ea301f" y="352.8"/>
      </g>
     </g>
     <g id="line2d_56">
      <g>
       <use style="stroke:#000000;stroke-width:0.5;" x="267.532994577" xlink:href="#m69042cc8d9" y="7.2"/>
      </g>
     </g>
    </g>
    <g id="xtick_22">
     <g id="line2d_57">
      <g>
       <use style="stroke:#000000;stroke-width:0.5;" x="304.746395661" xlink:href="#m49b7ea301f" y="352.8"/>
      </g>
     </g>
     <g id="line2d_58">
      <g>
       <use style="stroke:#000000;stroke-width:0.5;" x="304.746395661" xlink:href="#m69042cc8d9" y="7.2"/>
      </g>
     </g>
    </g>
    <g id="xtick_23">
     <g id="line2d_59">
      <g>
       <use style="stroke:#000000;stroke-width:0.5;" x="341.959796746" xlink:href="#m49b7ea301f" y="352.8"/>
      </g>
     </g>
     <g id="line2d_60">
      <g>
       <use style="stroke:#000000;stroke-width:0.5;" x="341.959796746" xlink:href="#m69042cc8d9" y="7.2"/>
      </g>
     </g>
    </g>
    <g id="xtick_24">
     <g id="line2d_61">
      <g>
       <use style="stroke:#000000;stroke-width:0.5;" x="379.173197831" xlink:href="#m49b7ea301f" y="352.8"/>
      </g>
     </g>
     <g id="line2d_62">
      <g>
       <use style="stroke:#000000;stroke-width:0.5;" x="379.173197831" xlink:href="#m69042cc8d9" y="7.2"/>
      </g>
     </g>
    </g>
    <g id="xtick_25">
     <g id="line2d_63">
      <g>
       <use style="stroke:#000000;stroke-width:0.5;" x="416.386598915" xlink:href="#m49b7ea301f" y="352.8"/>
      </g>
     </g>
     <g id="line2d_64">
      <g>
       <use style="stroke:#000000;stroke-width:0.5;" x="416.386598915" xlink:href="#m69042cc8d9" y="7.2"/>
      </g>
     </g>
    </g>
    <g id="xtick_26">
     <g id="line2d_65">
      <g>
       <use style="stroke:#000000;stroke-width:0.5;" x="453.6" xlink:href="#m49b7ea301f" y="352.8"/>
      </g>
     </g>
     <g id="line2d_66">
      <g>
       <use style="stroke:#000000;stroke-width:0.5;" x="453.6" xlink:href="#m69042cc8d9" y="7.2"/>
      </g>
     </g>
    </g>
    <g id="text_12">
     <!-- log10 of Df -->
     <defs>
      <path id="BitstreamVeraSans-Roman-20"/>
      <path d="M 30.609375 48.390625 
Q 23.390625 48.390625 19.1875 42.75 
Q 14.984375 37.109375 14.984375 27.296875 
Q 14.984375 17.484375 19.15625 11.84375 
Q 23.34375 6.203125 30.609375 6.203125 
Q 37.796875 6.203125 41.984375 11.859375 
Q 46.1875 17.53125 46.1875 27.296875 
Q 46.1875 37.015625 41.984375 42.703125 
Q 37.796875 48.390625 30.609375 48.390625 
M 30.609375 56 
Q 42.328125 56 49.015625 48.375 
Q 55.71875 40.765625 55.71875 27.296875 
Q 55.71875 13.875 49.015625 6.21875 
Q 42.328125 -1.421875 30.609375 -1.421875 
Q 18.84375 -1.421875 12.171875 6.21875 
Q 5.515625 13.875 5.515625 27.296875 
Q 5.515625 40.765625 12.171875 48.375 
Q 18.84375 56 30.609375 56 
" id="BitstreamVeraSans-Roman-6f"/>
      <path d="M 9.421875 75.984375 
L 18.40625 75.984375 
L 18.40625 0 
L 9.421875 0 
z
" id="BitstreamVeraSans-Roman-6c"/>
      <path d="M 19.671875 64.796875 
L 19.671875 8.109375 
L 31.59375 8.109375 
Q 46.6875 8.109375 53.6875 14.9375 
Q 60.6875 21.78125 60.6875 36.53125 
Q 60.6875 51.171875 53.6875 57.984375 
Q 46.6875 64.796875 31.59375 64.796875 
z
M 9.8125 72.90625 
L 30.078125 72.90625 
Q 51.265625 72.90625 61.171875 64.09375 
Q 71.09375 55.28125 71.09375 36.53125 
Q 71.09375 17.671875 61.125 8.828125 
Q 51.171875 0 30.078125 0 
L 9.8125 0 
z
" id="BitstreamVeraSans-Roman-44"/>
      <path d="M 45.40625 27.984375 
Q 45.40625 37.75 41.375 43.109375 
Q 37.359375 48.484375 30.078125 48.484375 
Q 22.859375 48.484375 18.828125 43.109375 
Q 14.796875 37.75 14.796875 27.984375 
Q 14.796875 18.265625 18.828125 12.890625 
Q 22.859375 7.515625 30.078125 7.515625 
Q 37.359375 7.515625 41.375 12.890625 
Q 45.40625 18.265625 45.40625 27.984375 
M 54.390625 6.78125 
Q 54.390625 -7.171875 48.1875 -13.984375 
Q 42 -20.796875 29.203125 -20.796875 
Q 24.46875 -20.796875 20.265625 -20.09375 
Q 16.0625 -19.390625 12.109375 -17.921875 
L 12.109375 -9.1875 
Q 16.0625 -11.328125 19.921875 -12.34375 
Q 23.78125 -13.375 27.78125 -13.375 
Q 36.625 -13.375 41.015625 -8.765625 
Q 45.40625 -4.15625 45.40625 5.171875 
L 45.40625 9.625 
Q 42.625 4.78125 38.28125 2.390625 
Q 33.9375 0 27.875 0 
Q 17.828125 0 11.671875 7.65625 
Q 5.515625 15.328125 5.515625 27.984375 
Q 5.515625 40.671875 11.671875 48.328125 
Q 17.828125 56 27.875 56 
Q 33.9375 56 38.28125 53.609375 
Q 42.625 51.21875 45.40625 46.390625 
L 45.40625 54.6875 
L 54.390625 54.6875 
z
" id="BitstreamVeraSans-Roman-67"/>
      <path d="M 37.109375 75.984375 
L 37.109375 68.5 
L 28.515625 68.5 
Q 23.6875 68.5 21.796875 66.546875 
Q 19.921875 64.59375 19.921875 59.515625 
L 19.921875 54.6875 
L 34.71875 54.6875 
L 34.71875 47.703125 
L 19.921875 47.703125 
L 19.921875 0 
L 10.890625 0 
L 10.890625 47.703125 
L 2.296875 47.703125 
L 2.296875 54.6875 
L 10.890625 54.6875 
L 10.890625 58.5 
Q 10.890625 67.625 15.140625 71.796875 
Q 19.390625 75.984375 28.609375 75.984375 
z
" id="BitstreamVeraSans-Roman-66"/>
     </defs>
     <g transform="translate(175.2140625 396.353125)scale(0.2 -0.2)">
      <use xlink:href="#BitstreamVeraSans-Roman-6c"/>
      <use x="27.783203125" xlink:href="#BitstreamVeraSans-Roman-6f"/>
      <use x="88.96484375" xlink:href="#BitstreamVeraSans-Roman-67"/>
      <use x="152.44140625" xlink:href="#BitstreamVeraSans-Roman-31"/>
      <use x="216.064453125" xlink:href="#BitstreamVeraSans-Roman-30"/>
      <use x="279.6875" xlink:href="#BitstreamVeraSans-Roman-20"/>
      <use x="311.474609375" xlink:href="#BitstreamVeraSans-Roman-6f"/>
      <use x="372.65625" xlink:href="#BitstreamVeraSans-Roman-66"/>
      <use x="407.861328125" xlink:href="#BitstreamVeraSans-Roman-20"/>
      <use x="439.6484375" xlink:href="#BitstreamVeraSans-Roman-44"/>
      <use x="516.650390625" xlink:href="#BitstreamVeraSans-Roman-66"/>
     </g>
    </g>
   </g>
   <g id="matplotlib.axis_2">
    <g id="ytick_1">
     <g id="line2d_67">
      <path clip-path="url(#pfdcbca9149)" d="M 7.2 352.8 
L 453.6 352.8 
" style="fill:none;stroke:#000000;stroke-dasharray:1.000000,3.000000;stroke-dashoffset:0.0;stroke-width:0.5;"/>
     </g>
     <g id="line2d_68">
      <defs>
       <path d="M 0 0 
L 4 0 
" id="mb7d259f5d5" style="stroke:#000000;stroke-width:0.5;"/>
      </defs>
      <g>
       <use style="stroke:#000000;stroke-width:0.5;" x="7.2" xlink:href="#mb7d259f5d5" y="352.8"/>
      </g>
     </g>
     <g id="line2d_69">
      <defs>
       <path d="M 0 0 
L -4 0 
" id="m01ecb54fc5" style="stroke:#000000;stroke-width:0.5;"/>
      </defs>
      <g>
       <use style="stroke:#000000;stroke-width:0.5;" x="453.6" xlink:href="#m01ecb54fc5" y="352.8"/>
      </g>
     </g>
    </g>
    <g id="ytick_2">
     <g id="line2d_70">
      <path clip-path="url(#pfdcbca9149)" d="M 7.2 284.364356 
L 453.6 284.364356 
" style="fill:none;stroke:#000000;stroke-dasharray:1.000000,3.000000;stroke-dashoffset:0.0;stroke-width:0.5;"/>
     </g>
     <g id="line2d_71">
      <g>
       <use style="stroke:#000000;stroke-width:0.5;" x="7.2" xlink:href="#mb7d259f5d5" y="284.364356436"/>
      </g>
     </g>
     <g id="line2d_72">
      <g>
       <use style="stroke:#000000;stroke-width:0.5;" x="453.6" xlink:href="#m01ecb54fc5" y="284.364356436"/>
      </g>
     </g>
    </g>
    <g id="ytick_3">
     <g id="line2d_73">
      <path clip-path="url(#pfdcbca9149)" d="M 7.2 215.928713 
L 453.6 215.928713 
" style="fill:none;stroke:#000000;stroke-dasharray:1.000000,3.000000;stroke-dashoffset:0.0;stroke-width:0.5;"/>
     </g>
     <g id="line2d_74">
      <g>
       <use style="stroke:#000000;stroke-width:0.5;" x="7.2" xlink:href="#mb7d259f5d5" y="215.928712871"/>
      </g>
     </g>
     <g id="line2d_75">
      <g>
       <use style="stroke:#000000;stroke-width:0.5;" x="453.6" xlink:href="#m01ecb54fc5" y="215.928712871"/>
      </g>
     </g>
    </g>
    <g id="ytick_4">
     <g id="line2d_76">
      <path clip-path="url(#pfdcbca9149)" d="M 7.2 147.493069 
L 453.6 147.493069 
" style="fill:none;stroke:#000000;stroke-dasharray:1.000000,3.000000;stroke-dashoffset:0.0;stroke-width:0.5;"/>
     </g>
     <g id="line2d_77">
      <g>
       <use style="stroke:#000000;stroke-width:0.5;" x="7.2" xlink:href="#mb7d259f5d5" y="147.493069307"/>
      </g>
     </g>
     <g id="line2d_78">
      <g>
       <use style="stroke:#000000;stroke-width:0.5;" x="453.6" xlink:href="#m01ecb54fc5" y="147.493069307"/>
      </g>
     </g>
    </g>
    <g id="ytick_5">
     <g id="line2d_79">
      <path clip-path="url(#pfdcbca9149)" d="M 7.2 79.057426 
L 453.6 79.057426 
" style="fill:none;stroke:#000000;stroke-dasharray:1.000000,3.000000;stroke-dashoffset:0.0;stroke-width:0.5;"/>
     </g>
     <g id="line2d_80">
      <g>
       <use style="stroke:#000000;stroke-width:0.5;" x="7.2" xlink:href="#mb7d259f5d5" y="79.0574257426"/>
      </g>
     </g>
     <g id="line2d_81">
      <g>
       <use style="stroke:#000000;stroke-width:0.5;" x="453.6" xlink:href="#m01ecb54fc5" y="79.0574257426"/>
      </g>
     </g>
    </g>
    <g id="ytick_6">
     <g id="line2d_82">
      <path clip-path="url(#pfdcbca9149)" d="M 7.2 10.621782 
L 453.6 10.621782 
" style="fill:none;stroke:#000000;stroke-dasharray:1.000000,3.000000;stroke-dashoffset:0.0;stroke-width:0.5;"/>
     </g>
     <g id="line2d_83">
      <g>
       <use style="stroke:#000000;stroke-width:0.5;" x="7.2" xlink:href="#mb7d259f5d5" y="10.6217821782"/>
      </g>
     </g>
     <g id="line2d_84">
      <g>
       <use style="stroke:#000000;stroke-width:0.5;" x="453.6" xlink:href="#m01ecb54fc5" y="10.6217821782"/>
      </g>
     </g>
    </g>
   </g>
   <g id="text_13">
    <!-- {f1-f55}, 5-D -->
    <defs>
     <path d="M 12.5 -9.28125 
L 15.921875 -9.28125 
Q 22.75 -9.28125 24.828125 -7.171875 
Q 26.90625 -5.078125 26.90625 1.90625 
L 26.90625 14.015625 
Q 26.90625 21.625 29.09375 25.09375 
Q 31.296875 28.5625 36.71875 29.890625 
Q 31.296875 31.109375 29.09375 34.5625 
Q 26.90625 38.03125 26.90625 45.703125 
L 26.90625 57.8125 
Q 26.90625 64.75 24.828125 66.875 
Q 22.75 69 15.921875 69 
L 12.5 69 
L 12.5 75.984375 
L 15.578125 75.984375 
Q 27.734375 75.984375 31.8125 72.390625 
Q 35.890625 68.796875 35.890625 58.015625 
L 35.890625 46.296875 
Q 35.890625 39.015625 38.515625 36.203125 
Q 41.15625 33.40625 48.09375 33.40625 
L 51.125 33.40625 
L 51.125 26.421875 
L 48.09375 26.421875 
Q 41.15625 26.421875 38.515625 23.578125 
Q 35.890625 20.75 35.890625 13.375 
L 35.890625 1.703125 
Q 35.890625 -9.078125 31.8125 -12.6875 
Q 27.734375 -16.3125 15.578125 -16.3125 
L 12.5 -16.3125 
z
" id="BitstreamVeraSans-Roman-7d"/>
     <path d="M 51.125 -9.28125 
L 51.125 -16.3125 
L 48.09375 -16.3125 
Q 35.9375 -16.3125 31.8125 -12.6875 
Q 27.6875 -9.078125 27.6875 1.703125 
L 27.6875 13.375 
Q 27.6875 20.75 25.046875 23.578125 
Q 22.40625 26.421875 15.484375 26.421875 
L 12.5 26.421875 
L 12.5 33.40625 
L 15.484375 33.40625 
Q 22.46875 33.40625 25.078125 36.203125 
Q 27.6875 39.015625 27.6875 46.296875 
L 27.6875 58.015625 
Q 27.6875 68.796875 31.8125 72.390625 
Q 35.9375 75.984375 48.09375 75.984375 
L 51.125 75.984375 
L 51.125 69 
L 47.796875 69 
Q 40.921875 69 38.8125 66.84375 
Q 36.71875 64.703125 36.71875 57.8125 
L 36.71875 45.703125 
Q 36.71875 38.03125 34.5 34.5625 
Q 32.28125 31.109375 26.90625 29.890625 
Q 32.328125 28.5625 34.515625 25.09375 
Q 36.71875 21.625 36.71875 14.015625 
L 36.71875 1.90625 
Q 36.71875 -4.984375 38.8125 -7.125 
Q 40.921875 -9.28125 47.796875 -9.28125 
z
" id="BitstreamVeraSans-Roman-7b"/>
     <path d="M 11.71875 12.40625 
L 22.015625 12.40625 
L 22.015625 4 
L 14.015625 -11.625 
L 7.71875 -11.625 
L 11.71875 4 
z
" id="BitstreamVeraSans-Roman-2c"/>
    </defs>
    <g transform="translate(311.697 345.888)scale(0.2 -0.2)">
     <use xlink:href="#BitstreamVeraSans-Roman-7b"/>
     <use x="63.623046875" xlink:href="#BitstreamVeraSans-Roman-66"/>
     <use x="98.828125" xlink:href="#BitstreamVeraSans-Roman-31"/>
     <use x="162.451171875" xlink:href="#BitstreamVeraSans-Roman-2d"/>
     <use x="198.53515625" xlink:href="#BitstreamVeraSans-Roman-66"/>
     <use x="233.740234375" xlink:href="#BitstreamVeraSans-Roman-35"/>
     <use x="297.36328125" xlink:href="#BitstreamVeraSans-Roman-35"/>
     <use x="360.986328125" xlink:href="#BitstreamVeraSans-Roman-7d"/>
     <use x="424.609375" xlink:href="#BitstreamVeraSans-Roman-2c"/>
     <use x="456.396484375" xlink:href="#BitstreamVeraSans-Roman-20"/>
     <use x="488.18359375" xlink:href="#BitstreamVeraSans-Roman-35"/>
     <use x="551.806640625" xlink:href="#BitstreamVeraSans-Roman-2d"/>
     <use x="587.890625" xlink:href="#BitstreamVeraSans-Roman-44"/>
    </g>
   </g>
   <g id="text_14">
    <!-- 0.0.0 -->
    <defs>
     <path d="M 10.6875 12.40625 
L 21 12.40625 
L 21 0 
L 10.6875 0 
z
" id="BitstreamVeraSans-Roman-2e"/>
    </defs>
    <g style="fill:#808080;" transform="translate(217.678125 347.2643125)scale(0.1 -0.1)">
     <use xlink:href="#BitstreamVeraSans-Roman-30"/>
     <use x="63.623046875" xlink:href="#BitstreamVeraSans-Roman-2e"/>
     <use x="95.41015625" xlink:href="#BitstreamVeraSans-Roman-30"/>
     <use x="159.033203125" xlink:href="#BitstreamVeraSans-Roman-2e"/>
     <use x="190.8203125" xlink:href="#BitstreamVeraSans-Roman-30"/>
    </g>
   </g>
  </g>
 </g>
 <defs>
  <clipPath id="pfdcbca9149">
   <rect height="345.6" width="446.4" x="7.2" y="7.2"/>
  </clipPath>
 </defs>
</svg>
