<?xml version="1.0" encoding="utf-8" standalone="no"?>
<!DOCTYPE svg PUBLIC "-//W3C//DTD SVG 1.1//EN"
  "http://www.w3.org/Graphics/SVG/1.1/DTD/svg11.dtd">
<!-- Created with matplotlib (http://matplotlib.org/) -->
<svg height="407pt" version="1.1" viewBox="0 0 460 407" width="460pt" xmlns="http://www.w3.org/2000/svg" xmlns:xlink="http://www.w3.org/1999/xlink">
 <defs>
  <style type="text/css">
*{stroke-linecap:butt;stroke-linejoin:round;stroke-miterlimit:100000;}
  </style>
 </defs>
 <g id="figure_1">
  <g id="patch_1">
   <path d="M 0 407.7125 
L 460.8 407.7125 
L 460.8 0 
L 0 0 
z
" style="fill:#ffffff;"/>
  </g>
  <g id="axes_1">
   <g id="patch_2">
    <path d="M 7.2 352.8 
L 453.6 352.8 
L 453.6 7.2 
L 7.2 7.2 
z
" style="fill:#ffffff;"/>
   </g>
   <g id="line2d_1">
    <path clip-path="url(#p3555385869)" d="M 252.458138 352.8 
L 252.458138 351.555716 
L 252.694197 351.555716 
L 252.694197 350.311431 
L 259.967631 350.311431 
L 259.967631 349.067147 
L 264.786813 349.067147 
L 264.786813 347.822862 
L 266.999422 347.822862 
L 266.999422 346.578578 
L 269.893293 346.578578 
L 269.893293 345.334293 
L 270.682519 345.334293 
L 270.682519 344.090009 
L 273.00325 344.090009 
L 273.00325 342.845725 
L 273.369604 342.845725 
L 273.369604 341.60144 
L 274.379155 341.60144 
L 274.379155 340.357156 
L 274.537874 340.357156 
L 274.643598 337.868587 
L 274.830157 337.868587 
L 274.830157 336.624302 
L 276.019949 336.624302 
L 276.019949 335.380018 
L 276.429209 335.380018 
L 276.429209 334.135734 
L 276.632876 334.135734 
L 276.632876 332.891449 
L 276.826787 332.891449 
L 276.827943 330.40288 
L 277.499551 330.40288 
L 277.499551 329.158596 
L 278.281745 329.158596 
L 278.281745 327.914311 
L 278.534965 327.914311 
L 278.534965 326.670027 
L 280.082537 326.670027 
L 280.082537 325.425743 
L 280.232149 325.425743 
L 280.327296 321.692889 
L 280.578798 321.692889 
L 280.68008 317.960036 
L 281.30934 317.960036 
L 281.390884 315.471467 
L 281.670537 315.471467 
L 281.740187 312.982898 
L 281.848564 312.982898 
L 281.848564 311.738614 
L 281.991538 311.738614 
L 282.031724 309.250045 
L 282.11267 309.250045 
L 282.212112 306.761476 
L 282.388948 306.761476 
L 282.388948 305.517192 
L 282.524462 305.517192 
L 282.606614 301.784338 
L 282.794026 301.784338 
L 282.794026 300.540054 
L 283.137181 300.540054 
L 283.137181 299.29577 
L 283.431279 299.29577 
L 283.504744 296.807201 
L 283.563797 296.807201 
L 283.623403 294.318632 
L 283.715405 294.318632 
L 283.715405 293.074347 
L 283.855011 293.074347 
L 283.949117 290.585779 
L 284.309965 290.585779 
L 284.309965 289.341494 
L 284.480869 289.341494 
L 284.544993 284.364356 
L 284.896187 284.364356 
L 284.896187 283.120072 
L 285.228335 283.120072 
L 285.228335 281.875788 
L 285.43615 281.875788 
L 285.43615 280.631503 
L 285.555519 280.631503 
L 285.555519 279.387219 
L 286.051019 279.387219 
L 286.132059 275.654365 
L 286.327023 275.654365 
L 286.342703 273.165797 
L 286.745231 273.165797 
L 286.776923 270.677228 
L 286.974143 270.677228 
L 287.02525 266.944374 
L 287.163906 266.944374 
L 287.163906 265.70009 
L 287.351412 265.70009 
L 287.351412 264.455806 
L 287.492685 264.455806 
L 287.492685 263.211521 
L 287.772081 263.211521 
L 287.803896 260.722952 
L 288.124864 260.722952 
L 288.205719 258.234383 
L 288.560059 258.234383 
L 288.560059 256.990099 
L 288.787924 256.990099 
L 288.85238 254.50153 
L 289.021281 254.50153 
L 289.11629 252.012961 
L 289.81596 252.012961 
L 289.81596 250.768677 
L 289.93746 250.768677 
L 289.995781 248.280108 
L 290.073315 248.280108 
L 290.085879 245.791539 
L 290.269739 245.791539 
L 290.366322 242.058686 
L 290.493115 242.058686 
L 290.493115 240.814401 
L 290.738189 240.814401 
L 290.738189 239.570117 
L 290.894333 239.570117 
L 290.999471 235.837264 
L 291.124613 235.837264 
L 291.215892 232.10441 
L 291.434678 232.10441 
L 291.434678 230.860126 
L 291.651804 230.860126 
L 291.688946 227.127273 
L 291.871203 227.127273 
L 291.871203 225.882988 
L 292.154287 225.882988 
L 292.26004 220.905851 
L 292.409707 220.905851 
L 292.516501 218.417282 
L 292.590487 218.417282 
L 292.590487 217.172997 
L 292.729114 217.172997 
L 292.729114 215.928713 
L 292.849192 215.928713 
L 292.91847 212.19586 
L 293.068135 212.19586 
L 293.08483 209.707291 
L 293.312634 209.707291 
L 293.312634 208.463006 
L 293.733775 208.463006 
L 293.733775 207.218722 
L 293.984249 207.218722 
L 293.984249 205.974437 
L 294.135271 205.974437 
L 294.135271 204.730153 
L 294.317739 204.730153 
L 294.382118 199.753015 
L 294.487058 199.753015 
L 294.487058 198.508731 
L 294.614247 198.508731 
L 294.614247 197.264446 
L 294.783021 197.264446 
L 294.804935 194.775878 
L 294.989593 194.775878 
L 295.028949 192.287309 
L 295.142842 192.287309 
L 295.22399 188.554455 
L 295.335491 188.554455 
L 295.343288 186.065887 
L 295.487285 186.065887 
L 295.487285 184.821602 
L 295.641412 184.821602 
L 295.686034 182.333033 
L 295.809467 182.333033 
L 295.868367 179.844464 
L 296.029442 179.844464 
L 296.0596 177.355896 
L 296.254516 177.355896 
L 296.254516 176.111611 
L 296.406697 176.111611 
L 296.406697 174.867327 
L 296.791159 174.867327 
L 296.807327 172.378758 
L 296.970923 172.378758 
L 296.970923 171.134473 
L 297.175995 171.134473 
L 297.187449 168.645905 
L 297.308077 168.645905 
L 297.404898 166.157336 
L 297.5516 166.157336 
L 297.5516 164.913051 
L 297.990733 164.913051 
L 297.990733 163.668767 
L 298.106363 163.668767 
L 298.133673 161.180198 
L 298.273583 161.180198 
L 298.384321 157.447345 
L 298.516144 157.447345 
L 298.516144 156.20306 
L 298.689135 156.20306 
L 298.728961 153.714491 
L 298.811945 153.714491 
L 298.921212 149.981638 
L 298.954709 149.981638 
L 298.954709 148.737354 
L 299.180771 148.737354 
L 299.180771 147.493069 
L 299.303709 147.493069 
L 299.303709 146.248785 
L 299.48845 146.248785 
L 299.570746 142.515932 
L 299.626174 142.515932 
L 299.73407 140.027363 
L 300.066929 140.027363 
L 300.123423 137.538794 
L 300.321602 137.538794 
L 300.321602 136.294509 
L 300.551186 136.294509 
L 300.612712 132.561656 
L 300.679133 132.561656 
L 300.705105 130.073087 
L 300.957805 130.073087 
L 300.957805 128.828803 
L 301.269025 128.828803 
L 301.282487 126.340234 
L 301.44109 126.340234 
L 301.513518 123.851665 
L 301.606839 123.851665 
L 301.697672 121.363096 
L 301.732422 121.363096 
L 301.751903 118.874527 
L 301.986224 118.874527 
L 302.05245 116.385959 
L 302.135851 116.385959 
L 302.173548 113.89739 
L 302.353781 113.89739 
L 302.353781 112.653105 
L 302.475771 112.653105 
L 302.581365 108.920252 
L 302.758717 108.920252 
L 302.785097 106.431683 
L 302.874097 106.431683 
L 302.874097 105.187399 
L 303.070736 105.187399 
L 303.070736 103.943114 
L 303.410226 103.943114 
L 303.410226 102.69883 
L 303.646731 102.69883 
L 303.646731 101.454545 
L 303.762071 101.454545 
L 303.762071 100.210261 
L 303.912433 100.210261 
L 303.946107 97.721692 
L 304.329954 97.721692 
L 304.329954 96.477408 
L 304.630435 96.477408 
L 304.630435 95.233123 
L 304.928001 95.233123 
L 304.997421 92.744554 
L 305.139941 92.744554 
L 305.139941 91.50027 
L 305.282067 91.50027 
L 305.360798 89.011701 
L 305.425098 89.011701 
L 305.431298 86.523132 
L 305.630328 86.523132 
L 305.630328 85.278848 
L 305.939907 85.278848 
L 306.025589 81.545995 
L 306.109376 81.545995 
L 306.109376 80.30171 
L 306.227417 80.30171 
L 306.227417 79.057426 
L 306.672008 79.057426 
L 306.672008 77.813141 
L 306.80375 77.813141 
L 306.80375 76.568857 
L 307.323341 76.568857 
L 307.323341 75.324572 
L 307.654122 75.324572 
L 307.675664 71.591719 
L 307.900977 71.591719 
L 307.992579 69.10315 
L 308.090452 69.10315 
L 308.090452 67.858866 
L 308.283484 67.858866 
L 308.283484 66.614581 
L 308.675659 66.614581 
L 308.675659 65.370297 
L 308.8283 65.370297 
L 308.8283 64.126013 
L 309.24684 64.126013 
L 309.24684 62.881728 
L 310.750376 62.881728 
L 310.750376 61.637444 
L 310.903683 61.637444 
L 310.903683 60.393159 
L 311.468469 60.393159 
L 311.468469 59.148875 
L 311.955327 59.148875 
L 311.955327 57.90459 
L 313.669428 57.90459 
L 313.669428 56.660306 
L 315.932959 56.660306 
L 315.932959 55.416022 
L 316.673846 55.416022 
L 316.777171 51.683168 
L 317.274429 51.683168 
L 317.274429 50.438884 
L 318.316168 50.438884 
L 318.316168 49.194599 
L 319.044281 49.194599 
L 319.044281 47.950315 
L 319.745544 47.950315 
L 319.818775 45.461746 
L 320.5921 45.461746 
L 320.5921 44.217462 
L 321.002122 44.217462 
L 321.05344 41.728893 
L 322.190727 41.728893 
L 322.190727 40.484608 
L 325.867678 40.484608 
L 325.867678 39.240324 
L 326.102736 39.240324 
L 326.102736 37.99604 
L 328.011276 37.99604 
L 328.011276 36.751755 
L 329.647797 36.751755 
L 329.647797 35.507471 
L 332.157493 35.507471 
L 332.157493 34.263186 
L 333.312667 34.263186 
L 333.312667 33.018902 
L 333.770368 33.018902 
L 333.770368 31.774617 
L 334.720382 31.774617 
L 334.770124 29.286049 
L 335.961151 29.286049 
L 335.961151 28.041764 
L 338.873314 28.041764 
L 338.890983 25.553195 
L 339.690515 25.553195 
L 339.690515 24.308911 
L 342.790771 24.308911 
L 342.790771 23.064626 
L 343.152627 23.064626 
L 343.152627 21.820342 
L 345.308822 21.820342 
L 345.308822 20.576058 
L 349.476807 20.576058 
L 349.476807 19.331773 
L 349.962565 19.331773 
L 349.962565 18.087489 
L 351.140498 18.087489 
L 351.140498 16.843204 
L 354.583597 16.843204 
L 354.583597 15.59892 
L 374.805943 15.59892 
L 374.805943 14.354635 
L 387.85881 14.354635 
L 387.85881 13.110351 
L 399.974953 13.110351 
L 399.974953 11.866067 
L 445.536737 11.866067 
L 445.536737 10.621782 
L 445.536737 10.621782 
L 453.6 10.621782 
L 453.6 10.621782 
" style="fill:none;stroke:#ff0000;stroke-linecap:square;stroke-width:3.0;"/>
   </g>
   <g id="line2d_2">
    <path clip-path="url(#p3555385869)" d="M 273.037282 352.8 
L 273.037282 351.555716 
L 274.643598 351.555716 
L 274.643598 350.311431 
L 277.865682 350.311431 
L 277.865682 349.067147 
L 278.909888 349.067147 
L 278.909888 347.822862 
L 279.44364 347.822862 
L 279.44364 346.578578 
L 279.664214 346.578578 
L 279.664214 345.334293 
L 280.241784 345.334293 
L 280.241784 344.090009 
L 280.919481 344.090009 
L 280.919481 342.845725 
L 281.578598 342.845725 
L 281.578598 341.60144 
L 281.773607 341.60144 
L 281.773607 340.357156 
L 282.524462 340.357156 
L 282.524462 339.112871 
L 282.83716 339.112871 
L 282.89372 336.624302 
L 283.755004 336.624302 
L 283.755004 335.380018 
L 284.23012 335.380018 
L 284.23012 334.135734 
L 284.749933 334.135734 
L 284.848653 331.647165 
L 285.571543 331.647165 
L 285.571543 330.40288 
L 285.812456 330.40288 
L 285.812456 329.158596 
L 286.291927 329.158596 
L 286.291927 327.914311 
L 286.54308 327.914311 
L 286.651986 324.181458 
L 286.730846 324.181458 
L 286.776923 321.692889 
L 287.037999 321.692889 
L 287.037999 320.448605 
L 287.563594 320.448605 
L 287.631059 317.960036 
L 287.863264 317.960036 
L 287.863264 316.715752 
L 288.25254 316.715752 
L 288.283779 314.227183 
L 288.513482 314.227183 
L 288.513482 312.982898 
L 289.505234 312.982898 
L 289.505234 311.738614 
L 289.938989 311.738614 
L 289.938989 310.494329 
L 290.055451 310.494329 
L 290.055451 309.250045 
L 290.331907 309.250045 
L 290.397121 305.517192 
L 290.671842 305.517192 
L 290.671842 304.272907 
L 291.012752 304.272907 
L 291.012752 303.028623 
L 291.434678 303.028623 
L 291.434678 301.784338 
L 291.793446 301.784338 
L 291.793446 300.540054 
L 291.919331 300.540054 
L 292.007362 296.807201 
L 292.235882 296.807201 
L 292.278334 294.318632 
L 292.426226 294.318632 
L 292.516501 290.585779 
L 292.729114 290.585779 
L 292.729114 289.341494 
L 293.278258 289.341494 
L 293.378526 286.852925 
L 293.412933 286.852925 
L 293.412933 285.608641 
L 293.892496 285.608641 
L 293.990183 281.875788 
L 294.139132 281.875788 
L 294.178275 279.387219 
L 294.252176 279.387219 
L 294.347376 274.410081 
L 294.814502 274.410081 
L 294.899161 271.921512 
L 295.193604 271.921512 
L 295.193604 270.677228 
L 295.317531 270.677228 
L 295.317531 269.432943 
L 295.562385 269.432943 
L 295.562385 268.188659 
L 295.675421 268.188659 
L 295.784489 265.70009 
L 295.910899 265.70009 
L 295.910899 264.455806 
L 296.493539 264.455806 
L 296.493539 263.211521 
L 296.714982 263.211521 
L 296.769096 259.478668 
L 297.008511 259.478668 
L 297.048964 256.990099 
L 297.135126 256.990099 
L 297.19121 254.50153 
L 297.38664 254.50153 
L 297.38664 253.257246 
L 297.859777 253.257246 
L 297.936975 250.768677 
L 298.111085 250.768677 
L 298.111085 249.524392 
L 298.230833 249.524392 
L 298.244686 247.035824 
L 298.642124 247.035824 
L 298.689135 243.30297 
L 298.844263 243.30297 
L 298.844263 242.058686 
L 298.964626 242.058686 
L 298.964626 240.814401 
L 299.110996 240.814401 
L 299.12873 237.081548 
L 299.29122 237.081548 
L 299.343936 234.592979 
L 299.428727 234.592979 
L 299.428727 233.348695 
L 299.73407 233.348695 
L 299.73407 232.10441 
L 299.991961 232.10441 
L 299.991961 230.860126 
L 300.210044 230.860126 
L 300.210044 229.615842 
L 300.332133 229.615842 
L 300.396825 227.127273 
L 300.450377 227.127273 
L 300.528102 224.638704 
L 300.583391 224.638704 
L 300.62323 222.150135 
L 301.045209 222.150135 
L 301.128516 217.172997 
L 301.177435 217.172997 
L 301.24711 214.684428 
L 301.398548 214.684428 
L 301.466324 212.19586 
L 301.546801 212.19586 
L 301.625632 208.463006 
L 301.680903 208.463006 
L 301.751903 204.730153 
L 301.874821 204.730153 
L 301.893921 200.9973 
L 302.025319 200.9973 
L 302.135851 197.264446 
L 302.155473 197.264446 
L 302.206872 193.531593 
L 302.284259 193.531593 
L 302.353781 189.79874 
L 302.47056 189.79874 
L 302.47056 188.554455 
L 302.785097 188.554455 
L 302.878407 182.333033 
L 302.937048 182.333033 
L 302.983673 178.60018 
L 303.070736 178.60018 
L 303.070736 177.355896 
L 303.201832 177.355896 
L 303.307337 174.867327 
L 303.317796 174.867327 
L 303.317796 173.623042 
L 303.486124 173.623042 
L 303.581949 169.890189 
L 303.644995 169.890189 
L 303.736062 164.913051 
L 303.762071 164.913051 
L 303.762071 163.668767 
L 303.979175 163.668767 
L 303.986862 161.180198 
L 304.123393 161.180198 
L 304.227208 158.691629 
L 304.320972 158.691629 
L 304.404042 153.714491 
L 304.521381 153.714491 
L 304.630435 151.225923 
L 304.685805 151.225923 
L 304.685805 149.981638 
L 304.928001 149.981638 
L 304.997421 143.760216 
L 305.0992 143.760216 
L 305.21001 138.783078 
L 305.237106 138.783078 
L 305.328394 135.050225 
L 305.400664 135.050225 
L 305.425098 132.561656 
L 305.584804 132.561656 
L 305.584804 131.317372 
L 305.821288 131.317372 
L 305.885676 128.828803 
L 305.939907 128.828803 
L 306.043038 122.607381 
L 306.08712 122.607381 
L 306.109376 118.874527 
L 306.203015 118.874527 
L 306.20706 116.385959 
L 306.414067 116.385959 
L 306.473885 112.653105 
L 306.672008 112.653105 
L 306.759545 110.164536 
L 307.026163 110.164536 
L 307.026163 108.920252 
L 307.323341 108.920252 
L 307.399262 106.431683 
L 307.766562 106.431683 
L 307.766562 105.187399 
L 307.900977 105.187399 
L 307.946325 102.69883 
L 308.258092 102.69883 
L 308.258092 101.454545 
L 308.397034 101.454545 
L 308.397034 100.210261 
L 308.675659 100.210261 
L 308.675659 98.965977 
L 308.95397 98.965977 
L 308.95397 97.721692 
L 309.137287 97.721692 
L 309.24684 93.988839 
L 309.628699 93.988839 
L 309.681547 91.50027 
L 310.105973 91.50027 
L 310.105973 90.255986 
L 310.238874 90.255986 
L 310.344408 87.767417 
L 310.750376 87.767417 
L 310.750376 86.523132 
L 311.342789 86.523132 
L 311.342789 85.278848 
L 311.955327 85.278848 
L 311.955327 84.034563 
L 312.108301 84.034563 
L 312.108301 82.790279 
L 312.479445 82.790279 
L 312.479445 81.545995 
L 312.711262 81.545995 
L 312.711262 80.30171 
L 313.624894 80.30171 
L 313.624894 79.057426 
L 314.270067 79.057426 
L 314.270067 77.813141 
L 315.497004 77.813141 
L 315.524569 75.324572 
L 315.641692 75.324572 
L 315.641692 74.080288 
L 315.801556 74.080288 
L 315.801556 72.836004 
L 316.673846 72.836004 
L 316.673846 71.591719 
L 317.103373 71.591719 
L 317.103373 70.347435 
L 317.252863 70.347435 
L 317.252863 69.10315 
L 318.069907 69.10315 
L 318.069907 67.858866 
L 318.758097 67.858866 
L 318.758097 66.614581 
L 319.044281 66.614581 
L 319.044281 65.370297 
L 319.266921 65.370297 
L 319.266921 64.126013 
L 319.597462 64.126013 
L 319.597462 62.881728 
L 319.818775 62.881728 
L 319.818775 61.637444 
L 320.185941 61.637444 
L 320.293318 59.148875 
L 320.953272 59.148875 
L 321.002122 56.660306 
L 321.66918 56.660306 
L 321.66918 55.416022 
L 322.194608 55.416022 
L 322.194608 54.171737 
L 322.613361 54.171737 
L 322.613361 52.927453 
L 322.904665 52.927453 
L 322.904665 51.683168 
L 323.650945 51.683168 
L 323.650945 50.438884 
L 324.993495 50.438884 
L 324.993495 49.194599 
L 325.573048 49.194599 
L 325.573048 47.950315 
L 325.974188 47.950315 
L 326.006547 45.461746 
L 326.588284 45.461746 
L 326.588284 44.217462 
L 329.647797 44.217462 
L 329.647797 42.973177 
L 330.297475 42.973177 
L 330.297475 41.728893 
L 330.522642 41.728893 
L 330.522642 40.484608 
L 330.903518 40.484608 
L 330.970629 37.99604 
L 332.702326 37.99604 
L 332.702326 36.751755 
L 334.159461 36.751755 
L 334.159461 35.507471 
L 336.677646 35.507471 
L 336.677646 34.263186 
L 338.405715 34.263186 
L 338.405715 33.018902 
L 338.777697 33.018902 
L 338.777697 31.774617 
L 339.690515 31.774617 
L 339.690515 30.530333 
L 340.968451 30.530333 
L 340.968451 29.286049 
L 342.283501 29.286049 
L 342.283501 28.041764 
L 342.790771 28.041764 
L 342.790771 26.79748 
L 345.759425 26.79748 
L 345.759425 25.553195 
L 346.330049 25.553195 
L 346.330049 24.308911 
L 351.692671 24.308911 
L 351.692671 23.064626 
L 352.538669 23.064626 
L 352.538669 21.820342 
L 354.934554 21.820342 
L 354.934554 20.576058 
L 356.780383 20.576058 
L 356.780383 19.331773 
L 376.842515 19.331773 
L 376.842515 18.087489 
L 382.357596 18.087489 
L 382.357596 16.843204 
L 388.376769 16.843204 
L 388.376769 15.59892 
L 399.974953 15.59892 
L 399.974953 14.354635 
L 400.724596 14.354635 
L 400.724596 13.110351 
L 401.545825 13.110351 
L 401.545825 11.866067 
L 446.076232 11.866067 
L 446.076232 10.621782 
L 446.076232 10.621782 
L 453.6 10.621782 
L 453.6 10.621782 
" style="fill:none;stroke:#00bfbf;stroke-linecap:square;"/>
   </g>
   <g id="line2d_3">
    <path clip-path="url(#p3555385869)" d="M 273.037282 352.8 
L 273.037282 351.555716 
L 274.643598 351.555716 
L 274.643598 350.311431 
L 277.865682 350.311431 
L 277.865682 349.067147 
L 278.909888 349.067147 
L 278.909888 347.822862 
L 279.44364 347.822862 
L 279.44364 346.578578 
L 279.664214 346.578578 
L 279.664214 345.334293 
L 280.241784 345.334293 
L 280.241784 344.090009 
L 280.919481 344.090009 
L 280.919481 342.845725 
L 281.578598 342.845725 
L 281.578598 341.60144 
L 281.773607 341.60144 
L 281.773607 340.357156 
L 282.524462 340.357156 
L 282.524462 339.112871 
L 282.83716 339.112871 
L 282.89372 336.624302 
L 283.755004 336.624302 
L 283.755004 335.380018 
L 284.23012 335.380018 
L 284.23012 334.135734 
L 284.749933 334.135734 
L 284.848653 331.647165 
L 285.571543 331.647165 
L 285.571543 330.40288 
L 285.812456 330.40288 
L 285.812456 329.158596 
L 286.291927 329.158596 
L 286.291927 327.914311 
L 286.54308 327.914311 
L 286.651986 324.181458 
L 286.730846 324.181458 
L 286.776923 321.692889 
L 287.037999 321.692889 
L 287.037999 320.448605 
L 287.563594 320.448605 
L 287.631059 317.960036 
L 287.863264 317.960036 
L 287.863264 316.715752 
L 288.25254 316.715752 
L 288.283779 314.227183 
L 288.513482 314.227183 
L 288.513482 312.982898 
L 289.505234 312.982898 
L 289.505234 311.738614 
L 289.938989 311.738614 
L 289.938989 310.494329 
L 290.055451 310.494329 
L 290.055451 309.250045 
L 290.331907 309.250045 
L 290.397121 305.517192 
L 290.671842 305.517192 
L 290.671842 304.272907 
L 291.012752 304.272907 
L 291.012752 303.028623 
L 291.434678 303.028623 
L 291.434678 301.784338 
L 291.793446 301.784338 
L 291.793446 300.540054 
L 291.919331 300.540054 
L 292.007362 296.807201 
L 292.235882 296.807201 
L 292.278334 294.318632 
L 292.426226 294.318632 
L 292.516501 290.585779 
L 292.729114 290.585779 
L 292.729114 289.341494 
L 293.278258 289.341494 
L 293.378526 286.852925 
L 293.412933 286.852925 
L 293.412933 285.608641 
L 293.892496 285.608641 
L 293.990183 281.875788 
L 294.139132 281.875788 
L 294.178275 279.387219 
L 294.252176 279.387219 
L 294.347376 274.410081 
L 294.814502 274.410081 
L 294.899161 271.921512 
L 295.193604 271.921512 
L 295.193604 270.677228 
L 295.317531 270.677228 
L 295.317531 269.432943 
L 295.562385 269.432943 
L 295.562385 268.188659 
L 295.675421 268.188659 
L 295.784489 265.70009 
L 295.910899 265.70009 
L 295.910899 264.455806 
L 296.493539 264.455806 
L 296.493539 263.211521 
L 296.714982 263.211521 
L 296.769096 259.478668 
L 297.008511 259.478668 
L 297.048964 256.990099 
L 297.135126 256.990099 
L 297.19121 254.50153 
L 297.38664 254.50153 
L 297.38664 253.257246 
L 297.859777 253.257246 
L 297.936975 250.768677 
L 298.111085 250.768677 
L 298.111085 249.524392 
L 298.230833 249.524392 
L 298.244686 247.035824 
L 298.642124 247.035824 
L 298.689135 243.30297 
L 298.844263 243.30297 
L 298.844263 242.058686 
L 298.964626 242.058686 
L 298.964626 240.814401 
L 299.110996 240.814401 
L 299.12873 237.081548 
L 299.29122 237.081548 
L 299.343936 234.592979 
L 299.428727 234.592979 
L 299.428727 233.348695 
L 299.73407 233.348695 
L 299.73407 232.10441 
L 299.991961 232.10441 
L 299.991961 230.860126 
L 300.210044 230.860126 
L 300.210044 229.615842 
L 300.332133 229.615842 
L 300.396825 227.127273 
L 300.450377 227.127273 
L 300.528102 224.638704 
L 300.583391 224.638704 
L 300.62323 222.150135 
L 301.045209 222.150135 
L 301.128516 217.172997 
L 301.177435 217.172997 
L 301.24711 214.684428 
L 301.398548 214.684428 
L 301.466324 212.19586 
L 301.546801 212.19586 
L 301.625632 208.463006 
L 301.680903 208.463006 
L 301.751903 204.730153 
L 301.874821 204.730153 
L 301.893921 200.9973 
L 302.025319 200.9973 
L 302.135851 197.264446 
L 302.155473 197.264446 
L 302.206872 193.531593 
L 302.284259 193.531593 
L 302.353781 189.79874 
L 302.47056 189.79874 
L 302.47056 188.554455 
L 302.785097 188.554455 
L 302.878407 182.333033 
L 302.937048 182.333033 
L 302.983673 178.60018 
L 303.070736 178.60018 
L 303.070736 177.355896 
L 303.201832 177.355896 
L 303.307337 174.867327 
L 303.317796 174.867327 
L 303.317796 173.623042 
L 303.486124 173.623042 
L 303.581949 169.890189 
L 303.644995 169.890189 
L 303.736062 164.913051 
L 303.762071 164.913051 
L 303.762071 163.668767 
L 303.979175 163.668767 
L 303.986862 161.180198 
L 304.123393 161.180198 
L 304.227208 158.691629 
L 304.320972 158.691629 
L 304.404042 153.714491 
L 304.521381 153.714491 
L 304.630435 151.225923 
L 304.685805 151.225923 
L 304.685805 149.981638 
L 304.928001 149.981638 
L 304.997421 143.760216 
L 305.0992 143.760216 
L 305.21001 138.783078 
L 305.237106 138.783078 
L 305.328394 135.050225 
L 305.400664 135.050225 
L 305.425098 132.561656 
L 305.584804 132.561656 
L 305.584804 131.317372 
L 305.821288 131.317372 
L 305.885676 128.828803 
L 305.939907 128.828803 
L 306.043038 122.607381 
L 306.08712 122.607381 
L 306.109376 118.874527 
L 306.203015 118.874527 
L 306.20706 116.385959 
L 306.414067 116.385959 
L 306.473885 112.653105 
L 306.672008 112.653105 
L 306.759545 110.164536 
L 307.026163 110.164536 
L 307.026163 108.920252 
L 307.323341 108.920252 
L 307.399262 106.431683 
L 307.766562 106.431683 
L 307.766562 105.187399 
L 307.900977 105.187399 
L 307.946325 102.69883 
L 308.258092 102.69883 
L 308.258092 101.454545 
L 308.397034 101.454545 
L 308.397034 100.210261 
L 308.675659 100.210261 
L 308.675659 98.965977 
L 308.95397 98.965977 
L 308.95397 97.721692 
L 309.137287 97.721692 
L 309.24684 93.988839 
L 309.628699 93.988839 
L 309.681547 91.50027 
L 310.105973 91.50027 
L 310.105973 90.255986 
L 310.238874 90.255986 
L 310.344408 87.767417 
L 310.750376 87.767417 
L 310.750376 86.523132 
L 311.342789 86.523132 
L 311.342789 85.278848 
L 311.955327 85.278848 
L 311.955327 84.034563 
L 312.108301 84.034563 
L 312.108301 82.790279 
L 312.479445 82.790279 
L 312.479445 81.545995 
L 312.711262 81.545995 
L 312.711262 80.30171 
L 313.624894 80.30171 
L 313.624894 79.057426 
L 314.270067 79.057426 
L 314.270067 77.813141 
L 315.497004 77.813141 
L 315.524569 75.324572 
L 315.641692 75.324572 
L 315.641692 74.080288 
L 315.801556 74.080288 
L 315.801556 72.836004 
L 316.673846 72.836004 
L 316.673846 71.591719 
L 317.103373 71.591719 
L 317.103373 70.347435 
L 317.252863 70.347435 
L 317.252863 69.10315 
L 318.069907 69.10315 
L 318.069907 67.858866 
L 318.758097 67.858866 
L 318.758097 66.614581 
L 319.044281 66.614581 
L 319.044281 65.370297 
L 319.266921 65.370297 
L 319.266921 64.126013 
L 319.597462 64.126013 
L 319.597462 62.881728 
L 319.818775 62.881728 
L 319.818775 61.637444 
L 320.185941 61.637444 
L 320.293318 59.148875 
L 320.953272 59.148875 
L 321.002122 56.660306 
L 321.66918 56.660306 
L 321.66918 55.416022 
L 322.194608 55.416022 
L 322.194608 54.171737 
L 322.613361 54.171737 
L 322.613361 52.927453 
L 322.904665 52.927453 
L 322.904665 51.683168 
L 323.650945 51.683168 
L 323.650945 50.438884 
L 324.993495 50.438884 
L 324.993495 49.194599 
L 325.573048 49.194599 
L 325.573048 47.950315 
L 325.974188 47.950315 
L 326.006547 45.461746 
L 326.588284 45.461746 
L 326.588284 44.217462 
L 329.647797 44.217462 
L 329.647797 42.973177 
L 330.297475 42.973177 
L 330.297475 41.728893 
L 330.522642 41.728893 
L 330.522642 40.484608 
L 330.903518 40.484608 
L 330.970629 37.99604 
L 332.702326 37.99604 
L 332.702326 36.751755 
L 334.159461 36.751755 
L 334.159461 35.507471 
L 336.677646 35.507471 
L 336.677646 34.263186 
L 338.405715 34.263186 
L 338.405715 33.018902 
L 338.777697 33.018902 
L 338.777697 31.774617 
L 339.690515 31.774617 
L 339.690515 30.530333 
L 340.968451 30.530333 
L 340.968451 29.286049 
L 342.283501 29.286049 
L 342.283501 28.041764 
L 342.790771 28.041764 
L 342.790771 26.79748 
L 345.759425 26.79748 
L 345.759425 25.553195 
L 346.330049 25.553195 
L 346.330049 24.308911 
L 351.692671 24.308911 
L 351.692671 23.064626 
L 352.538669 23.064626 
L 352.538669 21.820342 
L 354.934554 21.820342 
L 354.934554 20.576058 
L 356.780383 20.576058 
L 356.780383 19.331773 
L 376.842515 19.331773 
L 376.842515 18.087489 
L 382.357596 18.087489 
L 382.357596 16.843204 
L 388.376769 16.843204 
L 388.376769 15.59892 
L 399.974953 15.59892 
L 399.974953 14.354635 
L 400.724596 14.354635 
L 400.724596 13.110351 
L 401.545825 13.110351 
L 401.545825 11.866067 
L 446.076232 11.866067 
L 446.076232 10.621782 
L 446.076232 10.621782 
L 453.6 10.621782 
L 453.6 10.621782 
" style="fill:none;stroke:#bf00bf;stroke-linecap:square;"/>
   </g>
   <g id="line2d_4">
    <path clip-path="url(#p3555385869)" d="M 273.037282 352.8 
L 273.037282 351.555716 
L 274.643598 351.555716 
L 274.643598 350.311431 
L 277.865682 350.311431 
L 277.865682 349.067147 
L 278.909888 349.067147 
L 278.909888 347.822862 
L 279.44364 347.822862 
L 279.44364 346.578578 
L 279.664214 346.578578 
L 279.664214 345.334293 
L 280.241784 345.334293 
L 280.241784 344.090009 
L 280.919481 344.090009 
L 280.919481 342.845725 
L 281.578598 342.845725 
L 281.578598 341.60144 
L 281.773607 341.60144 
L 281.773607 340.357156 
L 282.524462 340.357156 
L 282.524462 339.112871 
L 282.83716 339.112871 
L 282.89372 336.624302 
L 283.596915 336.624302 
L 283.596915 335.380018 
L 284.23012 335.380018 
L 284.23012 334.135734 
L 284.749933 334.135734 
L 284.848653 331.647165 
L 285.170199 331.647165 
L 285.23857 329.158596 
L 285.571543 329.158596 
L 285.571543 327.914311 
L 285.812456 327.914311 
L 285.812456 326.670027 
L 286.291927 326.670027 
L 286.291927 325.425743 
L 286.54308 325.425743 
L 286.651986 321.692889 
L 286.730846 321.692889 
L 286.776923 319.20432 
L 287.563594 319.20432 
L 287.631059 316.715752 
L 287.863264 316.715752 
L 287.863264 315.471467 
L 288.25254 315.471467 
L 288.283779 312.982898 
L 288.513482 312.982898 
L 288.513482 311.738614 
L 289.505234 311.738614 
L 289.505234 310.494329 
L 289.938989 310.494329 
L 289.938989 309.250045 
L 290.055451 309.250045 
L 290.055451 308.005761 
L 290.331907 308.005761 
L 290.397121 304.272907 
L 290.646869 304.272907 
L 290.671842 301.784338 
L 291.434678 301.784338 
L 291.434678 300.540054 
L 291.793446 300.540054 
L 291.793446 299.29577 
L 291.919331 299.29577 
L 292.007362 295.562916 
L 292.235882 295.562916 
L 292.278334 293.074347 
L 292.426226 293.074347 
L 292.516501 289.341494 
L 292.729114 289.341494 
L 292.729114 288.09721 
L 293.278258 288.09721 
L 293.378526 285.608641 
L 293.412933 285.608641 
L 293.412933 284.364356 
L 293.892496 284.364356 
L 293.990183 280.631503 
L 294.132238 280.631503 
L 294.178275 276.89865 
L 294.252176 276.89865 
L 294.28119 273.165797 
L 294.814502 273.165797 
L 294.899161 270.677228 
L 295.193604 270.677228 
L 295.193604 269.432943 
L 295.317531 269.432943 
L 295.317531 268.188659 
L 295.562385 268.188659 
L 295.562385 266.944374 
L 295.675421 266.944374 
L 295.784489 264.455806 
L 295.910899 264.455806 
L 295.910899 263.211521 
L 296.493539 263.211521 
L 296.493539 261.967237 
L 296.714982 261.967237 
L 296.769096 258.234383 
L 297.008511 258.234383 
L 297.048964 255.745815 
L 297.135126 255.745815 
L 297.19121 252.012961 
L 297.859777 252.012961 
L 297.936975 249.524392 
L 298.111085 249.524392 
L 298.111085 248.280108 
L 298.230833 248.280108 
L 298.244686 245.791539 
L 298.487199 245.791539 
L 298.539998 243.30297 
L 298.657652 243.30297 
L 298.689135 240.814401 
L 298.844263 240.814401 
L 298.844263 239.570117 
L 298.964626 239.570117 
L 298.964626 238.325833 
L 299.110996 238.325833 
L 299.12873 234.592979 
L 299.29122 234.592979 
L 299.343936 232.10441 
L 299.464559 232.10441 
L 299.464559 230.860126 
L 299.73407 230.860126 
L 299.73407 229.615842 
L 299.991961 229.615842 
L 299.991961 228.371557 
L 300.210044 228.371557 
L 300.210044 227.127273 
L 300.332133 227.127273 
L 300.396825 224.638704 
L 300.450377 224.638704 
L 300.528102 222.150135 
L 300.583391 222.150135 
L 300.583391 220.905851 
L 301.045209 220.905851 
L 301.128516 214.684428 
L 301.177435 214.684428 
L 301.24711 210.951575 
L 301.398548 210.951575 
L 301.466324 208.463006 
L 301.546801 208.463006 
L 301.625632 204.730153 
L 301.680903 204.730153 
L 301.751903 202.241584 
L 301.874821 202.241584 
L 301.893921 198.508731 
L 302.025319 198.508731 
L 302.135851 194.775878 
L 302.155473 194.775878 
L 302.206872 191.043024 
L 302.284259 191.043024 
L 302.353781 187.310171 
L 302.47056 187.310171 
L 302.47056 186.065887 
L 302.785097 186.065887 
L 302.873032 179.844464 
L 302.937048 179.844464 
L 302.983673 176.111611 
L 303.059395 176.111611 
L 303.070736 173.623042 
L 303.201832 173.623042 
L 303.259611 171.134473 
L 303.317796 171.134473 
L 303.317796 169.890189 
L 303.486124 169.890189 
L 303.581949 166.157336 
L 303.644995 166.157336 
L 303.736062 163.668767 
L 303.762071 163.668767 
L 303.762071 162.424482 
L 303.979175 162.424482 
L 303.986862 159.935914 
L 304.123393 159.935914 
L 304.227208 157.447345 
L 304.320972 157.447345 
L 304.404042 152.470207 
L 304.521381 152.470207 
L 304.630435 149.981638 
L 304.685805 149.981638 
L 304.685805 148.737354 
L 304.928001 148.737354 
L 304.997421 142.515932 
L 305.139941 142.515932 
L 305.237106 137.538794 
L 305.321791 137.538794 
L 305.425098 132.561656 
L 305.515463 132.561656 
L 305.584804 130.073087 
L 305.821288 130.073087 
L 305.885676 127.584518 
L 305.939907 127.584518 
L 306.043038 121.363096 
L 306.08712 121.363096 
L 306.109376 117.630243 
L 306.203015 117.630243 
L 306.20706 115.141674 
L 306.414067 115.141674 
L 306.473885 111.408821 
L 306.672008 111.408821 
L 306.759545 108.920252 
L 307.026163 108.920252 
L 307.026163 107.675968 
L 307.323341 107.675968 
L 307.399262 105.187399 
L 307.766562 105.187399 
L 307.766562 103.943114 
L 307.900977 103.943114 
L 307.946325 101.454545 
L 308.258092 101.454545 
L 308.258092 100.210261 
L 308.397034 100.210261 
L 308.397034 98.965977 
L 308.675659 98.965977 
L 308.675659 97.721692 
L 308.95397 97.721692 
L 308.95397 96.477408 
L 309.148216 96.477408 
L 309.24684 93.988839 
L 309.628699 93.988839 
L 309.681547 91.50027 
L 310.105973 91.50027 
L 310.105973 90.255986 
L 310.238874 90.255986 
L 310.344408 87.767417 
L 310.750376 87.767417 
L 310.750376 86.523132 
L 311.342789 86.523132 
L 311.342789 85.278848 
L 311.955327 85.278848 
L 311.955327 84.034563 
L 312.108301 84.034563 
L 312.108301 82.790279 
L 312.479445 82.790279 
L 312.479445 81.545995 
L 312.711262 81.545995 
L 312.711262 80.30171 
L 313.624894 80.30171 
L 313.624894 79.057426 
L 314.270067 79.057426 
L 314.270067 77.813141 
L 315.497004 77.813141 
L 315.524569 75.324572 
L 315.641692 75.324572 
L 315.641692 74.080288 
L 315.801556 74.080288 
L 315.801556 72.836004 
L 316.673846 72.836004 
L 316.673846 71.591719 
L 317.103373 71.591719 
L 317.103373 70.347435 
L 317.252863 70.347435 
L 317.252863 69.10315 
L 318.069907 69.10315 
L 318.069907 67.858866 
L 318.758097 67.858866 
L 318.758097 66.614581 
L 319.044281 66.614581 
L 319.044281 65.370297 
L 319.266921 65.370297 
L 319.266921 64.126013 
L 319.597462 64.126013 
L 319.597462 62.881728 
L 319.818775 62.881728 
L 319.818775 61.637444 
L 320.185941 61.637444 
L 320.293318 59.148875 
L 320.953272 59.148875 
L 321.002122 56.660306 
L 321.66918 56.660306 
L 321.66918 55.416022 
L 322.194608 55.416022 
L 322.194608 54.171737 
L 322.613361 54.171737 
L 322.613361 52.927453 
L 322.904665 52.927453 
L 322.904665 51.683168 
L 323.650945 51.683168 
L 323.650945 50.438884 
L 324.993495 50.438884 
L 324.993495 49.194599 
L 325.573048 49.194599 
L 325.573048 47.950315 
L 325.974188 47.950315 
L 326.006547 45.461746 
L 326.588284 45.461746 
L 326.588284 44.217462 
L 329.647797 44.217462 
L 329.647797 42.973177 
L 330.297475 42.973177 
L 330.297475 41.728893 
L 330.522642 41.728893 
L 330.522642 40.484608 
L 330.903518 40.484608 
L 330.970629 37.99604 
L 332.702326 37.99604 
L 332.702326 36.751755 
L 334.159461 36.751755 
L 334.159461 35.507471 
L 336.677646 35.507471 
L 336.677646 34.263186 
L 338.405715 34.263186 
L 338.405715 33.018902 
L 338.777697 33.018902 
L 338.777697 31.774617 
L 339.690515 31.774617 
L 339.690515 30.530333 
L 340.968451 30.530333 
L 340.968451 29.286049 
L 342.283501 29.286049 
L 342.283501 28.041764 
L 342.790771 28.041764 
L 342.790771 26.79748 
L 345.759425 26.79748 
L 345.759425 25.553195 
L 346.330049 25.553195 
L 346.330049 24.308911 
L 351.692671 24.308911 
L 351.692671 23.064626 
L 352.538669 23.064626 
L 352.538669 21.820342 
L 354.934554 21.820342 
L 354.934554 20.576058 
L 356.780383 20.576058 
L 356.780383 19.331773 
L 376.771242 19.331773 
L 376.771242 18.087489 
L 382.357596 18.087489 
L 382.357596 16.843204 
L 388.376769 16.843204 
L 388.376769 15.59892 
L 399.974953 15.59892 
L 399.974953 14.354635 
L 400.724596 14.354635 
L 400.724596 13.110351 
L 401.545825 13.110351 
L 401.545825 11.866067 
L 446.041924 11.866067 
L 446.041924 10.621782 
L 446.041924 10.621782 
L 453.6 10.621782 
L 453.6 10.621782 
" style="fill:none;stroke:#000000;stroke-linecap:square;"/>
   </g>
   <g id="line2d_5">
    <path clip-path="url(#p3555385869)" d="M 254.354169 352.8 
L 254.354169 351.555716 
L 273.037282 351.555716 
L 273.037282 350.311431 
L 274.643598 350.311431 
L 274.643598 349.067147 
L 277.865682 349.067147 
L 277.865682 347.822862 
L 277.98708 347.822862 
L 277.98708 346.578578 
L 278.847792 346.578578 
L 278.909888 344.090009 
L 279.377249 344.090009 
L 279.377249 342.845725 
L 279.664214 342.845725 
L 279.664214 341.60144 
L 280.023606 341.60144 
L 280.023606 340.357156 
L 280.241784 340.357156 
L 280.241784 339.112871 
L 281.578598 339.112871 
L 281.578598 337.868587 
L 281.773607 337.868587 
L 281.773607 336.624302 
L 282.524462 336.624302 
L 282.524462 335.380018 
L 282.89372 335.380018 
L 282.89372 334.135734 
L 283.196589 334.135734 
L 283.291174 331.647165 
L 283.501936 331.647165 
L 283.501936 330.40288 
L 284.431996 330.40288 
L 284.431996 329.158596 
L 284.749933 329.158596 
L 284.848653 325.425743 
L 284.914378 325.425743 
L 284.914378 324.181458 
L 285.360915 324.181458 
L 285.360915 322.937174 
L 285.571543 322.937174 
L 285.666681 320.448605 
L 286.291927 320.448605 
L 286.291927 319.20432 
L 286.589526 319.20432 
L 286.651986 316.715752 
L 286.730846 316.715752 
L 286.80822 311.738614 
L 287.028172 311.738614 
L 287.028172 310.494329 
L 287.563594 310.494329 
L 287.563594 309.250045 
L 287.863264 309.250045 
L 287.958965 306.761476 
L 288.422951 306.761476 
L 288.422951 305.517192 
L 288.564908 305.517192 
L 288.564908 304.272907 
L 288.839335 304.272907 
L 288.839335 303.028623 
L 289.297129 303.028623 
L 289.297129 301.784338 
L 289.40964 301.784338 
L 289.473636 299.29577 
L 289.673182 299.29577 
L 289.673182 298.051485 
L 289.965423 298.051485 
L 290.055451 294.318632 
L 290.217515 294.318632 
L 290.217515 293.074347 
L 290.331907 293.074347 
L 290.331907 291.830063 
L 290.642363 291.830063 
L 290.671842 289.341494 
L 291.434678 289.341494 
L 291.434678 288.09721 
L 291.753659 288.09721 
L 291.781706 285.608641 
L 291.919331 285.608641 
L 291.983778 283.120072 
L 292.235882 283.120072 
L 292.235882 281.875788 
L 292.426226 281.875788 
L 292.516501 276.89865 
L 292.729114 276.89865 
L 292.827831 274.410081 
L 293.105478 274.410081 
L 293.186783 271.921512 
L 293.278258 271.921512 
L 293.378526 269.432943 
L 293.458525 269.432943 
L 293.458525 268.188659 
L 293.850821 268.188659 
L 293.960394 265.70009 
L 293.988595 265.70009 
L 293.990183 263.211521 
L 294.139132 263.211521 
L 294.139132 261.967237 
L 294.252176 261.967237 
L 294.28119 258.234383 
L 294.814007 258.234383 
L 294.899161 255.745815 
L 295.193604 255.745815 
L 295.228674 253.257246 
L 295.675421 253.257246 
L 295.784489 250.768677 
L 295.837004 250.768677 
L 295.910899 248.280108 
L 296.061481 248.280108 
L 296.123616 245.791539 
L 296.310527 245.791539 
L 296.405112 243.30297 
L 296.555925 243.30297 
L 296.555925 242.058686 
L 296.756768 242.058686 
L 296.756768 240.814401 
L 297.008511 240.814401 
L 297.048964 238.325833 
L 297.171559 238.325833 
L 297.19121 235.837264 
L 297.315569 235.837264 
L 297.315569 234.592979 
L 297.636829 234.592979 
L 297.718071 232.10441 
L 297.936682 232.10441 
L 297.956922 229.615842 
L 298.111085 229.615842 
L 298.124227 227.127273 
L 298.230833 227.127273 
L 298.230833 225.882988 
L 298.487199 225.882988 
L 298.487199 224.638704 
L 298.657652 224.638704 
L 298.707566 219.661566 
L 298.938594 219.661566 
L 298.938594 218.417282 
L 299.110996 218.417282 
L 299.131907 215.928713 
L 299.225767 215.928713 
L 299.29122 212.19586 
L 299.343936 212.19586 
L 299.343936 210.951575 
L 299.457006 210.951575 
L 299.457006 209.707291 
L 299.64495 209.707291 
L 299.73407 205.974437 
L 300.082022 205.974437 
L 300.082022 204.730153 
L 300.210044 204.730153 
L 300.210044 203.485869 
L 300.329951 203.485869 
L 300.329951 202.241584 
L 300.450377 202.241584 
L 300.450377 200.9973 
L 300.583391 200.9973 
L 300.583391 199.753015 
L 301.045209 199.753015 
L 301.129502 192.287309 
L 301.177435 192.287309 
L 301.273815 187.310171 
L 301.313626 187.310171 
L 301.313626 186.065887 
L 301.466324 186.065887 
L 301.466324 184.821602 
L 301.606839 184.821602 
L 301.680903 181.088749 
L 301.751903 181.088749 
L 301.85946 177.355896 
L 301.893921 177.355896 
L 301.912661 174.867327 
L 302.011213 174.867327 
L 302.025319 172.378758 
L 302.125717 172.378758 
L 302.173548 168.645905 
L 302.284259 168.645905 
L 302.353781 164.913051 
L 302.567704 164.913051 
L 302.567704 163.668767 
L 302.785097 163.668767 
L 302.873032 158.691629 
L 302.915246 158.691629 
L 302.96203 154.958776 
L 303.059395 154.958776 
L 303.070736 152.470207 
L 303.175757 152.470207 
L 303.201832 149.981638 
L 303.317796 149.981638 
L 303.317796 148.737354 
L 303.502903 148.737354 
L 303.581949 146.248785 
L 303.762071 146.248785 
L 303.762071 145.0045 
L 303.979175 145.0045 
L 303.979175 143.760216 
L 304.191605 143.760216 
L 304.202008 141.271647 
L 304.320972 141.271647 
L 304.404042 137.538794 
L 304.45213 137.538794 
L 304.478698 135.050225 
L 304.630435 135.050225 
L 304.685805 131.317372 
L 304.908057 131.317372 
L 304.997421 123.851665 
L 305.139941 123.851665 
L 305.218424 120.118812 
L 305.328394 120.118812 
L 305.425098 116.385959 
L 305.820898 116.385959 
L 305.820898 115.141674 
L 305.939907 115.141674 
L 306.035626 107.675968 
L 306.090561 107.675968 
L 306.109376 105.187399 
L 306.432894 105.187399 
L 306.432894 103.943114 
L 306.672008 103.943114 
L 306.759545 100.210261 
L 307.026163 100.210261 
L 307.026163 98.965977 
L 307.323341 98.965977 
L 307.399262 96.477408 
L 307.5658 96.477408 
L 307.5658 95.233123 
L 307.766562 95.233123 
L 307.766562 93.988839 
L 307.900977 93.988839 
L 307.946325 91.50027 
L 308.258092 91.50027 
L 308.258092 90.255986 
L 308.397034 90.255986 
L 308.397034 89.011701 
L 308.675659 89.011701 
L 308.675659 87.767417 
L 308.95397 87.767417 
L 308.95397 86.523132 
L 309.125439 86.523132 
L 309.125439 85.278848 
L 309.24684 85.278848 
L 309.24684 84.034563 
L 309.421523 84.034563 
L 309.520145 81.545995 
L 310.344408 81.545995 
L 310.344408 80.30171 
L 310.750376 80.30171 
L 310.855965 77.813141 
L 311.870993 77.813141 
L 311.955327 75.324572 
L 312.108301 75.324572 
L 312.108301 74.080288 
L 315.497004 74.080288 
L 315.524569 71.591719 
L 315.641692 71.591719 
L 315.641692 70.347435 
L 315.801556 70.347435 
L 315.801556 69.10315 
L 316.105903 69.10315 
L 316.105903 67.858866 
L 316.673846 67.858866 
L 316.673846 66.614581 
L 317.043744 66.614581 
L 317.103373 64.126013 
L 317.252863 64.126013 
L 317.252863 62.881728 
L 318.069907 62.881728 
L 318.069907 61.637444 
L 319.044281 61.637444 
L 319.044281 60.393159 
L 319.266921 60.393159 
L 319.266921 59.148875 
L 319.485589 59.148875 
L 319.534942 56.660306 
L 319.597462 56.660306 
L 319.597462 55.416022 
L 319.818775 55.416022 
L 319.818775 54.171737 
L 320.293318 54.171737 
L 320.293318 52.927453 
L 320.953272 52.927453 
L 321.002122 50.438884 
L 321.66918 50.438884 
L 321.66918 49.194599 
L 322.194608 49.194599 
L 322.194608 47.950315 
L 322.904665 47.950315 
L 322.904665 46.706031 
L 324.223628 46.706031 
L 324.223628 45.461746 
L 324.582596 45.461746 
L 324.582596 44.217462 
L 325.974188 44.217462 
L 325.974188 42.973177 
L 326.588284 42.973177 
L 326.588284 41.728893 
L 329.647797 41.728893 
L 329.647797 40.484608 
L 330.278531 40.484608 
L 330.278531 39.240324 
L 330.970629 39.240324 
L 330.970629 37.99604 
L 332.702326 37.99604 
L 332.702326 36.751755 
L 334.06154 36.751755 
L 334.06154 35.507471 
L 336.046747 35.507471 
L 336.046747 34.263186 
L 338.405715 34.263186 
L 338.405715 33.018902 
L 338.777697 33.018902 
L 338.777697 31.774617 
L 339.690515 31.774617 
L 339.690515 30.530333 
L 340.968451 30.530333 
L 340.968451 29.286049 
L 341.717697 29.286049 
L 341.717697 28.041764 
L 342.790771 28.041764 
L 342.790771 26.79748 
L 345.759425 26.79748 
L 345.759425 25.553195 
L 346.330049 25.553195 
L 346.330049 24.308911 
L 351.692671 24.308911 
L 351.692671 23.064626 
L 352.538669 23.064626 
L 352.538669 21.820342 
L 354.934554 21.820342 
L 354.934554 20.576058 
L 356.780383 20.576058 
L 356.780383 19.331773 
L 375.812149 19.331773 
L 375.812149 18.087489 
L 380.08886 18.087489 
L 380.08886 16.843204 
L 382.357596 16.843204 
L 382.357596 15.59892 
L 388.376769 15.59892 
L 388.376769 14.354635 
L 399.974953 14.354635 
L 399.974953 13.110351 
L 400.724596 13.110351 
L 400.724596 11.866067 
L 446.000604 11.866067 
L 446.000604 10.621782 
L 446.000604 10.621782 
L 453.6 10.621782 
L 453.6 10.621782 
" style="fill:none;stroke:#00bfbf;stroke-linecap:square;"/>
   </g>
   <g id="patch_3">
    <path d="M 7.2 7.2 
L 453.6 7.2 
" style="fill:none;stroke:#000000;stroke-linecap:square;stroke-linejoin:miter;"/>
   </g>
   <g id="patch_4">
    <path d="M 453.6 352.8 
L 453.6 7.2 
" style="fill:none;stroke:#000000;stroke-linecap:square;stroke-linejoin:miter;"/>
   </g>
   <g id="patch_5">
    <path d="M 7.2 352.8 
L 453.6 352.8 
" style="fill:none;stroke:#000000;stroke-linecap:square;stroke-linejoin:miter;"/>
   </g>
   <g id="patch_6">
    <path d="M 7.2 352.8 
L 7.2 7.2 
" style="fill:none;stroke:#000000;stroke-linecap:square;stroke-linejoin:miter;"/>
   </g>
   <g id="matplotlib.axis_1">
    <g id="xtick_1"/>
    <g id="xtick_2">
     <g id="line2d_6">
      <path clip-path="url(#p3555385869)" d="M 44.252588 352.8 
L 44.252588 7.2 
" style="fill:none;stroke:#000000;stroke-dasharray:1.000000,3.000000;stroke-dashoffset:0.0;stroke-width:0.5;"/>
     </g>
     <g id="line2d_7">
      <defs>
       <path d="M 0 0 
L 0 -4 
" id="m6e8f710208" style="stroke:#000000;stroke-width:0.5;"/>
      </defs>
      <g>
       <use style="stroke:#000000;stroke-width:0.5;" x="44.2525880688" xlink:href="#m6e8f710208" y="352.8"/>
      </g>
     </g>
     <g id="line2d_8">
      <defs>
       <path d="M 0 0 
L 0 4 
" id="m0d096583be" style="stroke:#000000;stroke-width:0.5;"/>
      </defs>
      <g>
       <use style="stroke:#000000;stroke-width:0.5;" x="44.2525880688" xlink:href="#m0d096583be" y="7.2"/>
      </g>
     </g>
     <g id="text_1">
      <!-- -7 -->
      <defs>
       <path d="M 4.890625 31.390625 
L 31.203125 31.390625 
L 31.203125 23.390625 
L 4.890625 23.390625 
z
" id="BitstreamVeraSans-Roman-2d"/>
       <path d="M 8.203125 72.90625 
L 55.078125 72.90625 
L 55.078125 68.703125 
L 28.609375 0 
L 18.3125 0 
L 43.21875 64.59375 
L 8.203125 64.59375 
z
" id="BitstreamVeraSans-Roman-37"/>
      </defs>
      <g transform="translate(34.2822755688 371.996875)scale(0.2 -0.2)">
       <use xlink:href="#BitstreamVeraSans-Roman-2d"/>
       <use x="36.083984375" xlink:href="#BitstreamVeraSans-Roman-37"/>
      </g>
     </g>
    </g>
    <g id="xtick_3">
     <g id="line2d_9">
      <path clip-path="url(#p3555385869)" d="M 81.465989 352.8 
L 81.465989 7.2 
" style="fill:none;stroke:#000000;stroke-dasharray:1.000000,3.000000;stroke-dashoffset:0.0;stroke-width:0.5;"/>
     </g>
     <g id="line2d_10">
      <g>
       <use style="stroke:#000000;stroke-width:0.5;" x="81.4659891535" xlink:href="#m6e8f710208" y="352.8"/>
      </g>
     </g>
     <g id="line2d_11">
      <g>
       <use style="stroke:#000000;stroke-width:0.5;" x="81.4659891535" xlink:href="#m0d096583be" y="7.2"/>
      </g>
     </g>
     <g id="text_2">
      <!-- -6 -->
      <defs>
       <path d="M 33.015625 40.375 
Q 26.375 40.375 22.484375 35.828125 
Q 18.609375 31.296875 18.609375 23.390625 
Q 18.609375 15.53125 22.484375 10.953125 
Q 26.375 6.390625 33.015625 6.390625 
Q 39.65625 6.390625 43.53125 10.953125 
Q 47.40625 15.53125 47.40625 23.390625 
Q 47.40625 31.296875 43.53125 35.828125 
Q 39.65625 40.375 33.015625 40.375 
M 52.59375 71.296875 
L 52.59375 62.3125 
Q 48.875 64.0625 45.09375 64.984375 
Q 41.3125 65.921875 37.59375 65.921875 
Q 27.828125 65.921875 22.671875 59.328125 
Q 17.53125 52.734375 16.796875 39.40625 
Q 19.671875 43.65625 24.015625 45.921875 
Q 28.375 48.1875 33.59375 48.1875 
Q 44.578125 48.1875 50.953125 41.515625 
Q 57.328125 34.859375 57.328125 23.390625 
Q 57.328125 12.15625 50.6875 5.359375 
Q 44.046875 -1.421875 33.015625 -1.421875 
Q 20.359375 -1.421875 13.671875 8.265625 
Q 6.984375 17.96875 6.984375 36.375 
Q 6.984375 53.65625 15.1875 63.9375 
Q 23.390625 74.21875 37.203125 74.21875 
Q 40.921875 74.21875 44.703125 73.484375 
Q 48.484375 72.75 52.59375 71.296875 
" id="BitstreamVeraSans-Roman-36"/>
      </defs>
      <g transform="translate(71.4956766535 371.996875)scale(0.2 -0.2)">
       <use xlink:href="#BitstreamVeraSans-Roman-2d"/>
       <use x="36.083984375" xlink:href="#BitstreamVeraSans-Roman-36"/>
      </g>
     </g>
    </g>
    <g id="xtick_4">
     <g id="line2d_12">
      <path clip-path="url(#p3555385869)" d="M 118.67939 352.8 
L 118.67939 7.2 
" style="fill:none;stroke:#000000;stroke-dasharray:1.000000,3.000000;stroke-dashoffset:0.0;stroke-width:0.5;"/>
     </g>
     <g id="line2d_13">
      <g>
       <use style="stroke:#000000;stroke-width:0.5;" x="118.679390238" xlink:href="#m6e8f710208" y="352.8"/>
      </g>
     </g>
     <g id="line2d_14">
      <g>
       <use style="stroke:#000000;stroke-width:0.5;" x="118.679390238" xlink:href="#m0d096583be" y="7.2"/>
      </g>
     </g>
     <g id="text_3">
      <!-- -5 -->
      <defs>
       <path d="M 10.796875 72.90625 
L 49.515625 72.90625 
L 49.515625 64.59375 
L 19.828125 64.59375 
L 19.828125 46.734375 
Q 21.96875 47.46875 24.109375 47.828125 
Q 26.265625 48.1875 28.421875 48.1875 
Q 40.625 48.1875 47.75 41.5 
Q 54.890625 34.8125 54.890625 23.390625 
Q 54.890625 11.625 47.5625 5.09375 
Q 40.234375 -1.421875 26.90625 -1.421875 
Q 22.3125 -1.421875 17.546875 -0.640625 
Q 12.796875 0.140625 7.71875 1.703125 
L 7.71875 11.625 
Q 12.109375 9.234375 16.796875 8.0625 
Q 21.484375 6.890625 26.703125 6.890625 
Q 35.15625 6.890625 40.078125 11.328125 
Q 45.015625 15.765625 45.015625 23.390625 
Q 45.015625 31 40.078125 35.4375 
Q 35.15625 39.890625 26.703125 39.890625 
Q 22.75 39.890625 18.8125 39.015625 
Q 14.890625 38.140625 10.796875 36.28125 
z
" id="BitstreamVeraSans-Roman-35"/>
      </defs>
      <g transform="translate(108.709077738 371.996875)scale(0.2 -0.2)">
       <use xlink:href="#BitstreamVeraSans-Roman-2d"/>
       <use x="36.083984375" xlink:href="#BitstreamVeraSans-Roman-35"/>
      </g>
     </g>
    </g>
    <g id="xtick_5">
     <g id="line2d_15">
      <path clip-path="url(#p3555385869)" d="M 155.892791 352.8 
L 155.892791 7.2 
" style="fill:none;stroke:#000000;stroke-dasharray:1.000000,3.000000;stroke-dashoffset:0.0;stroke-width:0.5;"/>
     </g>
     <g id="line2d_16">
      <g>
       <use style="stroke:#000000;stroke-width:0.5;" x="155.892791323" xlink:href="#m6e8f710208" y="352.8"/>
      </g>
     </g>
     <g id="line2d_17">
      <g>
       <use style="stroke:#000000;stroke-width:0.5;" x="155.892791323" xlink:href="#m0d096583be" y="7.2"/>
      </g>
     </g>
     <g id="text_4">
      <!-- -4 -->
      <defs>
       <path d="M 37.796875 64.3125 
L 12.890625 25.390625 
L 37.796875 25.390625 
z
M 35.203125 72.90625 
L 47.609375 72.90625 
L 47.609375 25.390625 
L 58.015625 25.390625 
L 58.015625 17.1875 
L 47.609375 17.1875 
L 47.609375 0 
L 37.796875 0 
L 37.796875 17.1875 
L 4.890625 17.1875 
L 4.890625 26.703125 
z
" id="BitstreamVeraSans-Roman-34"/>
      </defs>
      <g transform="translate(145.922478823 371.996875)scale(0.2 -0.2)">
       <use xlink:href="#BitstreamVeraSans-Roman-2d"/>
       <use x="36.083984375" xlink:href="#BitstreamVeraSans-Roman-34"/>
      </g>
     </g>
    </g>
    <g id="xtick_6">
     <g id="line2d_18">
      <path clip-path="url(#p3555385869)" d="M 193.106192 352.8 
L 193.106192 7.2 
" style="fill:none;stroke:#000000;stroke-dasharray:1.000000,3.000000;stroke-dashoffset:0.0;stroke-width:0.5;"/>
     </g>
     <g id="line2d_19">
      <g>
       <use style="stroke:#000000;stroke-width:0.5;" x="193.106192407" xlink:href="#m6e8f710208" y="352.8"/>
      </g>
     </g>
     <g id="line2d_20">
      <g>
       <use style="stroke:#000000;stroke-width:0.5;" x="193.106192407" xlink:href="#m0d096583be" y="7.2"/>
      </g>
     </g>
     <g id="text_5">
      <!-- -3 -->
      <defs>
       <path d="M 40.578125 39.3125 
Q 47.65625 37.796875 51.625 33 
Q 55.609375 28.21875 55.609375 21.1875 
Q 55.609375 10.40625 48.1875 4.484375 
Q 40.765625 -1.421875 27.09375 -1.421875 
Q 22.515625 -1.421875 17.65625 -0.515625 
Q 12.796875 0.390625 7.625 2.203125 
L 7.625 11.71875 
Q 11.71875 9.328125 16.59375 8.109375 
Q 21.484375 6.890625 26.8125 6.890625 
Q 36.078125 6.890625 40.9375 10.546875 
Q 45.796875 14.203125 45.796875 21.1875 
Q 45.796875 27.640625 41.28125 31.265625 
Q 36.765625 34.90625 28.71875 34.90625 
L 20.21875 34.90625 
L 20.21875 43.015625 
L 29.109375 43.015625 
Q 36.375 43.015625 40.234375 45.921875 
Q 44.09375 48.828125 44.09375 54.296875 
Q 44.09375 59.90625 40.109375 62.90625 
Q 36.140625 65.921875 28.71875 65.921875 
Q 24.65625 65.921875 20.015625 65.03125 
Q 15.375 64.15625 9.8125 62.3125 
L 9.8125 71.09375 
Q 15.4375 72.65625 20.34375 73.4375 
Q 25.25 74.21875 29.59375 74.21875 
Q 40.828125 74.21875 47.359375 69.109375 
Q 53.90625 64.015625 53.90625 55.328125 
Q 53.90625 49.265625 50.4375 45.09375 
Q 46.96875 40.921875 40.578125 39.3125 
" id="BitstreamVeraSans-Roman-33"/>
      </defs>
      <g transform="translate(183.135879907 371.996875)scale(0.2 -0.2)">
       <use xlink:href="#BitstreamVeraSans-Roman-2d"/>
       <use x="36.083984375" xlink:href="#BitstreamVeraSans-Roman-33"/>
      </g>
     </g>
    </g>
    <g id="xtick_7">
     <g id="line2d_21">
      <path clip-path="url(#p3555385869)" d="M 230.319593 352.8 
L 230.319593 7.2 
" style="fill:none;stroke:#000000;stroke-dasharray:1.000000,3.000000;stroke-dashoffset:0.0;stroke-width:0.5;"/>
     </g>
     <g id="line2d_22">
      <g>
       <use style="stroke:#000000;stroke-width:0.5;" x="230.319593492" xlink:href="#m6e8f710208" y="352.8"/>
      </g>
     </g>
     <g id="line2d_23">
      <g>
       <use style="stroke:#000000;stroke-width:0.5;" x="230.319593492" xlink:href="#m0d096583be" y="7.2"/>
      </g>
     </g>
     <g id="text_6">
      <!-- -2 -->
      <defs>
       <path d="M 19.1875 8.296875 
L 53.609375 8.296875 
L 53.609375 0 
L 7.328125 0 
L 7.328125 8.296875 
Q 12.9375 14.109375 22.625 23.890625 
Q 32.328125 33.6875 34.8125 36.53125 
Q 39.546875 41.84375 41.421875 45.53125 
Q 43.3125 49.21875 43.3125 52.78125 
Q 43.3125 58.59375 39.234375 62.25 
Q 35.15625 65.921875 28.609375 65.921875 
Q 23.96875 65.921875 18.8125 64.3125 
Q 13.671875 62.703125 7.8125 59.421875 
L 7.8125 69.390625 
Q 13.765625 71.78125 18.9375 73 
Q 24.125 74.21875 28.421875 74.21875 
Q 39.75 74.21875 46.484375 68.546875 
Q 53.21875 62.890625 53.21875 53.421875 
Q 53.21875 48.921875 51.53125 44.890625 
Q 49.859375 40.875 45.40625 35.40625 
Q 44.1875 33.984375 37.640625 27.21875 
Q 31.109375 20.453125 19.1875 8.296875 
" id="BitstreamVeraSans-Roman-32"/>
      </defs>
      <g transform="translate(220.349280992 371.996875)scale(0.2 -0.2)">
       <use xlink:href="#BitstreamVeraSans-Roman-2d"/>
       <use x="36.083984375" xlink:href="#BitstreamVeraSans-Roman-32"/>
      </g>
     </g>
    </g>
    <g id="xtick_8">
     <g id="line2d_24">
      <path clip-path="url(#p3555385869)" d="M 267.532995 352.8 
L 267.532995 7.2 
" style="fill:none;stroke:#000000;stroke-dasharray:1.000000,3.000000;stroke-dashoffset:0.0;stroke-width:0.5;"/>
     </g>
     <g id="line2d_25">
      <g>
       <use style="stroke:#000000;stroke-width:0.5;" x="267.532994577" xlink:href="#m6e8f710208" y="352.8"/>
      </g>
     </g>
     <g id="line2d_26">
      <g>
       <use style="stroke:#000000;stroke-width:0.5;" x="267.532994577" xlink:href="#m0d096583be" y="7.2"/>
      </g>
     </g>
     <g id="text_7">
      <!-- -1 -->
      <defs>
       <path d="M 12.40625 8.296875 
L 28.515625 8.296875 
L 28.515625 63.921875 
L 10.984375 60.40625 
L 10.984375 69.390625 
L 28.421875 72.90625 
L 38.28125 72.90625 
L 38.28125 8.296875 
L 54.390625 8.296875 
L 54.390625 0 
L 12.40625 0 
z
" id="BitstreamVeraSans-Roman-31"/>
      </defs>
      <g transform="translate(257.562682077 371.996875)scale(0.2 -0.2)">
       <use xlink:href="#BitstreamVeraSans-Roman-2d"/>
       <use x="36.083984375" xlink:href="#BitstreamVeraSans-Roman-31"/>
      </g>
     </g>
    </g>
    <g id="xtick_9">
     <g id="line2d_27">
      <path clip-path="url(#p3555385869)" d="M 304.746396 352.8 
L 304.746396 7.2 
" style="fill:none;stroke:#000000;stroke-dasharray:1.000000,3.000000;stroke-dashoffset:0.0;stroke-width:0.5;"/>
     </g>
     <g id="line2d_28">
      <g>
       <use style="stroke:#000000;stroke-width:0.5;" x="304.746395661" xlink:href="#m6e8f710208" y="352.8"/>
      </g>
     </g>
     <g id="line2d_29">
      <g>
       <use style="stroke:#000000;stroke-width:0.5;" x="304.746395661" xlink:href="#m0d096583be" y="7.2"/>
      </g>
     </g>
     <g id="text_8">
      <!-- 0 -->
      <defs>
       <path d="M 31.78125 66.40625 
Q 24.171875 66.40625 20.328125 58.90625 
Q 16.5 51.421875 16.5 36.375 
Q 16.5 21.390625 20.328125 13.890625 
Q 24.171875 6.390625 31.78125 6.390625 
Q 39.453125 6.390625 43.28125 13.890625 
Q 47.125 21.390625 47.125 36.375 
Q 47.125 51.421875 43.28125 58.90625 
Q 39.453125 66.40625 31.78125 66.40625 
M 31.78125 74.21875 
Q 44.046875 74.21875 50.515625 64.515625 
Q 56.984375 54.828125 56.984375 36.375 
Q 56.984375 17.96875 50.515625 8.265625 
Q 44.046875 -1.421875 31.78125 -1.421875 
Q 19.53125 -1.421875 13.0625 8.265625 
Q 6.59375 17.96875 6.59375 36.375 
Q 6.59375 54.828125 13.0625 64.515625 
Q 19.53125 74.21875 31.78125 74.21875 
" id="BitstreamVeraSans-Roman-30"/>
      </defs>
      <g transform="translate(298.383895661 371.996875)scale(0.2 -0.2)">
       <use xlink:href="#BitstreamVeraSans-Roman-30"/>
      </g>
     </g>
    </g>
    <g id="xtick_10">
     <g id="line2d_30">
      <path clip-path="url(#p3555385869)" d="M 341.959797 352.8 
L 341.959797 7.2 
" style="fill:none;stroke:#000000;stroke-dasharray:1.000000,3.000000;stroke-dashoffset:0.0;stroke-width:0.5;"/>
     </g>
     <g id="line2d_31">
      <g>
       <use style="stroke:#000000;stroke-width:0.5;" x="341.959796746" xlink:href="#m6e8f710208" y="352.8"/>
      </g>
     </g>
     <g id="line2d_32">
      <g>
       <use style="stroke:#000000;stroke-width:0.5;" x="341.959796746" xlink:href="#m0d096583be" y="7.2"/>
      </g>
     </g>
     <g id="text_9">
      <!-- 1 -->
      <g transform="translate(335.597296746 371.996875)scale(0.2 -0.2)">
       <use xlink:href="#BitstreamVeraSans-Roman-31"/>
      </g>
     </g>
    </g>
    <g id="xtick_11">
     <g id="line2d_33">
      <path clip-path="url(#p3555385869)" d="M 379.173198 352.8 
L 379.173198 7.2 
" style="fill:none;stroke:#000000;stroke-dasharray:1.000000,3.000000;stroke-dashoffset:0.0;stroke-width:0.5;"/>
     </g>
     <g id="line2d_34">
      <g>
       <use style="stroke:#000000;stroke-width:0.5;" x="379.173197831" xlink:href="#m6e8f710208" y="352.8"/>
      </g>
     </g>
     <g id="line2d_35">
      <g>
       <use style="stroke:#000000;stroke-width:0.5;" x="379.173197831" xlink:href="#m0d096583be" y="7.2"/>
      </g>
     </g>
     <g id="text_10">
      <!-- 2 -->
      <g transform="translate(372.810697831 371.996875)scale(0.2 -0.2)">
       <use xlink:href="#BitstreamVeraSans-Roman-32"/>
      </g>
     </g>
    </g>
    <g id="xtick_12">
     <g id="line2d_36">
      <path clip-path="url(#p3555385869)" d="M 416.386599 352.8 
L 416.386599 7.2 
" style="fill:none;stroke:#000000;stroke-dasharray:1.000000,3.000000;stroke-dashoffset:0.0;stroke-width:0.5;"/>
     </g>
     <g id="line2d_37">
      <g>
       <use style="stroke:#000000;stroke-width:0.5;" x="416.386598915" xlink:href="#m6e8f710208" y="352.8"/>
      </g>
     </g>
     <g id="line2d_38">
      <g>
       <use style="stroke:#000000;stroke-width:0.5;" x="416.386598915" xlink:href="#m0d096583be" y="7.2"/>
      </g>
     </g>
     <g id="text_11">
      <!-- 3 -->
      <g transform="translate(410.024098915 371.996875)scale(0.2 -0.2)">
       <use xlink:href="#BitstreamVeraSans-Roman-33"/>
      </g>
     </g>
    </g>
    <g id="xtick_13">
     <g id="line2d_39">
      <path clip-path="url(#p3555385869)" d="M 453.6 352.8 
L 453.6 7.2 
" style="fill:none;stroke:#000000;stroke-dasharray:1.000000,3.000000;stroke-dashoffset:0.0;stroke-width:0.5;"/>
     </g>
     <g id="line2d_40">
      <g>
       <use style="stroke:#000000;stroke-width:0.5;" x="453.6" xlink:href="#m6e8f710208" y="352.8"/>
      </g>
     </g>
     <g id="line2d_41">
      <g>
       <use style="stroke:#000000;stroke-width:0.5;" x="453.6" xlink:href="#m0d096583be" y="7.2"/>
      </g>
     </g>
    </g>
    <g id="xtick_14"/>
    <g id="xtick_15">
     <g id="line2d_42">
      <defs>
       <path d="M 0 0 
L 0 -2 
" id="m8a08f428fc" style="stroke:#000000;stroke-width:0.5;"/>
      </defs>
      <g>
       <use style="stroke:#000000;stroke-width:0.5;" x="44.2525880688" xlink:href="#m8a08f428fc" y="352.8"/>
      </g>
     </g>
     <g id="line2d_43">
      <defs>
       <path d="M 0 0 
L 0 2 
" id="m636c58a8e0" style="stroke:#000000;stroke-width:0.5;"/>
      </defs>
      <g>
       <use style="stroke:#000000;stroke-width:0.5;" x="44.2525880688" xlink:href="#m636c58a8e0" y="7.2"/>
      </g>
     </g>
    </g>
    <g id="xtick_16">
     <g id="line2d_44">
      <g>
       <use style="stroke:#000000;stroke-width:0.5;" x="81.4659891535" xlink:href="#m8a08f428fc" y="352.8"/>
      </g>
     </g>
     <g id="line2d_45">
      <g>
       <use style="stroke:#000000;stroke-width:0.5;" x="81.4659891535" xlink:href="#m636c58a8e0" y="7.2"/>
      </g>
     </g>
    </g>
    <g id="xtick_17">
     <g id="line2d_46">
      <g>
       <use style="stroke:#000000;stroke-width:0.5;" x="118.679390238" xlink:href="#m8a08f428fc" y="352.8"/>
      </g>
     </g>
     <g id="line2d_47">
      <g>
       <use style="stroke:#000000;stroke-width:0.5;" x="118.679390238" xlink:href="#m636c58a8e0" y="7.2"/>
      </g>
     </g>
    </g>
    <g id="xtick_18">
     <g id="line2d_48">
      <g>
       <use style="stroke:#000000;stroke-width:0.5;" x="155.892791323" xlink:href="#m8a08f428fc" y="352.8"/>
      </g>
     </g>
     <g id="line2d_49">
      <g>
       <use style="stroke:#000000;stroke-width:0.5;" x="155.892791323" xlink:href="#m636c58a8e0" y="7.2"/>
      </g>
     </g>
    </g>
    <g id="xtick_19">
     <g id="line2d_50">
      <g>
       <use style="stroke:#000000;stroke-width:0.5;" x="193.106192407" xlink:href="#m8a08f428fc" y="352.8"/>
      </g>
     </g>
     <g id="line2d_51">
      <g>
       <use style="stroke:#000000;stroke-width:0.5;" x="193.106192407" xlink:href="#m636c58a8e0" y="7.2"/>
      </g>
     </g>
    </g>
    <g id="xtick_20">
     <g id="line2d_52">
      <g>
       <use style="stroke:#000000;stroke-width:0.5;" x="230.319593492" xlink:href="#m8a08f428fc" y="352.8"/>
      </g>
     </g>
     <g id="line2d_53">
      <g>
       <use style="stroke:#000000;stroke-width:0.5;" x="230.319593492" xlink:href="#m636c58a8e0" y="7.2"/>
      </g>
     </g>
    </g>
    <g id="xtick_21">
     <g id="line2d_54">
      <g>
       <use style="stroke:#000000;stroke-width:0.5;" x="267.532994577" xlink:href="#m8a08f428fc" y="352.8"/>
      </g>
     </g>
     <g id="line2d_55">
      <g>
       <use style="stroke:#000000;stroke-width:0.5;" x="267.532994577" xlink:href="#m636c58a8e0" y="7.2"/>
      </g>
     </g>
    </g>
    <g id="xtick_22">
     <g id="line2d_56">
      <g>
       <use style="stroke:#000000;stroke-width:0.5;" x="304.746395661" xlink:href="#m8a08f428fc" y="352.8"/>
      </g>
     </g>
     <g id="line2d_57">
      <g>
       <use style="stroke:#000000;stroke-width:0.5;" x="304.746395661" xlink:href="#m636c58a8e0" y="7.2"/>
      </g>
     </g>
    </g>
    <g id="xtick_23">
     <g id="line2d_58">
      <g>
       <use style="stroke:#000000;stroke-width:0.5;" x="341.959796746" xlink:href="#m8a08f428fc" y="352.8"/>
      </g>
     </g>
     <g id="line2d_59">
      <g>
       <use style="stroke:#000000;stroke-width:0.5;" x="341.959796746" xlink:href="#m636c58a8e0" y="7.2"/>
      </g>
     </g>
    </g>
    <g id="xtick_24">
     <g id="line2d_60">
      <g>
       <use style="stroke:#000000;stroke-width:0.5;" x="379.173197831" xlink:href="#m8a08f428fc" y="352.8"/>
      </g>
     </g>
     <g id="line2d_61">
      <g>
       <use style="stroke:#000000;stroke-width:0.5;" x="379.173197831" xlink:href="#m636c58a8e0" y="7.2"/>
      </g>
     </g>
    </g>
    <g id="xtick_25">
     <g id="line2d_62">
      <g>
       <use style="stroke:#000000;stroke-width:0.5;" x="416.386598915" xlink:href="#m8a08f428fc" y="352.8"/>
      </g>
     </g>
     <g id="line2d_63">
      <g>
       <use style="stroke:#000000;stroke-width:0.5;" x="416.386598915" xlink:href="#m636c58a8e0" y="7.2"/>
      </g>
     </g>
    </g>
    <g id="xtick_26">
     <g id="line2d_64">
      <g>
       <use style="stroke:#000000;stroke-width:0.5;" x="453.6" xlink:href="#m8a08f428fc" y="352.8"/>
      </g>
     </g>
     <g id="line2d_65">
      <g>
       <use style="stroke:#000000;stroke-width:0.5;" x="453.6" xlink:href="#m636c58a8e0" y="7.2"/>
      </g>
     </g>
    </g>
    <g id="text_12">
     <!-- log10 of Df -->
     <defs>
      <path id="BitstreamVeraSans-Roman-20"/>
      <path d="M 30.609375 48.390625 
Q 23.390625 48.390625 19.1875 42.75 
Q 14.984375 37.109375 14.984375 27.296875 
Q 14.984375 17.484375 19.15625 11.84375 
Q 23.34375 6.203125 30.609375 6.203125 
Q 37.796875 6.203125 41.984375 11.859375 
Q 46.1875 17.53125 46.1875 27.296875 
Q 46.1875 37.015625 41.984375 42.703125 
Q 37.796875 48.390625 30.609375 48.390625 
M 30.609375 56 
Q 42.328125 56 49.015625 48.375 
Q 55.71875 40.765625 55.71875 27.296875 
Q 55.71875 13.875 49.015625 6.21875 
Q 42.328125 -1.421875 30.609375 -1.421875 
Q 18.84375 -1.421875 12.171875 6.21875 
Q 5.515625 13.875 5.515625 27.296875 
Q 5.515625 40.765625 12.171875 48.375 
Q 18.84375 56 30.609375 56 
" id="BitstreamVeraSans-Roman-6f"/>
      <path d="M 9.421875 75.984375 
L 18.40625 75.984375 
L 18.40625 0 
L 9.421875 0 
z
" id="BitstreamVeraSans-Roman-6c"/>
      <path d="M 19.671875 64.796875 
L 19.671875 8.109375 
L 31.59375 8.109375 
Q 46.6875 8.109375 53.6875 14.9375 
Q 60.6875 21.78125 60.6875 36.53125 
Q 60.6875 51.171875 53.6875 57.984375 
Q 46.6875 64.796875 31.59375 64.796875 
z
M 9.8125 72.90625 
L 30.078125 72.90625 
Q 51.265625 72.90625 61.171875 64.09375 
Q 71.09375 55.28125 71.09375 36.53125 
Q 71.09375 17.671875 61.125 8.828125 
Q 51.171875 0 30.078125 0 
L 9.8125 0 
z
" id="BitstreamVeraSans-Roman-44"/>
      <path d="M 45.40625 27.984375 
Q 45.40625 37.75 41.375 43.109375 
Q 37.359375 48.484375 30.078125 48.484375 
Q 22.859375 48.484375 18.828125 43.109375 
Q 14.796875 37.75 14.796875 27.984375 
Q 14.796875 18.265625 18.828125 12.890625 
Q 22.859375 7.515625 30.078125 7.515625 
Q 37.359375 7.515625 41.375 12.890625 
Q 45.40625 18.265625 45.40625 27.984375 
M 54.390625 6.78125 
Q 54.390625 -7.171875 48.1875 -13.984375 
Q 42 -20.796875 29.203125 -20.796875 
Q 24.46875 -20.796875 20.265625 -20.09375 
Q 16.0625 -19.390625 12.109375 -17.921875 
L 12.109375 -9.1875 
Q 16.0625 -11.328125 19.921875 -12.34375 
Q 23.78125 -13.375 27.78125 -13.375 
Q 36.625 -13.375 41.015625 -8.765625 
Q 45.40625 -4.15625 45.40625 5.171875 
L 45.40625 9.625 
Q 42.625 4.78125 38.28125 2.390625 
Q 33.9375 0 27.875 0 
Q 17.828125 0 11.671875 7.65625 
Q 5.515625 15.328125 5.515625 27.984375 
Q 5.515625 40.671875 11.671875 48.328125 
Q 17.828125 56 27.875 56 
Q 33.9375 56 38.28125 53.609375 
Q 42.625 51.21875 45.40625 46.390625 
L 45.40625 54.6875 
L 54.390625 54.6875 
z
" id="BitstreamVeraSans-Roman-67"/>
      <path d="M 37.109375 75.984375 
L 37.109375 68.5 
L 28.515625 68.5 
Q 23.6875 68.5 21.796875 66.546875 
Q 19.921875 64.59375 19.921875 59.515625 
L 19.921875 54.6875 
L 34.71875 54.6875 
L 34.71875 47.703125 
L 19.921875 47.703125 
L 19.921875 0 
L 10.890625 0 
L 10.890625 47.703125 
L 2.296875 47.703125 
L 2.296875 54.6875 
L 10.890625 54.6875 
L 10.890625 58.5 
Q 10.890625 67.625 15.140625 71.796875 
Q 19.390625 75.984375 28.609375 75.984375 
z
" id="BitstreamVeraSans-Roman-66"/>
     </defs>
     <g transform="translate(175.2140625 396.353125)scale(0.2 -0.2)">
      <use xlink:href="#BitstreamVeraSans-Roman-6c"/>
      <use x="27.783203125" xlink:href="#BitstreamVeraSans-Roman-6f"/>
      <use x="88.96484375" xlink:href="#BitstreamVeraSans-Roman-67"/>
      <use x="152.44140625" xlink:href="#BitstreamVeraSans-Roman-31"/>
      <use x="216.064453125" xlink:href="#BitstreamVeraSans-Roman-30"/>
      <use x="279.6875" xlink:href="#BitstreamVeraSans-Roman-20"/>
      <use x="311.474609375" xlink:href="#BitstreamVeraSans-Roman-6f"/>
      <use x="372.65625" xlink:href="#BitstreamVeraSans-Roman-66"/>
      <use x="407.861328125" xlink:href="#BitstreamVeraSans-Roman-20"/>
      <use x="439.6484375" xlink:href="#BitstreamVeraSans-Roman-44"/>
      <use x="516.650390625" xlink:href="#BitstreamVeraSans-Roman-66"/>
     </g>
    </g>
   </g>
   <g id="matplotlib.axis_2">
    <g id="ytick_1">
     <g id="line2d_66">
      <path clip-path="url(#p3555385869)" d="M 7.2 352.8 
L 453.6 352.8 
" style="fill:none;stroke:#000000;stroke-dasharray:1.000000,3.000000;stroke-dashoffset:0.0;stroke-width:0.5;"/>
     </g>
     <g id="line2d_67">
      <defs>
       <path d="M 0 0 
L 4 0 
" id="meeb7da0e6c" style="stroke:#000000;stroke-width:0.5;"/>
      </defs>
      <g>
       <use style="stroke:#000000;stroke-width:0.5;" x="7.2" xlink:href="#meeb7da0e6c" y="352.8"/>
      </g>
     </g>
     <g id="line2d_68">
      <defs>
       <path d="M 0 0 
L -4 0 
" id="m0fdae70d95" style="stroke:#000000;stroke-width:0.5;"/>
      </defs>
      <g>
       <use style="stroke:#000000;stroke-width:0.5;" x="453.6" xlink:href="#m0fdae70d95" y="352.8"/>
      </g>
     </g>
    </g>
    <g id="ytick_2">
     <g id="line2d_69">
      <path clip-path="url(#p3555385869)" d="M 7.2 284.364356 
L 453.6 284.364356 
" style="fill:none;stroke:#000000;stroke-dasharray:1.000000,3.000000;stroke-dashoffset:0.0;stroke-width:0.5;"/>
     </g>
     <g id="line2d_70">
      <g>
       <use style="stroke:#000000;stroke-width:0.5;" x="7.2" xlink:href="#meeb7da0e6c" y="284.364356436"/>
      </g>
     </g>
     <g id="line2d_71">
      <g>
       <use style="stroke:#000000;stroke-width:0.5;" x="453.6" xlink:href="#m0fdae70d95" y="284.364356436"/>
      </g>
     </g>
    </g>
    <g id="ytick_3">
     <g id="line2d_72">
      <path clip-path="url(#p3555385869)" d="M 7.2 215.928713 
L 453.6 215.928713 
" style="fill:none;stroke:#000000;stroke-dasharray:1.000000,3.000000;stroke-dashoffset:0.0;stroke-width:0.5;"/>
     </g>
     <g id="line2d_73">
      <g>
       <use style="stroke:#000000;stroke-width:0.5;" x="7.2" xlink:href="#meeb7da0e6c" y="215.928712871"/>
      </g>
     </g>
     <g id="line2d_74">
      <g>
       <use style="stroke:#000000;stroke-width:0.5;" x="453.6" xlink:href="#m0fdae70d95" y="215.928712871"/>
      </g>
     </g>
    </g>
    <g id="ytick_4">
     <g id="line2d_75">
      <path clip-path="url(#p3555385869)" d="M 7.2 147.493069 
L 453.6 147.493069 
" style="fill:none;stroke:#000000;stroke-dasharray:1.000000,3.000000;stroke-dashoffset:0.0;stroke-width:0.5;"/>
     </g>
     <g id="line2d_76">
      <g>
       <use style="stroke:#000000;stroke-width:0.5;" x="7.2" xlink:href="#meeb7da0e6c" y="147.493069307"/>
      </g>
     </g>
     <g id="line2d_77">
      <g>
       <use style="stroke:#000000;stroke-width:0.5;" x="453.6" xlink:href="#m0fdae70d95" y="147.493069307"/>
      </g>
     </g>
    </g>
    <g id="ytick_5">
     <g id="line2d_78">
      <path clip-path="url(#p3555385869)" d="M 7.2 79.057426 
L 453.6 79.057426 
" style="fill:none;stroke:#000000;stroke-dasharray:1.000000,3.000000;stroke-dashoffset:0.0;stroke-width:0.5;"/>
     </g>
     <g id="line2d_79">
      <g>
       <use style="stroke:#000000;stroke-width:0.5;" x="7.2" xlink:href="#meeb7da0e6c" y="79.0574257426"/>
      </g>
     </g>
     <g id="line2d_80">
      <g>
       <use style="stroke:#000000;stroke-width:0.5;" x="453.6" xlink:href="#m0fdae70d95" y="79.0574257426"/>
      </g>
     </g>
    </g>
    <g id="ytick_6">
     <g id="line2d_81">
      <path clip-path="url(#p3555385869)" d="M 7.2 10.621782 
L 453.6 10.621782 
" style="fill:none;stroke:#000000;stroke-dasharray:1.000000,3.000000;stroke-dashoffset:0.0;stroke-width:0.5;"/>
     </g>
     <g id="line2d_82">
      <g>
       <use style="stroke:#000000;stroke-width:0.5;" x="7.2" xlink:href="#meeb7da0e6c" y="10.6217821782"/>
      </g>
     </g>
     <g id="line2d_83">
      <g>
       <use style="stroke:#000000;stroke-width:0.5;" x="453.6" xlink:href="#m0fdae70d95" y="10.6217821782"/>
      </g>
     </g>
    </g>
   </g>
   <g id="text_13">
    <!-- {f1-f55}, 5-D -->
    <defs>
     <path d="M 12.5 -9.28125 
L 15.921875 -9.28125 
Q 22.75 -9.28125 24.828125 -7.171875 
Q 26.90625 -5.078125 26.90625 1.90625 
L 26.90625 14.015625 
Q 26.90625 21.625 29.09375 25.09375 
Q 31.296875 28.5625 36.71875 29.890625 
Q 31.296875 31.109375 29.09375 34.5625 
Q 26.90625 38.03125 26.90625 45.703125 
L 26.90625 57.8125 
Q 26.90625 64.75 24.828125 66.875 
Q 22.75 69 15.921875 69 
L 12.5 69 
L 12.5 75.984375 
L 15.578125 75.984375 
Q 27.734375 75.984375 31.8125 72.390625 
Q 35.890625 68.796875 35.890625 58.015625 
L 35.890625 46.296875 
Q 35.890625 39.015625 38.515625 36.203125 
Q 41.15625 33.40625 48.09375 33.40625 
L 51.125 33.40625 
L 51.125 26.421875 
L 48.09375 26.421875 
Q 41.15625 26.421875 38.515625 23.578125 
Q 35.890625 20.75 35.890625 13.375 
L 35.890625 1.703125 
Q 35.890625 -9.078125 31.8125 -12.6875 
Q 27.734375 -16.3125 15.578125 -16.3125 
L 12.5 -16.3125 
z
" id="BitstreamVeraSans-Roman-7d"/>
     <path d="M 51.125 -9.28125 
L 51.125 -16.3125 
L 48.09375 -16.3125 
Q 35.9375 -16.3125 31.8125 -12.6875 
Q 27.6875 -9.078125 27.6875 1.703125 
L 27.6875 13.375 
Q 27.6875 20.75 25.046875 23.578125 
Q 22.40625 26.421875 15.484375 26.421875 
L 12.5 26.421875 
L 12.5 33.40625 
L 15.484375 33.40625 
Q 22.46875 33.40625 25.078125 36.203125 
Q 27.6875 39.015625 27.6875 46.296875 
L 27.6875 58.015625 
Q 27.6875 68.796875 31.8125 72.390625 
Q 35.9375 75.984375 48.09375 75.984375 
L 51.125 75.984375 
L 51.125 69 
L 47.796875 69 
Q 40.921875 69 38.8125 66.84375 
Q 36.71875 64.703125 36.71875 57.8125 
L 36.71875 45.703125 
Q 36.71875 38.03125 34.5 34.5625 
Q 32.28125 31.109375 26.90625 29.890625 
Q 32.328125 28.5625 34.515625 25.09375 
Q 36.71875 21.625 36.71875 14.015625 
L 36.71875 1.90625 
Q 36.71875 -4.984375 38.8125 -7.125 
Q 40.921875 -9.28125 47.796875 -9.28125 
z
" id="BitstreamVeraSans-Roman-7b"/>
     <path d="M 11.71875 12.40625 
L 22.015625 12.40625 
L 22.015625 4 
L 14.015625 -11.625 
L 7.71875 -11.625 
L 11.71875 4 
z
" id="BitstreamVeraSans-Roman-2c"/>
    </defs>
    <g transform="translate(311.697 345.888)scale(0.2 -0.2)">
     <use xlink:href="#BitstreamVeraSans-Roman-7b"/>
     <use x="63.623046875" xlink:href="#BitstreamVeraSans-Roman-66"/>
     <use x="98.828125" xlink:href="#BitstreamVeraSans-Roman-31"/>
     <use x="162.451171875" xlink:href="#BitstreamVeraSans-Roman-2d"/>
     <use x="198.53515625" xlink:href="#BitstreamVeraSans-Roman-66"/>
     <use x="233.740234375" xlink:href="#BitstreamVeraSans-Roman-35"/>
     <use x="297.36328125" xlink:href="#BitstreamVeraSans-Roman-35"/>
     <use x="360.986328125" xlink:href="#BitstreamVeraSans-Roman-7d"/>
     <use x="424.609375" xlink:href="#BitstreamVeraSans-Roman-2c"/>
     <use x="456.396484375" xlink:href="#BitstreamVeraSans-Roman-20"/>
     <use x="488.18359375" xlink:href="#BitstreamVeraSans-Roman-35"/>
     <use x="551.806640625" xlink:href="#BitstreamVeraSans-Roman-2d"/>
     <use x="587.890625" xlink:href="#BitstreamVeraSans-Roman-44"/>
    </g>
   </g>
   <g id="text_14">
    <!-- 0.0.0 -->
    <defs>
     <path d="M 10.6875 12.40625 
L 21 12.40625 
L 21 0 
L 10.6875 0 
z
" id="BitstreamVeraSans-Roman-2e"/>
    </defs>
    <g style="fill:#808080;" transform="translate(217.678125 347.2643125)scale(0.1 -0.1)">
     <use xlink:href="#BitstreamVeraSans-Roman-30"/>
     <use x="63.623046875" xlink:href="#BitstreamVeraSans-Roman-2e"/>
     <use x="95.41015625" xlink:href="#BitstreamVeraSans-Roman-30"/>
     <use x="159.033203125" xlink:href="#BitstreamVeraSans-Roman-2e"/>
     <use x="190.8203125" xlink:href="#BitstreamVeraSans-Roman-30"/>
    </g>
   </g>
  </g>
 </g>
 <defs>
  <clipPath id="p3555385869">
   <rect height="345.6" width="446.4" x="7.2" y="7.2"/>
  </clipPath>
 </defs>
</svg>
