<?xml version="1.0" encoding="utf-8" standalone="no"?>
<!DOCTYPE svg PUBLIC "-//W3C//DTD SVG 1.1//EN"
  "http://www.w3.org/Graphics/SVG/1.1/DTD/svg11.dtd">
<!-- Created with matplotlib (http://matplotlib.org/) -->
<svg height="415pt" version="1.1" viewBox="0 0 538 415" width="538pt" xmlns="http://www.w3.org/2000/svg" xmlns:xlink="http://www.w3.org/1999/xlink">
 <defs>
  <style type="text/css">
*{stroke-linecap:butt;stroke-linejoin:round;stroke-miterlimit:100000;}
  </style>
 </defs>
 <g id="figure_1">
  <g id="patch_1">
   <path d="M 0 415.456343 
L 538.8 415.456343 
L 538.8 0 
L 0 0 
z
" style="fill:#ffffff;"/>
  </g>
  <g id="axes_1">
   <g id="patch_2">
    <path d="M 85.2 359.056343 
L 531.6 359.056343 
L 531.6 13.456343 
L 85.2 13.456343 
z
" style="fill:#ffffff;"/>
   </g>
   <g id="line2d_1">
    <defs>
     <path d="M 0 1.5 
C 0.397805 1.5 0.77937 1.341951 1.06066 1.06066 
C 1.341951 0.77937 1.5 0.397805 1.5 0 
C 1.5 -0.397805 1.341951 -0.77937 1.06066 -1.06066 
C 0.77937 -1.341951 0.397805 -1.5 0 -1.5 
C -0.397805 -1.5 -0.77937 -1.341951 -1.06066 -1.06066 
C -1.341951 -0.77937 -1.5 -0.397805 -1.5 0 
C -1.5 0.397805 -1.341951 0.77937 -1.06066 1.06066 
C -0.77937 1.341951 -0.397805 1.5 0 1.5 
z
" id="m895f3516ad" style="stroke:#00bfbf;stroke-width:0.5;"/>
    </defs>
    <g>
     <use style="fill:#00bfbf;stroke:#00bfbf;stroke-width:0.5;" x="336.708229025" xlink:href="#m895f3516ad" y="190.112551891"/>
     <use style="fill:#00bfbf;stroke:#00bfbf;stroke-width:0.5;" x="336.708229025" xlink:href="#m895f3516ad" y="190.112551891"/>
    </g>
   </g>
   <g id="line2d_2">
    <path d="M 69.718457 359.056343 
L 69.718457 348.565738 
L 118.793786 348.533558 
L 118.793786 348.286847 
L 130.203151 348.21176 
L 130.203151 348.168854 
L 151.544637 348.061588 
L 151.544637 347.889963 
L 157.970058 347.83633 
L 157.970058 347.493079 
L 158.395502 347.493079 
L 158.395502 347.33218 
L 158.812994 347.33218 
L 158.812994 347.053289 
L 159.222824 347.053289 
L 159.222824 346.913843 
L 160.020593 346.806577 
L 160.020593 346.581319 
L 160.790847 346.570592 
L 160.790847 346.120075 
L 161.166236 346.120075 
L 161.166236 345.926997 
L 161.53542 345.926997 
L 161.53542 345.755371 
L 162.255971 345.744645 
L 162.255971 345.530113 
L 162.954001 345.465753 
L 162.954001 345.304855 
L 163.961773 345.208315 
L 163.961773 344.993783 
L 164.287839 344.993783 
L 164.287839 344.671986 
L 164.609214 344.671986 
L 164.609214 344.457454 
L 164.92603 344.457454 
L 164.92603 344.285829 
L 165.54649 344.232196 
L 165.54649 343.856765 
L 165.850374 343.856765 
L 165.850374 343.706593 
L 166.73798 343.599327 
L 166.73798 343.502787 
L 167.310708 343.459881 
L 167.310708 343.277529 
L 167.591657 343.277529 
L 167.591657 343.159537 
L 167.869115 343.159537 
L 167.869115 343.009364 
L 168.681392 342.923552 
L 168.681392 342.880645 
L 170.222358 342.773379 
L 170.222358 342.730473 
L 170.954723 342.623207 
L 170.954723 342.26923 
L 171.429957 342.26923 
L 171.429957 342.065424 
L 171.895289 341.990338 
L 171.895289 341.840166 
L 172.351125 341.818713 
L 172.351125 341.689994 
L 172.797842 341.689994 
L 172.797842 341.572001 
L 173.451601 341.464735 
L 173.451601 341.389649 
L 173.665336 341.389649 
L 173.665336 341.175117 
L 174.704367 341.142938 
L 174.704367 340.971312 
L 174.906496 340.971312 
L 174.906496 340.842593 
L 175.697203 340.842593 
L 175.697203 340.692421 
L 176.082302 340.692421 
L 176.082302 340.434983 
L 176.833134 340.34917 
L 176.833134 340.220451 
L 177.559544 340.166818 
L 177.559544 340.027372 
L 178.089256 339.952286 
L 178.089256 339.855747 
L 178.606695 339.791387 
L 178.606695 339.716301 
L 178.945113 339.651942 
L 178.945113 339.512496 
L 179.606944 339.480316 
L 179.606944 339.330144 
L 179.769382 339.330144 
L 179.769382 339.158519 
L 180.249726 339.094159 
L 180.249726 338.976167 
L 180.564311 338.954713 
L 180.564311 338.836721 
L 181.028033 338.740182 
L 181.028033 338.600736 
L 181.631722 338.536376 
L 181.631722 338.472017 
L 182.364088 338.396931 
L 182.364088 338.289665 
L 182.650439 338.214579 
L 182.650439 338.160946 
L 183.488106 338.096586 
L 183.488106 337.967867 
L 184.162935 337.860601 
L 184.162935 337.839148 
L 184.427259 337.785515 
L 184.427259 337.61389 
L 184.688492 337.58171 
L 184.688492 337.495897 
L 185.454343 337.452991 
L 185.454343 337.377905 
L 186.556026 337.270639 
L 186.556026 337.227732 
L 186.793636 337.206279 
L 186.793636 337.099013 
L 187.028745 337.04538 
L 187.028745 336.895208 
L 187.605912 336.787942 
L 187.605912 336.659223 
L 188.057143 336.60559 
L 188.057143 336.541231 
L 188.279385 336.530504 
L 188.389682 336.026354 
L 188.499437 336.026354 
L 188.608656 335.672377 
L 188.717343 335.672377 
L 188.825504 335.28622 
L 188.933143 335.28622 
L 189.040266 334.975148 
L 189.146878 334.975148 
L 189.252984 334.127748 
L 189.463694 334.041935 
L 189.568309 333.591418 
L 189.776079 333.548512 
L 189.879244 333.280347 
L 190.18591 333.183808 
L 190.287203 332.797651 
L 190.388039 332.797651 
L 190.488422 332.550939 
L 190.588355 332.550939 
L 190.687844 332.250595 
L 190.786891 332.250595 
L 190.885501 332.057516 
L 190.983678 332.057516 
L 191.081425 331.864437 
L 191.178746 331.864437 
L 191.275645 331.553366 
L 191.372125 331.553366 
L 191.46819 331.07067 
L 191.753932 330.995584 
L 191.848372 330.620153 
L 191.942415 330.620153 
L 192.036064 330.309082 
L 192.129321 330.309082 
L 192.222191 329.955104 
L 192.314676 329.955104 
L 192.40678 329.633307 
L 192.498506 329.633307 
L 192.589856 329.365142 
L 192.680834 329.365142 
L 192.771444 329.054071 
L 192.951567 329.043344 
L 193.041086 328.818086 
L 193.219057 328.732273 
L 193.219057 328.700093 
L 193.39562 328.700093 
L 193.483381 328.356843 
L 193.657875 328.313936 
L 193.744614 328.067225 
L 193.917087 328.045771 
L 194.002826 327.841966 
L 194.088238 327.841966 
L 194.173324 327.391449 
L 194.426656 327.316363 
L 194.510465 327.091105 
L 194.760022 327.016019 
L 194.842592 326.82294 
L 195.006822 326.801487 
L 195.088486 326.629862 
L 195.250924 326.586955 
L 195.331703 326.372423 
L 195.492388 326.308064 
L 195.572299 326.082805 
L 195.967622 325.97554 
L 196.045853 325.696648 
L 196.2015 325.696648 
L 196.2015 325.417757 
L 196.432954 325.321218 
L 196.509575 325.042326 
L 196.662034 324.988693 
L 196.737875 324.677622 
L 197.03869 324.581083 
L 197.113265 324.46309 
L 197.409099 324.398731 
L 197.409099 324.312918 
L 197.628431 324.270012 
L 197.701066 324.066207 
L 197.84563 323.969667 
L 197.84563 323.905308 
L 197.989265 323.905308 
L 198.060738 323.64787 
L 198.203 323.64787 
L 198.273793 323.293892 
L 198.344362 323.293892 
L 198.414709 323.11154 
L 198.62443 323.004274 
L 198.693902 322.757563 
L 199.174246 322.650297 
L 199.242031 322.585937 
L 199.444161 322.585937 
L 199.511133 322.414312 
L 199.577905 322.414312 
L 199.644477 322.19978 
L 199.843013 322.113967 
L 199.908802 321.856529 
L 200.105012 321.749263 
L 200.170034 321.641997 
L 200.363973 321.641997 
L 200.363973 321.502552 
L 200.619966 321.416739 
L 200.683509 321.030582 
L 200.746871 321.030582 
L 200.810054 320.687331 
L 200.935886 320.580065 
L 200.998537 320.236814 
L 201.061013 320.236814 
L 201.123315 319.90429 
L 201.185443 319.90429 
L 201.247399 319.357234 
L 201.309184 319.357234 
L 201.370798 319.121249 
L 201.432243 319.121249 
L 201.493519 318.949623 
L 201.554627 318.949623 
L 201.615569 318.670732 
L 201.676345 318.670732 
L 201.736956 318.477653 
L 201.797403 318.477653 
L 201.857687 317.844784 
L 201.917809 317.844784 
L 201.977769 317.683886 
L 202.037568 317.683886 
L 202.097208 317.426447 
L 202.156689 317.426447 
L 202.216013 317.051017 
L 202.275179 317.051017 
L 202.334188 316.868665 
L 202.451742 316.815032 
L 202.510287 316.611227 
L 202.62692 316.546867 
L 202.685009 316.332335 
L 202.800736 316.267976 
L 202.858375 315.989084 
L 203.087455 315.881818 
L 203.14436 315.710193 
L 203.20112 315.710193 
L 203.257737 315.474208 
L 203.42673 315.442028 
L 203.482778 315.002238 
L 203.538685 315.002238 
L 203.594454 314.573175 
L 203.816144 314.476635 
L 203.92617 314.219197 
L 204.090199 314.111931 
L 204.198886 313.972485 
L 204.253031 313.972485 
L 204.360931 313.114358 
L 204.575179 313.039272 
L 204.681537 312.835467 
L 204.787391 312.728201 
L 204.892745 312.556576 
L 204.997605 312.502943 
L 205.101975 312.266958 
L 205.153978 312.266958 
L 205.20586 311.859347 
L 205.412191 311.794988 
L 205.514646 311.50537 
L 205.565697 311.50537 
L 205.667452 311.022673 
L 205.81922 310.96904 
L 205.81922 310.883228 
L 206.019987 310.786688 
L 206.119698 310.657969 
L 206.169387 310.657969 
L 206.268434 310.05728 
L 206.562968 309.960741 
L 206.660289 309.853475 
L 206.80548 309.778389 
L 206.901752 309.478044 
L 207.045387 309.456591 
L 207.140633 309.199153 
L 207.329915 309.091887 
L 207.423958 308.834449 
L 207.657347 308.770089 
L 207.750024 308.491198 
L 208.02577 308.383932 
L 208.071399 308.351752 
L 208.388215 308.298119 
L 208.477914 308.137221 
L 208.611791 308.094314 
L 208.700599 307.525805 
L 208.789055 307.461445 
L 208.877163 306.871483 
L 208.921086 306.871483 
L 208.921086 306.732037 
L 209.095922 306.646225 
L 209.182829 305.981176 
L 209.2694 305.895363 
L 209.355636 305.691558 
L 209.527116 305.584292 
L 209.612364 305.423393 
L 209.697289 305.348307 
L 209.781892 305.208862 
L 209.950142 305.101596 
L 210.033795 304.801251 
L 210.158689 304.704712 
L 210.158689 304.447274 
L 210.324135 304.382914 
L 210.365306 304.275648 
L 210.488365 304.200562 
L 210.529234 304.039663 
L 210.772893 303.943124 
L 210.853525 303.782225 
L 211.013922 303.685686 
L 211.09369 303.299529 
L 211.291874 303.202989 
L 211.370657 303.031364 
L 211.644232 302.945551 
L 211.721785 302.741746 
L 211.876087 302.66666 
L 211.95284 302.355589 
L 212.10556 302.291229 
L 212.18153 302.09815 
L 212.257242 302.065971 
L 212.332699 301.787079 
L 212.370332 301.787079 
L 212.445408 301.615454 
L 212.520233 301.615454 
L 212.520233 301.486735 
L 212.817049 301.422375 
L 212.927347 301.164937 
L 213.291119 301.100578 
L 213.363168 300.939679 
L 213.434985 300.939679 
L 213.506573 300.596428 
L 213.755336 300.521342 
L 213.825905 300.446256 
L 213.966378 300.360443 
L 214.071156 300.253177 
L 214.175445 300.178091 
L 214.244701 300.081552 
L 214.382573 300.006465 
L 214.485421 299.652488 
L 214.587798 299.588128 
L 214.689707 299.36287 
L 214.723574 299.36287 
L 214.824867 298.965986 
L 214.892142 298.912353 
L 214.992675 298.41893 
L 215.059447 298.311664 
L 215.159232 298.043499 
L 215.258573 298.043499 
L 215.357474 297.678795 
L 215.423166 297.592983 
L 215.521343 297.271185 
L 215.61909 297.174646 
L 215.716411 297.013747 
L 215.781057 296.960114 
L 215.877676 296.788488 
L 215.90979 296.788488 
L 216.005855 296.445238 
L 216.06967 296.445238 
L 216.165051 296.026901 
L 216.323121 295.941088 
L 216.417428 295.780189 
L 216.48008 295.715829 
L 216.48008 295.662197 
L 216.666986 295.597837 
L 216.697985 295.469118 
L 216.975062 295.404758 
L 217.066662 295.093687 
L 217.278946 294.997148 
L 217.369311 294.814796 
L 217.489231 294.70753 
L 217.578751 294.514451 
L 217.786245 294.417912 
L 217.845177 294.181927 
L 217.962576 294.181927 
L 218.050223 293.935216 
L 218.368681 293.903036 
L 218.368681 293.742137 
L 218.568998 293.634871 
L 218.654301 293.398886 
L 218.710989 293.377433 
L 218.767534 293.184354 
L 219.075996 293.098542 
L 219.159388 292.615845 
L 219.187117 292.615845 
L 219.297687 292.240414 
L 219.352767 292.229688 
L 219.435134 291.704085 
L 219.517199 291.596819 
L 219.626151 291.339381 
L 219.707518 291.253568 
L 219.815548 290.599246 
L 220.003352 290.52416 
L 220.109964 290.180909 
L 220.18959 290.105823 
L 220.268933 289.633853 
L 220.479148 289.54804 
L 220.557471 289.440774 
L 220.661477 289.387141 
L 220.739164 289.151156 
L 221.021729 289.043891 
L 221.098175 288.904445 
L 221.325958 288.797179 
L 221.401372 288.657733 
L 221.451507 288.657733 
L 221.551441 288.293029 
L 221.650929 288.271576 
L 221.725256 288.024865 
L 221.92226 287.917599 
L 221.99569 287.831786 
L 222.093224 287.799606 
L 222.190333 287.574348 
L 222.262889 287.574348 
L 222.359266 287.295456 
L 222.598402 287.18819 
L 222.598402 287.134558 
L 222.740665 287.134558 
L 222.787885 286.887846 
L 222.9055 286.855666 
L 222.999149 286.533869 
L 223.045826 286.512415 
L 223.045826 286.362243 
L 223.208433 286.27643 
L 223.300823 286.115531 
L 223.415775 286.029719 
L 223.461591 285.922453 
L 223.598477 285.83664 
L 223.68927 285.707921 
L 223.734529 285.654288 
L 223.779696 285.39685 
L 223.869757 285.39685 
L 223.959457 285.268131 
L 224.026496 285.214498 
L 224.115569 285.042873 
L 224.204289 284.946333 
L 224.248517 284.849794 
L 224.446466 284.763981 
L 224.512061 284.463637 
L 224.664372 284.356371 
L 224.772532 284.152566 
L 224.923083 284.056026 
L 224.965912 283.959487 
L 225.157631 283.862948 
L 225.263435 283.691322 
L 225.557046 283.605509 
L 225.660979 283.390978 
L 225.764431 283.315892 
L 225.867405 283.165719 
L 226.031183 283.058453 
L 226.092292 282.961914 
L 226.274621 282.865375 
L 226.335068 282.758109 
L 226.395352 282.758109 
L 226.475478 282.468491 
L 226.555317 282.393405 
L 226.654717 282.243233 
L 226.950291 282.15742 
L 227.047952 281.706903 
L 227.164585 281.65327 
L 227.261316 281.438738 
L 227.35763 281.363652 
L 227.415219 281.138394 
L 227.606119 281.041854 
L 227.644104 280.838049 
L 227.776545 280.730783 
L 227.851874 280.612791 
L 228.020442 280.505525 
L 228.094955 280.30172 
L 228.280156 280.23736 
L 228.390544 279.926289 
L 228.518645 279.819023 
L 228.627863 279.615218 
L 228.682273 279.540132 
L 228.790696 279.368506 
L 229.095067 279.261241 
L 229.20151 279.014529 
L 229.236878 278.960896 
L 229.325055 278.671278 
L 229.412885 278.564012 
L 229.517827 278.44602 
L 229.604904 278.370934 
L 229.70895 278.167128 
L 229.726244 278.167128 
L 229.829727 277.834604 
L 229.88129 277.727338 
L 229.949855 277.491353 
L 230.154297 277.384087 
L 230.238932 277.233915 
L 230.524316 277.126649 
L 230.590938 277.083743 
L 230.855458 276.976477 
L 230.937482 276.901391 
L 231.13312 276.794125 
L 231.214132 276.611773 
L 231.391332 276.504507 
L 231.455422 276.386514 
L 231.662451 276.289975 
L 231.773139 275.978904 
L 231.820409 275.871638 
L 231.930319 275.635653 
L 232.055271 275.528387 
L 232.101948 275.442575 
L 232.272269 275.335309 
L 232.318496 275.152957 
L 232.578655 275.056417 
L 232.63943 274.820432 
L 232.775575 274.745346 
L 232.865879 274.627354 
L 232.985719 274.552268 
L 233.075179 274.466455 
L 233.32672 274.359189 
L 233.429478 274.294829 
L 233.749388 274.209017 
L 233.835847 273.973032 
L 234.022033 273.865766 
L 234.121649 273.715594 
L 234.234954 273.608328 
L 234.305478 273.447429 
L 234.389815 273.361616 
L 234.473834 273.157811 
L 234.640931 273.071998 
L 234.73783 272.996912 
L 234.848059 272.932553 
L 234.930375 272.610755 
L 235.121275 272.524942 
L 235.134849 272.449856 
L 235.551586 272.34259 
L 235.657881 272.213871 
L 235.934522 272.117332 
L 236.025979 271.83844 
L 236.246543 271.741901 
L 236.349589 271.677541 
L 236.477731 271.645362 
L 236.579718 271.39865 
L 236.731831 271.312837 
L 236.820087 271.109032 
L 236.93305 271.033946 
L 236.958075 270.948133 
L 237.132472 270.873047 
L 237.206799 270.679969 
L 237.428306 270.583429 
L 237.477233 270.250905 
L 237.720273 270.165092 
L 237.816753 270.0471 
L 237.888841 270.0471 
L 237.97265 269.693122 
L 238.103718 269.660943 
L 238.19856 269.424958 
L 238.433916 269.349871 
L 238.527369 269.049527 
L 238.573949 268.952988 
L 238.608821 268.749182 
L 238.816913 268.674096 
L 238.920237 268.523924 
L 239.023086 268.427385 
L 239.034484 268.309392 
L 239.373758 268.202126 
L 239.373758 268.1914 
L 239.585997 268.09486 
L 239.652603 268.041228 
L 239.741103 267.944688 
L 239.741103 267.923235 
L 239.938955 267.826696 
L 240.015426 267.730156 
L 240.080766 267.633617 
L 240.178418 267.504898 
L 240.42605 267.461992 
L 240.532866 267.268913 
L 240.670967 267.193827 
L 240.692138 267.097288 
L 241.142522 267.000748 
L 241.225321 266.839849 
L 241.276916 266.80767 
L 241.369486 266.507325 
L 241.614481 266.421512 
L 241.705666 266.164074 
L 241.826669 266.067535 
L 241.927007 265.960269 
L 242.076673 265.89591 
L 242.175897 265.627745 
L 242.274681 265.595565 
L 242.363215 265.456119 
L 242.412249 265.456119 
L 242.470949 265.305947 
L 242.665507 265.220134 
L 242.752509 264.941243 
L 242.858385 264.866157 
L 242.94464 264.683805 
L 243.191965 264.576539 
L 243.201423 264.555086 
L 243.492653 264.48 
L 243.557893 264.319101 
L 243.660028 264.233288 
L 243.678548 264.136749 
L 243.853727 264.040209 
L 243.963662 263.94367 
L 243.991062 263.900764 
L 244.082151 263.707685 
L 244.227126 263.621872 
L 244.31726 263.246442 
L 244.398071 263.171356 
L 244.496444 262.99973 
L 244.647628 262.892464 
L 244.753733 262.774472 
L 244.92071 262.667206 
L 245.025529 262.441948 
L 245.294056 262.366861 
L 245.379993 262.205963 
L 245.525333 262.098697 
L 245.63584 261.830532 
L 245.787953 261.744719 
L 245.863622 261.64818 
L 245.997516 261.551641 
L 246.072481 261.476554 
L 246.205132 261.369289 
L 246.287641 261.20839 
L 246.557778 261.101124 
L 246.638997 260.854412 
L 246.719921 260.800779 
L 246.800554 260.618427 
L 246.904943 260.511161 
L 247.008846 260.382442 
L 247.15984 260.29663 
L 247.231009 260.060645 
L 247.286206 260.060645 
L 247.286206 259.942652 
L 247.497841 259.856839 
L 247.599028 259.803206 
L 247.69976 259.706667 
L 247.800038 259.620854 
L 247.869199 259.535042 
L 247.968722 259.438502 
L 248.075407 259.331237 
L 248.136141 259.266877 
L 248.42988 259.181064 
L 248.50458 258.987986 
L 248.89637 258.88072 
L 249.006017 258.591102 
L 249.144136 258.483836 
L 249.187575 258.194218 
L 249.453601 258.086952 
L 249.560554 257.732975 
L 249.878371 257.647162 
L 249.948387 257.46481 
L 249.997268 257.46481 
L 250.087765 257.185919 
L 250.122474 257.185919 
L 250.198644 256.917754 
L 250.253878 256.853394 
L 250.350209 256.703222 
L 250.418764 256.617409 
L 250.43245 256.510143 
L 250.616391 256.424331 
L 250.724683 256.102533 
L 250.771896 255.995267 
L 250.872732 255.780735 
L 251.046443 255.684196 
L 251.079695 255.523297 
L 251.218814 255.448211 
L 251.25181 255.308765 
L 251.38331 255.233679 
L 251.429153 255.094234 
L 251.650488 255.019147 
L 251.721629 254.922608 
L 251.933704 254.826069 
L 252.035807 254.69735 
L 252.345628 254.611537 
L 252.420851 254.439912 
L 252.558107 254.332646 
L 252.651209 254.139567 
L 252.79937 254.053754 
L 252.885345 253.925035 
L 253.074549 253.828496 
L 253.165528 253.613964 
L 253.358385 253.517425 
L 253.358385 253.474518 
L 253.561487 253.399432 
L 253.609009 253.28144 
L 253.745073 253.24926 
L 253.845112 252.927462 
L 253.909605 252.820196 
L 254.003082 252.691477 
L 254.12518 252.605665 
L 254.20621 252.455492 
L 254.355917 252.36968 
L 254.430396 252.283867 
L 254.584295 252.176601 
L 254.652355 252.058609 
L 254.765331 251.994249 
L 254.87213 251.790444 
L 255.111966 251.683178 
L 255.200553 251.597365 
L 255.524217 251.522279 
L 255.632878 251.243388 
L 255.762576 251.200481 
L 255.859358 250.996676 
L 256.00375 250.910863 
L 256.067626 250.825051 
L 256.189545 250.771418 
L 256.242347 250.599792 
L 256.44709 250.492526 
L 256.520132 250.460347 
L 256.598127 250.363807 
L 256.701698 250.031283 
L 256.789358 249.934744 
L 256.876675 249.816751 
L 256.938105 249.730939 
L 256.948327 249.602219 
L 257.318266 249.559313 
L 257.408549 249.430594 
L 257.578096 249.355508 
L 257.588029 249.280422 
L 257.854573 249.216062 
L 257.893792 248.851358 
L 258.171251 248.744092 
L 258.258158 248.647553 
L 258.554943 248.540287 
L 258.597699 248.454474 
L 258.847836 248.347208 
L 258.955521 248.003958 
L 258.983528 247.896692 
L 259.081274 247.499808 
L 259.099845 247.499808 
L 259.210942 247.220917 
L 259.307701 247.113651 
L 259.36739 247.017111 
L 259.463475 246.909845 
L 259.568239 246.416422 
L 259.600026 246.352063 
L 259.708669 245.79428 
L 259.731236 245.708467 
L 259.839245 245.021966 
L 259.888574 244.9147 
L 259.995826 244.614355 
L 260.018106 244.560722 
L 260.124739 244.271104 
L 260.195546 244.174565 
L 260.305734 243.627509 
L 260.345269 243.53097 
L 260.454723 243.112633 
L 260.541902 243.02682 
L 260.650399 242.780108 
L 260.715245 242.672842 
L 260.818609 242.404678 
L 260.844375 242.308138 
L 260.951416 241.621637 
L 261.011136 241.557277 
L 261.091929 241.267659 
L 261.206241 241.160393 
L 261.311566 240.860049 
L 261.474887 240.763509 
L 261.583108 239.873202 
L 261.616302 239.798116 
L 261.719715 239.519225 
L 261.851389 239.411959 
L 261.957806 239.143794 
L 262.035252 239.036528 
L 262.144848 238.77909 
L 262.201464 238.671824 
L 262.290144 238.3393 
L 262.378473 238.253487 
L 262.454477 237.910236 
L 262.542159 237.802971 
L 262.637422 237.684978 
L 262.712552 237.599165 
L 262.799229 237.352454 
L 262.85029 237.245188 
L 262.959872 236.773218 
L 262.987184 236.665952 
L 263.096098 236.397787 
L 263.130993 236.301248 
L 263.231498 236.118896 
L 263.312346 236.022357 
L 263.412039 235.754192 
L 263.473169 235.689832 
L 263.572148 235.50748 
L 263.73866 235.400214 
L 263.847731 235.239316 
L 263.911423 235.13205 
L 264.012208 234.885338 
L 264.123661 234.778072 
L 264.216116 234.638627 
L 264.322886 234.531361 
L 264.432803 234.434821 
L 264.483914 234.402642 
L 264.57126 234.016484 
L 264.661884 233.919945 
L 264.74133 233.630327 
L 264.877893 233.523061 
L 264.981553 233.383616 
L 265.109569 233.297803 
L 265.205101 233.093998 
L 265.289678 232.986732 
L 265.391448 232.761473 
L 265.489272 232.654207 
L 265.583197 232.450402 
L 265.669815 232.353863 
L 265.780197 232.107151 
L 265.811144 232.053518 
L 265.903729 231.849713 
L 266.002746 231.742447 
L 266.057189 231.656635 
L 266.212977 231.560095 
L 266.310635 231.452829 
L 266.414559 231.345563 
L 266.50468 231.249024 
L 266.547943 231.184665 
L 266.657389 230.970133 
L 266.825484 230.873594 
L 266.904152 230.777054 
L 267.01187 230.669788 
L 267.099618 230.487436 
L 267.309461 230.38017 
L 267.415246 230.187092 
L 267.45359 230.101279 
L 267.491868 229.983287 
L 267.599967 229.876021 
L 267.691758 229.736575 
L 267.924286 229.650762 
L 268.030318 229.511317 
L 268.104862 229.414777 
L 268.210041 229.178792 
L 268.391391 229.071526 
L 268.483042 228.889174 
L 268.64707 228.781908 
L 268.749733 228.728276 
L 268.896863 228.62101 
L 268.97454 228.535197 
L 269.140933 228.427931 
L 269.197107 228.363571 
L 269.370648 228.277759 
L 269.458374 228.170493 
L 269.554477 228.138313 
L 269.609622 227.955961 
L 269.754093 227.848695 
L 269.854669 227.719976 
L 269.986171 227.61271 
L 270.071517 227.387452 
L 270.201752 227.280186 
L 270.311576 227.087107 
L 270.434836 227.001295 
L 270.540743 226.883302 
L 270.599055 226.786763 
L 270.687621 226.743856 
L 270.882881 226.647317 
L 270.986689 226.540051 
L 271.176661 226.432785 
L 271.187468 226.400606 
L 271.373069 226.314793 
L 271.479961 226.175347 
L 271.565109 226.068081 
L 271.652578 225.928636 
L 271.810741 225.82137 
L 271.899872 225.660471 
L 272.110791 225.553205 
L 272.211639 225.488845 
L 272.427315 225.381579 
L 272.516569 225.31722 
L 272.676333 225.209954 
L 272.784725 225.006149 
L 272.882582 224.898883 
L 272.920106 224.855977 
L 273.176077 224.748711 
L 273.286995 224.609265 
L 273.477958 224.501999 
L 273.584964 224.416186 
L 273.809464 224.30892 
L 273.919679 224.040756 
L 273.965044 223.944216 
L 274.069748 223.772591 
L 274.185775 223.665325 
L 274.291802 223.139722 
L 274.324685 223.064636 
L 274.418373 222.721385 
L 274.530282 222.614119 
L 274.63469 222.399587 
L 274.671696 222.292322 
L 274.777746 222.142149 
L 274.844347 222.034883 
L 274.951865 221.627273 
L 274.983792 221.552187 
L 275.081568 221.348382 
L 275.172141 221.251842 
L 275.280345 220.876412 
L 275.314052 220.779872 
L 275.410397 220.651153 
L 275.492967 220.565341 
L 275.601848 220.447348 
L 275.630646 220.372262 
L 275.738861 220.147004 
L 275.796068 220.050464 
L 275.896924 219.814479 
L 275.958092 219.707213 
L 276.062564 219.321056 
L 276.142762 219.21379 
L 276.250683 218.956352 
L 276.388064 218.859813 
L 276.482026 218.731094 
L 276.518224 218.634554 
L 276.624349 218.344937 
L 276.677224 218.248397 
L 276.786803 218.066045 
L 276.88957 217.969506 
L 277.000198 217.690615 
L 277.041802 217.583349 
L 277.147543 217.433176 
L 277.190938 217.368817 
L 277.267192 217.240098 
L 277.361632 217.143558 
L 277.47199 216.961206 
L 277.581805 216.853941 
L 277.687045 216.703768 
L 277.864022 216.596502 
L 277.947996 216.435604 
L 278.101134 216.349791 
L 278.207906 216.145986 
L 278.376904 216.049446 
L 278.455074 215.94218 
L 278.643509 215.845641 
L 278.753501 215.706195 
L 278.820773 215.609656 
L 278.931807 215.523843 
L 279.070778 215.416577 
L 279.137102 215.352218 
L 279.239046 215.244952 
L 279.333026 215.12696 
L 279.486301 215.03042 
L 279.579248 214.912428 
L 279.684738 214.826615 
L 279.684738 214.794435 
L 279.919828 214.697896 
L 279.976393 214.569177 
L 280.116278 214.483364 
L 280.213859 214.365372 
L 280.339721 214.258106 
L 280.445257 214.08648 
L 280.585792 213.979214 
L 280.660148 213.871949 
L 280.827427 213.764683 
L 280.921956 213.67887 
L 281.10116 213.625237 
L 281.204892 213.410705 
L 281.34417 213.303439 
L 281.443369 213.196173 
L 281.64722 213.088907 
L 281.726558 213.003095 
L 281.847552 212.981642 
L 281.952887 212.79929 
L 282.241258 212.692024 
L 282.297174 212.606211 
L 282.758848 212.498945 
L 282.848767 212.359499 
L 282.986155 212.252233 
L 283.094193 211.898256 
L 283.23166 211.79099 
L 283.340087 211.683724 
L 283.441749 211.576458 
L 283.552269 211.28684 
L 283.665335 211.179574 
L 283.737829 210.986496 
L 283.851495 210.87923 
L 283.950861 210.718331 
L 284.017874 210.621792 
L 284.128613 210.514526 
L 284.231276 210.40726 
L 284.340964 210.171275 
L 284.433704 210.064009 
L 284.536463 209.946017 
L 284.606188 209.849477 
L 284.717003 209.613492 
L 284.840467 209.516953 
L 284.903406 209.420414 
L 285.078116 209.356054 
L 285.188063 209.152249 
L 285.280232 209.044983 
L 285.38347 208.926991 
L 285.568671 208.819725 
L 285.677648 208.648099 
L 285.802948 208.540833 
L 285.894018 208.369208 
L 286.050072 208.261942 
L 286.151202 208.165403 
L 286.352099 208.07959 
L 286.415022 207.983051 
L 286.628458 207.875785 
L 286.737782 207.757792 
L 286.88807 207.650526 
L 286.996134 207.57544 
L 287.131475 207.468174 
L 287.229153 207.339455 
L 287.372256 207.232189 
L 287.466282 207.13565 
L 287.70092 207.028384 
L 287.748583 206.985478 
L 287.871776 206.921118 
L 287.975195 206.72804 
L 288.210877 206.620774 
L 288.319013 206.534961 
L 288.441604 206.427695 
L 288.552356 206.331156 
L 289.112556 206.22389 
L 289.217629 206.19171 
L 289.298212 206.095171 
L 289.382093 205.966452 
L 289.488289 205.880639 
L 289.586873 205.773373 
L 289.627131 205.666107 
L 289.718037 205.440849 
L 289.78157 205.333583 
L 289.882379 205.161958 
L 289.992049 205.065418 
L 290.06641 204.893793 
L 290.170564 204.786527 
L 290.279979 204.582722 
L 290.43683 204.486182 
L 290.547223 204.228744 
L 290.681912 204.121478 
L 290.787734 203.960579 
L 290.946648 203.853314 
L 291.039014 203.788954 
L 291.23582 203.692415 
L 291.324807 203.638782 
L 291.485402 203.531516 
L 291.590743 203.477883 
L 291.708527 203.381344 
L 291.809606 203.263351 
L 291.961437 203.156085 
L 292.029532 203.080999 
L 292.292507 202.973733 
L 292.381573 202.930827 
L 292.537887 202.823561 
L 292.648727 202.694842 
L 292.833954 202.609029 
L 292.911702 202.48031 
L 293.129181 202.383771 
L 293.235119 202.319411 
L 293.500272 202.212145 
L 293.588622 202.0727 
L 294.157913 201.965434 
L 294.253323 201.836715 
L 294.318622 201.729449 
L 294.396157 201.632909 
L 294.459134 201.525644 
L 294.555167 201.364745 
L 294.679112 201.268205 
L 294.789233 201.12876 
L 294.892272 201.021494 
L 294.9725 200.903501 
L 295.126549 200.806962 
L 295.233571 200.603157 
L 295.337333 200.495891 
L 295.445175 200.367172 
L 295.519811 200.270633 
L 295.624969 200.174093 
L 295.738634 200.066827 
L 295.832915 199.938108 
L 295.978491 199.830842 
L 296.057579 199.766483 
L 296.340524 199.659217 
L 296.447127 199.573404 
L 296.683847 199.466138 
L 296.784536 199.423232 
L 296.941118 199.326693 
L 297.021973 199.187247 
L 297.292194 199.079981 
L 297.373463 199.015622 
L 297.660965 198.908356 
L 297.695614 198.854723 
L 298.199325 198.747457 
L 298.300644 198.608011 
L 298.402304 198.500745 
L 298.476456 198.414932 
L 298.530519 198.318393 
L 298.63035 198.178947 
L 298.809869 198.071682 
L 298.910024 198.007322 
L 299.134515 197.910783 
L 299.204738 197.835697 
L 299.295469 197.728431 
L 299.372072 197.674798 
L 299.66532 197.567532 
L 299.758713 197.524626 
L 300.130644 197.41736 
L 300.193387 197.32082 
L 300.552406 197.213554 
L 300.643615 197.138468 
L 300.870734 197.031202 
L 300.930008 196.999023 
L 301.570458 196.891757 
L 301.674862 196.795217 
L 301.868545 196.698678 
L 301.880167 196.623592 
L 302.120822 196.516326 
L 302.141098 196.494873 
L 302.347536 196.387607 
L 302.401019 196.366154 
L 302.606402 196.258888 
L 302.66125 196.194528 
L 302.815159 196.087262 
L 302.881917 196.044356 
L 303.197288 195.93709 
L 303.298864 195.872731 
L 303.607177 195.765465 
L 303.702501 195.658199 
L 304.093403 195.550933 
L 304.158922 195.4973 
L 304.602571 195.390034 
L 304.695557 195.293495 
L 304.809148 195.186229 
L 304.913217 195.111143 
L 305.177183 195.014603 
L 305.264287 194.939517 
L 305.386717 194.832251 
L 305.482318 194.724986 
L 305.733931 194.61772 
L 305.745431 194.596266 
L 306.229934 194.489001 
L 306.336562 194.435368 
L 306.809638 194.328102 
L 306.915723 194.295922 
L 307.290612 194.188656 
L 307.370401 194.135023 
L 307.722017 194.027757 
L 307.793989 193.995577 
L 308.076472 193.899038 
L 308.082686 193.856132 
L 308.669808 193.748866 
L 308.735777 193.70596 
L 309.117669 193.620147 
L 309.117669 193.587967 
L 309.607561 193.480701 
L 309.677572 193.416342 
L 309.864795 193.309076 
L 309.96972 193.255443 
L 310.144137 193.148177 
L 310.243061 193.083817 
L 310.662589 192.976551 
L 310.691631 192.944372 
L 311.64355 192.837106 
L 311.74046 192.783473 
L 312.071609 192.676207 
L 312.173582 192.601121 
L 312.899286 192.493855 
L 312.93098 192.461675 
L 313.516253 192.354409 
L 313.625188 192.279323 
L 313.914175 192.172057 
L 313.9922 192.118424 
L 314.27533 192.011158 
L 314.352497 191.978979 
L 314.717848 191.871713 
L 314.738996 191.850259 
L 315.481711 191.742994 
L 315.58075 191.710814 
L 316.061496 191.603548 
L 316.148623 191.571368 
L 317.075898 191.464102 
L 317.17709 191.442649 
L 317.46638 191.335383 
L 317.554644 191.292477 
L 318.728712 191.185211 
L 318.815977 191.163758 
L 319.316567 191.056492 
L 319.316567 191.045765 
L 320.199984 190.938499 
L 320.210516 190.917046 
L 320.638372 190.80978 
L 320.638372 190.799054 
L 321.888815 190.691788 
L 321.888815 190.681061 
L 323.158789 190.573795 
L 323.228014 190.541615 
L 324.932842 190.43435 
L 324.932842 190.423623 
L 327.140979 190.316357 
L 327.214309 190.294904 
L 331.403324 190.187638 
L 331.403324 190.176911 
L 445.2 190.112552 
L 445.2 190.112552 
" style="fill:none;stroke:#00bfbf;stroke-linecap:square;stroke-width:1.5;"/>
   </g>
   <g id="line2d_3">
    <defs>
     <path d="M -6 0 
L 6 0 
M 0 6 
L 0 -6 
" id="mdb54c8b8a2" style="stroke:#00bfbf;stroke-width:1.5;"/>
    </defs>
    <g>
     <use style="fill:none;stroke:#00bfbf;stroke-width:1.5;" x="172.351124517" xlink:href="#mdb54c8b8a2" y="341.818712852"/>
     <use style="fill:none;stroke:#00bfbf;stroke-width:1.5;" x="229.932733495" xlink:href="#mdb54c8b8a2" y="277.620072298"/>
     <use style="fill:none;stroke:#00bfbf;stroke-width:1.5;" x="263.189031913" xlink:href="#mdb54c8b8a2" y="236.204708693"/>
     <use style="fill:none;stroke:#00bfbf;stroke-width:1.5;" x="336.708229025" xlink:href="#mdb54c8b8a2" y="190.123278481"/>
     <use style="fill:none;stroke:#00bfbf;stroke-width:1.5;" x="336.708229025" xlink:href="#mdb54c8b8a2" y="190.112551891"/>
     <use style="fill:none;stroke:#00bfbf;stroke-width:1.5;" x="445.2" xlink:href="#mdb54c8b8a2" y="190.112551891"/>
    </g>
   </g>
   <g id="line2d_4"/>
   <g id="line2d_5">
    <path clip-path="url(#p1b768d5b76)" d="M 257.849666 249.216062 
" style="fill:none;stroke:#00bfbf;stroke-linecap:square;"/>
    <defs>
     <path d="M -12 12 
L 12 -12 
M -12 -12 
L 12 12 
" id="md97889bc54" style="stroke:#00bfbf;stroke-width:3.0;"/>
    </defs>
    <g clip-path="url(#p1b768d5b76)">
     <use style="fill:#00bfbf;stroke:#00bfbf;stroke-width:3.0;" x="257.849666049" xlink:href="#md97889bc54" y="249.216062242"/>
    </g>
   </g>
   <g id="line2d_6">
    <path d="M 445.2 190.112552 
L 484.8 352.212778 
" style="fill:none;stroke:#00bfbf;stroke-linecap:square;stroke-width:1.5;"/>
    <g>
     <use style="fill:none;stroke:#00bfbf;stroke-width:1.5;" x="445.2" xlink:href="#mdb54c8b8a2" y="190.112551891"/>
     <use style="fill:none;stroke:#00bfbf;stroke-width:1.5;" x="484.8" xlink:href="#mdb54c8b8a2" y="352.212778465"/>
    </g>
   </g>
   <g id="line2d_7">
    <path d="M 445.2 359.056343 
L 445.2 16.878125 
" style="fill:none;stroke:#000000;stroke-linecap:square;"/>
   </g>
   <g id="patch_3">
    <path d="M 85.2 13.456343 
L 531.6 13.456343 
" style="fill:none;stroke:#000000;stroke-linecap:square;stroke-linejoin:miter;"/>
   </g>
   <g id="patch_4">
    <path d="M 531.6 359.056343 
L 531.6 13.456343 
" style="fill:none;stroke:#000000;stroke-linecap:square;stroke-linejoin:miter;"/>
   </g>
   <g id="patch_5">
    <path d="M 85.2 359.056343 
L 531.6 359.056343 
" style="fill:none;stroke:#000000;stroke-linecap:square;stroke-linejoin:miter;"/>
   </g>
   <g id="patch_6">
    <path d="M 85.2 359.056343 
L 85.2 13.456343 
" style="fill:none;stroke:#000000;stroke-linecap:square;stroke-linejoin:miter;"/>
   </g>
   <g id="matplotlib.axis_1">
    <g id="xtick_1">
     <g id="line2d_8">
      <path clip-path="url(#p1b768d5b76)" d="M 85.2 359.056343 
L 85.2 13.456343 
" style="fill:none;stroke:#000000;stroke-dasharray:1.000000,3.000000;stroke-dashoffset:0.0;stroke-width:0.5;"/>
     </g>
     <g id="line2d_9">
      <defs>
       <path d="M 0 0 
L 0 -4 
" id="mf903396a0b" style="stroke:#000000;stroke-width:0.5;"/>
      </defs>
      <g>
       <use style="stroke:#000000;stroke-width:0.5;" x="85.2" xlink:href="#mf903396a0b" y="359.056342822"/>
      </g>
     </g>
     <g id="line2d_10">
      <defs>
       <path d="M 0 0 
L 0 4 
" id="m7773ba6c89" style="stroke:#000000;stroke-width:0.5;"/>
      </defs>
      <g>
       <use style="stroke:#000000;stroke-width:0.5;" x="85.2" xlink:href="#m7773ba6c89" y="13.4563428218"/>
      </g>
     </g>
     <g id="text_1">
      <!-- 0 -->
      <defs>
       <path d="M 31.78125 66.40625 
Q 24.171875 66.40625 20.328125 58.90625 
Q 16.5 51.421875 16.5 36.375 
Q 16.5 21.390625 20.328125 13.890625 
Q 24.171875 6.390625 31.78125 6.390625 
Q 39.453125 6.390625 43.28125 13.890625 
Q 47.125 21.390625 47.125 36.375 
Q 47.125 51.421875 43.28125 58.90625 
Q 39.453125 66.40625 31.78125 66.40625 
M 31.78125 74.21875 
Q 44.046875 74.21875 50.515625 64.515625 
Q 56.984375 54.828125 56.984375 36.375 
Q 56.984375 17.96875 50.515625 8.265625 
Q 44.046875 -1.421875 31.78125 -1.421875 
Q 19.53125 -1.421875 13.0625 8.265625 
Q 6.59375 17.96875 6.59375 36.375 
Q 6.59375 54.828125 13.0625 64.515625 
Q 19.53125 74.21875 31.78125 74.21875 
" id="BitstreamVeraSans-Roman-30"/>
      </defs>
      <g transform="translate(78.8375 378.253217822)scale(0.2 -0.2)">
       <use xlink:href="#BitstreamVeraSans-Roman-30"/>
      </g>
     </g>
    </g>
    <g id="xtick_2">
     <g id="line2d_11">
      <path clip-path="url(#p1b768d5b76)" d="M 136.628571 359.056343 
L 136.628571 13.456343 
" style="fill:none;stroke:#000000;stroke-dasharray:1.000000,3.000000;stroke-dashoffset:0.0;stroke-width:0.5;"/>
     </g>
     <g id="line2d_12">
      <g>
       <use style="stroke:#000000;stroke-width:0.5;" x="136.628571429" xlink:href="#mf903396a0b" y="359.056342822"/>
      </g>
     </g>
     <g id="line2d_13">
      <g>
       <use style="stroke:#000000;stroke-width:0.5;" x="136.628571429" xlink:href="#m7773ba6c89" y="13.4563428218"/>
      </g>
     </g>
     <g id="text_2">
      <!-- 1 -->
      <defs>
       <path d="M 12.40625 8.296875 
L 28.515625 8.296875 
L 28.515625 63.921875 
L 10.984375 60.40625 
L 10.984375 69.390625 
L 28.421875 72.90625 
L 38.28125 72.90625 
L 38.28125 8.296875 
L 54.390625 8.296875 
L 54.390625 0 
L 12.40625 0 
z
" id="BitstreamVeraSans-Roman-31"/>
      </defs>
      <g transform="translate(130.266071429 378.253217822)scale(0.2 -0.2)">
       <use xlink:href="#BitstreamVeraSans-Roman-31"/>
      </g>
     </g>
    </g>
    <g id="xtick_3">
     <g id="line2d_14">
      <path clip-path="url(#p1b768d5b76)" d="M 188.057143 359.056343 
L 188.057143 13.456343 
" style="fill:none;stroke:#000000;stroke-dasharray:1.000000,3.000000;stroke-dashoffset:0.0;stroke-width:0.5;"/>
     </g>
     <g id="line2d_15">
      <g>
       <use style="stroke:#000000;stroke-width:0.5;" x="188.057142857" xlink:href="#mf903396a0b" y="359.056342822"/>
      </g>
     </g>
     <g id="line2d_16">
      <g>
       <use style="stroke:#000000;stroke-width:0.5;" x="188.057142857" xlink:href="#m7773ba6c89" y="13.4563428218"/>
      </g>
     </g>
     <g id="text_3">
      <!-- 2 -->
      <defs>
       <path d="M 19.1875 8.296875 
L 53.609375 8.296875 
L 53.609375 0 
L 7.328125 0 
L 7.328125 8.296875 
Q 12.9375 14.109375 22.625 23.890625 
Q 32.328125 33.6875 34.8125 36.53125 
Q 39.546875 41.84375 41.421875 45.53125 
Q 43.3125 49.21875 43.3125 52.78125 
Q 43.3125 58.59375 39.234375 62.25 
Q 35.15625 65.921875 28.609375 65.921875 
Q 23.96875 65.921875 18.8125 64.3125 
Q 13.671875 62.703125 7.8125 59.421875 
L 7.8125 69.390625 
Q 13.765625 71.78125 18.9375 73 
Q 24.125 74.21875 28.421875 74.21875 
Q 39.75 74.21875 46.484375 68.546875 
Q 53.21875 62.890625 53.21875 53.421875 
Q 53.21875 48.921875 51.53125 44.890625 
Q 49.859375 40.875 45.40625 35.40625 
Q 44.1875 33.984375 37.640625 27.21875 
Q 31.109375 20.453125 19.1875 8.296875 
" id="BitstreamVeraSans-Roman-32"/>
      </defs>
      <g transform="translate(181.694642857 378.253217822)scale(0.2 -0.2)">
       <use xlink:href="#BitstreamVeraSans-Roman-32"/>
      </g>
     </g>
    </g>
    <g id="xtick_4">
     <g id="line2d_17">
      <path clip-path="url(#p1b768d5b76)" d="M 239.485714 359.056343 
L 239.485714 13.456343 
" style="fill:none;stroke:#000000;stroke-dasharray:1.000000,3.000000;stroke-dashoffset:0.0;stroke-width:0.5;"/>
     </g>
     <g id="line2d_18">
      <g>
       <use style="stroke:#000000;stroke-width:0.5;" x="239.485714286" xlink:href="#mf903396a0b" y="359.056342822"/>
      </g>
     </g>
     <g id="line2d_19">
      <g>
       <use style="stroke:#000000;stroke-width:0.5;" x="239.485714286" xlink:href="#m7773ba6c89" y="13.4563428218"/>
      </g>
     </g>
     <g id="text_4">
      <!-- 3 -->
      <defs>
       <path d="M 40.578125 39.3125 
Q 47.65625 37.796875 51.625 33 
Q 55.609375 28.21875 55.609375 21.1875 
Q 55.609375 10.40625 48.1875 4.484375 
Q 40.765625 -1.421875 27.09375 -1.421875 
Q 22.515625 -1.421875 17.65625 -0.515625 
Q 12.796875 0.390625 7.625 2.203125 
L 7.625 11.71875 
Q 11.71875 9.328125 16.59375 8.109375 
Q 21.484375 6.890625 26.8125 6.890625 
Q 36.078125 6.890625 40.9375 10.546875 
Q 45.796875 14.203125 45.796875 21.1875 
Q 45.796875 27.640625 41.28125 31.265625 
Q 36.765625 34.90625 28.71875 34.90625 
L 20.21875 34.90625 
L 20.21875 43.015625 
L 29.109375 43.015625 
Q 36.375 43.015625 40.234375 45.921875 
Q 44.09375 48.828125 44.09375 54.296875 
Q 44.09375 59.90625 40.109375 62.90625 
Q 36.140625 65.921875 28.71875 65.921875 
Q 24.65625 65.921875 20.015625 65.03125 
Q 15.375 64.15625 9.8125 62.3125 
L 9.8125 71.09375 
Q 15.4375 72.65625 20.34375 73.4375 
Q 25.25 74.21875 29.59375 74.21875 
Q 40.828125 74.21875 47.359375 69.109375 
Q 53.90625 64.015625 53.90625 55.328125 
Q 53.90625 49.265625 50.4375 45.09375 
Q 46.96875 40.921875 40.578125 39.3125 
" id="BitstreamVeraSans-Roman-33"/>
      </defs>
      <g transform="translate(233.123214286 378.253217822)scale(0.2 -0.2)">
       <use xlink:href="#BitstreamVeraSans-Roman-33"/>
      </g>
     </g>
    </g>
    <g id="xtick_5">
     <g id="line2d_20">
      <path clip-path="url(#p1b768d5b76)" d="M 290.914286 359.056343 
L 290.914286 13.456343 
" style="fill:none;stroke:#000000;stroke-dasharray:1.000000,3.000000;stroke-dashoffset:0.0;stroke-width:0.5;"/>
     </g>
     <g id="line2d_21">
      <g>
       <use style="stroke:#000000;stroke-width:0.5;" x="290.914285714" xlink:href="#mf903396a0b" y="359.056342822"/>
      </g>
     </g>
     <g id="line2d_22">
      <g>
       <use style="stroke:#000000;stroke-width:0.5;" x="290.914285714" xlink:href="#m7773ba6c89" y="13.4563428218"/>
      </g>
     </g>
     <g id="text_5">
      <!-- 4 -->
      <defs>
       <path d="M 37.796875 64.3125 
L 12.890625 25.390625 
L 37.796875 25.390625 
z
M 35.203125 72.90625 
L 47.609375 72.90625 
L 47.609375 25.390625 
L 58.015625 25.390625 
L 58.015625 17.1875 
L 47.609375 17.1875 
L 47.609375 0 
L 37.796875 0 
L 37.796875 17.1875 
L 4.890625 17.1875 
L 4.890625 26.703125 
z
" id="BitstreamVeraSans-Roman-34"/>
      </defs>
      <g transform="translate(284.551785714 378.253217822)scale(0.2 -0.2)">
       <use xlink:href="#BitstreamVeraSans-Roman-34"/>
      </g>
     </g>
    </g>
    <g id="xtick_6">
     <g id="line2d_23">
      <path clip-path="url(#p1b768d5b76)" d="M 342.342857 359.056343 
L 342.342857 13.456343 
" style="fill:none;stroke:#000000;stroke-dasharray:1.000000,3.000000;stroke-dashoffset:0.0;stroke-width:0.5;"/>
     </g>
     <g id="line2d_24">
      <g>
       <use style="stroke:#000000;stroke-width:0.5;" x="342.342857143" xlink:href="#mf903396a0b" y="359.056342822"/>
      </g>
     </g>
     <g id="line2d_25">
      <g>
       <use style="stroke:#000000;stroke-width:0.5;" x="342.342857143" xlink:href="#m7773ba6c89" y="13.4563428218"/>
      </g>
     </g>
     <g id="text_6">
      <!-- 5 -->
      <defs>
       <path d="M 10.796875 72.90625 
L 49.515625 72.90625 
L 49.515625 64.59375 
L 19.828125 64.59375 
L 19.828125 46.734375 
Q 21.96875 47.46875 24.109375 47.828125 
Q 26.265625 48.1875 28.421875 48.1875 
Q 40.625 48.1875 47.75 41.5 
Q 54.890625 34.8125 54.890625 23.390625 
Q 54.890625 11.625 47.5625 5.09375 
Q 40.234375 -1.421875 26.90625 -1.421875 
Q 22.3125 -1.421875 17.546875 -0.640625 
Q 12.796875 0.140625 7.71875 1.703125 
L 7.71875 11.625 
Q 12.109375 9.234375 16.796875 8.0625 
Q 21.484375 6.890625 26.703125 6.890625 
Q 35.15625 6.890625 40.078125 11.328125 
Q 45.015625 15.765625 45.015625 23.390625 
Q 45.015625 31 40.078125 35.4375 
Q 35.15625 39.890625 26.703125 39.890625 
Q 22.75 39.890625 18.8125 39.015625 
Q 14.890625 38.140625 10.796875 36.28125 
z
" id="BitstreamVeraSans-Roman-35"/>
      </defs>
      <g transform="translate(335.980357143 378.253217822)scale(0.2 -0.2)">
       <use xlink:href="#BitstreamVeraSans-Roman-35"/>
      </g>
     </g>
    </g>
    <g id="xtick_7">
     <g id="line2d_26">
      <path clip-path="url(#p1b768d5b76)" d="M 393.771429 359.056343 
L 393.771429 13.456343 
" style="fill:none;stroke:#000000;stroke-dasharray:1.000000,3.000000;stroke-dashoffset:0.0;stroke-width:0.5;"/>
     </g>
     <g id="line2d_27">
      <g>
       <use style="stroke:#000000;stroke-width:0.5;" x="393.771428571" xlink:href="#mf903396a0b" y="359.056342822"/>
      </g>
     </g>
     <g id="line2d_28">
      <g>
       <use style="stroke:#000000;stroke-width:0.5;" x="393.771428571" xlink:href="#m7773ba6c89" y="13.4563428218"/>
      </g>
     </g>
     <g id="text_7">
      <!-- 6 -->
      <defs>
       <path d="M 33.015625 40.375 
Q 26.375 40.375 22.484375 35.828125 
Q 18.609375 31.296875 18.609375 23.390625 
Q 18.609375 15.53125 22.484375 10.953125 
Q 26.375 6.390625 33.015625 6.390625 
Q 39.65625 6.390625 43.53125 10.953125 
Q 47.40625 15.53125 47.40625 23.390625 
Q 47.40625 31.296875 43.53125 35.828125 
Q 39.65625 40.375 33.015625 40.375 
M 52.59375 71.296875 
L 52.59375 62.3125 
Q 48.875 64.0625 45.09375 64.984375 
Q 41.3125 65.921875 37.59375 65.921875 
Q 27.828125 65.921875 22.671875 59.328125 
Q 17.53125 52.734375 16.796875 39.40625 
Q 19.671875 43.65625 24.015625 45.921875 
Q 28.375 48.1875 33.59375 48.1875 
Q 44.578125 48.1875 50.953125 41.515625 
Q 57.328125 34.859375 57.328125 23.390625 
Q 57.328125 12.15625 50.6875 5.359375 
Q 44.046875 -1.421875 33.015625 -1.421875 
Q 20.359375 -1.421875 13.671875 8.265625 
Q 6.984375 17.96875 6.984375 36.375 
Q 6.984375 53.65625 15.1875 63.9375 
Q 23.390625 74.21875 37.203125 74.21875 
Q 40.921875 74.21875 44.703125 73.484375 
Q 48.484375 72.75 52.59375 71.296875 
" id="BitstreamVeraSans-Roman-36"/>
      </defs>
      <g transform="translate(387.408928571 378.253217822)scale(0.2 -0.2)">
       <use xlink:href="#BitstreamVeraSans-Roman-36"/>
      </g>
     </g>
    </g>
    <g id="xtick_8">
     <g id="line2d_29">
      <path clip-path="url(#p1b768d5b76)" d="M 445.2 359.056343 
L 445.2 13.456343 
" style="fill:none;stroke:#000000;stroke-dasharray:1.000000,3.000000;stroke-dashoffset:0.0;stroke-width:0.5;"/>
     </g>
     <g id="line2d_30">
      <g>
       <use style="stroke:#000000;stroke-width:0.5;" x="445.2" xlink:href="#mf903396a0b" y="359.056342822"/>
      </g>
     </g>
     <g id="line2d_31">
      <g>
       <use style="stroke:#000000;stroke-width:0.5;" x="445.2" xlink:href="#m7773ba6c89" y="13.4563428218"/>
      </g>
     </g>
     <g id="text_8">
      <!-- 7 -->
      <defs>
       <path d="M 8.203125 72.90625 
L 55.078125 72.90625 
L 55.078125 68.703125 
L 28.609375 0 
L 18.3125 0 
L 43.21875 64.59375 
L 8.203125 64.59375 
z
" id="BitstreamVeraSans-Roman-37"/>
      </defs>
      <g transform="translate(438.8375 378.253217822)scale(0.2 -0.2)">
       <use xlink:href="#BitstreamVeraSans-Roman-37"/>
      </g>
     </g>
    </g>
    <g id="xtick_9">
     <g id="line2d_32">
      <path clip-path="url(#p1b768d5b76)" d="M 496.628571 359.056343 
L 496.628571 13.456343 
" style="fill:none;stroke:#000000;stroke-dasharray:1.000000,3.000000;stroke-dashoffset:0.0;stroke-width:0.5;"/>
     </g>
     <g id="line2d_33">
      <g>
       <use style="stroke:#000000;stroke-width:0.5;" x="496.628571429" xlink:href="#mf903396a0b" y="359.056342822"/>
      </g>
     </g>
     <g id="line2d_34">
      <g>
       <use style="stroke:#000000;stroke-width:0.5;" x="496.628571429" xlink:href="#m7773ba6c89" y="13.4563428218"/>
      </g>
     </g>
     <g id="text_9">
      <!-- 8 -->
      <defs>
       <path d="M 31.78125 34.625 
Q 24.75 34.625 20.71875 30.859375 
Q 16.703125 27.09375 16.703125 20.515625 
Q 16.703125 13.921875 20.71875 10.15625 
Q 24.75 6.390625 31.78125 6.390625 
Q 38.8125 6.390625 42.859375 10.171875 
Q 46.921875 13.96875 46.921875 20.515625 
Q 46.921875 27.09375 42.890625 30.859375 
Q 38.875 34.625 31.78125 34.625 
M 21.921875 38.8125 
Q 15.578125 40.375 12.03125 44.71875 
Q 8.5 49.078125 8.5 55.328125 
Q 8.5 64.0625 14.71875 69.140625 
Q 20.953125 74.21875 31.78125 74.21875 
Q 42.671875 74.21875 48.875 69.140625 
Q 55.078125 64.0625 55.078125 55.328125 
Q 55.078125 49.078125 51.53125 44.71875 
Q 48 40.375 41.703125 38.8125 
Q 48.828125 37.15625 52.796875 32.3125 
Q 56.78125 27.484375 56.78125 20.515625 
Q 56.78125 9.90625 50.3125 4.234375 
Q 43.84375 -1.421875 31.78125 -1.421875 
Q 19.734375 -1.421875 13.25 4.234375 
Q 6.78125 9.90625 6.78125 20.515625 
Q 6.78125 27.484375 10.78125 32.3125 
Q 14.796875 37.15625 21.921875 38.8125 
M 18.3125 54.390625 
Q 18.3125 48.734375 21.84375 45.5625 
Q 25.390625 42.390625 31.78125 42.390625 
Q 38.140625 42.390625 41.71875 45.5625 
Q 45.3125 48.734375 45.3125 54.390625 
Q 45.3125 60.0625 41.71875 63.234375 
Q 38.140625 66.40625 31.78125 66.40625 
Q 25.390625 66.40625 21.84375 63.234375 
Q 18.3125 60.0625 18.3125 54.390625 
" id="BitstreamVeraSans-Roman-38"/>
      </defs>
      <g transform="translate(490.266071429 378.253217822)scale(0.2 -0.2)">
       <use xlink:href="#BitstreamVeraSans-Roman-38"/>
      </g>
     </g>
    </g>
    <g id="xtick_10">
     <g id="line2d_35">
      <defs>
       <path d="M 0 0 
L 0 -2 
" id="mc62a4a9161" style="stroke:#000000;stroke-width:0.5;"/>
      </defs>
      <g>
       <use style="stroke:#000000;stroke-width:0.5;" x="100.681542634" xlink:href="#mc62a4a9161" y="359.056342822"/>
      </g>
     </g>
     <g id="line2d_36">
      <defs>
       <path d="M 0 0 
L 0 2 
" id="m9cdc6e3e4e" style="stroke:#000000;stroke-width:0.5;"/>
      </defs>
      <g>
       <use style="stroke:#000000;stroke-width:0.5;" x="100.681542634" xlink:href="#m9cdc6e3e4e" y="13.4563428218"/>
      </g>
     </g>
    </g>
    <g id="xtick_11">
     <g id="line2d_37">
      <g>
       <use style="stroke:#000000;stroke-width:0.5;" x="116.163085268" xlink:href="#mc62a4a9161" y="359.056342822"/>
      </g>
     </g>
     <g id="line2d_38">
      <g>
       <use style="stroke:#000000;stroke-width:0.5;" x="116.163085268" xlink:href="#m9cdc6e3e4e" y="13.4563428218"/>
      </g>
     </g>
    </g>
    <g id="xtick_12">
     <g id="line2d_39">
      <g>
       <use style="stroke:#000000;stroke-width:0.5;" x="125.219207163" xlink:href="#mc62a4a9161" y="359.056342822"/>
      </g>
     </g>
     <g id="line2d_40">
      <g>
       <use style="stroke:#000000;stroke-width:0.5;" x="125.219207163" xlink:href="#m9cdc6e3e4e" y="13.4563428218"/>
      </g>
     </g>
    </g>
    <g id="xtick_13">
     <g id="line2d_41">
      <g>
       <use style="stroke:#000000;stroke-width:0.5;" x="131.644627902" xlink:href="#mc62a4a9161" y="359.056342822"/>
      </g>
     </g>
     <g id="line2d_42">
      <g>
       <use style="stroke:#000000;stroke-width:0.5;" x="131.644627902" xlink:href="#m9cdc6e3e4e" y="13.4563428218"/>
      </g>
     </g>
    </g>
    <g id="xtick_14">
     <g id="line2d_43">
      <g>
       <use style="stroke:#000000;stroke-width:0.5;" x="152.110114063" xlink:href="#mc62a4a9161" y="359.056342822"/>
      </g>
     </g>
     <g id="line2d_44">
      <g>
       <use style="stroke:#000000;stroke-width:0.5;" x="152.110114063" xlink:href="#m9cdc6e3e4e" y="13.4563428218"/>
      </g>
     </g>
    </g>
    <g id="xtick_15">
     <g id="line2d_45">
      <g>
       <use style="stroke:#000000;stroke-width:0.5;" x="167.591656697" xlink:href="#mc62a4a9161" y="359.056342822"/>
      </g>
     </g>
     <g id="line2d_46">
      <g>
       <use style="stroke:#000000;stroke-width:0.5;" x="167.591656697" xlink:href="#m9cdc6e3e4e" y="13.4563428218"/>
      </g>
     </g>
    </g>
    <g id="xtick_16">
     <g id="line2d_47">
      <g>
       <use style="stroke:#000000;stroke-width:0.5;" x="176.647778591" xlink:href="#mc62a4a9161" y="359.056342822"/>
      </g>
     </g>
     <g id="line2d_48">
      <g>
       <use style="stroke:#000000;stroke-width:0.5;" x="176.647778591" xlink:href="#m9cdc6e3e4e" y="13.4563428218"/>
      </g>
     </g>
    </g>
    <g id="xtick_17">
     <g id="line2d_49">
      <g>
       <use style="stroke:#000000;stroke-width:0.5;" x="183.073199331" xlink:href="#mc62a4a9161" y="359.056342822"/>
      </g>
     </g>
     <g id="line2d_50">
      <g>
       <use style="stroke:#000000;stroke-width:0.5;" x="183.073199331" xlink:href="#m9cdc6e3e4e" y="13.4563428218"/>
      </g>
     </g>
    </g>
    <g id="xtick_18">
     <g id="line2d_51">
      <g>
       <use style="stroke:#000000;stroke-width:0.5;" x="203.538685491" xlink:href="#mc62a4a9161" y="359.056342822"/>
      </g>
     </g>
     <g id="line2d_52">
      <g>
       <use style="stroke:#000000;stroke-width:0.5;" x="203.538685491" xlink:href="#m9cdc6e3e4e" y="13.4563428218"/>
      </g>
     </g>
    </g>
    <g id="xtick_19">
     <g id="line2d_53">
      <g>
       <use style="stroke:#000000;stroke-width:0.5;" x="219.020228125" xlink:href="#mc62a4a9161" y="359.056342822"/>
      </g>
     </g>
     <g id="line2d_54">
      <g>
       <use style="stroke:#000000;stroke-width:0.5;" x="219.020228125" xlink:href="#m9cdc6e3e4e" y="13.4563428218"/>
      </g>
     </g>
    </g>
    <g id="xtick_20">
     <g id="line2d_55">
      <g>
       <use style="stroke:#000000;stroke-width:0.5;" x="228.07635002" xlink:href="#mc62a4a9161" y="359.056342822"/>
      </g>
     </g>
     <g id="line2d_56">
      <g>
       <use style="stroke:#000000;stroke-width:0.5;" x="228.07635002" xlink:href="#m9cdc6e3e4e" y="13.4563428218"/>
      </g>
     </g>
    </g>
    <g id="xtick_21">
     <g id="line2d_57">
      <g>
       <use style="stroke:#000000;stroke-width:0.5;" x="234.50177076" xlink:href="#mc62a4a9161" y="359.056342822"/>
      </g>
     </g>
     <g id="line2d_58">
      <g>
       <use style="stroke:#000000;stroke-width:0.5;" x="234.50177076" xlink:href="#m9cdc6e3e4e" y="13.4563428218"/>
      </g>
     </g>
    </g>
    <g id="xtick_22">
     <g id="line2d_59">
      <g>
       <use style="stroke:#000000;stroke-width:0.5;" x="254.96725692" xlink:href="#mc62a4a9161" y="359.056342822"/>
      </g>
     </g>
     <g id="line2d_60">
      <g>
       <use style="stroke:#000000;stroke-width:0.5;" x="254.96725692" xlink:href="#m9cdc6e3e4e" y="13.4563428218"/>
      </g>
     </g>
    </g>
    <g id="xtick_23">
     <g id="line2d_61">
      <g>
       <use style="stroke:#000000;stroke-width:0.5;" x="270.448799554" xlink:href="#mc62a4a9161" y="359.056342822"/>
      </g>
     </g>
     <g id="line2d_62">
      <g>
       <use style="stroke:#000000;stroke-width:0.5;" x="270.448799554" xlink:href="#m9cdc6e3e4e" y="13.4563428218"/>
      </g>
     </g>
    </g>
    <g id="xtick_24">
     <g id="line2d_63">
      <g>
       <use style="stroke:#000000;stroke-width:0.5;" x="279.504921448" xlink:href="#mc62a4a9161" y="359.056342822"/>
      </g>
     </g>
     <g id="line2d_64">
      <g>
       <use style="stroke:#000000;stroke-width:0.5;" x="279.504921448" xlink:href="#m9cdc6e3e4e" y="13.4563428218"/>
      </g>
     </g>
    </g>
    <g id="xtick_25">
     <g id="line2d_65">
      <g>
       <use style="stroke:#000000;stroke-width:0.5;" x="285.930342188" xlink:href="#mc62a4a9161" y="359.056342822"/>
      </g>
     </g>
     <g id="line2d_66">
      <g>
       <use style="stroke:#000000;stroke-width:0.5;" x="285.930342188" xlink:href="#m9cdc6e3e4e" y="13.4563428218"/>
      </g>
     </g>
    </g>
    <g id="xtick_26">
     <g id="line2d_67">
      <g>
       <use style="stroke:#000000;stroke-width:0.5;" x="306.395828348" xlink:href="#mc62a4a9161" y="359.056342822"/>
      </g>
     </g>
     <g id="line2d_68">
      <g>
       <use style="stroke:#000000;stroke-width:0.5;" x="306.395828348" xlink:href="#m9cdc6e3e4e" y="13.4563428218"/>
      </g>
     </g>
    </g>
    <g id="xtick_27">
     <g id="line2d_69">
      <g>
       <use style="stroke:#000000;stroke-width:0.5;" x="321.877370983" xlink:href="#mc62a4a9161" y="359.056342822"/>
      </g>
     </g>
     <g id="line2d_70">
      <g>
       <use style="stroke:#000000;stroke-width:0.5;" x="321.877370983" xlink:href="#m9cdc6e3e4e" y="13.4563428218"/>
      </g>
     </g>
    </g>
    <g id="xtick_28">
     <g id="line2d_71">
      <g>
       <use style="stroke:#000000;stroke-width:0.5;" x="330.933492877" xlink:href="#mc62a4a9161" y="359.056342822"/>
      </g>
     </g>
     <g id="line2d_72">
      <g>
       <use style="stroke:#000000;stroke-width:0.5;" x="330.933492877" xlink:href="#m9cdc6e3e4e" y="13.4563428218"/>
      </g>
     </g>
    </g>
    <g id="xtick_29">
     <g id="line2d_73">
      <g>
       <use style="stroke:#000000;stroke-width:0.5;" x="337.358913617" xlink:href="#mc62a4a9161" y="359.056342822"/>
      </g>
     </g>
     <g id="line2d_74">
      <g>
       <use style="stroke:#000000;stroke-width:0.5;" x="337.358913617" xlink:href="#m9cdc6e3e4e" y="13.4563428218"/>
      </g>
     </g>
    </g>
    <g id="xtick_30">
     <g id="line2d_75">
      <g>
       <use style="stroke:#000000;stroke-width:0.5;" x="357.824399777" xlink:href="#mc62a4a9161" y="359.056342822"/>
      </g>
     </g>
     <g id="line2d_76">
      <g>
       <use style="stroke:#000000;stroke-width:0.5;" x="357.824399777" xlink:href="#m9cdc6e3e4e" y="13.4563428218"/>
      </g>
     </g>
    </g>
    <g id="xtick_31">
     <g id="line2d_77">
      <g>
       <use style="stroke:#000000;stroke-width:0.5;" x="373.305942411" xlink:href="#mc62a4a9161" y="359.056342822"/>
      </g>
     </g>
     <g id="line2d_78">
      <g>
       <use style="stroke:#000000;stroke-width:0.5;" x="373.305942411" xlink:href="#m9cdc6e3e4e" y="13.4563428218"/>
      </g>
     </g>
    </g>
    <g id="xtick_32">
     <g id="line2d_79">
      <g>
       <use style="stroke:#000000;stroke-width:0.5;" x="382.362064305" xlink:href="#mc62a4a9161" y="359.056342822"/>
      </g>
     </g>
     <g id="line2d_80">
      <g>
       <use style="stroke:#000000;stroke-width:0.5;" x="382.362064305" xlink:href="#m9cdc6e3e4e" y="13.4563428218"/>
      </g>
     </g>
    </g>
    <g id="xtick_33">
     <g id="line2d_81">
      <g>
       <use style="stroke:#000000;stroke-width:0.5;" x="388.787485045" xlink:href="#mc62a4a9161" y="359.056342822"/>
      </g>
     </g>
     <g id="line2d_82">
      <g>
       <use style="stroke:#000000;stroke-width:0.5;" x="388.787485045" xlink:href="#m9cdc6e3e4e" y="13.4563428218"/>
      </g>
     </g>
    </g>
    <g id="xtick_34">
     <g id="line2d_83">
      <g>
       <use style="stroke:#000000;stroke-width:0.5;" x="409.252971206" xlink:href="#mc62a4a9161" y="359.056342822"/>
      </g>
     </g>
     <g id="line2d_84">
      <g>
       <use style="stroke:#000000;stroke-width:0.5;" x="409.252971206" xlink:href="#m9cdc6e3e4e" y="13.4563428218"/>
      </g>
     </g>
    </g>
    <g id="xtick_35">
     <g id="line2d_85">
      <g>
       <use style="stroke:#000000;stroke-width:0.5;" x="424.73451384" xlink:href="#mc62a4a9161" y="359.056342822"/>
      </g>
     </g>
     <g id="line2d_86">
      <g>
       <use style="stroke:#000000;stroke-width:0.5;" x="424.73451384" xlink:href="#m9cdc6e3e4e" y="13.4563428218"/>
      </g>
     </g>
    </g>
    <g id="xtick_36">
     <g id="line2d_87">
      <g>
       <use style="stroke:#000000;stroke-width:0.5;" x="433.790635734" xlink:href="#mc62a4a9161" y="359.056342822"/>
      </g>
     </g>
     <g id="line2d_88">
      <g>
       <use style="stroke:#000000;stroke-width:0.5;" x="433.790635734" xlink:href="#m9cdc6e3e4e" y="13.4563428218"/>
      </g>
     </g>
    </g>
    <g id="xtick_37">
     <g id="line2d_89">
      <g>
       <use style="stroke:#000000;stroke-width:0.5;" x="440.216056474" xlink:href="#mc62a4a9161" y="359.056342822"/>
      </g>
     </g>
     <g id="line2d_90">
      <g>
       <use style="stroke:#000000;stroke-width:0.5;" x="440.216056474" xlink:href="#m9cdc6e3e4e" y="13.4563428218"/>
      </g>
     </g>
    </g>
    <g id="xtick_38">
     <g id="line2d_91">
      <g>
       <use style="stroke:#000000;stroke-width:0.5;" x="460.681542634" xlink:href="#mc62a4a9161" y="359.056342822"/>
      </g>
     </g>
     <g id="line2d_92">
      <g>
       <use style="stroke:#000000;stroke-width:0.5;" x="460.681542634" xlink:href="#m9cdc6e3e4e" y="13.4563428218"/>
      </g>
     </g>
    </g>
    <g id="xtick_39">
     <g id="line2d_93">
      <g>
       <use style="stroke:#000000;stroke-width:0.5;" x="476.163085268" xlink:href="#mc62a4a9161" y="359.056342822"/>
      </g>
     </g>
     <g id="line2d_94">
      <g>
       <use style="stroke:#000000;stroke-width:0.5;" x="476.163085268" xlink:href="#m9cdc6e3e4e" y="13.4563428218"/>
      </g>
     </g>
    </g>
    <g id="xtick_40">
     <g id="line2d_95">
      <g>
       <use style="stroke:#000000;stroke-width:0.5;" x="485.219207163" xlink:href="#mc62a4a9161" y="359.056342822"/>
      </g>
     </g>
     <g id="line2d_96">
      <g>
       <use style="stroke:#000000;stroke-width:0.5;" x="485.219207163" xlink:href="#m9cdc6e3e4e" y="13.4563428218"/>
      </g>
     </g>
    </g>
    <g id="xtick_41">
     <g id="line2d_97">
      <g>
       <use style="stroke:#000000;stroke-width:0.5;" x="491.644627902" xlink:href="#mc62a4a9161" y="359.056342822"/>
      </g>
     </g>
     <g id="line2d_98">
      <g>
       <use style="stroke:#000000;stroke-width:0.5;" x="491.644627902" xlink:href="#m9cdc6e3e4e" y="13.4563428218"/>
      </g>
     </g>
    </g>
    <g id="xtick_42">
     <g id="line2d_99">
      <g>
       <use style="stroke:#000000;stroke-width:0.5;" x="512.110114063" xlink:href="#mc62a4a9161" y="359.056342822"/>
      </g>
     </g>
     <g id="line2d_100">
      <g>
       <use style="stroke:#000000;stroke-width:0.5;" x="512.110114063" xlink:href="#m9cdc6e3e4e" y="13.4563428218"/>
      </g>
     </g>
    </g>
    <g id="xtick_43">
     <g id="line2d_101">
      <g>
       <use style="stroke:#000000;stroke-width:0.5;" x="527.591656697" xlink:href="#mc62a4a9161" y="359.056342822"/>
      </g>
     </g>
     <g id="line2d_102">
      <g>
       <use style="stroke:#000000;stroke-width:0.5;" x="527.591656697" xlink:href="#m9cdc6e3e4e" y="13.4563428218"/>
      </g>
     </g>
    </g>
    <g id="text_10">
     <!-- log10 of (# f-evals / dimension) -->
     <defs>
      <path id="BitstreamVeraSans-Roman-20"/>
      <path d="M 51.125 44 
L 36.921875 44 
L 32.8125 27.6875 
L 47.125 27.6875 
z
M 43.796875 71.78125 
L 38.71875 51.515625 
L 52.984375 51.515625 
L 58.109375 71.78125 
L 65.921875 71.78125 
L 60.890625 51.515625 
L 76.125 51.515625 
L 76.125 44 
L 58.984375 44 
L 54.984375 27.6875 
L 70.515625 27.6875 
L 70.515625 20.21875 
L 53.078125 20.21875 
L 48 0 
L 40.1875 0 
L 45.21875 20.21875 
L 30.90625 20.21875 
L 25.875 0 
L 18.015625 0 
L 23.09375 20.21875 
L 7.71875 20.21875 
L 7.71875 27.6875 
L 24.90625 27.6875 
L 29 44 
L 13.28125 44 
L 13.28125 51.515625 
L 30.90625 51.515625 
L 35.890625 71.78125 
z
" id="BitstreamVeraSans-Roman-23"/>
      <path d="M 52 44.1875 
Q 55.375 50.25 60.0625 53.125 
Q 64.75 56 71.09375 56 
Q 79.640625 56 84.28125 50.015625 
Q 88.921875 44.046875 88.921875 33.015625 
L 88.921875 0 
L 79.890625 0 
L 79.890625 32.71875 
Q 79.890625 40.578125 77.09375 44.375 
Q 74.3125 48.1875 68.609375 48.1875 
Q 61.625 48.1875 57.5625 43.546875 
Q 53.515625 38.921875 53.515625 30.90625 
L 53.515625 0 
L 44.484375 0 
L 44.484375 32.71875 
Q 44.484375 40.625 41.703125 44.40625 
Q 38.921875 48.1875 33.109375 48.1875 
Q 26.21875 48.1875 22.15625 43.53125 
Q 18.109375 38.875 18.109375 30.90625 
L 18.109375 0 
L 9.078125 0 
L 9.078125 54.6875 
L 18.109375 54.6875 
L 18.109375 46.1875 
Q 21.1875 51.21875 25.484375 53.609375 
Q 29.78125 56 35.6875 56 
Q 41.65625 56 45.828125 52.96875 
Q 50 49.953125 52 44.1875 
" id="BitstreamVeraSans-Roman-6d"/>
      <path d="M 54.890625 33.015625 
L 54.890625 0 
L 45.90625 0 
L 45.90625 32.71875 
Q 45.90625 40.484375 42.875 44.328125 
Q 39.84375 48.1875 33.796875 48.1875 
Q 26.515625 48.1875 22.3125 43.546875 
Q 18.109375 38.921875 18.109375 30.90625 
L 18.109375 0 
L 9.078125 0 
L 9.078125 54.6875 
L 18.109375 54.6875 
L 18.109375 46.1875 
Q 21.34375 51.125 25.703125 53.5625 
Q 30.078125 56 35.796875 56 
Q 45.21875 56 50.046875 50.171875 
Q 54.890625 44.34375 54.890625 33.015625 
" id="BitstreamVeraSans-Roman-6e"/>
      <path d="M 31 75.875 
Q 24.46875 64.65625 21.28125 53.65625 
Q 18.109375 42.671875 18.109375 31.390625 
Q 18.109375 20.125 21.3125 9.0625 
Q 24.515625 -2 31 -13.1875 
L 23.1875 -13.1875 
Q 15.875 -1.703125 12.234375 9.375 
Q 8.59375 20.453125 8.59375 31.390625 
Q 8.59375 42.28125 12.203125 53.3125 
Q 15.828125 64.359375 23.1875 75.875 
z
" id="BitstreamVeraSans-Roman-28"/>
      <path d="M 30.609375 48.390625 
Q 23.390625 48.390625 19.1875 42.75 
Q 14.984375 37.109375 14.984375 27.296875 
Q 14.984375 17.484375 19.15625 11.84375 
Q 23.34375 6.203125 30.609375 6.203125 
Q 37.796875 6.203125 41.984375 11.859375 
Q 46.1875 17.53125 46.1875 27.296875 
Q 46.1875 37.015625 41.984375 42.703125 
Q 37.796875 48.390625 30.609375 48.390625 
M 30.609375 56 
Q 42.328125 56 49.015625 48.375 
Q 55.71875 40.765625 55.71875 27.296875 
Q 55.71875 13.875 49.015625 6.21875 
Q 42.328125 -1.421875 30.609375 -1.421875 
Q 18.84375 -1.421875 12.171875 6.21875 
Q 5.515625 13.875 5.515625 27.296875 
Q 5.515625 40.765625 12.171875 48.375 
Q 18.84375 56 30.609375 56 
" id="BitstreamVeraSans-Roman-6f"/>
      <path d="M 9.421875 75.984375 
L 18.40625 75.984375 
L 18.40625 0 
L 9.421875 0 
z
" id="BitstreamVeraSans-Roman-6c"/>
      <path d="M 2.984375 54.6875 
L 12.5 54.6875 
L 29.59375 8.796875 
L 46.6875 54.6875 
L 56.203125 54.6875 
L 35.6875 0 
L 23.484375 0 
z
" id="BitstreamVeraSans-Roman-76"/>
      <path d="M 9.421875 54.6875 
L 18.40625 54.6875 
L 18.40625 0 
L 9.421875 0 
z
M 9.421875 75.984375 
L 18.40625 75.984375 
L 18.40625 64.59375 
L 9.421875 64.59375 
z
" id="BitstreamVeraSans-Roman-69"/>
      <path d="M 4.890625 31.390625 
L 31.203125 31.390625 
L 31.203125 23.390625 
L 4.890625 23.390625 
z
" id="BitstreamVeraSans-Roman-2d"/>
      <path d="M 25.390625 72.90625 
L 33.6875 72.90625 
L 8.296875 -9.28125 
L 0 -9.28125 
z
" id="BitstreamVeraSans-Roman-2f"/>
      <path d="M 56.203125 29.59375 
L 56.203125 25.203125 
L 14.890625 25.203125 
Q 15.484375 15.921875 20.484375 11.0625 
Q 25.484375 6.203125 34.421875 6.203125 
Q 39.59375 6.203125 44.453125 7.46875 
Q 49.3125 8.734375 54.109375 11.28125 
L 54.109375 2.78125 
Q 49.265625 0.734375 44.1875 -0.34375 
Q 39.109375 -1.421875 33.890625 -1.421875 
Q 20.796875 -1.421875 13.15625 6.1875 
Q 5.515625 13.8125 5.515625 26.8125 
Q 5.515625 40.234375 12.765625 48.109375 
Q 20.015625 56 32.328125 56 
Q 43.359375 56 49.78125 48.890625 
Q 56.203125 41.796875 56.203125 29.59375 
M 47.21875 32.234375 
Q 47.125 39.59375 43.09375 43.984375 
Q 39.0625 48.390625 32.421875 48.390625 
Q 24.90625 48.390625 20.390625 44.140625 
Q 15.875 39.890625 15.1875 32.171875 
z
" id="BitstreamVeraSans-Roman-65"/>
      <path d="M 45.40625 46.390625 
L 45.40625 75.984375 
L 54.390625 75.984375 
L 54.390625 0 
L 45.40625 0 
L 45.40625 8.203125 
Q 42.578125 3.328125 38.25 0.953125 
Q 33.9375 -1.421875 27.875 -1.421875 
Q 17.96875 -1.421875 11.734375 6.484375 
Q 5.515625 14.40625 5.515625 27.296875 
Q 5.515625 40.1875 11.734375 48.09375 
Q 17.96875 56 27.875 56 
Q 33.9375 56 38.25 53.625 
Q 42.578125 51.265625 45.40625 46.390625 
M 14.796875 27.296875 
Q 14.796875 17.390625 18.875 11.75 
Q 22.953125 6.109375 30.078125 6.109375 
Q 37.203125 6.109375 41.296875 11.75 
Q 45.40625 17.390625 45.40625 27.296875 
Q 45.40625 37.203125 41.296875 42.84375 
Q 37.203125 48.484375 30.078125 48.484375 
Q 22.953125 48.484375 18.875 42.84375 
Q 14.796875 37.203125 14.796875 27.296875 
" id="BitstreamVeraSans-Roman-64"/>
      <path d="M 45.40625 27.984375 
Q 45.40625 37.75 41.375 43.109375 
Q 37.359375 48.484375 30.078125 48.484375 
Q 22.859375 48.484375 18.828125 43.109375 
Q 14.796875 37.75 14.796875 27.984375 
Q 14.796875 18.265625 18.828125 12.890625 
Q 22.859375 7.515625 30.078125 7.515625 
Q 37.359375 7.515625 41.375 12.890625 
Q 45.40625 18.265625 45.40625 27.984375 
M 54.390625 6.78125 
Q 54.390625 -7.171875 48.1875 -13.984375 
Q 42 -20.796875 29.203125 -20.796875 
Q 24.46875 -20.796875 20.265625 -20.09375 
Q 16.0625 -19.390625 12.109375 -17.921875 
L 12.109375 -9.1875 
Q 16.0625 -11.328125 19.921875 -12.34375 
Q 23.78125 -13.375 27.78125 -13.375 
Q 36.625 -13.375 41.015625 -8.765625 
Q 45.40625 -4.15625 45.40625 5.171875 
L 45.40625 9.625 
Q 42.625 4.78125 38.28125 2.390625 
Q 33.9375 0 27.875 0 
Q 17.828125 0 11.671875 7.65625 
Q 5.515625 15.328125 5.515625 27.984375 
Q 5.515625 40.671875 11.671875 48.328125 
Q 17.828125 56 27.875 56 
Q 33.9375 56 38.28125 53.609375 
Q 42.625 51.21875 45.40625 46.390625 
L 45.40625 54.6875 
L 54.390625 54.6875 
z
" id="BitstreamVeraSans-Roman-67"/>
      <path d="M 37.109375 75.984375 
L 37.109375 68.5 
L 28.515625 68.5 
Q 23.6875 68.5 21.796875 66.546875 
Q 19.921875 64.59375 19.921875 59.515625 
L 19.921875 54.6875 
L 34.71875 54.6875 
L 34.71875 47.703125 
L 19.921875 47.703125 
L 19.921875 0 
L 10.890625 0 
L 10.890625 47.703125 
L 2.296875 47.703125 
L 2.296875 54.6875 
L 10.890625 54.6875 
L 10.890625 58.5 
Q 10.890625 67.625 15.140625 71.796875 
Q 19.390625 75.984375 28.609375 75.984375 
z
" id="BitstreamVeraSans-Roman-66"/>
      <path d="M 34.28125 27.484375 
Q 23.390625 27.484375 19.1875 25 
Q 14.984375 22.515625 14.984375 16.5 
Q 14.984375 11.71875 18.140625 8.90625 
Q 21.296875 6.109375 26.703125 6.109375 
Q 34.1875 6.109375 38.703125 11.40625 
Q 43.21875 16.703125 43.21875 25.484375 
L 43.21875 27.484375 
z
M 52.203125 31.203125 
L 52.203125 0 
L 43.21875 0 
L 43.21875 8.296875 
Q 40.140625 3.328125 35.546875 0.953125 
Q 30.953125 -1.421875 24.3125 -1.421875 
Q 15.921875 -1.421875 10.953125 3.296875 
Q 6 8.015625 6 15.921875 
Q 6 25.140625 12.171875 29.828125 
Q 18.359375 34.515625 30.609375 34.515625 
L 43.21875 34.515625 
L 43.21875 35.40625 
Q 43.21875 41.609375 39.140625 45 
Q 35.0625 48.390625 27.6875 48.390625 
Q 23 48.390625 18.546875 47.265625 
Q 14.109375 46.140625 10.015625 43.890625 
L 10.015625 52.203125 
Q 14.9375 54.109375 19.578125 55.046875 
Q 24.21875 56 28.609375 56 
Q 40.484375 56 46.34375 49.84375 
Q 52.203125 43.703125 52.203125 31.203125 
" id="BitstreamVeraSans-Roman-61"/>
      <path d="M 44.28125 53.078125 
L 44.28125 44.578125 
Q 40.484375 46.53125 36.375 47.5 
Q 32.28125 48.484375 27.875 48.484375 
Q 21.1875 48.484375 17.84375 46.4375 
Q 14.5 44.390625 14.5 40.28125 
Q 14.5 37.15625 16.890625 35.375 
Q 19.28125 33.59375 26.515625 31.984375 
L 29.59375 31.296875 
Q 39.15625 29.25 43.1875 25.515625 
Q 47.21875 21.78125 47.21875 15.09375 
Q 47.21875 7.46875 41.1875 3.015625 
Q 35.15625 -1.421875 24.609375 -1.421875 
Q 20.21875 -1.421875 15.453125 -0.5625 
Q 10.6875 0.296875 5.421875 2 
L 5.421875 11.28125 
Q 10.40625 8.6875 15.234375 7.390625 
Q 20.0625 6.109375 24.8125 6.109375 
Q 31.15625 6.109375 34.5625 8.28125 
Q 37.984375 10.453125 37.984375 14.40625 
Q 37.984375 18.0625 35.515625 20.015625 
Q 33.0625 21.96875 24.703125 23.78125 
L 21.578125 24.515625 
Q 13.234375 26.265625 9.515625 29.90625 
Q 5.8125 33.546875 5.8125 39.890625 
Q 5.8125 47.609375 11.28125 51.796875 
Q 16.75 56 26.8125 56 
Q 31.78125 56 36.171875 55.265625 
Q 40.578125 54.546875 44.28125 53.078125 
" id="BitstreamVeraSans-Roman-73"/>
      <path d="M 8.015625 75.875 
L 15.828125 75.875 
Q 23.140625 64.359375 26.78125 53.3125 
Q 30.421875 42.28125 30.421875 31.390625 
Q 30.421875 20.453125 26.78125 9.375 
Q 23.140625 -1.703125 15.828125 -13.1875 
L 8.015625 -13.1875 
Q 14.5 -2 17.703125 9.0625 
Q 20.90625 20.125 20.90625 31.390625 
Q 20.90625 42.671875 17.703125 53.65625 
Q 14.5 64.65625 8.015625 75.875 
" id="BitstreamVeraSans-Roman-29"/>
     </defs>
     <g transform="translate(166.05515625 401.089780322)scale(0.18 -0.18)">
      <use xlink:href="#BitstreamVeraSans-Roman-6c"/>
      <use x="27.783203125" xlink:href="#BitstreamVeraSans-Roman-6f"/>
      <use x="88.96484375" xlink:href="#BitstreamVeraSans-Roman-67"/>
      <use x="152.44140625" xlink:href="#BitstreamVeraSans-Roman-31"/>
      <use x="216.064453125" xlink:href="#BitstreamVeraSans-Roman-30"/>
      <use x="279.6875" xlink:href="#BitstreamVeraSans-Roman-20"/>
      <use x="311.474609375" xlink:href="#BitstreamVeraSans-Roman-6f"/>
      <use x="372.65625" xlink:href="#BitstreamVeraSans-Roman-66"/>
      <use x="407.861328125" xlink:href="#BitstreamVeraSans-Roman-20"/>
      <use x="439.6484375" xlink:href="#BitstreamVeraSans-Roman-28"/>
      <use x="478.662109375" xlink:href="#BitstreamVeraSans-Roman-23"/>
      <use x="562.451171875" xlink:href="#BitstreamVeraSans-Roman-20"/>
      <use x="594.23828125" xlink:href="#BitstreamVeraSans-Roman-66"/>
      <use x="629.365234375" xlink:href="#BitstreamVeraSans-Roman-2d"/>
      <use x="665.44921875" xlink:href="#BitstreamVeraSans-Roman-65"/>
      <use x="726.97265625" xlink:href="#BitstreamVeraSans-Roman-76"/>
      <use x="786.15234375" xlink:href="#BitstreamVeraSans-Roman-61"/>
      <use x="847.431640625" xlink:href="#BitstreamVeraSans-Roman-6c"/>
      <use x="875.21484375" xlink:href="#BitstreamVeraSans-Roman-73"/>
      <use x="927.314453125" xlink:href="#BitstreamVeraSans-Roman-20"/>
      <use x="959.1015625" xlink:href="#BitstreamVeraSans-Roman-2f"/>
      <use x="992.79296875" xlink:href="#BitstreamVeraSans-Roman-20"/>
      <use x="1024.58007812" xlink:href="#BitstreamVeraSans-Roman-64"/>
      <use x="1088.05664062" xlink:href="#BitstreamVeraSans-Roman-69"/>
      <use x="1115.83984375" xlink:href="#BitstreamVeraSans-Roman-6d"/>
      <use x="1213.25195312" xlink:href="#BitstreamVeraSans-Roman-65"/>
      <use x="1274.77539062" xlink:href="#BitstreamVeraSans-Roman-6e"/>
      <use x="1338.15429688" xlink:href="#BitstreamVeraSans-Roman-73"/>
      <use x="1390.25390625" xlink:href="#BitstreamVeraSans-Roman-69"/>
      <use x="1418.03710938" xlink:href="#BitstreamVeraSans-Roman-6f"/>
      <use x="1479.21875" xlink:href="#BitstreamVeraSans-Roman-6e"/>
      <use x="1542.59765625" xlink:href="#BitstreamVeraSans-Roman-29"/>
     </g>
    </g>
   </g>
   <g id="matplotlib.axis_2">
    <g id="ytick_1">
     <g id="line2d_103">
      <path clip-path="url(#p1b768d5b76)" d="M 85.2 359.056343 
L 531.6 359.056343 
" style="fill:none;stroke:#000000;stroke-dasharray:1.000000,3.000000;stroke-dashoffset:0.0;stroke-width:0.5;"/>
     </g>
     <g id="line2d_104">
      <defs>
       <path d="M 0 0 
L 4 0 
" id="m577e3cbe2c" style="stroke:#000000;stroke-width:0.5;"/>
      </defs>
      <g>
       <use style="stroke:#000000;stroke-width:0.5;" x="85.2" xlink:href="#m577e3cbe2c" y="359.056342822"/>
      </g>
     </g>
     <g id="line2d_105">
      <defs>
       <path d="M 0 0 
L -4 0 
" id="m893d0e7eab" style="stroke:#000000;stroke-width:0.5;"/>
      </defs>
      <g>
       <use style="stroke:#000000;stroke-width:0.5;" x="531.6" xlink:href="#m893d0e7eab" y="359.056342822"/>
      </g>
     </g>
     <g id="text_11">
      <!-- 0.0 -->
      <defs>
       <path d="M 10.6875 12.40625 
L 21 12.40625 
L 21 0 
L 10.6875 0 
z
" id="BitstreamVeraSans-Roman-2e"/>
      </defs>
      <g transform="translate(49.39375 364.575092822)scale(0.2 -0.2)">
       <use xlink:href="#BitstreamVeraSans-Roman-30"/>
       <use x="63.623046875" xlink:href="#BitstreamVeraSans-Roman-2e"/>
       <use x="95.41015625" xlink:href="#BitstreamVeraSans-Roman-30"/>
      </g>
     </g>
    </g>
    <g id="ytick_2">
     <g id="line2d_106">
      <path clip-path="url(#p1b768d5b76)" d="M 85.2 290.620699 
L 531.6 290.620699 
" style="fill:none;stroke:#000000;stroke-dasharray:1.000000,3.000000;stroke-dashoffset:0.0;stroke-width:0.5;"/>
     </g>
     <g id="line2d_107">
      <g>
       <use style="stroke:#000000;stroke-width:0.5;" x="85.2" xlink:href="#m577e3cbe2c" y="290.620699257"/>
      </g>
     </g>
     <g id="line2d_108">
      <g>
       <use style="stroke:#000000;stroke-width:0.5;" x="531.6" xlink:href="#m893d0e7eab" y="290.620699257"/>
      </g>
     </g>
     <g id="text_12">
      <!-- 0.2 -->
      <g transform="translate(49.39375 296.139449257)scale(0.2 -0.2)">
       <use xlink:href="#BitstreamVeraSans-Roman-30"/>
       <use x="63.623046875" xlink:href="#BitstreamVeraSans-Roman-2e"/>
       <use x="95.41015625" xlink:href="#BitstreamVeraSans-Roman-32"/>
      </g>
     </g>
    </g>
    <g id="ytick_3">
     <g id="line2d_109">
      <path clip-path="url(#p1b768d5b76)" d="M 85.2 222.185056 
L 531.6 222.185056 
" style="fill:none;stroke:#000000;stroke-dasharray:1.000000,3.000000;stroke-dashoffset:0.0;stroke-width:0.5;"/>
     </g>
     <g id="line2d_110">
      <g>
       <use style="stroke:#000000;stroke-width:0.5;" x="85.2" xlink:href="#m577e3cbe2c" y="222.185055693"/>
      </g>
     </g>
     <g id="line2d_111">
      <g>
       <use style="stroke:#000000;stroke-width:0.5;" x="531.6" xlink:href="#m893d0e7eab" y="222.185055693"/>
      </g>
     </g>
     <g id="text_13">
      <!-- 0.4 -->
      <g transform="translate(49.39375 227.703805693)scale(0.2 -0.2)">
       <use xlink:href="#BitstreamVeraSans-Roman-30"/>
       <use x="63.623046875" xlink:href="#BitstreamVeraSans-Roman-2e"/>
       <use x="95.41015625" xlink:href="#BitstreamVeraSans-Roman-34"/>
      </g>
     </g>
    </g>
    <g id="ytick_4">
     <g id="line2d_112">
      <path clip-path="url(#p1b768d5b76)" d="M 85.2 153.749412 
L 531.6 153.749412 
" style="fill:none;stroke:#000000;stroke-dasharray:1.000000,3.000000;stroke-dashoffset:0.0;stroke-width:0.5;"/>
     </g>
     <g id="line2d_113">
      <g>
       <use style="stroke:#000000;stroke-width:0.5;" x="85.2" xlink:href="#m577e3cbe2c" y="153.749412129"/>
      </g>
     </g>
     <g id="line2d_114">
      <g>
       <use style="stroke:#000000;stroke-width:0.5;" x="531.6" xlink:href="#m893d0e7eab" y="153.749412129"/>
      </g>
     </g>
     <g id="text_14">
      <!-- 0.6 -->
      <g transform="translate(49.39375 159.268162129)scale(0.2 -0.2)">
       <use xlink:href="#BitstreamVeraSans-Roman-30"/>
       <use x="63.623046875" xlink:href="#BitstreamVeraSans-Roman-2e"/>
       <use x="95.41015625" xlink:href="#BitstreamVeraSans-Roman-36"/>
      </g>
     </g>
    </g>
    <g id="ytick_5">
     <g id="line2d_115">
      <path clip-path="url(#p1b768d5b76)" d="M 85.2 85.313769 
L 531.6 85.313769 
" style="fill:none;stroke:#000000;stroke-dasharray:1.000000,3.000000;stroke-dashoffset:0.0;stroke-width:0.5;"/>
     </g>
     <g id="line2d_116">
      <g>
       <use style="stroke:#000000;stroke-width:0.5;" x="85.2" xlink:href="#m577e3cbe2c" y="85.3137685644"/>
      </g>
     </g>
     <g id="line2d_117">
      <g>
       <use style="stroke:#000000;stroke-width:0.5;" x="531.6" xlink:href="#m893d0e7eab" y="85.3137685644"/>
      </g>
     </g>
     <g id="text_15">
      <!-- 0.8 -->
      <g transform="translate(49.39375 90.8325185644)scale(0.2 -0.2)">
       <use xlink:href="#BitstreamVeraSans-Roman-30"/>
       <use x="63.623046875" xlink:href="#BitstreamVeraSans-Roman-2e"/>
       <use x="95.41015625" xlink:href="#BitstreamVeraSans-Roman-38"/>
      </g>
     </g>
    </g>
    <g id="ytick_6">
     <g id="line2d_118">
      <path clip-path="url(#p1b768d5b76)" d="M 85.2 16.878125 
L 531.6 16.878125 
" style="fill:none;stroke:#000000;stroke-dasharray:1.000000,3.000000;stroke-dashoffset:0.0;stroke-width:0.5;"/>
     </g>
     <g id="line2d_119">
      <g>
       <use style="stroke:#000000;stroke-width:0.5;" x="85.2" xlink:href="#m577e3cbe2c" y="16.878125"/>
      </g>
     </g>
     <g id="line2d_120">
      <g>
       <use style="stroke:#000000;stroke-width:0.5;" x="531.6" xlink:href="#m893d0e7eab" y="16.878125"/>
      </g>
     </g>
     <g id="text_16">
      <!-- 1.0 -->
      <g transform="translate(49.39375 22.396875)scale(0.2 -0.2)">
       <use xlink:href="#BitstreamVeraSans-Roman-31"/>
       <use x="63.623046875" xlink:href="#BitstreamVeraSans-Roman-2e"/>
       <use x="95.41015625" xlink:href="#BitstreamVeraSans-Roman-30"/>
      </g>
     </g>
    </g>
    <g id="text_17">
     <!-- Proportion of function+target pairs -->
     <defs>
      <path d="M 19.671875 64.796875 
L 19.671875 37.40625 
L 32.078125 37.40625 
Q 38.96875 37.40625 42.71875 40.96875 
Q 46.484375 44.53125 46.484375 51.125 
Q 46.484375 57.671875 42.71875 61.234375 
Q 38.96875 64.796875 32.078125 64.796875 
z
M 9.8125 72.90625 
L 32.078125 72.90625 
Q 44.34375 72.90625 50.609375 67.359375 
Q 56.890625 61.8125 56.890625 51.125 
Q 56.890625 40.328125 50.609375 34.8125 
Q 44.34375 29.296875 32.078125 29.296875 
L 19.671875 29.296875 
L 19.671875 0 
L 9.8125 0 
z
" id="BitstreamVeraSans-Roman-50"/>
      <path d="M 46 62.703125 
L 46 35.5 
L 73.1875 35.5 
L 73.1875 27.203125 
L 46 27.203125 
L 46 0 
L 37.796875 0 
L 37.796875 27.203125 
L 10.59375 27.203125 
L 10.59375 35.5 
L 37.796875 35.5 
L 37.796875 62.703125 
z
" id="BitstreamVeraSans-Roman-2b"/>
      <path d="M 18.109375 8.203125 
L 18.109375 -20.796875 
L 9.078125 -20.796875 
L 9.078125 54.6875 
L 18.109375 54.6875 
L 18.109375 46.390625 
Q 20.953125 51.265625 25.265625 53.625 
Q 29.59375 56 35.59375 56 
Q 45.5625 56 51.78125 48.09375 
Q 58.015625 40.1875 58.015625 27.296875 
Q 58.015625 14.40625 51.78125 6.484375 
Q 45.5625 -1.421875 35.59375 -1.421875 
Q 29.59375 -1.421875 25.265625 0.953125 
Q 20.953125 3.328125 18.109375 8.203125 
M 48.6875 27.296875 
Q 48.6875 37.203125 44.609375 42.84375 
Q 40.53125 48.484375 33.40625 48.484375 
Q 26.265625 48.484375 22.1875 42.84375 
Q 18.109375 37.203125 18.109375 27.296875 
Q 18.109375 17.390625 22.1875 11.75 
Q 26.265625 6.109375 33.40625 6.109375 
Q 40.53125 6.109375 44.609375 11.75 
Q 48.6875 17.390625 48.6875 27.296875 
" id="BitstreamVeraSans-Roman-70"/>
      <path d="M 18.3125 70.21875 
L 18.3125 54.6875 
L 36.8125 54.6875 
L 36.8125 47.703125 
L 18.3125 47.703125 
L 18.3125 18.015625 
Q 18.3125 11.328125 20.140625 9.421875 
Q 21.96875 7.515625 27.59375 7.515625 
L 36.8125 7.515625 
L 36.8125 0 
L 27.59375 0 
Q 17.1875 0 13.234375 3.875 
Q 9.28125 7.765625 9.28125 18.015625 
L 9.28125 47.703125 
L 2.6875 47.703125 
L 2.6875 54.6875 
L 9.28125 54.6875 
L 9.28125 70.21875 
z
" id="BitstreamVeraSans-Roman-74"/>
      <path d="M 8.5 21.578125 
L 8.5 54.6875 
L 17.484375 54.6875 
L 17.484375 21.921875 
Q 17.484375 14.15625 20.5 10.265625 
Q 23.53125 6.390625 29.59375 6.390625 
Q 36.859375 6.390625 41.078125 11.03125 
Q 45.3125 15.671875 45.3125 23.6875 
L 45.3125 54.6875 
L 54.296875 54.6875 
L 54.296875 0 
L 45.3125 0 
L 45.3125 8.40625 
Q 42.046875 3.421875 37.71875 1 
Q 33.40625 -1.421875 27.6875 -1.421875 
Q 18.265625 -1.421875 13.375 4.4375 
Q 8.5 10.296875 8.5 21.578125 
" id="BitstreamVeraSans-Roman-75"/>
      <path d="M 41.109375 46.296875 
Q 39.59375 47.171875 37.8125 47.578125 
Q 36.03125 48 33.890625 48 
Q 26.265625 48 22.1875 43.046875 
Q 18.109375 38.09375 18.109375 28.8125 
L 18.109375 0 
L 9.078125 0 
L 9.078125 54.6875 
L 18.109375 54.6875 
L 18.109375 46.1875 
Q 20.953125 51.171875 25.484375 53.578125 
Q 30.03125 56 36.53125 56 
Q 37.453125 56 38.578125 55.875 
Q 39.703125 55.765625 41.0625 55.515625 
z
" id="BitstreamVeraSans-Roman-72"/>
      <path d="M 48.78125 52.59375 
L 48.78125 44.1875 
Q 44.96875 46.296875 41.140625 47.34375 
Q 37.3125 48.390625 33.40625 48.390625 
Q 24.65625 48.390625 19.8125 42.84375 
Q 14.984375 37.3125 14.984375 27.296875 
Q 14.984375 17.28125 19.8125 11.734375 
Q 24.65625 6.203125 33.40625 6.203125 
Q 37.3125 6.203125 41.140625 7.25 
Q 44.96875 8.296875 48.78125 10.40625 
L 48.78125 2.09375 
Q 45.015625 0.34375 40.984375 -0.53125 
Q 36.96875 -1.421875 32.421875 -1.421875 
Q 20.0625 -1.421875 12.78125 6.34375 
Q 5.515625 14.109375 5.515625 27.296875 
Q 5.515625 40.671875 12.859375 48.328125 
Q 20.21875 56 33.015625 56 
Q 37.15625 56 41.109375 55.140625 
Q 45.0625 54.296875 48.78125 52.59375 
" id="BitstreamVeraSans-Roman-63"/>
     </defs>
     <g transform="translate(40.6503125 344.245717822)rotate(-90.0)scale(0.18 -0.18)">
      <use xlink:href="#BitstreamVeraSans-Roman-50"/>
      <use x="60.287109375" xlink:href="#BitstreamVeraSans-Roman-72"/>
      <use x="101.369140625" xlink:href="#BitstreamVeraSans-Roman-6f"/>
      <use x="162.55078125" xlink:href="#BitstreamVeraSans-Roman-70"/>
      <use x="226.02734375" xlink:href="#BitstreamVeraSans-Roman-6f"/>
      <use x="287.208984375" xlink:href="#BitstreamVeraSans-Roman-72"/>
      <use x="328.322265625" xlink:href="#BitstreamVeraSans-Roman-74"/>
      <use x="367.53125" xlink:href="#BitstreamVeraSans-Roman-69"/>
      <use x="395.314453125" xlink:href="#BitstreamVeraSans-Roman-6f"/>
      <use x="456.49609375" xlink:href="#BitstreamVeraSans-Roman-6e"/>
      <use x="519.875" xlink:href="#BitstreamVeraSans-Roman-20"/>
      <use x="551.662109375" xlink:href="#BitstreamVeraSans-Roman-6f"/>
      <use x="612.84375" xlink:href="#BitstreamVeraSans-Roman-66"/>
      <use x="648.048828125" xlink:href="#BitstreamVeraSans-Roman-20"/>
      <use x="679.8359375" xlink:href="#BitstreamVeraSans-Roman-66"/>
      <use x="715.041015625" xlink:href="#BitstreamVeraSans-Roman-75"/>
      <use x="778.419921875" xlink:href="#BitstreamVeraSans-Roman-6e"/>
      <use x="841.798828125" xlink:href="#BitstreamVeraSans-Roman-63"/>
      <use x="896.779296875" xlink:href="#BitstreamVeraSans-Roman-74"/>
      <use x="935.98828125" xlink:href="#BitstreamVeraSans-Roman-69"/>
      <use x="963.771484375" xlink:href="#BitstreamVeraSans-Roman-6f"/>
      <use x="1024.953125" xlink:href="#BitstreamVeraSans-Roman-6e"/>
      <use x="1088.33203125" xlink:href="#BitstreamVeraSans-Roman-2b"/>
      <use x="1172.12109375" xlink:href="#BitstreamVeraSans-Roman-74"/>
      <use x="1211.33007812" xlink:href="#BitstreamVeraSans-Roman-61"/>
      <use x="1272.609375" xlink:href="#BitstreamVeraSans-Roman-72"/>
      <use x="1313.70703125" xlink:href="#BitstreamVeraSans-Roman-67"/>
      <use x="1377.18359375" xlink:href="#BitstreamVeraSans-Roman-65"/>
      <use x="1438.70703125" xlink:href="#BitstreamVeraSans-Roman-74"/>
      <use x="1477.91601562" xlink:href="#BitstreamVeraSans-Roman-20"/>
      <use x="1509.703125" xlink:href="#BitstreamVeraSans-Roman-70"/>
      <use x="1573.1796875" xlink:href="#BitstreamVeraSans-Roman-61"/>
      <use x="1634.45898438" xlink:href="#BitstreamVeraSans-Roman-69"/>
      <use x="1662.2421875" xlink:href="#BitstreamVeraSans-Roman-72"/>
      <use x="1703.35546875" xlink:href="#BitstreamVeraSans-Roman-73"/>
     </g>
    </g>
   </g>
   <g id="text_18">
    <!-- 2-D -->
    <defs>
     <path d="M 19.671875 64.796875 
L 19.671875 8.109375 
L 31.59375 8.109375 
Q 46.6875 8.109375 53.6875 14.9375 
Q 60.6875 21.78125 60.6875 36.53125 
Q 60.6875 51.171875 53.6875 57.984375 
Q 46.6875 64.796875 31.59375 64.796875 
z
M 9.8125 72.90625 
L 30.078125 72.90625 
Q 51.265625 72.90625 61.171875 64.09375 
Q 71.09375 55.28125 71.09375 36.53125 
Q 71.09375 17.671875 61.125 8.828125 
Q 51.171875 0 30.078125 0 
L 9.8125 0 
z
" id="BitstreamVeraSans-Roman-44"/>
    </defs>
    <g transform="translate(492.0 356.351840965)scale(0.15 -0.15)">
     <use xlink:href="#BitstreamVeraSans-Roman-32"/>
     <use x="63.623046875" xlink:href="#BitstreamVeraSans-Roman-2d"/>
     <use x="99.70703125" xlink:href="#BitstreamVeraSans-Roman-44"/>
    </g>
   </g>
   <g id="text_19">
    <!-- bbob-biobj - f1-f55 -->
    <defs>
     <path d="M 9.421875 54.6875 
L 18.40625 54.6875 
L 18.40625 -0.984375 
Q 18.40625 -11.421875 14.421875 -16.109375 
Q 10.453125 -20.796875 1.609375 -20.796875 
L -1.8125 -20.796875 
L -1.8125 -13.1875 
L 0.59375 -13.1875 
Q 5.71875 -13.1875 7.5625 -10.8125 
Q 9.421875 -8.453125 9.421875 -0.984375 
z
M 9.421875 75.984375 
L 18.40625 75.984375 
L 18.40625 64.59375 
L 9.421875 64.59375 
z
" id="BitstreamVeraSans-Roman-6a"/>
     <path d="M 48.6875 27.296875 
Q 48.6875 37.203125 44.609375 42.84375 
Q 40.53125 48.484375 33.40625 48.484375 
Q 26.265625 48.484375 22.1875 42.84375 
Q 18.109375 37.203125 18.109375 27.296875 
Q 18.109375 17.390625 22.1875 11.75 
Q 26.265625 6.109375 33.40625 6.109375 
Q 40.53125 6.109375 44.609375 11.75 
Q 48.6875 17.390625 48.6875 27.296875 
M 18.109375 46.390625 
Q 20.953125 51.265625 25.265625 53.625 
Q 29.59375 56 35.59375 56 
Q 45.5625 56 51.78125 48.09375 
Q 58.015625 40.1875 58.015625 27.296875 
Q 58.015625 14.40625 51.78125 6.484375 
Q 45.5625 -1.421875 35.59375 -1.421875 
Q 29.59375 -1.421875 25.265625 0.953125 
Q 20.953125 3.328125 18.109375 8.203125 
L 18.109375 0 
L 9.078125 0 
L 9.078125 75.984375 
L 18.109375 75.984375 
z
" id="BitstreamVeraSans-Roman-62"/>
    </defs>
    <g transform="translate(89.664 33.0273396968)scale(0.1666 -0.1666)">
     <use xlink:href="#BitstreamVeraSans-Roman-62"/>
     <use x="63.4765625" xlink:href="#BitstreamVeraSans-Roman-62"/>
     <use x="126.953125" xlink:href="#BitstreamVeraSans-Roman-6f"/>
     <use x="188.134765625" xlink:href="#BitstreamVeraSans-Roman-62"/>
     <use x="251.611328125" xlink:href="#BitstreamVeraSans-Roman-2d"/>
     <use x="287.6953125" xlink:href="#BitstreamVeraSans-Roman-62"/>
     <use x="351.171875" xlink:href="#BitstreamVeraSans-Roman-69"/>
     <use x="378.955078125" xlink:href="#BitstreamVeraSans-Roman-6f"/>
     <use x="440.13671875" xlink:href="#BitstreamVeraSans-Roman-62"/>
     <use x="503.61328125" xlink:href="#BitstreamVeraSans-Roman-6a"/>
     <use x="531.396484375" xlink:href="#BitstreamVeraSans-Roman-20"/>
     <use x="563.18359375" xlink:href="#BitstreamVeraSans-Roman-2d"/>
     <use x="599.267578125" xlink:href="#BitstreamVeraSans-Roman-20"/>
     <use x="631.0546875" xlink:href="#BitstreamVeraSans-Roman-66"/>
     <use x="666.259765625" xlink:href="#BitstreamVeraSans-Roman-31"/>
     <use x="729.8828125" xlink:href="#BitstreamVeraSans-Roman-2d"/>
     <use x="765.966796875" xlink:href="#BitstreamVeraSans-Roman-66"/>
     <use x="801.171875" xlink:href="#BitstreamVeraSans-Roman-35"/>
     <use x="864.794921875" xlink:href="#BitstreamVeraSans-Roman-35"/>
    </g>
    <!-- 58 targets in 1..-1.0e-4 -->
    <g transform="translate(89.664 51.6828953218)scale(0.1666 -0.1666)">
     <use xlink:href="#BitstreamVeraSans-Roman-35"/>
     <use x="63.623046875" xlink:href="#BitstreamVeraSans-Roman-38"/>
     <use x="127.24609375" xlink:href="#BitstreamVeraSans-Roman-20"/>
     <use x="159.033203125" xlink:href="#BitstreamVeraSans-Roman-74"/>
     <use x="198.2421875" xlink:href="#BitstreamVeraSans-Roman-61"/>
     <use x="259.521484375" xlink:href="#BitstreamVeraSans-Roman-72"/>
     <use x="300.619140625" xlink:href="#BitstreamVeraSans-Roman-67"/>
     <use x="364.095703125" xlink:href="#BitstreamVeraSans-Roman-65"/>
     <use x="425.619140625" xlink:href="#BitstreamVeraSans-Roman-74"/>
     <use x="464.828125" xlink:href="#BitstreamVeraSans-Roman-73"/>
     <use x="516.927734375" xlink:href="#BitstreamVeraSans-Roman-20"/>
     <use x="548.71484375" xlink:href="#BitstreamVeraSans-Roman-69"/>
     <use x="576.498046875" xlink:href="#BitstreamVeraSans-Roman-6e"/>
     <use x="639.876953125" xlink:href="#BitstreamVeraSans-Roman-20"/>
     <use x="671.6640625" xlink:href="#BitstreamVeraSans-Roman-31"/>
     <use x="735.287109375" xlink:href="#BitstreamVeraSans-Roman-2e"/>
     <use x="767.07421875" xlink:href="#BitstreamVeraSans-Roman-2e"/>
     <use x="798.861328125" xlink:href="#BitstreamVeraSans-Roman-2d"/>
     <use x="834.9453125" xlink:href="#BitstreamVeraSans-Roman-31"/>
     <use x="898.568359375" xlink:href="#BitstreamVeraSans-Roman-2e"/>
     <use x="930.35546875" xlink:href="#BitstreamVeraSans-Roman-30"/>
     <use x="993.978515625" xlink:href="#BitstreamVeraSans-Roman-65"/>
     <use x="1055.50195312" xlink:href="#BitstreamVeraSans-Roman-2d"/>
     <use x="1091.5859375" xlink:href="#BitstreamVeraSans-Roman-34"/>
    </g>
    <!-- 5 instances -->
    <g transform="translate(89.664 70.3384509468)scale(0.1666 -0.1666)">
     <use xlink:href="#BitstreamVeraSans-Roman-35"/>
     <use x="63.623046875" xlink:href="#BitstreamVeraSans-Roman-20"/>
     <use x="95.41015625" xlink:href="#BitstreamVeraSans-Roman-69"/>
     <use x="123.193359375" xlink:href="#BitstreamVeraSans-Roman-6e"/>
     <use x="186.572265625" xlink:href="#BitstreamVeraSans-Roman-73"/>
     <use x="238.671875" xlink:href="#BitstreamVeraSans-Roman-74"/>
     <use x="277.880859375" xlink:href="#BitstreamVeraSans-Roman-61"/>
     <use x="339.16015625" xlink:href="#BitstreamVeraSans-Roman-6e"/>
     <use x="402.5390625" xlink:href="#BitstreamVeraSans-Roman-63"/>
     <use x="457.51953125" xlink:href="#BitstreamVeraSans-Roman-65"/>
     <use x="519.04296875" xlink:href="#BitstreamVeraSans-Roman-73"/>
    </g>
   </g>
   <g id="text_20">
    <!-- 0.0.0 -->
    <g style="fill:#808080;" transform="translate(295.678125 353.520655322)scale(0.1 -0.1)">
     <use xlink:href="#BitstreamVeraSans-Roman-30"/>
     <use x="63.623046875" xlink:href="#BitstreamVeraSans-Roman-2e"/>
     <use x="95.41015625" xlink:href="#BitstreamVeraSans-Roman-30"/>
     <use x="159.033203125" xlink:href="#BitstreamVeraSans-Roman-2e"/>
     <use x="190.8203125" xlink:href="#BitstreamVeraSans-Roman-30"/>
    </g>
   </g>
  </g>
 </g>
 <defs>
  <clipPath id="p1b768d5b76">
   <rect height="345.6" width="446.4" x="85.2" y="13.4563428218"/>
  </clipPath>
 </defs>
</svg>
