<?xml version="1.0" encoding="utf-8" standalone="no"?>
<!DOCTYPE svg PUBLIC "-//W3C//DTD SVG 1.1//EN"
  "http://www.w3.org/Graphics/SVG/1.1/DTD/svg11.dtd">
<!-- Created with matplotlib (http://matplotlib.org/) -->
<svg height="415pt" version="1.1" viewBox="0 0 538 415" width="538pt" xmlns="http://www.w3.org/2000/svg" xmlns:xlink="http://www.w3.org/1999/xlink">
 <defs>
  <style type="text/css">
*{stroke-linecap:butt;stroke-linejoin:round;stroke-miterlimit:100000;}
  </style>
 </defs>
 <g id="figure_1">
  <g id="patch_1">
   <path d="M 0 415.456343 
L 538.8 415.456343 
L 538.8 0 
L 0 0 
z
" style="fill:#ffffff;"/>
  </g>
  <g id="axes_1">
   <g id="patch_2">
    <path d="M 85.2 359.056343 
L 531.6 359.056343 
L 531.6 13.456343 
L 85.2 13.456343 
z
" style="fill:#ffffff;"/>
   </g>
   <g id="line2d_1">
    <defs>
     <path d="M 0 1.5 
C 0.397805 1.5 0.77937 1.341951 1.06066 1.06066 
C 1.341951 0.77937 1.5 0.397805 1.5 0 
C 1.5 -0.397805 1.341951 -0.77937 1.06066 -1.06066 
C 0.77937 -1.341951 0.397805 -1.5 0 -1.5 
C -0.397805 -1.5 -0.77937 -1.341951 -1.06066 -1.06066 
C -1.341951 -0.77937 -1.5 -0.397805 -1.5 0 
C -1.5 0.397805 -1.341951 0.77937 -1.06066 1.06066 
C -0.77937 1.341951 -0.397805 1.5 0 1.5 
z
" id="md8e4f4c9fa" style="stroke:#00bfbf;stroke-width:0.5;"/>
    </defs>
    <g>
     <use style="fill:#00bfbf;stroke:#00bfbf;stroke-width:0.5;" x="297.886043715" xlink:href="#md8e4f4c9fa" y="174.201443539"/>
     <use style="fill:#00bfbf;stroke:#00bfbf;stroke-width:0.5;" x="297.886043715" xlink:href="#md8e4f4c9fa" y="174.201443539"/>
    </g>
   </g>
   <g id="line2d_2">
    <path d="M 69.718457 359.056343 
L 69.718457 339.784236 
L 182.507722 339.784236 
L 182.507722 338.604311 
L 184.02959 338.604311 
L 184.02959 336.244462 
L 190.588355 336.244462 
L 190.588355 335.064537 
L 191.65909 335.064537 
L 191.65909 334.671228 
L 192.036064 334.671228 
L 192.036064 332.901341 
L 193.307513 332.901341 
L 193.307513 331.91807 
L 194.510465 331.91807 
L 194.510465 330.541491 
L 196.045853 330.541491 
L 196.045853 329.951529 
L 196.432954 329.951529 
L 196.432954 329.754875 
L 198.832201 329.754875 
L 198.832201 327.984987 
L 200.428247 327.984987 
L 200.428247 327.198371 
L 201.061013 327.198371 
L 201.061013 325.428483 
L 201.857687 325.428483 
L 201.857687 324.641867 
L 202.742947 324.641867 
L 202.742947 323.85525 
L 203.087455 323.85525 
L 203.087455 323.461942 
L 203.370541 323.461942 
L 203.370541 321.298746 
L 204.253031 321.298746 
L 204.253031 320.905438 
L 204.787391 320.905438 
L 204.84013 317.758972 
L 205.360786 317.758972 
L 205.360786 316.579047 
L 205.616633 316.579047 
L 205.616633 315.79243 
L 205.768746 315.79243 
L 205.768746 314.612505 
L 206.367044 314.612505 
L 206.367044 314.219197 
L 206.514148 314.219197 
L 206.514148 313.235926 
L 207.282745 313.235926 
L 207.376986 312.252656 
L 207.470831 312.252656 
L 207.470831 310.482768 
L 207.703734 310.482768 
L 207.796219 307.72961 
L 207.980048 307.72961 
L 208.02577 306.549685 
L 208.744871 306.549685 
L 208.789055 305.763069 
L 208.964924 305.763069 
L 208.964924 304.779798 
L 209.2694 304.779798 
L 209.2694 303.993181 
L 209.866176 303.993181 
L 209.908198 303.206565 
L 210.033795 303.206565 
L 210.075504 302.223294 
L 210.158689 302.223294 
L 210.158689 300.846715 
L 210.406401 300.846715 
L 210.406401 299.273482 
L 210.529234 299.273482 
L 210.570029 297.30694 
L 210.813245 297.30694 
L 210.813245 296.32367 
L 210.933867 296.32367 
L 210.933867 295.733707 
L 211.991118 295.733707 
L 212.067478 293.177203 
L 212.18153 293.177203 
L 212.18153 292.783895 
L 212.557551 292.783895 
L 212.557551 292.390587 
L 213.000577 292.390587 
L 213.000577 291.997278 
L 213.218837 291.997278 
L 213.218837 291.60397 
L 213.719967 291.60397 
L 213.790648 290.227391 
L 213.861106 290.227391 
L 213.966378 288.654158 
L 214.071156 288.654158 
L 214.071156 288.457504 
L 214.348185 288.457504 
L 214.348185 286.88427 
L 214.791154 286.88427 
L 214.85853 284.131112 
L 214.992675 284.131112 
L 214.992675 282.951187 
L 215.12602 282.951187 
L 215.12602 282.557879 
L 215.716411 282.557879 
L 215.813309 281.771263 
L 215.845516 281.771263 
L 215.845516 280.984646 
L 216.260027 280.984646 
L 216.260027 280.787992 
L 216.573728 280.787992 
L 216.573728 280.198029 
L 217.638232 280.198029 
L 217.638232 279.804721 
L 217.962576 279.804721 
L 217.962576 279.411413 
L 218.166552 279.411413 
L 218.166552 278.624796 
L 218.282278 278.624796 
L 218.311116 277.444871 
L 219.869367 277.444871 
L 219.869367 277.051563 
L 220.163079 277.051563 
L 220.163079 276.264946 
L 220.505286 276.264946 
L 220.505286 275.674984 
L 221.300763 275.674984 
L 221.300763 274.888367 
L 221.725256 274.888367 
L 221.725256 274.101751 
L 222.882027 274.101751 
L 222.882027 273.315134 
L 224.512061 273.315134 
L 224.512061 272.725172 
L 224.642677 272.725172 
L 224.642677 271.545247 
L 224.965912 271.545247 
L 224.965912 271.151939 
L 225.13641 271.151939 
L 225.13641 267.41551 
L 228.20626 267.41551 
L 228.20626 267.218856 
L 228.408889 267.218856 
L 228.408889 266.038931 
L 229.622279 266.038931 
L 229.691642 265.252314 
L 230.17125 265.252314 
L 230.17125 265.05566 
L 230.49093 265.05566 
L 230.49093 264.465698 
L 231.567138 264.465698 
L 231.567138 264.269043 
L 231.867579 264.269043 
L 231.867579 264.072389 
L 232.272269 264.072389 
L 232.333883 263.285773 
L 232.684904 263.285773 
L 232.684904 261.122577 
L 232.835818 261.122577 
L 232.835818 260.532615 
L 232.955819 260.532615 
L 232.955819 260.139306 
L 233.444119 260.139306 
L 233.473373 257.779457 
L 233.57546 257.779457 
L 233.648094 256.402877 
L 233.878951 256.402877 
L 233.878951 256.009569 
L 234.26319 256.009569 
L 234.319556 254.63299 
L 234.985085 254.63299 
L 235.053284 253.256411 
L 235.18906 253.256411 
L 235.18906 253.059757 
L 235.35091 253.059757 
L 235.431397 252.076486 
L 235.61808 252.076486 
L 235.61808 250.503253 
L 235.85583 250.503253 
L 235.85583 249.716636 
L 236.025979 249.716636 
L 236.052041 247.750095 
L 236.155986 247.750095 
L 236.155986 247.553441 
L 236.388108 247.553441 
L 236.426562 246.963478 
L 236.566995 246.963478 
L 236.605142 246.57017 
L 236.731831 246.57017 
L 236.731831 246.373516 
L 237.305518 246.373516 
L 237.305518 245.783553 
L 238.257632 245.783553 
L 238.257632 244.996937 
L 238.410492 244.996937 
L 238.480692 244.603629 
L 238.966006 244.603629 
L 238.966006 244.013666 
L 240.037227 244.013666 
L 240.037227 243.817012 
L 240.361715 243.817012 
L 240.361715 243.620358 
L 240.607334 243.620358 
L 240.607334 239.883929 
L 242.304231 239.883929 
L 242.304231 239.490621 
L 242.963763 239.490621 
L 243.001959 237.327425 
L 243.267518 237.327425 
L 243.267518 237.130771 
L 243.445937 237.130771 
L 243.445937 235.950846 
L 244.460722 235.950846 
L 244.496444 234.967575 
L 244.700744 234.967575 
L 244.700744 234.574267 
L 244.964444 234.574267 
L 244.964444 234.377613 
L 245.164526 234.377613 
L 245.259588 233.197688 
L 245.40571 233.197688 
L 245.508283 232.80438 
L 245.627359 232.80438 
L 245.669732 232.214417 
L 245.821615 232.214417 
L 245.821615 231.624455 
L 246.080794 231.624455 
L 246.114019 231.231147 
L 246.196865 231.231147 
L 246.295875 230.837838 
L 246.345217 230.837838 
L 246.345217 230.44453 
L 246.459924 230.44453 
L 246.541499 229.657913 
L 246.711842 229.657913 
L 246.792504 228.08468 
L 246.96894 228.08468 
L 247.04868 227.298064 
L 247.427519 227.298064 
L 247.513438 226.511447 
L 248.037363 226.511447 
L 248.120973 225.72483 
L 248.219383 225.72483 
L 248.264657 225.331522 
L 248.57903 225.331522 
L 248.57903 225.134868 
L 249.281405 225.134868 
L 249.281405 224.938214 
L 249.659916 224.938214 
L 249.659916 223.758289 
L 251.284758 223.758289 
L 251.284758 223.364981 
L 251.592112 223.364981 
L 251.592112 222.971672 
L 252.30163 222.971672 
L 252.326782 222.578364 
L 252.464615 222.578364 
L 252.47086 222.185056 
L 252.657402 222.185056 
L 252.657402 221.791747 
L 252.79937 221.791747 
L 252.866949 220.415168 
L 253.129181 220.415168 
L 253.159474 219.825206 
L 253.448217 219.825206 
L 253.478081 219.235243 
L 253.644584 219.235243 
L 253.727373 217.465356 
L 253.78632 217.465356 
L 253.78632 217.268702 
L 254.072934 217.268702 
L 254.154153 216.482085 
L 254.493224 216.482085 
L 254.533113 215.695469 
L 254.815984 215.695469 
L 254.815984 214.908852 
L 255.045293 214.908852 
L 255.045293 214.515544 
L 255.961065 214.515544 
L 255.961065 214.31889 
L 256.083566 214.31889 
L 256.083566 213.335619 
L 256.948327 213.335619 
L 256.948327 213.138965 
L 257.313239 213.138965 
L 257.313239 212.942311 
L 257.453555 212.942311 
L 257.548269 212.352348 
L 258.093715 212.352348 
L 258.093715 211.95904 
L 258.219574 211.95904 
L 258.219574 211.369078 
L 258.47873 211.369078 
L 258.47873 210.975769 
L 258.611933 210.975769 
L 258.611933 210.779115 
L 258.758486 210.779115 
L 258.758486 210.385807 
L 258.992855 210.385807 
L 258.992855 210.189153 
L 259.136938 210.189153 
L 259.201705 209.402536 
L 259.390305 209.402536 
L 259.472604 208.419265 
L 259.753781 208.419265 
L 259.8033 207.632649 
L 260.058153 207.632649 
L 260.058153 207.435995 
L 260.213212 207.435995 
L 260.213212 207.042686 
L 260.840083 207.042686 
L 260.840083 206.846032 
L 261.066447 206.846032 
L 261.066447 205.469453 
L 262.055588 205.469453 
L 262.055588 205.272799 
L 262.245848 205.272799 
L 262.245848 205.076145 
L 262.514298 205.076145 
L 262.514298 204.879491 
L 262.688854 204.879491 
L 262.795296 204.092874 
L 263.002775 204.092874 
L 263.002775 203.306257 
L 263.231498 203.306257 
L 263.231498 203.109603 
L 263.423514 203.109603 
L 263.423514 202.912949 
L 263.54174 202.912949 
L 263.594928 201.929678 
L 263.719801 201.929678 
L 263.749968 201.339716 
L 264.049421 201.339716 
L 264.090284 200.749754 
L 264.300838 200.749754 
L 264.341243 200.356445 
L 264.45107 200.356445 
L 264.45107 200.159791 
L 265.137917 200.159791 
L 265.137917 198.19325 
L 266.498017 198.19325 
L 266.511342 197.406633 
L 266.763008 197.406633 
L 266.7992 197.013325 
L 267.219309 197.013325 
L 267.26443 196.423362 
L 267.370429 196.423362 
L 267.45359 195.8334 
L 267.685439 195.8334 
L 267.685439 195.636746 
L 267.899265 195.636746 
L 267.992952 194.653475 
L 268.418926 194.653475 
L 268.418926 194.456821 
L 268.580389 194.456821 
L 268.580389 193.866858 
L 269.291398 193.866858 
L 269.291398 193.670204 
L 269.751213 193.670204 
L 269.825979 192.883588 
L 269.914799 192.883588 
L 269.980469 192.293625 
L 270.507352 192.293625 
L 270.618459 191.507009 
L 270.751061 191.507009 
L 270.781339 191.1137 
L 270.937577 191.1137 
L 271.032974 190.720392 
L 271.562453 190.720392 
L 271.562453 190.13043 
L 272.306896 190.13043 
L 272.306896 189.737121 
L 272.600397 189.737121 
L 272.600397 189.343813 
L 272.792268 189.343813 
L 272.792268 188.753851 
L 273.141457 188.753851 
L 273.252546 187.77058 
L 273.321391 187.77058 
L 273.355734 187.377271 
L 274.192859 187.377271 
L 274.192859 186.787309 
L 275.167621 186.787309 
L 275.167621 186.590655 
L 275.421573 186.590655 
L 275.421573 186.197347 
L 275.70579 186.197347 
L 275.70579 185.804038 
L 275.92316 185.804038 
L 275.92316 185.607384 
L 276.047359 185.607384 
L 276.071248 185.214076 
L 276.545865 185.214076 
L 276.545865 184.820768 
L 277.371873 184.820768 
L 277.380063 184.427459 
L 277.755589 184.427459 
L 277.755589 184.230805 
L 277.991857 184.230805 
L 277.991857 184.034151 
L 278.22171 184.034151 
L 278.302388 183.640843 
L 278.674438 183.640843 
L 278.674438 183.444189 
L 279.218317 183.444189 
L 279.218317 183.247534 
L 279.532823 183.247534 
L 279.532823 183.05088 
L 279.859455 183.05088 
L 279.859455 182.657572 
L 280.080028 182.657572 
L 280.099973 182.264264 
L 280.203037 182.264264 
L 280.276879 181.870955 
L 280.617689 181.870955 
L 280.617689 181.477647 
L 281.545527 181.477647 
L 281.545527 181.280993 
L 281.805614 181.280993 
L 281.805614 181.084339 
L 282.405318 181.084339 
L 282.405318 180.887685 
L 282.791003 180.887685 
L 282.791003 180.69103 
L 283.084681 180.69103 
L 283.084681 180.494376 
L 283.263142 180.494376 
L 283.263142 180.297722 
L 283.600353 180.297722 
L 283.600353 180.101068 
L 284.060414 180.101068 
L 284.060414 179.70776 
L 284.418772 179.70776 
L 284.418772 179.511106 
L 284.77147 179.511106 
L 284.77147 179.314451 
L 284.976368 179.314451 
L 285.082466 178.921143 
L 285.172183 178.921143 
L 285.172183 178.724489 
L 285.329043 178.724489 
L 285.329043 178.527835 
L 285.601279 178.527835 
L 285.601279 178.331181 
L 285.935925 178.331181 
L 285.935925 178.134527 
L 286.575629 178.134527 
L 286.655502 177.741218 
L 286.747205 177.741218 
L 286.747205 177.544564 
L 287.042667 177.544564 
L 287.042667 177.34791 
L 287.356546 177.34791 
L 287.356546 177.151256 
L 288.118674 177.151256 
L 288.156612 176.757947 
L 288.955843 176.757947 
L 288.983865 176.364639 
L 289.241714 176.364639 
L 289.241714 176.167985 
L 289.673221 176.167985 
L 289.673221 175.971331 
L 290.880758 175.971331 
L 290.880758 175.774677 
L 291.319324 175.774677 
L 291.381748 175.381368 
L 292.447358 175.381368 
L 292.447358 175.184714 
L 293.11603 175.184714 
L 293.11603 174.98806 
L 293.744612 174.98806 
L 293.744612 174.791406 
L 294.742239 174.791406 
L 294.742239 174.594752 
L 297.501884 174.594752 
L 297.501884 174.398098 
L 297.886044 174.398098 
L 297.886044 174.201444 
L 445.2 174.201444 
L 445.2 174.201444 
" style="fill:none;stroke:#00bfbf;stroke-linecap:square;stroke-width:1.5;"/>
   </g>
   <g id="line2d_3">
    <defs>
     <path d="M -6 0 
L 6 0 
M 0 6 
L 0 -6 
" id="m8f6327d837" style="stroke:#00bfbf;stroke-width:1.5;"/>
    </defs>
    <g>
     <use style="fill:none;stroke:#00bfbf;stroke-width:1.5;" x="203.087455098" xlink:href="#m8f6327d837" y="323.855250299"/>
     <use style="fill:none;stroke:#00bfbf;stroke-width:1.5;" x="240.361714593" xlink:href="#m8f6327d837" y="243.620357844"/>
     <use style="fill:none;stroke:#00bfbf;stroke-width:1.5;" x="274.192858667" xlink:href="#m8f6327d837" y="187.377271466"/>
     <use style="fill:none;stroke:#00bfbf;stroke-width:1.5;" x="297.886043715" xlink:href="#m8f6327d837" y="174.201443539"/>
     <use style="fill:none;stroke:#00bfbf;stroke-width:1.5;" x="297.886043715" xlink:href="#m8f6327d837" y="174.201443539"/>
     <use style="fill:none;stroke:#00bfbf;stroke-width:1.5;" x="445.2" xlink:href="#m8f6327d837" y="174.201443539"/>
    </g>
   </g>
   <g id="line2d_4"/>
   <g id="line2d_5">
    <path clip-path="url(#pcb5d491fc1)" d="M 225.115168 271.151939 
" style="fill:none;stroke:#00bfbf;stroke-linecap:square;"/>
    <defs>
     <path d="M -12 12 
L 12 -12 
M -12 -12 
L 12 12 
" id="mb2e7c43131" style="stroke:#00bfbf;stroke-width:3.0;"/>
    </defs>
    <g clip-path="url(#pcb5d491fc1)">
     <use style="fill:#00bfbf;stroke:#00bfbf;stroke-width:3.0;" x="225.115168476" xlink:href="#mb2e7c43131" y="271.151938588"/>
    </g>
   </g>
   <g id="line2d_6">
    <defs>
     <path d="M 0 1.5 
C 0.397805 1.5 0.77937 1.341951 1.06066 1.06066 
C 1.341951 0.77937 1.5 0.397805 1.5 0 
C 1.5 -0.397805 1.341951 -0.77937 1.06066 -1.06066 
C 0.77937 -1.341951 0.397805 -1.5 0 -1.5 
C -0.397805 -1.5 -0.77937 -1.341951 -1.06066 -1.06066 
C -1.341951 -0.77937 -1.5 -0.397805 -1.5 0 
C -1.5 0.397805 -1.341951 0.77937 -1.06066 1.06066 
C -0.77937 1.341951 -0.397805 1.5 0 1.5 
z
" id="m0f27f33c4c" style="stroke:#008000;stroke-width:0.5;"/>
    </defs>
    <g>
     <use style="fill:#008000;stroke:#008000;stroke-width:0.5;" x="281.501316228" xlink:href="#m0f27f33c4c" y="233.197687991"/>
     <use style="fill:#008000;stroke:#008000;stroke-width:0.5;" x="281.501316228" xlink:href="#m0f27f33c4c" y="233.197687991"/>
    </g>
   </g>
   <g id="line2d_7">
    <path d="M 60.662335 359.056343 
L 60.662335 354.139989 
L 165.850374 354.139989 
L 165.850374 352.76341 
L 177.972623 352.76341 
L 177.972623 352.370102 
L 183.166069 352.370102 
L 183.166069 351.976793 
L 187.907743 351.976793 
L 187.907743 350.600214 
L 188.499437 350.600214 
L 188.499437 350.206906 
L 189.358587 350.206906 
L 189.358587 347.06044 
L 189.49862 347.06044 
L 189.49862 346.863786 
L 189.707037 346.863786 
L 189.707037 346.077169 
L 192.741281 346.077169 
L 192.741281 345.487207 
L 195.088486 345.487207 
L 195.088486 344.897244 
L 195.250924 344.897244 
L 195.250924 344.307282 
L 195.41219 344.307282 
L 195.41219 343.913973 
L 195.731269 343.913973 
L 195.731269 342.537394 
L 196.61133 342.537394 
L 196.61133 341.947432 
L 197.941489 341.947432 
L 197.941489 341.554124 
L 199.555669 341.554124 
L 199.644477 340.177545 
L 199.864964 340.177545 
L 199.908802 338.604311 
L 200.513659 338.604311 
L 200.513659 338.014349 
L 200.852077 338.014349 
L 200.852077 335.851153 
L 202.037568 335.851153 
L 202.037568 334.867883 
L 202.196256 334.867883 
L 202.196256 333.097995 
L 202.819965 333.097995 
L 202.819965 331.524762 
L 203.049438 331.524762 
L 203.049438 331.131454 
L 203.42673 331.131454 
L 203.42673 329.754875 
L 203.687092 329.754875 
L 203.687092 329.558221 
L 203.871225 329.558221 
L 203.871225 329.361566 
L 204.378864 329.361566 
L 204.414686 328.771604 
L 205.326451 328.771604 
L 205.326451 328.181642 
L 205.463477 328.181642 
L 205.463477 327.788333 
L 205.599667 327.788333 
L 205.599667 327.395025 
L 206.465221 327.395025 
L 206.465221 326.2151 
L 206.724935 326.2151 
L 206.724935 325.625138 
L 207.172292 325.625138 
L 207.235474 322.478671 
L 207.517606 322.478671 
L 207.517606 322.085363 
L 207.949515 322.085363 
L 207.949515 320.708784 
L 208.071399 320.708784 
L 208.071399 319.528859 
L 208.313189 319.528859 
L 208.313189 318.742242 
L 208.818463 318.742242 
L 208.818463 317.955626 
L 208.964924 317.955626 
L 208.964924 316.579047 
L 209.11043 316.579047 
L 209.11043 315.399122 
L 209.683157 315.399122 
L 209.683157 315.202468 
L 210.406401 315.202468 
L 210.406401 314.809159 
L 210.624306 314.809159 
L 210.624306 314.022543 
L 210.840107 314.022543 
L 210.840107 313.629235 
L 210.97393 313.629235 
L 210.97393 313.235926 
L 211.133468 313.235926 
L 211.133468 312.842618 
L 211.991118 312.842618 
L 212.0166 311.466039 
L 212.295002 311.466039 
L 212.295002 311.072731 
L 212.644386 311.072731 
L 212.644386 310.679422 
L 213.494657 310.679422 
L 213.494657 310.08946 
L 213.660895 310.08946 
L 213.660895 309.499497 
L 214.013007 309.499497 
L 214.013007 308.909535 
L 214.175445 308.909535 
L 214.175445 308.712881 
L 214.633148 308.712881 
L 214.633148 308.319573 
L 215.236536 308.319573 
L 215.236536 307.336302 
L 215.73798 307.336302 
L 215.73798 306.156377 
L 216.080288 306.156377 
L 216.080288 304.38649 
L 218.301508 304.38649 
L 218.301508 304.189835 
L 220.670122 304.189835 
L 220.670122 303.796527 
L 221.634379 303.796527 
L 221.634379 303.206565 
L 221.766442 303.206565 
L 221.766442 303.009911 
L 221.963084 303.009911 
L 222.04451 300.256753 
L 222.795745 300.256753 
L 222.795745 299.66679 
L 223.476842 299.66679 
L 223.476842 299.273482 
L 223.613635 299.273482 
L 223.613635 298.486865 
L 224.270598 298.486865 
L 224.270598 297.896903 
L 224.80847 297.896903 
L 224.894485 295.340399 
L 225.093907 295.340399 
L 225.093907 294.750436 
L 225.207068 294.750436 
L 225.207068 294.357128 
L 225.612537 294.357128 
L 225.667891 293.177203 
L 225.887943 293.177203 
L 225.969907 292.587241 
L 226.105849 292.587241 
L 226.200518 291.60397 
L 226.267894 291.60397 
L 226.267894 291.407316 
L 226.561958 291.407316 
L 226.561958 290.817353 
L 226.812843 290.817353 
L 226.917642 289.834083 
L 227.138719 289.834083 
L 227.138719 289.440774 
L 227.25488 289.440774 
L 227.35763 288.654158 
L 227.510873 288.654158 
L 227.561722 286.687616 
L 227.675709 286.687616 
L 227.675709 286.294308 
L 227.851874 286.294308 
L 227.901953 284.721075 
L 228.001775 284.721075 
L 228.001775 284.327767 
L 228.175397 284.327767 
L 228.274007 282.754533 
L 228.335418 282.754533 
L 228.335418 282.164571 
L 228.664151 282.164571 
L 228.664151 281.967917 
L 229.083209 281.967917 
L 229.142438 280.198029 
L 229.599109 280.198029 
L 229.610697 278.82145 
L 229.737766 278.82145 
L 229.737766 278.624796 
L 230.54099 278.624796 
L 230.54099 278.428142 
L 231.380633 278.428142 
L 231.380633 278.034834 
L 231.551212 278.034834 
L 231.551212 277.444871 
L 232.689951 277.444871 
L 232.689951 277.248217 
L 233.96491 277.248217 
L 233.96491 277.051563 
L 234.501771 277.051563 
L 234.501771 276.658255 
L 234.687126 276.658255 
L 234.733225 275.281676 
L 235.635778 275.281676 
L 235.635778 274.888367 
L 235.785649 274.888367 
L 235.785649 274.298405 
L 236.341019 274.298405 
L 236.392384 272.331863 
L 236.824281 272.331863 
L 236.857805 271.741901 
L 236.991399 271.741901 
L 237.041291 271.151939 
L 237.182051 271.151939 
L 237.182051 270.955284 
L 237.896836 270.955284 
L 237.896836 270.561976 
L 238.008472 270.561976 
L 238.095797 268.792089 
L 238.206445 268.792089 
L 238.300852 267.41551 
L 238.410492 267.41551 
L 238.511821 266.235585 
L 238.988855 266.235585 
L 239.072437 265.448968 
L 239.32132 265.448968 
L 239.328818 264.662352 
L 239.825587 264.662352 
L 239.935307 264.269043 
L 240.325892 264.269043 
L 240.325892 264.072389 
L 240.490201 264.072389 
L 240.490201 263.285773 
L 240.603794 263.285773 
L 240.603794 263.089119 
L 241.369486 263.089119 
L 241.369486 262.892464 
L 241.910315 262.892464 
L 241.910315 262.69581 
L 242.613791 262.69581 
L 242.613791 262.499156 
L 243.074986 262.499156 
L 243.074986 262.302502 
L 243.514421 262.302502 
L 243.514421 261.515885 
L 243.945377 261.515885 
L 243.945377 261.319231 
L 244.278247 261.319231 
L 244.278247 261.122577 
L 244.410018 261.122577 
L 244.511311 260.33596 
L 244.830053 260.33596 
L 244.830053 259.942652 
L 245.028433 259.942652 
L 245.10961 258.369419 
L 245.173185 258.369419 
L 245.276829 257.976111 
L 245.322739 257.976111 
L 245.402854 256.99284 
L 245.448506 256.99284 
L 245.476991 256.009569 
L 245.827221 256.009569 
L 245.888789 255.222953 
L 246.072481 255.222953 
L 246.138905 254.829644 
L 246.446299 254.829644 
L 246.446299 254.436336 
L 246.942297 254.436336 
L 246.942297 254.239682 
L 248.551761 254.239682 
L 248.66064 253.649719 
L 249.245363 253.649719 
L 249.245363 253.256411 
L 249.579514 253.256411 
L 249.645748 252.469795 
L 249.838598 252.469795 
L 249.838598 252.27314 
L 249.987966 252.27314 
L 250.020508 251.683178 
L 250.34792 251.683178 
L 250.425608 250.896561 
L 250.620914 250.896561 
L 250.620914 250.503253 
L 250.733684 250.503253 
L 250.75617 249.716636 
L 251.055315 249.716636 
L 251.055315 249.126674 
L 251.249612 249.126674 
L 251.30231 248.536712 
L 253.802013 248.536712 
L 253.802013 248.143403 
L 254.074871 248.143403 
L 254.074871 246.963478 
L 254.286946 246.963478 
L 254.286946 246.766824 
L 254.409415 246.766824 
L 254.436115 246.176862 
L 254.769087 246.176862 
L 254.769087 245.783553 
L 255.011883 245.783553 
L 255.011883 245.193591 
L 255.288791 245.193591 
L 255.288791 244.800283 
L 255.44966 244.800283 
L 255.44966 244.603629 
L 256.025062 244.603629 
L 256.025062 244.406974 
L 257.584719 244.406974 
L 257.584719 244.013666 
L 258.098569 244.013666 
L 258.121206 243.22705 
L 258.295072 243.22705 
L 258.403852 242.833741 
L 258.566036 242.833741 
L 258.635636 241.850471 
L 259.020815 241.850471 
L 259.020815 241.653816 
L 259.194004 241.653816 
L 259.194004 241.457162 
L 259.475646 241.457162 
L 259.475646 241.260508 
L 260.818609 241.260508 
L 260.818609 241.063854 
L 261.018235 241.063854 
L 261.018235 240.8672 
L 261.26388 240.8672 
L 261.26388 240.670546 
L 261.670136 240.670546 
L 261.730718 239.687275 
L 262.033896 239.687275 
L 262.066427 239.293967 
L 262.463793 239.293967 
L 262.463793 238.900658 
L 263.642941 238.900658 
L 263.642941 238.50735 
L 264.186572 238.50735 
L 264.270179 237.917388 
L 264.717285 237.917388 
L 264.746136 237.524079 
L 265.098929 237.524079 
L 265.098929 237.327425 
L 266.307275 237.327425 
L 266.307275 236.934117 
L 266.860482 236.934117 
L 266.871407 236.344154 
L 267.455718 236.344154 
L 267.455718 236.1475 
L 269.299238 236.1475 
L 269.408705 235.754192 
L 270.74096 235.754192 
L 270.74096 235.557538 
L 271.038413 235.557538 
L 271.038413 235.360884 
L 271.369497 235.360884 
L 271.369497 234.967575 
L 272.87507 234.967575 
L 272.87507 234.770921 
L 273.079501 234.770921 
L 273.079501 234.574267 
L 274.302768 234.574267 
L 274.302768 234.377613 
L 274.73554 234.377613 
L 274.73554 234.180959 
L 277.692429 234.180959 
L 277.692429 233.984305 
L 277.965285 233.984305 
L 277.965285 233.78765 
L 278.978862 233.78765 
L 278.978862 233.590996 
L 281.129446 233.590996 
L 281.129446 233.394342 
L 281.501316 233.394342 
L 281.501316 233.197688 
L 445.2 233.197688 
L 445.2 233.197688 
" style="fill:none;stroke:#008000;stroke-linecap:square;stroke-width:1.5;"/>
   </g>
   <g id="line2d_8">
    <defs>
     <path d="M -0 6 
L 6 -6 
L -6 -6 
z
" id="m2d91ad0e6c" style="stroke:#008000;stroke-linejoin:miter;stroke-width:1.5;"/>
    </defs>
    <g>
     <use style="fill:none;stroke:#008000;stroke-linejoin:miter;stroke-width:1.5;" x="60.6623354716" xlink:href="#m2d91ad0e6c" y="354.139989117"/>
     <use style="fill:none;stroke:#008000;stroke-linejoin:miter;stroke-width:1.5;" x="212.295002283" xlink:href="#m2d91ad0e6c" y="311.072730667"/>
     <use style="fill:none;stroke:#008000;stroke-linejoin:miter;stroke-width:1.5;" x="253.802012933" xlink:href="#m2d91ad0e6c" y="248.143403252"/>
     <use style="fill:none;stroke:#008000;stroke-linejoin:miter;stroke-width:1.5;" x="281.501316228" xlink:href="#m2d91ad0e6c" y="233.394342139"/>
     <use style="fill:none;stroke:#008000;stroke-linejoin:miter;stroke-width:1.5;" x="281.501316228" xlink:href="#m2d91ad0e6c" y="233.197687991"/>
     <use style="fill:none;stroke:#008000;stroke-linejoin:miter;stroke-width:1.5;" x="445.2" xlink:href="#m2d91ad0e6c" y="233.197687991"/>
    </g>
   </g>
   <g id="line2d_9"/>
   <g id="line2d_10">
    <path clip-path="url(#pcb5d491fc1)" d="M 216.059047 306.156377 
" style="fill:none;stroke:#008000;stroke-linecap:square;"/>
    <defs>
     <path d="M -12 12 
L 12 -12 
M -12 -12 
L 12 12 
" id="m89174d45e9" style="stroke:#008000;stroke-width:3.0;"/>
    </defs>
    <g clip-path="url(#pcb5d491fc1)">
     <use style="fill:#008000;stroke:#008000;stroke-width:3.0;" x="216.059046582" xlink:href="#m89174d45e9" y="306.156376963"/>
    </g>
   </g>
   <g id="line2d_11">
    <defs>
     <path d="M 0 1.5 
C 0.397805 1.5 0.77937 1.341951 1.06066 1.06066 
C 1.341951 0.77937 1.5 0.397805 1.5 0 
C 1.5 -0.397805 1.341951 -0.77937 1.06066 -1.06066 
C 0.77937 -1.341951 0.397805 -1.5 0 -1.5 
C -0.397805 -1.5 -0.77937 -1.341951 -1.06066 -1.06066 
C -1.341951 -0.77937 -1.5 -0.397805 -1.5 0 
C -1.5 0.397805 -1.341951 0.77937 -1.06066 1.06066 
C -0.77937 1.341951 -0.397805 1.5 0 1.5 
z
" id="m04208f733e" style="stroke:#0000ff;stroke-width:0.5;"/>
    </defs>
    <g>
     <use style="fill:#0000ff;stroke:#0000ff;stroke-width:0.5;" x="275.52902309" xlink:href="#m04208f733e" y="321.692054669"/>
     <use style="fill:#0000ff;stroke:#0000ff;stroke-width:0.5;" x="275.52902309" xlink:href="#m04208f733e" y="321.692054669"/>
    </g>
   </g>
   <g id="line2d_12">
    <path d="M 49.252971 359.056343 
L 49.252971 352.960064 
L 177.380144 352.960064 
L 177.380144 351.780139 
L 190.944459 351.780139 
L 190.944459 351.583485 
L 194.726909 351.583485 
L 194.726909 350.993523 
L 197.320759 350.993523 
L 197.320759 350.40356 
L 199.430742 350.40356 
L 199.430742 349.813598 
L 200.556243 349.813598 
L 200.556243 349.42029 
L 202.037568 349.42029 
L 202.037568 348.830327 
L 204.670924 348.830327 
L 204.670924 343.717319 
L 210.422818 343.717319 
L 210.422818 342.930703 
L 214.313743 342.930703 
L 214.313743 342.537394 
L 215.716411 342.537394 
L 215.716411 342.144086 
L 216.766033 342.144086 
L 216.766033 341.947432 
L 217.673845 341.947432 
L 217.673845 341.357469 
L 218.863332 341.357469 
L 218.863332 340.767507 
L 220.141848 340.767507 
L 220.141848 338.211003 
L 223.203804 338.211003 
L 223.203804 337.621041 
L 225.481914 337.621041 
L 225.481914 336.834424 
L 226.343115 336.834424 
L 226.343115 336.63777 
L 228.350132 336.63777 
L 228.350132 335.851153 
L 229.194429 335.851153 
L 229.194429 334.27792 
L 231.281956 334.27792 
L 231.281956 333.884612 
L 233.514264 333.884612 
L 233.514264 333.687958 
L 234.657572 333.687958 
L 234.657572 333.491304 
L 234.987817 333.491304 
L 234.987817 333.097995 
L 235.61808 333.097995 
L 235.61808 331.91807 
L 237.201851 331.91807 
L 237.201851 330.541491 
L 238.933978 330.541491 
L 238.933978 330.148183 
L 239.835851 330.148183 
L 239.835851 329.951529 
L 240.098157 329.951529 
L 240.098157 329.558221 
L 240.600961 329.558221 
L 240.600961 329.361566 
L 241.876894 329.361566 
L 241.876894 328.968258 
L 243.292017 328.968258 
L 243.292017 328.771604 
L 244.036653 328.771604 
L 244.036653 328.378296 
L 244.672431 328.378296 
L 244.672431 328.181642 
L 245.74074 328.181642 
L 245.74074 327.395025 
L 246.598424 327.395025 
L 246.598424 327.001717 
L 247.571053 327.001717 
L 247.571053 326.608408 
L 248.114903 326.608408 
L 248.114903 326.2151 
L 249.033709 326.2151 
L 249.033709 325.428483 
L 251.096966 325.428483 
L 251.096966 325.231829 
L 251.902981 325.231829 
L 251.902981 324.838521 
L 254.445263 324.838521 
L 254.445263 324.445213 
L 255.701063 324.445213 
L 255.701063 324.248559 
L 255.830368 324.248559 
L 255.830368 324.051904 
L 256.080379 324.051904 
L 256.080379 323.85525 
L 257.864384 323.85525 
L 257.864384 323.658596 
L 257.981784 323.658596 
L 257.981784 323.461942 
L 261.747761 323.461942 
L 261.747761 323.068634 
L 264.059086 323.068634 
L 264.059086 322.87198 
L 264.969424 322.87198 
L 264.969424 322.675325 
L 265.569307 322.675325 
L 265.569307 322.478671 
L 265.926302 322.478671 
L 265.926302 322.282017 
L 268.314113 322.282017 
L 268.314113 322.085363 
L 271.886787 322.085363 
L 271.886787 321.888709 
L 275.529023 321.888709 
L 275.529023 321.692055 
L 445.2 321.692055 
" style="fill:none;stroke:#0000ff;stroke-linecap:square;stroke-width:1.5;"/>
   </g>
   <g id="line2d_13">
    <defs>
     <path d="M 0 -6 
L -1.347084 -1.854102 
L -5.706339 -1.854102 
L -2.179628 0.708204 
L -3.526712 4.854102 
L -0 2.291796 
L 3.526712 4.854102 
L 2.179628 0.708204 
L 5.706339 -1.854102 
L 1.347084 -1.854102 
z
" id="m163150c970" style="stroke:#0000ff;stroke-linejoin:bevel;stroke-width:1.5;"/>
    </defs>
    <g>
     <use style="fill:none;stroke:#0000ff;stroke-linejoin:bevel;stroke-width:1.5;" x="49.2529712056" xlink:href="#m163150c970" y="359.056342822"/>
     <use style="fill:none;stroke:#0000ff;stroke-linejoin:bevel;stroke-width:1.5;" x="202.037568336" xlink:href="#m163150c970" y="348.830327117"/>
     <use style="fill:none;stroke:#0000ff;stroke-linejoin:bevel;stroke-width:1.5;" x="251.902981389" xlink:href="#m163150c970" y="324.83852104"/>
     <use style="fill:none;stroke:#0000ff;stroke-linejoin:bevel;stroke-width:1.5;" x="275.52902309" xlink:href="#m163150c970" y="321.888708817"/>
     <use style="fill:none;stroke:#0000ff;stroke-linejoin:bevel;stroke-width:1.5;" x="275.52902309" xlink:href="#m163150c970" y="321.692054669"/>
     <use style="fill:none;stroke:#0000ff;stroke-linejoin:bevel;stroke-width:1.5;" x="445.2" xlink:href="#m163150c970" y="321.692054669"/>
    </g>
   </g>
   <g id="line2d_14"/>
   <g id="line2d_15">
    <path clip-path="url(#pcb5d491fc1)" d="M 204.649682 348.830327 
" style="fill:none;stroke:#0000ff;stroke-linecap:square;"/>
    <defs>
     <path d="M -12 12 
L 12 -12 
M -12 -12 
L 12 12 
" id="m3001e86541" style="stroke:#0000ff;stroke-width:3.0;"/>
    </defs>
    <g clip-path="url(#pcb5d491fc1)">
     <use style="fill:#0000ff;stroke:#0000ff;stroke-width:3.0;" x="204.649682316" xlink:href="#m3001e86541" y="348.830327117"/>
    </g>
   </g>
   <g id="line2d_16">
    <defs>
     <path d="M 0 1.5 
C 0.397805 1.5 0.77937 1.341951 1.06066 1.06066 
C 1.341951 0.77937 1.5 0.397805 1.5 0 
C 1.5 -0.397805 1.341951 -0.77937 1.06066 -1.06066 
C 0.77937 -1.341951 0.397805 -1.5 0 -1.5 
C -0.397805 -1.5 -0.77937 -1.341951 -1.06066 -1.06066 
C -1.341951 -0.77937 -1.5 -0.397805 -1.5 0 
C -1.5 0.397805 -1.341951 0.77937 -1.06066 1.06066 
C -0.77937 1.341951 -0.397805 1.5 0 1.5 
z
" id="mb4f7d39b44" style="stroke:#000000;stroke-width:0.5;"/>
    </defs>
    <g>
     <use style="stroke:#000000;stroke-width:0.5;" x="253.726191971" xlink:href="#mb4f7d39b44" y="300.06009837"/>
     <use style="stroke:#000000;stroke-width:0.5;" x="253.726191971" xlink:href="#mb4f7d39b44" y="300.06009837"/>
    </g>
   </g>
   <g id="line2d_17">
    <path d="M 33.771429 359.056343 
L 33.771429 341.554124 
L 167.703054 341.554124 
L 167.703054 341.357469 
L 170.518192 341.357469 
L 170.518192 340.177545 
L 171.002704 340.177545 
L 171.002704 339.98089 
L 172.75357 339.98089 
L 172.75357 339.784236 
L 174.253136 339.784236 
L 174.335859 339.390928 
L 174.663721 339.390928 
L 174.663721 338.407657 
L 175.580367 338.407657 
L 175.580367 337.817695 
L 175.774756 337.817695 
L 175.774756 337.227732 
L 176.120449 337.227732 
L 176.120449 334.27792 
L 176.310213 334.27792 
L 176.310213 333.687958 
L 176.906847 333.687958 
L 176.906847 333.097995 
L 177.630902 333.097995 
L 177.630902 332.114725 
L 178.05433 332.114725 
L 178.05433 330.738145 
L 180.688914 330.738145 
L 180.688914 329.558221 
L 180.905312 329.558221 
L 180.905312 329.164912 
L 186.981921 329.164912 
L 186.981921 328.771604 
L 189.189381 328.771604 
L 189.189381 322.675325 
L 196.402232 322.675325 
L 196.402232 322.282017 
L 197.217253 322.282017 
L 197.217253 322.085363 
L 197.917563 322.085363 
L 197.917563 321.888709 
L 198.414709 321.888709 
L 198.414709 321.495401 
L 198.554742 321.495401 
L 198.554742 321.298746 
L 198.873524 321.298746 
L 198.873524 320.708784 
L 199.065361 320.708784 
L 199.133476 317.758972 
L 199.350061 317.758972 
L 199.350061 317.562318 
L 199.777031 317.562318 
L 199.777031 316.972355 
L 200.810054 316.972355 
L 200.898211 315.202468 
L 203.583311 315.202468 
L 203.583311 314.809159 
L 204.660305 314.809159 
L 204.660305 312.842618 
L 208.558337 312.842618 
L 208.558337 312.44931 
L 209.034885 312.44931 
L 209.12203 311.662693 
L 209.8325 311.662693 
L 209.8325 311.466039 
L 210.067168 311.466039 
L 210.142076 310.286114 
L 210.480182 310.286114 
L 210.578179 309.499497 
L 211.24447 309.499497 
L 211.276084 309.106189 
L 213.712887 309.106189 
L 213.712887 308.122918 
L 216.722754 308.122918 
L 216.722754 307.926264 
L 217.291016 307.926264 
L 217.291016 307.72961 
L 217.429351 307.72961 
L 217.513138 306.549685 
L 217.542986 306.549685 
L 217.542986 306.156377 
L 217.756721 306.156377 
L 217.827514 304.976452 
L 220.136537 304.976452 
L 220.136537 304.38649 
L 223.045826 304.38649 
L 223.045826 303.993181 
L 223.23619 303.993181 
L 223.23619 303.796527 
L 225.119418 303.796527 
L 225.119418 303.599873 
L 227.012843 303.599873 
L 227.012843 303.403219 
L 227.442044 303.403219 
L 227.476485 302.813256 
L 227.979354 302.813256 
L 227.979354 302.616602 
L 231.172042 302.616602 
L 231.172042 302.419948 
L 231.304519 302.419948 
L 231.304519 302.02664 
L 234.342063 302.02664 
L 234.342063 301.633332 
L 234.457056 301.633332 
L 234.457056 301.240023 
L 237.12999 301.240023 
L 237.219162 300.846715 
L 239.676975 300.846715 
L 239.676975 300.650061 
L 245.752552 300.650061 
L 245.752552 300.453407 
L 252.44962 300.453407 
L 252.44962 300.256753 
L 253.726192 300.256753 
L 253.726192 300.060098 
L 445.2 300.060098 
L 445.2 300.060098 
" style="fill:none;stroke:#000000;stroke-linecap:square;stroke-width:1.5;"/>
   </g>
   <g id="line2d_18">
    <defs>
     <path d="M 0 6 
C 1.591219 6 3.117479 5.367802 4.242641 4.242641 
C 5.367802 3.117479 6 1.591219 6 0 
C 6 -1.591219 5.367802 -3.117479 4.242641 -4.242641 
C 3.117479 -5.367802 1.591219 -6 0 -6 
C -1.591219 -6 -3.117479 -5.367802 -4.242641 -4.242641 
C -5.367802 -3.117479 -6 -1.591219 -6 0 
C -6 1.591219 -5.367802 3.117479 -4.242641 4.242641 
C -3.117479 5.367802 -1.591219 6 0 6 
z
" id="me58a1ebba9" style="stroke:#000000;stroke-width:1.5;"/>
    </defs>
    <g>
     <use style="fill:none;stroke:#000000;stroke-width:1.5;" x="33.7714285714" xlink:href="#me58a1ebba9" y="341.554123634"/>
     <use style="fill:none;stroke:#000000;stroke-width:1.5;" x="198.414709251" xlink:href="#me58a1ebba9" y="321.888708817"/>
     <use style="fill:none;stroke:#000000;stroke-width:1.5;" x="253.726191971" xlink:href="#me58a1ebba9" y="300.256752518"/>
     <use style="fill:none;stroke:#000000;stroke-width:1.5;" x="253.726191971" xlink:href="#me58a1ebba9" y="300.06009837"/>
     <use style="fill:none;stroke:#000000;stroke-width:1.5;" x="253.726191971" xlink:href="#me58a1ebba9" y="300.06009837"/>
     <use style="fill:none;stroke:#000000;stroke-width:1.5;" x="445.2" xlink:href="#me58a1ebba9" y="300.06009837"/>
    </g>
   </g>
   <g id="line2d_19"/>
   <g id="line2d_20">
    <path clip-path="url(#pcb5d491fc1)" d="M 189.16814 328.771604 
" style="fill:none;stroke:#000000;stroke-linecap:square;"/>
    <defs>
     <path d="M -12 12 
L 12 -12 
M -12 -12 
L 12 12 
" id="m1ad0e03685" style="stroke:#000000;stroke-width:3.0;"/>
    </defs>
    <g clip-path="url(#pcb5d491fc1)">
     <use style="stroke:#000000;stroke-width:3.0;" x="189.168139681" xlink:href="#m1ad0e03685" y="328.771604003"/>
    </g>
   </g>
   <g id="line2d_21">
    <path d="M 445.2 321.692055 
L 484.8 352.212778 
" style="fill:none;stroke:#0000ff;stroke-linecap:square;stroke-width:1.5;"/>
    <g>
     <use style="fill:none;stroke:#0000ff;stroke-linejoin:bevel;stroke-width:1.5;" x="445.2" xlink:href="#m163150c970" y="321.692054669"/>
     <use style="fill:none;stroke:#0000ff;stroke-linejoin:bevel;stroke-width:1.5;" x="484.8" xlink:href="#m163150c970" y="352.212778465"/>
    </g>
   </g>
   <g id="line2d_22">
    <path d="M 445.2 300.060098 
L 484.8 242.715749 
" style="fill:none;stroke:#000000;stroke-linecap:square;stroke-width:1.5;"/>
    <g>
     <use style="fill:none;stroke:#000000;stroke-width:1.5;" x="445.2" xlink:href="#me58a1ebba9" y="300.06009837"/>
     <use style="fill:none;stroke:#000000;stroke-width:1.5;" x="484.8" xlink:href="#me58a1ebba9" y="242.715748762"/>
    </g>
   </g>
   <g id="line2d_23">
    <path d="M 445.2 233.197688 
L 484.8 133.218719 
" style="fill:none;stroke:#008000;stroke-linecap:square;stroke-width:1.5;"/>
    <g>
     <use style="fill:none;stroke:#008000;stroke-linejoin:miter;stroke-width:1.5;" x="445.2" xlink:href="#m2d91ad0e6c" y="233.197687991"/>
     <use style="fill:none;stroke:#008000;stroke-linejoin:miter;stroke-width:1.5;" x="484.8" xlink:href="#m2d91ad0e6c" y="133.218719059"/>
    </g>
   </g>
   <g id="line2d_24">
    <path d="M 445.2 174.201444 
L 484.8 23.721689 
" style="fill:none;stroke:#00bfbf;stroke-linecap:square;stroke-width:1.5;"/>
    <g>
     <use style="fill:none;stroke:#00bfbf;stroke-width:1.5;" x="445.2" xlink:href="#m8f6327d837" y="174.201443539"/>
     <use style="fill:none;stroke:#00bfbf;stroke-width:1.5;" x="484.8" xlink:href="#m8f6327d837" y="23.7216893564"/>
    </g>
   </g>
   <g id="line2d_25">
    <path d="M 445.2 359.056343 
L 445.2 16.878125 
" style="fill:none;stroke:#000000;stroke-linecap:square;"/>
   </g>
   <g id="patch_3">
    <path d="M 85.2 13.456343 
L 531.6 13.456343 
" style="fill:none;stroke:#000000;stroke-linecap:square;stroke-linejoin:miter;"/>
   </g>
   <g id="patch_4">
    <path d="M 531.6 359.056343 
L 531.6 13.456343 
" style="fill:none;stroke:#000000;stroke-linecap:square;stroke-linejoin:miter;"/>
   </g>
   <g id="patch_5">
    <path d="M 85.2 359.056343 
L 531.6 359.056343 
" style="fill:none;stroke:#000000;stroke-linecap:square;stroke-linejoin:miter;"/>
   </g>
   <g id="patch_6">
    <path d="M 85.2 359.056343 
L 85.2 13.456343 
" style="fill:none;stroke:#000000;stroke-linecap:square;stroke-linejoin:miter;"/>
   </g>
   <g id="matplotlib.axis_1">
    <g id="xtick_1">
     <g id="line2d_26">
      <path clip-path="url(#pcb5d491fc1)" d="M 85.2 359.056343 
L 85.2 13.456343 
" style="fill:none;stroke:#000000;stroke-dasharray:1.000000,3.000000;stroke-dashoffset:0.0;stroke-width:0.5;"/>
     </g>
     <g id="line2d_27">
      <defs>
       <path d="M 0 0 
L 0 -4 
" id="mc8d505db43" style="stroke:#000000;stroke-width:0.5;"/>
      </defs>
      <g>
       <use style="stroke:#000000;stroke-width:0.5;" x="85.2" xlink:href="#mc8d505db43" y="359.056342822"/>
      </g>
     </g>
     <g id="line2d_28">
      <defs>
       <path d="M 0 0 
L 0 4 
" id="mb636f75732" style="stroke:#000000;stroke-width:0.5;"/>
      </defs>
      <g>
       <use style="stroke:#000000;stroke-width:0.5;" x="85.2" xlink:href="#mb636f75732" y="13.4563428218"/>
      </g>
     </g>
     <g id="text_1">
      <!-- 0 -->
      <defs>
       <path d="M 31.78125 66.40625 
Q 24.171875 66.40625 20.328125 58.90625 
Q 16.5 51.421875 16.5 36.375 
Q 16.5 21.390625 20.328125 13.890625 
Q 24.171875 6.390625 31.78125 6.390625 
Q 39.453125 6.390625 43.28125 13.890625 
Q 47.125 21.390625 47.125 36.375 
Q 47.125 51.421875 43.28125 58.90625 
Q 39.453125 66.40625 31.78125 66.40625 
M 31.78125 74.21875 
Q 44.046875 74.21875 50.515625 64.515625 
Q 56.984375 54.828125 56.984375 36.375 
Q 56.984375 17.96875 50.515625 8.265625 
Q 44.046875 -1.421875 31.78125 -1.421875 
Q 19.53125 -1.421875 13.0625 8.265625 
Q 6.59375 17.96875 6.59375 36.375 
Q 6.59375 54.828125 13.0625 64.515625 
Q 19.53125 74.21875 31.78125 74.21875 
" id="BitstreamVeraSans-Roman-30"/>
      </defs>
      <g transform="translate(78.8375 378.253217822)scale(0.2 -0.2)">
       <use xlink:href="#BitstreamVeraSans-Roman-30"/>
      </g>
     </g>
    </g>
    <g id="xtick_2">
     <g id="line2d_29">
      <path clip-path="url(#pcb5d491fc1)" d="M 136.628571 359.056343 
L 136.628571 13.456343 
" style="fill:none;stroke:#000000;stroke-dasharray:1.000000,3.000000;stroke-dashoffset:0.0;stroke-width:0.5;"/>
     </g>
     <g id="line2d_30">
      <g>
       <use style="stroke:#000000;stroke-width:0.5;" x="136.628571429" xlink:href="#mc8d505db43" y="359.056342822"/>
      </g>
     </g>
     <g id="line2d_31">
      <g>
       <use style="stroke:#000000;stroke-width:0.5;" x="136.628571429" xlink:href="#mb636f75732" y="13.4563428218"/>
      </g>
     </g>
     <g id="text_2">
      <!-- 1 -->
      <defs>
       <path d="M 12.40625 8.296875 
L 28.515625 8.296875 
L 28.515625 63.921875 
L 10.984375 60.40625 
L 10.984375 69.390625 
L 28.421875 72.90625 
L 38.28125 72.90625 
L 38.28125 8.296875 
L 54.390625 8.296875 
L 54.390625 0 
L 12.40625 0 
z
" id="BitstreamVeraSans-Roman-31"/>
      </defs>
      <g transform="translate(130.266071429 378.253217822)scale(0.2 -0.2)">
       <use xlink:href="#BitstreamVeraSans-Roman-31"/>
      </g>
     </g>
    </g>
    <g id="xtick_3">
     <g id="line2d_32">
      <path clip-path="url(#pcb5d491fc1)" d="M 188.057143 359.056343 
L 188.057143 13.456343 
" style="fill:none;stroke:#000000;stroke-dasharray:1.000000,3.000000;stroke-dashoffset:0.0;stroke-width:0.5;"/>
     </g>
     <g id="line2d_33">
      <g>
       <use style="stroke:#000000;stroke-width:0.5;" x="188.057142857" xlink:href="#mc8d505db43" y="359.056342822"/>
      </g>
     </g>
     <g id="line2d_34">
      <g>
       <use style="stroke:#000000;stroke-width:0.5;" x="188.057142857" xlink:href="#mb636f75732" y="13.4563428218"/>
      </g>
     </g>
     <g id="text_3">
      <!-- 2 -->
      <defs>
       <path d="M 19.1875 8.296875 
L 53.609375 8.296875 
L 53.609375 0 
L 7.328125 0 
L 7.328125 8.296875 
Q 12.9375 14.109375 22.625 23.890625 
Q 32.328125 33.6875 34.8125 36.53125 
Q 39.546875 41.84375 41.421875 45.53125 
Q 43.3125 49.21875 43.3125 52.78125 
Q 43.3125 58.59375 39.234375 62.25 
Q 35.15625 65.921875 28.609375 65.921875 
Q 23.96875 65.921875 18.8125 64.3125 
Q 13.671875 62.703125 7.8125 59.421875 
L 7.8125 69.390625 
Q 13.765625 71.78125 18.9375 73 
Q 24.125 74.21875 28.421875 74.21875 
Q 39.75 74.21875 46.484375 68.546875 
Q 53.21875 62.890625 53.21875 53.421875 
Q 53.21875 48.921875 51.53125 44.890625 
Q 49.859375 40.875 45.40625 35.40625 
Q 44.1875 33.984375 37.640625 27.21875 
Q 31.109375 20.453125 19.1875 8.296875 
" id="BitstreamVeraSans-Roman-32"/>
      </defs>
      <g transform="translate(181.694642857 378.253217822)scale(0.2 -0.2)">
       <use xlink:href="#BitstreamVeraSans-Roman-32"/>
      </g>
     </g>
    </g>
    <g id="xtick_4">
     <g id="line2d_35">
      <path clip-path="url(#pcb5d491fc1)" d="M 239.485714 359.056343 
L 239.485714 13.456343 
" style="fill:none;stroke:#000000;stroke-dasharray:1.000000,3.000000;stroke-dashoffset:0.0;stroke-width:0.5;"/>
     </g>
     <g id="line2d_36">
      <g>
       <use style="stroke:#000000;stroke-width:0.5;" x="239.485714286" xlink:href="#mc8d505db43" y="359.056342822"/>
      </g>
     </g>
     <g id="line2d_37">
      <g>
       <use style="stroke:#000000;stroke-width:0.5;" x="239.485714286" xlink:href="#mb636f75732" y="13.4563428218"/>
      </g>
     </g>
     <g id="text_4">
      <!-- 3 -->
      <defs>
       <path d="M 40.578125 39.3125 
Q 47.65625 37.796875 51.625 33 
Q 55.609375 28.21875 55.609375 21.1875 
Q 55.609375 10.40625 48.1875 4.484375 
Q 40.765625 -1.421875 27.09375 -1.421875 
Q 22.515625 -1.421875 17.65625 -0.515625 
Q 12.796875 0.390625 7.625 2.203125 
L 7.625 11.71875 
Q 11.71875 9.328125 16.59375 8.109375 
Q 21.484375 6.890625 26.8125 6.890625 
Q 36.078125 6.890625 40.9375 10.546875 
Q 45.796875 14.203125 45.796875 21.1875 
Q 45.796875 27.640625 41.28125 31.265625 
Q 36.765625 34.90625 28.71875 34.90625 
L 20.21875 34.90625 
L 20.21875 43.015625 
L 29.109375 43.015625 
Q 36.375 43.015625 40.234375 45.921875 
Q 44.09375 48.828125 44.09375 54.296875 
Q 44.09375 59.90625 40.109375 62.90625 
Q 36.140625 65.921875 28.71875 65.921875 
Q 24.65625 65.921875 20.015625 65.03125 
Q 15.375 64.15625 9.8125 62.3125 
L 9.8125 71.09375 
Q 15.4375 72.65625 20.34375 73.4375 
Q 25.25 74.21875 29.59375 74.21875 
Q 40.828125 74.21875 47.359375 69.109375 
Q 53.90625 64.015625 53.90625 55.328125 
Q 53.90625 49.265625 50.4375 45.09375 
Q 46.96875 40.921875 40.578125 39.3125 
" id="BitstreamVeraSans-Roman-33"/>
      </defs>
      <g transform="translate(233.123214286 378.253217822)scale(0.2 -0.2)">
       <use xlink:href="#BitstreamVeraSans-Roman-33"/>
      </g>
     </g>
    </g>
    <g id="xtick_5">
     <g id="line2d_38">
      <path clip-path="url(#pcb5d491fc1)" d="M 290.914286 359.056343 
L 290.914286 13.456343 
" style="fill:none;stroke:#000000;stroke-dasharray:1.000000,3.000000;stroke-dashoffset:0.0;stroke-width:0.5;"/>
     </g>
     <g id="line2d_39">
      <g>
       <use style="stroke:#000000;stroke-width:0.5;" x="290.914285714" xlink:href="#mc8d505db43" y="359.056342822"/>
      </g>
     </g>
     <g id="line2d_40">
      <g>
       <use style="stroke:#000000;stroke-width:0.5;" x="290.914285714" xlink:href="#mb636f75732" y="13.4563428218"/>
      </g>
     </g>
     <g id="text_5">
      <!-- 4 -->
      <defs>
       <path d="M 37.796875 64.3125 
L 12.890625 25.390625 
L 37.796875 25.390625 
z
M 35.203125 72.90625 
L 47.609375 72.90625 
L 47.609375 25.390625 
L 58.015625 25.390625 
L 58.015625 17.1875 
L 47.609375 17.1875 
L 47.609375 0 
L 37.796875 0 
L 37.796875 17.1875 
L 4.890625 17.1875 
L 4.890625 26.703125 
z
" id="BitstreamVeraSans-Roman-34"/>
      </defs>
      <g transform="translate(284.551785714 378.253217822)scale(0.2 -0.2)">
       <use xlink:href="#BitstreamVeraSans-Roman-34"/>
      </g>
     </g>
    </g>
    <g id="xtick_6">
     <g id="line2d_41">
      <path clip-path="url(#pcb5d491fc1)" d="M 342.342857 359.056343 
L 342.342857 13.456343 
" style="fill:none;stroke:#000000;stroke-dasharray:1.000000,3.000000;stroke-dashoffset:0.0;stroke-width:0.5;"/>
     </g>
     <g id="line2d_42">
      <g>
       <use style="stroke:#000000;stroke-width:0.5;" x="342.342857143" xlink:href="#mc8d505db43" y="359.056342822"/>
      </g>
     </g>
     <g id="line2d_43">
      <g>
       <use style="stroke:#000000;stroke-width:0.5;" x="342.342857143" xlink:href="#mb636f75732" y="13.4563428218"/>
      </g>
     </g>
     <g id="text_6">
      <!-- 5 -->
      <defs>
       <path d="M 10.796875 72.90625 
L 49.515625 72.90625 
L 49.515625 64.59375 
L 19.828125 64.59375 
L 19.828125 46.734375 
Q 21.96875 47.46875 24.109375 47.828125 
Q 26.265625 48.1875 28.421875 48.1875 
Q 40.625 48.1875 47.75 41.5 
Q 54.890625 34.8125 54.890625 23.390625 
Q 54.890625 11.625 47.5625 5.09375 
Q 40.234375 -1.421875 26.90625 -1.421875 
Q 22.3125 -1.421875 17.546875 -0.640625 
Q 12.796875 0.140625 7.71875 1.703125 
L 7.71875 11.625 
Q 12.109375 9.234375 16.796875 8.0625 
Q 21.484375 6.890625 26.703125 6.890625 
Q 35.15625 6.890625 40.078125 11.328125 
Q 45.015625 15.765625 45.015625 23.390625 
Q 45.015625 31 40.078125 35.4375 
Q 35.15625 39.890625 26.703125 39.890625 
Q 22.75 39.890625 18.8125 39.015625 
Q 14.890625 38.140625 10.796875 36.28125 
z
" id="BitstreamVeraSans-Roman-35"/>
      </defs>
      <g transform="translate(335.980357143 378.253217822)scale(0.2 -0.2)">
       <use xlink:href="#BitstreamVeraSans-Roman-35"/>
      </g>
     </g>
    </g>
    <g id="xtick_7">
     <g id="line2d_44">
      <path clip-path="url(#pcb5d491fc1)" d="M 393.771429 359.056343 
L 393.771429 13.456343 
" style="fill:none;stroke:#000000;stroke-dasharray:1.000000,3.000000;stroke-dashoffset:0.0;stroke-width:0.5;"/>
     </g>
     <g id="line2d_45">
      <g>
       <use style="stroke:#000000;stroke-width:0.5;" x="393.771428571" xlink:href="#mc8d505db43" y="359.056342822"/>
      </g>
     </g>
     <g id="line2d_46">
      <g>
       <use style="stroke:#000000;stroke-width:0.5;" x="393.771428571" xlink:href="#mb636f75732" y="13.4563428218"/>
      </g>
     </g>
     <g id="text_7">
      <!-- 6 -->
      <defs>
       <path d="M 33.015625 40.375 
Q 26.375 40.375 22.484375 35.828125 
Q 18.609375 31.296875 18.609375 23.390625 
Q 18.609375 15.53125 22.484375 10.953125 
Q 26.375 6.390625 33.015625 6.390625 
Q 39.65625 6.390625 43.53125 10.953125 
Q 47.40625 15.53125 47.40625 23.390625 
Q 47.40625 31.296875 43.53125 35.828125 
Q 39.65625 40.375 33.015625 40.375 
M 52.59375 71.296875 
L 52.59375 62.3125 
Q 48.875 64.0625 45.09375 64.984375 
Q 41.3125 65.921875 37.59375 65.921875 
Q 27.828125 65.921875 22.671875 59.328125 
Q 17.53125 52.734375 16.796875 39.40625 
Q 19.671875 43.65625 24.015625 45.921875 
Q 28.375 48.1875 33.59375 48.1875 
Q 44.578125 48.1875 50.953125 41.515625 
Q 57.328125 34.859375 57.328125 23.390625 
Q 57.328125 12.15625 50.6875 5.359375 
Q 44.046875 -1.421875 33.015625 -1.421875 
Q 20.359375 -1.421875 13.671875 8.265625 
Q 6.984375 17.96875 6.984375 36.375 
Q 6.984375 53.65625 15.1875 63.9375 
Q 23.390625 74.21875 37.203125 74.21875 
Q 40.921875 74.21875 44.703125 73.484375 
Q 48.484375 72.75 52.59375 71.296875 
" id="BitstreamVeraSans-Roman-36"/>
      </defs>
      <g transform="translate(387.408928571 378.253217822)scale(0.2 -0.2)">
       <use xlink:href="#BitstreamVeraSans-Roman-36"/>
      </g>
     </g>
    </g>
    <g id="xtick_8">
     <g id="line2d_47">
      <path clip-path="url(#pcb5d491fc1)" d="M 445.2 359.056343 
L 445.2 13.456343 
" style="fill:none;stroke:#000000;stroke-dasharray:1.000000,3.000000;stroke-dashoffset:0.0;stroke-width:0.5;"/>
     </g>
     <g id="line2d_48">
      <g>
       <use style="stroke:#000000;stroke-width:0.5;" x="445.2" xlink:href="#mc8d505db43" y="359.056342822"/>
      </g>
     </g>
     <g id="line2d_49">
      <g>
       <use style="stroke:#000000;stroke-width:0.5;" x="445.2" xlink:href="#mb636f75732" y="13.4563428218"/>
      </g>
     </g>
     <g id="text_8">
      <!-- 7 -->
      <defs>
       <path d="M 8.203125 72.90625 
L 55.078125 72.90625 
L 55.078125 68.703125 
L 28.609375 0 
L 18.3125 0 
L 43.21875 64.59375 
L 8.203125 64.59375 
z
" id="BitstreamVeraSans-Roman-37"/>
      </defs>
      <g transform="translate(438.8375 378.253217822)scale(0.2 -0.2)">
       <use xlink:href="#BitstreamVeraSans-Roman-37"/>
      </g>
     </g>
    </g>
    <g id="xtick_9">
     <g id="line2d_50">
      <path clip-path="url(#pcb5d491fc1)" d="M 496.628571 359.056343 
L 496.628571 13.456343 
" style="fill:none;stroke:#000000;stroke-dasharray:1.000000,3.000000;stroke-dashoffset:0.0;stroke-width:0.5;"/>
     </g>
     <g id="line2d_51">
      <g>
       <use style="stroke:#000000;stroke-width:0.5;" x="496.628571429" xlink:href="#mc8d505db43" y="359.056342822"/>
      </g>
     </g>
     <g id="line2d_52">
      <g>
       <use style="stroke:#000000;stroke-width:0.5;" x="496.628571429" xlink:href="#mb636f75732" y="13.4563428218"/>
      </g>
     </g>
     <g id="text_9">
      <!-- 8 -->
      <defs>
       <path d="M 31.78125 34.625 
Q 24.75 34.625 20.71875 30.859375 
Q 16.703125 27.09375 16.703125 20.515625 
Q 16.703125 13.921875 20.71875 10.15625 
Q 24.75 6.390625 31.78125 6.390625 
Q 38.8125 6.390625 42.859375 10.171875 
Q 46.921875 13.96875 46.921875 20.515625 
Q 46.921875 27.09375 42.890625 30.859375 
Q 38.875 34.625 31.78125 34.625 
M 21.921875 38.8125 
Q 15.578125 40.375 12.03125 44.71875 
Q 8.5 49.078125 8.5 55.328125 
Q 8.5 64.0625 14.71875 69.140625 
Q 20.953125 74.21875 31.78125 74.21875 
Q 42.671875 74.21875 48.875 69.140625 
Q 55.078125 64.0625 55.078125 55.328125 
Q 55.078125 49.078125 51.53125 44.71875 
Q 48 40.375 41.703125 38.8125 
Q 48.828125 37.15625 52.796875 32.3125 
Q 56.78125 27.484375 56.78125 20.515625 
Q 56.78125 9.90625 50.3125 4.234375 
Q 43.84375 -1.421875 31.78125 -1.421875 
Q 19.734375 -1.421875 13.25 4.234375 
Q 6.78125 9.90625 6.78125 20.515625 
Q 6.78125 27.484375 10.78125 32.3125 
Q 14.796875 37.15625 21.921875 38.8125 
M 18.3125 54.390625 
Q 18.3125 48.734375 21.84375 45.5625 
Q 25.390625 42.390625 31.78125 42.390625 
Q 38.140625 42.390625 41.71875 45.5625 
Q 45.3125 48.734375 45.3125 54.390625 
Q 45.3125 60.0625 41.71875 63.234375 
Q 38.140625 66.40625 31.78125 66.40625 
Q 25.390625 66.40625 21.84375 63.234375 
Q 18.3125 60.0625 18.3125 54.390625 
" id="BitstreamVeraSans-Roman-38"/>
      </defs>
      <g transform="translate(490.266071429 378.253217822)scale(0.2 -0.2)">
       <use xlink:href="#BitstreamVeraSans-Roman-38"/>
      </g>
     </g>
    </g>
    <g id="xtick_10">
     <g id="line2d_53">
      <defs>
       <path d="M 0 0 
L 0 -2 
" id="m6b4c62c81d" style="stroke:#000000;stroke-width:0.5;"/>
      </defs>
      <g>
       <use style="stroke:#000000;stroke-width:0.5;" x="100.681542634" xlink:href="#m6b4c62c81d" y="359.056342822"/>
      </g>
     </g>
     <g id="line2d_54">
      <defs>
       <path d="M 0 0 
L 0 2 
" id="mde06dcd0da" style="stroke:#000000;stroke-width:0.5;"/>
      </defs>
      <g>
       <use style="stroke:#000000;stroke-width:0.5;" x="100.681542634" xlink:href="#mde06dcd0da" y="13.4563428218"/>
      </g>
     </g>
    </g>
    <g id="xtick_11">
     <g id="line2d_55">
      <g>
       <use style="stroke:#000000;stroke-width:0.5;" x="116.163085268" xlink:href="#m6b4c62c81d" y="359.056342822"/>
      </g>
     </g>
     <g id="line2d_56">
      <g>
       <use style="stroke:#000000;stroke-width:0.5;" x="116.163085268" xlink:href="#mde06dcd0da" y="13.4563428218"/>
      </g>
     </g>
    </g>
    <g id="xtick_12">
     <g id="line2d_57">
      <g>
       <use style="stroke:#000000;stroke-width:0.5;" x="125.219207163" xlink:href="#m6b4c62c81d" y="359.056342822"/>
      </g>
     </g>
     <g id="line2d_58">
      <g>
       <use style="stroke:#000000;stroke-width:0.5;" x="125.219207163" xlink:href="#mde06dcd0da" y="13.4563428218"/>
      </g>
     </g>
    </g>
    <g id="xtick_13">
     <g id="line2d_59">
      <g>
       <use style="stroke:#000000;stroke-width:0.5;" x="131.644627902" xlink:href="#m6b4c62c81d" y="359.056342822"/>
      </g>
     </g>
     <g id="line2d_60">
      <g>
       <use style="stroke:#000000;stroke-width:0.5;" x="131.644627902" xlink:href="#mde06dcd0da" y="13.4563428218"/>
      </g>
     </g>
    </g>
    <g id="xtick_14">
     <g id="line2d_61">
      <g>
       <use style="stroke:#000000;stroke-width:0.5;" x="152.110114063" xlink:href="#m6b4c62c81d" y="359.056342822"/>
      </g>
     </g>
     <g id="line2d_62">
      <g>
       <use style="stroke:#000000;stroke-width:0.5;" x="152.110114063" xlink:href="#mde06dcd0da" y="13.4563428218"/>
      </g>
     </g>
    </g>
    <g id="xtick_15">
     <g id="line2d_63">
      <g>
       <use style="stroke:#000000;stroke-width:0.5;" x="167.591656697" xlink:href="#m6b4c62c81d" y="359.056342822"/>
      </g>
     </g>
     <g id="line2d_64">
      <g>
       <use style="stroke:#000000;stroke-width:0.5;" x="167.591656697" xlink:href="#mde06dcd0da" y="13.4563428218"/>
      </g>
     </g>
    </g>
    <g id="xtick_16">
     <g id="line2d_65">
      <g>
       <use style="stroke:#000000;stroke-width:0.5;" x="176.647778591" xlink:href="#m6b4c62c81d" y="359.056342822"/>
      </g>
     </g>
     <g id="line2d_66">
      <g>
       <use style="stroke:#000000;stroke-width:0.5;" x="176.647778591" xlink:href="#mde06dcd0da" y="13.4563428218"/>
      </g>
     </g>
    </g>
    <g id="xtick_17">
     <g id="line2d_67">
      <g>
       <use style="stroke:#000000;stroke-width:0.5;" x="183.073199331" xlink:href="#m6b4c62c81d" y="359.056342822"/>
      </g>
     </g>
     <g id="line2d_68">
      <g>
       <use style="stroke:#000000;stroke-width:0.5;" x="183.073199331" xlink:href="#mde06dcd0da" y="13.4563428218"/>
      </g>
     </g>
    </g>
    <g id="xtick_18">
     <g id="line2d_69">
      <g>
       <use style="stroke:#000000;stroke-width:0.5;" x="203.538685491" xlink:href="#m6b4c62c81d" y="359.056342822"/>
      </g>
     </g>
     <g id="line2d_70">
      <g>
       <use style="stroke:#000000;stroke-width:0.5;" x="203.538685491" xlink:href="#mde06dcd0da" y="13.4563428218"/>
      </g>
     </g>
    </g>
    <g id="xtick_19">
     <g id="line2d_71">
      <g>
       <use style="stroke:#000000;stroke-width:0.5;" x="219.020228125" xlink:href="#m6b4c62c81d" y="359.056342822"/>
      </g>
     </g>
     <g id="line2d_72">
      <g>
       <use style="stroke:#000000;stroke-width:0.5;" x="219.020228125" xlink:href="#mde06dcd0da" y="13.4563428218"/>
      </g>
     </g>
    </g>
    <g id="xtick_20">
     <g id="line2d_73">
      <g>
       <use style="stroke:#000000;stroke-width:0.5;" x="228.07635002" xlink:href="#m6b4c62c81d" y="359.056342822"/>
      </g>
     </g>
     <g id="line2d_74">
      <g>
       <use style="stroke:#000000;stroke-width:0.5;" x="228.07635002" xlink:href="#mde06dcd0da" y="13.4563428218"/>
      </g>
     </g>
    </g>
    <g id="xtick_21">
     <g id="line2d_75">
      <g>
       <use style="stroke:#000000;stroke-width:0.5;" x="234.50177076" xlink:href="#m6b4c62c81d" y="359.056342822"/>
      </g>
     </g>
     <g id="line2d_76">
      <g>
       <use style="stroke:#000000;stroke-width:0.5;" x="234.50177076" xlink:href="#mde06dcd0da" y="13.4563428218"/>
      </g>
     </g>
    </g>
    <g id="xtick_22">
     <g id="line2d_77">
      <g>
       <use style="stroke:#000000;stroke-width:0.5;" x="254.96725692" xlink:href="#m6b4c62c81d" y="359.056342822"/>
      </g>
     </g>
     <g id="line2d_78">
      <g>
       <use style="stroke:#000000;stroke-width:0.5;" x="254.96725692" xlink:href="#mde06dcd0da" y="13.4563428218"/>
      </g>
     </g>
    </g>
    <g id="xtick_23">
     <g id="line2d_79">
      <g>
       <use style="stroke:#000000;stroke-width:0.5;" x="270.448799554" xlink:href="#m6b4c62c81d" y="359.056342822"/>
      </g>
     </g>
     <g id="line2d_80">
      <g>
       <use style="stroke:#000000;stroke-width:0.5;" x="270.448799554" xlink:href="#mde06dcd0da" y="13.4563428218"/>
      </g>
     </g>
    </g>
    <g id="xtick_24">
     <g id="line2d_81">
      <g>
       <use style="stroke:#000000;stroke-width:0.5;" x="279.504921448" xlink:href="#m6b4c62c81d" y="359.056342822"/>
      </g>
     </g>
     <g id="line2d_82">
      <g>
       <use style="stroke:#000000;stroke-width:0.5;" x="279.504921448" xlink:href="#mde06dcd0da" y="13.4563428218"/>
      </g>
     </g>
    </g>
    <g id="xtick_25">
     <g id="line2d_83">
      <g>
       <use style="stroke:#000000;stroke-width:0.5;" x="285.930342188" xlink:href="#m6b4c62c81d" y="359.056342822"/>
      </g>
     </g>
     <g id="line2d_84">
      <g>
       <use style="stroke:#000000;stroke-width:0.5;" x="285.930342188" xlink:href="#mde06dcd0da" y="13.4563428218"/>
      </g>
     </g>
    </g>
    <g id="xtick_26">
     <g id="line2d_85">
      <g>
       <use style="stroke:#000000;stroke-width:0.5;" x="306.395828348" xlink:href="#m6b4c62c81d" y="359.056342822"/>
      </g>
     </g>
     <g id="line2d_86">
      <g>
       <use style="stroke:#000000;stroke-width:0.5;" x="306.395828348" xlink:href="#mde06dcd0da" y="13.4563428218"/>
      </g>
     </g>
    </g>
    <g id="xtick_27">
     <g id="line2d_87">
      <g>
       <use style="stroke:#000000;stroke-width:0.5;" x="321.877370983" xlink:href="#m6b4c62c81d" y="359.056342822"/>
      </g>
     </g>
     <g id="line2d_88">
      <g>
       <use style="stroke:#000000;stroke-width:0.5;" x="321.877370983" xlink:href="#mde06dcd0da" y="13.4563428218"/>
      </g>
     </g>
    </g>
    <g id="xtick_28">
     <g id="line2d_89">
      <g>
       <use style="stroke:#000000;stroke-width:0.5;" x="330.933492877" xlink:href="#m6b4c62c81d" y="359.056342822"/>
      </g>
     </g>
     <g id="line2d_90">
      <g>
       <use style="stroke:#000000;stroke-width:0.5;" x="330.933492877" xlink:href="#mde06dcd0da" y="13.4563428218"/>
      </g>
     </g>
    </g>
    <g id="xtick_29">
     <g id="line2d_91">
      <g>
       <use style="stroke:#000000;stroke-width:0.5;" x="337.358913617" xlink:href="#m6b4c62c81d" y="359.056342822"/>
      </g>
     </g>
     <g id="line2d_92">
      <g>
       <use style="stroke:#000000;stroke-width:0.5;" x="337.358913617" xlink:href="#mde06dcd0da" y="13.4563428218"/>
      </g>
     </g>
    </g>
    <g id="xtick_30">
     <g id="line2d_93">
      <g>
       <use style="stroke:#000000;stroke-width:0.5;" x="357.824399777" xlink:href="#m6b4c62c81d" y="359.056342822"/>
      </g>
     </g>
     <g id="line2d_94">
      <g>
       <use style="stroke:#000000;stroke-width:0.5;" x="357.824399777" xlink:href="#mde06dcd0da" y="13.4563428218"/>
      </g>
     </g>
    </g>
    <g id="xtick_31">
     <g id="line2d_95">
      <g>
       <use style="stroke:#000000;stroke-width:0.5;" x="373.305942411" xlink:href="#m6b4c62c81d" y="359.056342822"/>
      </g>
     </g>
     <g id="line2d_96">
      <g>
       <use style="stroke:#000000;stroke-width:0.5;" x="373.305942411" xlink:href="#mde06dcd0da" y="13.4563428218"/>
      </g>
     </g>
    </g>
    <g id="xtick_32">
     <g id="line2d_97">
      <g>
       <use style="stroke:#000000;stroke-width:0.5;" x="382.362064305" xlink:href="#m6b4c62c81d" y="359.056342822"/>
      </g>
     </g>
     <g id="line2d_98">
      <g>
       <use style="stroke:#000000;stroke-width:0.5;" x="382.362064305" xlink:href="#mde06dcd0da" y="13.4563428218"/>
      </g>
     </g>
    </g>
    <g id="xtick_33">
     <g id="line2d_99">
      <g>
       <use style="stroke:#000000;stroke-width:0.5;" x="388.787485045" xlink:href="#m6b4c62c81d" y="359.056342822"/>
      </g>
     </g>
     <g id="line2d_100">
      <g>
       <use style="stroke:#000000;stroke-width:0.5;" x="388.787485045" xlink:href="#mde06dcd0da" y="13.4563428218"/>
      </g>
     </g>
    </g>
    <g id="xtick_34">
     <g id="line2d_101">
      <g>
       <use style="stroke:#000000;stroke-width:0.5;" x="409.252971206" xlink:href="#m6b4c62c81d" y="359.056342822"/>
      </g>
     </g>
     <g id="line2d_102">
      <g>
       <use style="stroke:#000000;stroke-width:0.5;" x="409.252971206" xlink:href="#mde06dcd0da" y="13.4563428218"/>
      </g>
     </g>
    </g>
    <g id="xtick_35">
     <g id="line2d_103">
      <g>
       <use style="stroke:#000000;stroke-width:0.5;" x="424.73451384" xlink:href="#m6b4c62c81d" y="359.056342822"/>
      </g>
     </g>
     <g id="line2d_104">
      <g>
       <use style="stroke:#000000;stroke-width:0.5;" x="424.73451384" xlink:href="#mde06dcd0da" y="13.4563428218"/>
      </g>
     </g>
    </g>
    <g id="xtick_36">
     <g id="line2d_105">
      <g>
       <use style="stroke:#000000;stroke-width:0.5;" x="433.790635734" xlink:href="#m6b4c62c81d" y="359.056342822"/>
      </g>
     </g>
     <g id="line2d_106">
      <g>
       <use style="stroke:#000000;stroke-width:0.5;" x="433.790635734" xlink:href="#mde06dcd0da" y="13.4563428218"/>
      </g>
     </g>
    </g>
    <g id="xtick_37">
     <g id="line2d_107">
      <g>
       <use style="stroke:#000000;stroke-width:0.5;" x="440.216056474" xlink:href="#m6b4c62c81d" y="359.056342822"/>
      </g>
     </g>
     <g id="line2d_108">
      <g>
       <use style="stroke:#000000;stroke-width:0.5;" x="440.216056474" xlink:href="#mde06dcd0da" y="13.4563428218"/>
      </g>
     </g>
    </g>
    <g id="xtick_38">
     <g id="line2d_109">
      <g>
       <use style="stroke:#000000;stroke-width:0.5;" x="460.681542634" xlink:href="#m6b4c62c81d" y="359.056342822"/>
      </g>
     </g>
     <g id="line2d_110">
      <g>
       <use style="stroke:#000000;stroke-width:0.5;" x="460.681542634" xlink:href="#mde06dcd0da" y="13.4563428218"/>
      </g>
     </g>
    </g>
    <g id="xtick_39">
     <g id="line2d_111">
      <g>
       <use style="stroke:#000000;stroke-width:0.5;" x="476.163085268" xlink:href="#m6b4c62c81d" y="359.056342822"/>
      </g>
     </g>
     <g id="line2d_112">
      <g>
       <use style="stroke:#000000;stroke-width:0.5;" x="476.163085268" xlink:href="#mde06dcd0da" y="13.4563428218"/>
      </g>
     </g>
    </g>
    <g id="xtick_40">
     <g id="line2d_113">
      <g>
       <use style="stroke:#000000;stroke-width:0.5;" x="485.219207163" xlink:href="#m6b4c62c81d" y="359.056342822"/>
      </g>
     </g>
     <g id="line2d_114">
      <g>
       <use style="stroke:#000000;stroke-width:0.5;" x="485.219207163" xlink:href="#mde06dcd0da" y="13.4563428218"/>
      </g>
     </g>
    </g>
    <g id="xtick_41">
     <g id="line2d_115">
      <g>
       <use style="stroke:#000000;stroke-width:0.5;" x="491.644627902" xlink:href="#m6b4c62c81d" y="359.056342822"/>
      </g>
     </g>
     <g id="line2d_116">
      <g>
       <use style="stroke:#000000;stroke-width:0.5;" x="491.644627902" xlink:href="#mde06dcd0da" y="13.4563428218"/>
      </g>
     </g>
    </g>
    <g id="xtick_42">
     <g id="line2d_117">
      <g>
       <use style="stroke:#000000;stroke-width:0.5;" x="512.110114063" xlink:href="#m6b4c62c81d" y="359.056342822"/>
      </g>
     </g>
     <g id="line2d_118">
      <g>
       <use style="stroke:#000000;stroke-width:0.5;" x="512.110114063" xlink:href="#mde06dcd0da" y="13.4563428218"/>
      </g>
     </g>
    </g>
    <g id="xtick_43">
     <g id="line2d_119">
      <g>
       <use style="stroke:#000000;stroke-width:0.5;" x="527.591656697" xlink:href="#m6b4c62c81d" y="359.056342822"/>
      </g>
     </g>
     <g id="line2d_120">
      <g>
       <use style="stroke:#000000;stroke-width:0.5;" x="527.591656697" xlink:href="#mde06dcd0da" y="13.4563428218"/>
      </g>
     </g>
    </g>
    <g id="text_10">
     <!-- log10 of (# f-evals / dimension) -->
     <defs>
      <path id="BitstreamVeraSans-Roman-20"/>
      <path d="M 51.125 44 
L 36.921875 44 
L 32.8125 27.6875 
L 47.125 27.6875 
z
M 43.796875 71.78125 
L 38.71875 51.515625 
L 52.984375 51.515625 
L 58.109375 71.78125 
L 65.921875 71.78125 
L 60.890625 51.515625 
L 76.125 51.515625 
L 76.125 44 
L 58.984375 44 
L 54.984375 27.6875 
L 70.515625 27.6875 
L 70.515625 20.21875 
L 53.078125 20.21875 
L 48 0 
L 40.1875 0 
L 45.21875 20.21875 
L 30.90625 20.21875 
L 25.875 0 
L 18.015625 0 
L 23.09375 20.21875 
L 7.71875 20.21875 
L 7.71875 27.6875 
L 24.90625 27.6875 
L 29 44 
L 13.28125 44 
L 13.28125 51.515625 
L 30.90625 51.515625 
L 35.890625 71.78125 
z
" id="BitstreamVeraSans-Roman-23"/>
      <path d="M 52 44.1875 
Q 55.375 50.25 60.0625 53.125 
Q 64.75 56 71.09375 56 
Q 79.640625 56 84.28125 50.015625 
Q 88.921875 44.046875 88.921875 33.015625 
L 88.921875 0 
L 79.890625 0 
L 79.890625 32.71875 
Q 79.890625 40.578125 77.09375 44.375 
Q 74.3125 48.1875 68.609375 48.1875 
Q 61.625 48.1875 57.5625 43.546875 
Q 53.515625 38.921875 53.515625 30.90625 
L 53.515625 0 
L 44.484375 0 
L 44.484375 32.71875 
Q 44.484375 40.625 41.703125 44.40625 
Q 38.921875 48.1875 33.109375 48.1875 
Q 26.21875 48.1875 22.15625 43.53125 
Q 18.109375 38.875 18.109375 30.90625 
L 18.109375 0 
L 9.078125 0 
L 9.078125 54.6875 
L 18.109375 54.6875 
L 18.109375 46.1875 
Q 21.1875 51.21875 25.484375 53.609375 
Q 29.78125 56 35.6875 56 
Q 41.65625 56 45.828125 52.96875 
Q 50 49.953125 52 44.1875 
" id="BitstreamVeraSans-Roman-6d"/>
      <path d="M 54.890625 33.015625 
L 54.890625 0 
L 45.90625 0 
L 45.90625 32.71875 
Q 45.90625 40.484375 42.875 44.328125 
Q 39.84375 48.1875 33.796875 48.1875 
Q 26.515625 48.1875 22.3125 43.546875 
Q 18.109375 38.921875 18.109375 30.90625 
L 18.109375 0 
L 9.078125 0 
L 9.078125 54.6875 
L 18.109375 54.6875 
L 18.109375 46.1875 
Q 21.34375 51.125 25.703125 53.5625 
Q 30.078125 56 35.796875 56 
Q 45.21875 56 50.046875 50.171875 
Q 54.890625 44.34375 54.890625 33.015625 
" id="BitstreamVeraSans-Roman-6e"/>
      <path d="M 31 75.875 
Q 24.46875 64.65625 21.28125 53.65625 
Q 18.109375 42.671875 18.109375 31.390625 
Q 18.109375 20.125 21.3125 9.0625 
Q 24.515625 -2 31 -13.1875 
L 23.1875 -13.1875 
Q 15.875 -1.703125 12.234375 9.375 
Q 8.59375 20.453125 8.59375 31.390625 
Q 8.59375 42.28125 12.203125 53.3125 
Q 15.828125 64.359375 23.1875 75.875 
z
" id="BitstreamVeraSans-Roman-28"/>
      <path d="M 30.609375 48.390625 
Q 23.390625 48.390625 19.1875 42.75 
Q 14.984375 37.109375 14.984375 27.296875 
Q 14.984375 17.484375 19.15625 11.84375 
Q 23.34375 6.203125 30.609375 6.203125 
Q 37.796875 6.203125 41.984375 11.859375 
Q 46.1875 17.53125 46.1875 27.296875 
Q 46.1875 37.015625 41.984375 42.703125 
Q 37.796875 48.390625 30.609375 48.390625 
M 30.609375 56 
Q 42.328125 56 49.015625 48.375 
Q 55.71875 40.765625 55.71875 27.296875 
Q 55.71875 13.875 49.015625 6.21875 
Q 42.328125 -1.421875 30.609375 -1.421875 
Q 18.84375 -1.421875 12.171875 6.21875 
Q 5.515625 13.875 5.515625 27.296875 
Q 5.515625 40.765625 12.171875 48.375 
Q 18.84375 56 30.609375 56 
" id="BitstreamVeraSans-Roman-6f"/>
      <path d="M 9.421875 75.984375 
L 18.40625 75.984375 
L 18.40625 0 
L 9.421875 0 
z
" id="BitstreamVeraSans-Roman-6c"/>
      <path d="M 2.984375 54.6875 
L 12.5 54.6875 
L 29.59375 8.796875 
L 46.6875 54.6875 
L 56.203125 54.6875 
L 35.6875 0 
L 23.484375 0 
z
" id="BitstreamVeraSans-Roman-76"/>
      <path d="M 9.421875 54.6875 
L 18.40625 54.6875 
L 18.40625 0 
L 9.421875 0 
z
M 9.421875 75.984375 
L 18.40625 75.984375 
L 18.40625 64.59375 
L 9.421875 64.59375 
z
" id="BitstreamVeraSans-Roman-69"/>
      <path d="M 4.890625 31.390625 
L 31.203125 31.390625 
L 31.203125 23.390625 
L 4.890625 23.390625 
z
" id="BitstreamVeraSans-Roman-2d"/>
      <path d="M 25.390625 72.90625 
L 33.6875 72.90625 
L 8.296875 -9.28125 
L 0 -9.28125 
z
" id="BitstreamVeraSans-Roman-2f"/>
      <path d="M 56.203125 29.59375 
L 56.203125 25.203125 
L 14.890625 25.203125 
Q 15.484375 15.921875 20.484375 11.0625 
Q 25.484375 6.203125 34.421875 6.203125 
Q 39.59375 6.203125 44.453125 7.46875 
Q 49.3125 8.734375 54.109375 11.28125 
L 54.109375 2.78125 
Q 49.265625 0.734375 44.1875 -0.34375 
Q 39.109375 -1.421875 33.890625 -1.421875 
Q 20.796875 -1.421875 13.15625 6.1875 
Q 5.515625 13.8125 5.515625 26.8125 
Q 5.515625 40.234375 12.765625 48.109375 
Q 20.015625 56 32.328125 56 
Q 43.359375 56 49.78125 48.890625 
Q 56.203125 41.796875 56.203125 29.59375 
M 47.21875 32.234375 
Q 47.125 39.59375 43.09375 43.984375 
Q 39.0625 48.390625 32.421875 48.390625 
Q 24.90625 48.390625 20.390625 44.140625 
Q 15.875 39.890625 15.1875 32.171875 
z
" id="BitstreamVeraSans-Roman-65"/>
      <path d="M 45.40625 46.390625 
L 45.40625 75.984375 
L 54.390625 75.984375 
L 54.390625 0 
L 45.40625 0 
L 45.40625 8.203125 
Q 42.578125 3.328125 38.25 0.953125 
Q 33.9375 -1.421875 27.875 -1.421875 
Q 17.96875 -1.421875 11.734375 6.484375 
Q 5.515625 14.40625 5.515625 27.296875 
Q 5.515625 40.1875 11.734375 48.09375 
Q 17.96875 56 27.875 56 
Q 33.9375 56 38.25 53.625 
Q 42.578125 51.265625 45.40625 46.390625 
M 14.796875 27.296875 
Q 14.796875 17.390625 18.875 11.75 
Q 22.953125 6.109375 30.078125 6.109375 
Q 37.203125 6.109375 41.296875 11.75 
Q 45.40625 17.390625 45.40625 27.296875 
Q 45.40625 37.203125 41.296875 42.84375 
Q 37.203125 48.484375 30.078125 48.484375 
Q 22.953125 48.484375 18.875 42.84375 
Q 14.796875 37.203125 14.796875 27.296875 
" id="BitstreamVeraSans-Roman-64"/>
      <path d="M 45.40625 27.984375 
Q 45.40625 37.75 41.375 43.109375 
Q 37.359375 48.484375 30.078125 48.484375 
Q 22.859375 48.484375 18.828125 43.109375 
Q 14.796875 37.75 14.796875 27.984375 
Q 14.796875 18.265625 18.828125 12.890625 
Q 22.859375 7.515625 30.078125 7.515625 
Q 37.359375 7.515625 41.375 12.890625 
Q 45.40625 18.265625 45.40625 27.984375 
M 54.390625 6.78125 
Q 54.390625 -7.171875 48.1875 -13.984375 
Q 42 -20.796875 29.203125 -20.796875 
Q 24.46875 -20.796875 20.265625 -20.09375 
Q 16.0625 -19.390625 12.109375 -17.921875 
L 12.109375 -9.1875 
Q 16.0625 -11.328125 19.921875 -12.34375 
Q 23.78125 -13.375 27.78125 -13.375 
Q 36.625 -13.375 41.015625 -8.765625 
Q 45.40625 -4.15625 45.40625 5.171875 
L 45.40625 9.625 
Q 42.625 4.78125 38.28125 2.390625 
Q 33.9375 0 27.875 0 
Q 17.828125 0 11.671875 7.65625 
Q 5.515625 15.328125 5.515625 27.984375 
Q 5.515625 40.671875 11.671875 48.328125 
Q 17.828125 56 27.875 56 
Q 33.9375 56 38.28125 53.609375 
Q 42.625 51.21875 45.40625 46.390625 
L 45.40625 54.6875 
L 54.390625 54.6875 
z
" id="BitstreamVeraSans-Roman-67"/>
      <path d="M 37.109375 75.984375 
L 37.109375 68.5 
L 28.515625 68.5 
Q 23.6875 68.5 21.796875 66.546875 
Q 19.921875 64.59375 19.921875 59.515625 
L 19.921875 54.6875 
L 34.71875 54.6875 
L 34.71875 47.703125 
L 19.921875 47.703125 
L 19.921875 0 
L 10.890625 0 
L 10.890625 47.703125 
L 2.296875 47.703125 
L 2.296875 54.6875 
L 10.890625 54.6875 
L 10.890625 58.5 
Q 10.890625 67.625 15.140625 71.796875 
Q 19.390625 75.984375 28.609375 75.984375 
z
" id="BitstreamVeraSans-Roman-66"/>
      <path d="M 34.28125 27.484375 
Q 23.390625 27.484375 19.1875 25 
Q 14.984375 22.515625 14.984375 16.5 
Q 14.984375 11.71875 18.140625 8.90625 
Q 21.296875 6.109375 26.703125 6.109375 
Q 34.1875 6.109375 38.703125 11.40625 
Q 43.21875 16.703125 43.21875 25.484375 
L 43.21875 27.484375 
z
M 52.203125 31.203125 
L 52.203125 0 
L 43.21875 0 
L 43.21875 8.296875 
Q 40.140625 3.328125 35.546875 0.953125 
Q 30.953125 -1.421875 24.3125 -1.421875 
Q 15.921875 -1.421875 10.953125 3.296875 
Q 6 8.015625 6 15.921875 
Q 6 25.140625 12.171875 29.828125 
Q 18.359375 34.515625 30.609375 34.515625 
L 43.21875 34.515625 
L 43.21875 35.40625 
Q 43.21875 41.609375 39.140625 45 
Q 35.0625 48.390625 27.6875 48.390625 
Q 23 48.390625 18.546875 47.265625 
Q 14.109375 46.140625 10.015625 43.890625 
L 10.015625 52.203125 
Q 14.9375 54.109375 19.578125 55.046875 
Q 24.21875 56 28.609375 56 
Q 40.484375 56 46.34375 49.84375 
Q 52.203125 43.703125 52.203125 31.203125 
" id="BitstreamVeraSans-Roman-61"/>
      <path d="M 44.28125 53.078125 
L 44.28125 44.578125 
Q 40.484375 46.53125 36.375 47.5 
Q 32.28125 48.484375 27.875 48.484375 
Q 21.1875 48.484375 17.84375 46.4375 
Q 14.5 44.390625 14.5 40.28125 
Q 14.5 37.15625 16.890625 35.375 
Q 19.28125 33.59375 26.515625 31.984375 
L 29.59375 31.296875 
Q 39.15625 29.25 43.1875 25.515625 
Q 47.21875 21.78125 47.21875 15.09375 
Q 47.21875 7.46875 41.1875 3.015625 
Q 35.15625 -1.421875 24.609375 -1.421875 
Q 20.21875 -1.421875 15.453125 -0.5625 
Q 10.6875 0.296875 5.421875 2 
L 5.421875 11.28125 
Q 10.40625 8.6875 15.234375 7.390625 
Q 20.0625 6.109375 24.8125 6.109375 
Q 31.15625 6.109375 34.5625 8.28125 
Q 37.984375 10.453125 37.984375 14.40625 
Q 37.984375 18.0625 35.515625 20.015625 
Q 33.0625 21.96875 24.703125 23.78125 
L 21.578125 24.515625 
Q 13.234375 26.265625 9.515625 29.90625 
Q 5.8125 33.546875 5.8125 39.890625 
Q 5.8125 47.609375 11.28125 51.796875 
Q 16.75 56 26.8125 56 
Q 31.78125 56 36.171875 55.265625 
Q 40.578125 54.546875 44.28125 53.078125 
" id="BitstreamVeraSans-Roman-73"/>
      <path d="M 8.015625 75.875 
L 15.828125 75.875 
Q 23.140625 64.359375 26.78125 53.3125 
Q 30.421875 42.28125 30.421875 31.390625 
Q 30.421875 20.453125 26.78125 9.375 
Q 23.140625 -1.703125 15.828125 -13.1875 
L 8.015625 -13.1875 
Q 14.5 -2 17.703125 9.0625 
Q 20.90625 20.125 20.90625 31.390625 
Q 20.90625 42.671875 17.703125 53.65625 
Q 14.5 64.65625 8.015625 75.875 
" id="BitstreamVeraSans-Roman-29"/>
     </defs>
     <g transform="translate(166.05515625 401.089780322)scale(0.18 -0.18)">
      <use xlink:href="#BitstreamVeraSans-Roman-6c"/>
      <use x="27.783203125" xlink:href="#BitstreamVeraSans-Roman-6f"/>
      <use x="88.96484375" xlink:href="#BitstreamVeraSans-Roman-67"/>
      <use x="152.44140625" xlink:href="#BitstreamVeraSans-Roman-31"/>
      <use x="216.064453125" xlink:href="#BitstreamVeraSans-Roman-30"/>
      <use x="279.6875" xlink:href="#BitstreamVeraSans-Roman-20"/>
      <use x="311.474609375" xlink:href="#BitstreamVeraSans-Roman-6f"/>
      <use x="372.65625" xlink:href="#BitstreamVeraSans-Roman-66"/>
      <use x="407.861328125" xlink:href="#BitstreamVeraSans-Roman-20"/>
      <use x="439.6484375" xlink:href="#BitstreamVeraSans-Roman-28"/>
      <use x="478.662109375" xlink:href="#BitstreamVeraSans-Roman-23"/>
      <use x="562.451171875" xlink:href="#BitstreamVeraSans-Roman-20"/>
      <use x="594.23828125" xlink:href="#BitstreamVeraSans-Roman-66"/>
      <use x="629.365234375" xlink:href="#BitstreamVeraSans-Roman-2d"/>
      <use x="665.44921875" xlink:href="#BitstreamVeraSans-Roman-65"/>
      <use x="726.97265625" xlink:href="#BitstreamVeraSans-Roman-76"/>
      <use x="786.15234375" xlink:href="#BitstreamVeraSans-Roman-61"/>
      <use x="847.431640625" xlink:href="#BitstreamVeraSans-Roman-6c"/>
      <use x="875.21484375" xlink:href="#BitstreamVeraSans-Roman-73"/>
      <use x="927.314453125" xlink:href="#BitstreamVeraSans-Roman-20"/>
      <use x="959.1015625" xlink:href="#BitstreamVeraSans-Roman-2f"/>
      <use x="992.79296875" xlink:href="#BitstreamVeraSans-Roman-20"/>
      <use x="1024.58007812" xlink:href="#BitstreamVeraSans-Roman-64"/>
      <use x="1088.05664062" xlink:href="#BitstreamVeraSans-Roman-69"/>
      <use x="1115.83984375" xlink:href="#BitstreamVeraSans-Roman-6d"/>
      <use x="1213.25195312" xlink:href="#BitstreamVeraSans-Roman-65"/>
      <use x="1274.77539062" xlink:href="#BitstreamVeraSans-Roman-6e"/>
      <use x="1338.15429688" xlink:href="#BitstreamVeraSans-Roman-73"/>
      <use x="1390.25390625" xlink:href="#BitstreamVeraSans-Roman-69"/>
      <use x="1418.03710938" xlink:href="#BitstreamVeraSans-Roman-6f"/>
      <use x="1479.21875" xlink:href="#BitstreamVeraSans-Roman-6e"/>
      <use x="1542.59765625" xlink:href="#BitstreamVeraSans-Roman-29"/>
     </g>
    </g>
   </g>
   <g id="matplotlib.axis_2">
    <g id="ytick_1">
     <g id="line2d_121">
      <path clip-path="url(#pcb5d491fc1)" d="M 85.2 359.056343 
L 531.6 359.056343 
" style="fill:none;stroke:#000000;stroke-dasharray:1.000000,3.000000;stroke-dashoffset:0.0;stroke-width:0.5;"/>
     </g>
     <g id="line2d_122">
      <defs>
       <path d="M 0 0 
L 4 0 
" id="m5dcf962d1b" style="stroke:#000000;stroke-width:0.5;"/>
      </defs>
      <g>
       <use style="stroke:#000000;stroke-width:0.5;" x="85.2" xlink:href="#m5dcf962d1b" y="359.056342822"/>
      </g>
     </g>
     <g id="line2d_123">
      <defs>
       <path d="M 0 0 
L -4 0 
" id="mf7d5fe5f6c" style="stroke:#000000;stroke-width:0.5;"/>
      </defs>
      <g>
       <use style="stroke:#000000;stroke-width:0.5;" x="531.6" xlink:href="#mf7d5fe5f6c" y="359.056342822"/>
      </g>
     </g>
     <g id="text_11">
      <!-- 0.0 -->
      <defs>
       <path d="M 10.6875 12.40625 
L 21 12.40625 
L 21 0 
L 10.6875 0 
z
" id="BitstreamVeraSans-Roman-2e"/>
      </defs>
      <g transform="translate(49.39375 364.575092822)scale(0.2 -0.2)">
       <use xlink:href="#BitstreamVeraSans-Roman-30"/>
       <use x="63.623046875" xlink:href="#BitstreamVeraSans-Roman-2e"/>
       <use x="95.41015625" xlink:href="#BitstreamVeraSans-Roman-30"/>
      </g>
     </g>
    </g>
    <g id="ytick_2">
     <g id="line2d_124">
      <path clip-path="url(#pcb5d491fc1)" d="M 85.2 290.620699 
L 531.6 290.620699 
" style="fill:none;stroke:#000000;stroke-dasharray:1.000000,3.000000;stroke-dashoffset:0.0;stroke-width:0.5;"/>
     </g>
     <g id="line2d_125">
      <g>
       <use style="stroke:#000000;stroke-width:0.5;" x="85.2" xlink:href="#m5dcf962d1b" y="290.620699257"/>
      </g>
     </g>
     <g id="line2d_126">
      <g>
       <use style="stroke:#000000;stroke-width:0.5;" x="531.6" xlink:href="#mf7d5fe5f6c" y="290.620699257"/>
      </g>
     </g>
     <g id="text_12">
      <!-- 0.2 -->
      <g transform="translate(49.39375 296.139449257)scale(0.2 -0.2)">
       <use xlink:href="#BitstreamVeraSans-Roman-30"/>
       <use x="63.623046875" xlink:href="#BitstreamVeraSans-Roman-2e"/>
       <use x="95.41015625" xlink:href="#BitstreamVeraSans-Roman-32"/>
      </g>
     </g>
    </g>
    <g id="ytick_3">
     <g id="line2d_127">
      <path clip-path="url(#pcb5d491fc1)" d="M 85.2 222.185056 
L 531.6 222.185056 
" style="fill:none;stroke:#000000;stroke-dasharray:1.000000,3.000000;stroke-dashoffset:0.0;stroke-width:0.5;"/>
     </g>
     <g id="line2d_128">
      <g>
       <use style="stroke:#000000;stroke-width:0.5;" x="85.2" xlink:href="#m5dcf962d1b" y="222.185055693"/>
      </g>
     </g>
     <g id="line2d_129">
      <g>
       <use style="stroke:#000000;stroke-width:0.5;" x="531.6" xlink:href="#mf7d5fe5f6c" y="222.185055693"/>
      </g>
     </g>
     <g id="text_13">
      <!-- 0.4 -->
      <g transform="translate(49.39375 227.703805693)scale(0.2 -0.2)">
       <use xlink:href="#BitstreamVeraSans-Roman-30"/>
       <use x="63.623046875" xlink:href="#BitstreamVeraSans-Roman-2e"/>
       <use x="95.41015625" xlink:href="#BitstreamVeraSans-Roman-34"/>
      </g>
     </g>
    </g>
    <g id="ytick_4">
     <g id="line2d_130">
      <path clip-path="url(#pcb5d491fc1)" d="M 85.2 153.749412 
L 531.6 153.749412 
" style="fill:none;stroke:#000000;stroke-dasharray:1.000000,3.000000;stroke-dashoffset:0.0;stroke-width:0.5;"/>
     </g>
     <g id="line2d_131">
      <g>
       <use style="stroke:#000000;stroke-width:0.5;" x="85.2" xlink:href="#m5dcf962d1b" y="153.749412129"/>
      </g>
     </g>
     <g id="line2d_132">
      <g>
       <use style="stroke:#000000;stroke-width:0.5;" x="531.6" xlink:href="#mf7d5fe5f6c" y="153.749412129"/>
      </g>
     </g>
     <g id="text_14">
      <!-- 0.6 -->
      <g transform="translate(49.39375 159.268162129)scale(0.2 -0.2)">
       <use xlink:href="#BitstreamVeraSans-Roman-30"/>
       <use x="63.623046875" xlink:href="#BitstreamVeraSans-Roman-2e"/>
       <use x="95.41015625" xlink:href="#BitstreamVeraSans-Roman-36"/>
      </g>
     </g>
    </g>
    <g id="ytick_5">
     <g id="line2d_133">
      <path clip-path="url(#pcb5d491fc1)" d="M 85.2 85.313769 
L 531.6 85.313769 
" style="fill:none;stroke:#000000;stroke-dasharray:1.000000,3.000000;stroke-dashoffset:0.0;stroke-width:0.5;"/>
     </g>
     <g id="line2d_134">
      <g>
       <use style="stroke:#000000;stroke-width:0.5;" x="85.2" xlink:href="#m5dcf962d1b" y="85.3137685644"/>
      </g>
     </g>
     <g id="line2d_135">
      <g>
       <use style="stroke:#000000;stroke-width:0.5;" x="531.6" xlink:href="#mf7d5fe5f6c" y="85.3137685644"/>
      </g>
     </g>
     <g id="text_15">
      <!-- 0.8 -->
      <g transform="translate(49.39375 90.8325185644)scale(0.2 -0.2)">
       <use xlink:href="#BitstreamVeraSans-Roman-30"/>
       <use x="63.623046875" xlink:href="#BitstreamVeraSans-Roman-2e"/>
       <use x="95.41015625" xlink:href="#BitstreamVeraSans-Roman-38"/>
      </g>
     </g>
    </g>
    <g id="ytick_6">
     <g id="line2d_136">
      <path clip-path="url(#pcb5d491fc1)" d="M 85.2 16.878125 
L 531.6 16.878125 
" style="fill:none;stroke:#000000;stroke-dasharray:1.000000,3.000000;stroke-dashoffset:0.0;stroke-width:0.5;"/>
     </g>
     <g id="line2d_137">
      <g>
       <use style="stroke:#000000;stroke-width:0.5;" x="85.2" xlink:href="#m5dcf962d1b" y="16.878125"/>
      </g>
     </g>
     <g id="line2d_138">
      <g>
       <use style="stroke:#000000;stroke-width:0.5;" x="531.6" xlink:href="#mf7d5fe5f6c" y="16.878125"/>
      </g>
     </g>
     <g id="text_16">
      <!-- 1.0 -->
      <g transform="translate(49.39375 22.396875)scale(0.2 -0.2)">
       <use xlink:href="#BitstreamVeraSans-Roman-31"/>
       <use x="63.623046875" xlink:href="#BitstreamVeraSans-Roman-2e"/>
       <use x="95.41015625" xlink:href="#BitstreamVeraSans-Roman-30"/>
      </g>
     </g>
    </g>
    <g id="text_17">
     <!-- Proportion of function+target pairs -->
     <defs>
      <path d="M 19.671875 64.796875 
L 19.671875 37.40625 
L 32.078125 37.40625 
Q 38.96875 37.40625 42.71875 40.96875 
Q 46.484375 44.53125 46.484375 51.125 
Q 46.484375 57.671875 42.71875 61.234375 
Q 38.96875 64.796875 32.078125 64.796875 
z
M 9.8125 72.90625 
L 32.078125 72.90625 
Q 44.34375 72.90625 50.609375 67.359375 
Q 56.890625 61.8125 56.890625 51.125 
Q 56.890625 40.328125 50.609375 34.8125 
Q 44.34375 29.296875 32.078125 29.296875 
L 19.671875 29.296875 
L 19.671875 0 
L 9.8125 0 
z
" id="BitstreamVeraSans-Roman-50"/>
      <path d="M 46 62.703125 
L 46 35.5 
L 73.1875 35.5 
L 73.1875 27.203125 
L 46 27.203125 
L 46 0 
L 37.796875 0 
L 37.796875 27.203125 
L 10.59375 27.203125 
L 10.59375 35.5 
L 37.796875 35.5 
L 37.796875 62.703125 
z
" id="BitstreamVeraSans-Roman-2b"/>
      <path d="M 18.109375 8.203125 
L 18.109375 -20.796875 
L 9.078125 -20.796875 
L 9.078125 54.6875 
L 18.109375 54.6875 
L 18.109375 46.390625 
Q 20.953125 51.265625 25.265625 53.625 
Q 29.59375 56 35.59375 56 
Q 45.5625 56 51.78125 48.09375 
Q 58.015625 40.1875 58.015625 27.296875 
Q 58.015625 14.40625 51.78125 6.484375 
Q 45.5625 -1.421875 35.59375 -1.421875 
Q 29.59375 -1.421875 25.265625 0.953125 
Q 20.953125 3.328125 18.109375 8.203125 
M 48.6875 27.296875 
Q 48.6875 37.203125 44.609375 42.84375 
Q 40.53125 48.484375 33.40625 48.484375 
Q 26.265625 48.484375 22.1875 42.84375 
Q 18.109375 37.203125 18.109375 27.296875 
Q 18.109375 17.390625 22.1875 11.75 
Q 26.265625 6.109375 33.40625 6.109375 
Q 40.53125 6.109375 44.609375 11.75 
Q 48.6875 17.390625 48.6875 27.296875 
" id="BitstreamVeraSans-Roman-70"/>
      <path d="M 18.3125 70.21875 
L 18.3125 54.6875 
L 36.8125 54.6875 
L 36.8125 47.703125 
L 18.3125 47.703125 
L 18.3125 18.015625 
Q 18.3125 11.328125 20.140625 9.421875 
Q 21.96875 7.515625 27.59375 7.515625 
L 36.8125 7.515625 
L 36.8125 0 
L 27.59375 0 
Q 17.1875 0 13.234375 3.875 
Q 9.28125 7.765625 9.28125 18.015625 
L 9.28125 47.703125 
L 2.6875 47.703125 
L 2.6875 54.6875 
L 9.28125 54.6875 
L 9.28125 70.21875 
z
" id="BitstreamVeraSans-Roman-74"/>
      <path d="M 8.5 21.578125 
L 8.5 54.6875 
L 17.484375 54.6875 
L 17.484375 21.921875 
Q 17.484375 14.15625 20.5 10.265625 
Q 23.53125 6.390625 29.59375 6.390625 
Q 36.859375 6.390625 41.078125 11.03125 
Q 45.3125 15.671875 45.3125 23.6875 
L 45.3125 54.6875 
L 54.296875 54.6875 
L 54.296875 0 
L 45.3125 0 
L 45.3125 8.40625 
Q 42.046875 3.421875 37.71875 1 
Q 33.40625 -1.421875 27.6875 -1.421875 
Q 18.265625 -1.421875 13.375 4.4375 
Q 8.5 10.296875 8.5 21.578125 
" id="BitstreamVeraSans-Roman-75"/>
      <path d="M 41.109375 46.296875 
Q 39.59375 47.171875 37.8125 47.578125 
Q 36.03125 48 33.890625 48 
Q 26.265625 48 22.1875 43.046875 
Q 18.109375 38.09375 18.109375 28.8125 
L 18.109375 0 
L 9.078125 0 
L 9.078125 54.6875 
L 18.109375 54.6875 
L 18.109375 46.1875 
Q 20.953125 51.171875 25.484375 53.578125 
Q 30.03125 56 36.53125 56 
Q 37.453125 56 38.578125 55.875 
Q 39.703125 55.765625 41.0625 55.515625 
z
" id="BitstreamVeraSans-Roman-72"/>
      <path d="M 48.78125 52.59375 
L 48.78125 44.1875 
Q 44.96875 46.296875 41.140625 47.34375 
Q 37.3125 48.390625 33.40625 48.390625 
Q 24.65625 48.390625 19.8125 42.84375 
Q 14.984375 37.3125 14.984375 27.296875 
Q 14.984375 17.28125 19.8125 11.734375 
Q 24.65625 6.203125 33.40625 6.203125 
Q 37.3125 6.203125 41.140625 7.25 
Q 44.96875 8.296875 48.78125 10.40625 
L 48.78125 2.09375 
Q 45.015625 0.34375 40.984375 -0.53125 
Q 36.96875 -1.421875 32.421875 -1.421875 
Q 20.0625 -1.421875 12.78125 6.34375 
Q 5.515625 14.109375 5.515625 27.296875 
Q 5.515625 40.671875 12.859375 48.328125 
Q 20.21875 56 33.015625 56 
Q 37.15625 56 41.109375 55.140625 
Q 45.0625 54.296875 48.78125 52.59375 
" id="BitstreamVeraSans-Roman-63"/>
     </defs>
     <g transform="translate(40.6503125 344.245717822)rotate(-90.0)scale(0.18 -0.18)">
      <use xlink:href="#BitstreamVeraSans-Roman-50"/>
      <use x="60.287109375" xlink:href="#BitstreamVeraSans-Roman-72"/>
      <use x="101.369140625" xlink:href="#BitstreamVeraSans-Roman-6f"/>
      <use x="162.55078125" xlink:href="#BitstreamVeraSans-Roman-70"/>
      <use x="226.02734375" xlink:href="#BitstreamVeraSans-Roman-6f"/>
      <use x="287.208984375" xlink:href="#BitstreamVeraSans-Roman-72"/>
      <use x="328.322265625" xlink:href="#BitstreamVeraSans-Roman-74"/>
      <use x="367.53125" xlink:href="#BitstreamVeraSans-Roman-69"/>
      <use x="395.314453125" xlink:href="#BitstreamVeraSans-Roman-6f"/>
      <use x="456.49609375" xlink:href="#BitstreamVeraSans-Roman-6e"/>
      <use x="519.875" xlink:href="#BitstreamVeraSans-Roman-20"/>
      <use x="551.662109375" xlink:href="#BitstreamVeraSans-Roman-6f"/>
      <use x="612.84375" xlink:href="#BitstreamVeraSans-Roman-66"/>
      <use x="648.048828125" xlink:href="#BitstreamVeraSans-Roman-20"/>
      <use x="679.8359375" xlink:href="#BitstreamVeraSans-Roman-66"/>
      <use x="715.041015625" xlink:href="#BitstreamVeraSans-Roman-75"/>
      <use x="778.419921875" xlink:href="#BitstreamVeraSans-Roman-6e"/>
      <use x="841.798828125" xlink:href="#BitstreamVeraSans-Roman-63"/>
      <use x="896.779296875" xlink:href="#BitstreamVeraSans-Roman-74"/>
      <use x="935.98828125" xlink:href="#BitstreamVeraSans-Roman-69"/>
      <use x="963.771484375" xlink:href="#BitstreamVeraSans-Roman-6f"/>
      <use x="1024.953125" xlink:href="#BitstreamVeraSans-Roman-6e"/>
      <use x="1088.33203125" xlink:href="#BitstreamVeraSans-Roman-2b"/>
      <use x="1172.12109375" xlink:href="#BitstreamVeraSans-Roman-74"/>
      <use x="1211.33007812" xlink:href="#BitstreamVeraSans-Roman-61"/>
      <use x="1272.609375" xlink:href="#BitstreamVeraSans-Roman-72"/>
      <use x="1313.70703125" xlink:href="#BitstreamVeraSans-Roman-67"/>
      <use x="1377.18359375" xlink:href="#BitstreamVeraSans-Roman-65"/>
      <use x="1438.70703125" xlink:href="#BitstreamVeraSans-Roman-74"/>
      <use x="1477.91601562" xlink:href="#BitstreamVeraSans-Roman-20"/>
      <use x="1509.703125" xlink:href="#BitstreamVeraSans-Roman-70"/>
      <use x="1573.1796875" xlink:href="#BitstreamVeraSans-Roman-61"/>
      <use x="1634.45898438" xlink:href="#BitstreamVeraSans-Roman-69"/>
      <use x="1662.2421875" xlink:href="#BitstreamVeraSans-Roman-72"/>
      <use x="1703.35546875" xlink:href="#BitstreamVeraSans-Roman-73"/>
     </g>
    </g>
   </g>
   <g id="text_18">
    <!-- 5-D -->
    <defs>
     <path d="M 19.671875 64.796875 
L 19.671875 8.109375 
L 31.59375 8.109375 
Q 46.6875 8.109375 53.6875 14.9375 
Q 60.6875 21.78125 60.6875 36.53125 
Q 60.6875 51.171875 53.6875 57.984375 
Q 46.6875 64.796875 31.59375 64.796875 
z
M 9.8125 72.90625 
L 30.078125 72.90625 
Q 51.265625 72.90625 61.171875 64.09375 
Q 71.09375 55.28125 71.09375 36.53125 
Q 71.09375 17.671875 61.125 8.828125 
Q 51.171875 0 30.078125 0 
L 9.8125 0 
z
" id="BitstreamVeraSans-Roman-44"/>
    </defs>
    <g transform="translate(492.0 356.351840965)scale(0.15 -0.15)">
     <use xlink:href="#BitstreamVeraSans-Roman-35"/>
     <use x="63.623046875" xlink:href="#BitstreamVeraSans-Roman-2d"/>
     <use x="99.70703125" xlink:href="#BitstreamVeraSans-Roman-44"/>
    </g>
   </g>
   <g id="text_19">
    <!-- 10-D -->
    <g transform="translate(492.0 246.854811262)scale(0.15 -0.15)">
     <use xlink:href="#BitstreamVeraSans-Roman-31"/>
     <use x="63.623046875" xlink:href="#BitstreamVeraSans-Roman-30"/>
     <use x="127.24609375" xlink:href="#BitstreamVeraSans-Roman-2d"/>
     <use x="163.330078125" xlink:href="#BitstreamVeraSans-Roman-44"/>
    </g>
   </g>
   <g id="text_20">
    <!-- 3-D -->
    <g transform="translate(492.0 137.357781559)scale(0.15 -0.15)">
     <use xlink:href="#BitstreamVeraSans-Roman-33"/>
     <use x="63.623046875" xlink:href="#BitstreamVeraSans-Roman-2d"/>
     <use x="99.70703125" xlink:href="#BitstreamVeraSans-Roman-44"/>
    </g>
   </g>
   <g id="text_21">
    <!-- 2-D -->
    <g transform="translate(492.0 27.8607518564)scale(0.15 -0.15)">
     <use xlink:href="#BitstreamVeraSans-Roman-32"/>
     <use x="63.623046875" xlink:href="#BitstreamVeraSans-Roman-2d"/>
     <use x="99.70703125" xlink:href="#BitstreamVeraSans-Roman-44"/>
    </g>
   </g>
   <g id="text_22">
    <!-- bbob-biobj - f20, f21, f28 -->
    <defs>
     <path d="M 11.71875 12.40625 
L 22.015625 12.40625 
L 22.015625 4 
L 14.015625 -11.625 
L 7.71875 -11.625 
L 11.71875 4 
z
" id="BitstreamVeraSans-Roman-2c"/>
     <path d="M 9.421875 54.6875 
L 18.40625 54.6875 
L 18.40625 -0.984375 
Q 18.40625 -11.421875 14.421875 -16.109375 
Q 10.453125 -20.796875 1.609375 -20.796875 
L -1.8125 -20.796875 
L -1.8125 -13.1875 
L 0.59375 -13.1875 
Q 5.71875 -13.1875 7.5625 -10.8125 
Q 9.421875 -8.453125 9.421875 -0.984375 
z
M 9.421875 75.984375 
L 18.40625 75.984375 
L 18.40625 64.59375 
L 9.421875 64.59375 
z
" id="BitstreamVeraSans-Roman-6a"/>
     <path d="M 48.6875 27.296875 
Q 48.6875 37.203125 44.609375 42.84375 
Q 40.53125 48.484375 33.40625 48.484375 
Q 26.265625 48.484375 22.1875 42.84375 
Q 18.109375 37.203125 18.109375 27.296875 
Q 18.109375 17.390625 22.1875 11.75 
Q 26.265625 6.109375 33.40625 6.109375 
Q 40.53125 6.109375 44.609375 11.75 
Q 48.6875 17.390625 48.6875 27.296875 
M 18.109375 46.390625 
Q 20.953125 51.265625 25.265625 53.625 
Q 29.59375 56 35.59375 56 
Q 45.5625 56 51.78125 48.09375 
Q 58.015625 40.1875 58.015625 27.296875 
Q 58.015625 14.40625 51.78125 6.484375 
Q 45.5625 -1.421875 35.59375 -1.421875 
Q 29.59375 -1.421875 25.265625 0.953125 
Q 20.953125 3.328125 18.109375 8.203125 
L 18.109375 0 
L 9.078125 0 
L 9.078125 75.984375 
L 18.109375 75.984375 
z
" id="BitstreamVeraSans-Roman-62"/>
    </defs>
    <g transform="translate(89.664 33.0273396968)scale(0.1666 -0.1666)">
     <use xlink:href="#BitstreamVeraSans-Roman-62"/>
     <use x="63.4765625" xlink:href="#BitstreamVeraSans-Roman-62"/>
     <use x="126.953125" xlink:href="#BitstreamVeraSans-Roman-6f"/>
     <use x="188.134765625" xlink:href="#BitstreamVeraSans-Roman-62"/>
     <use x="251.611328125" xlink:href="#BitstreamVeraSans-Roman-2d"/>
     <use x="287.6953125" xlink:href="#BitstreamVeraSans-Roman-62"/>
     <use x="351.171875" xlink:href="#BitstreamVeraSans-Roman-69"/>
     <use x="378.955078125" xlink:href="#BitstreamVeraSans-Roman-6f"/>
     <use x="440.13671875" xlink:href="#BitstreamVeraSans-Roman-62"/>
     <use x="503.61328125" xlink:href="#BitstreamVeraSans-Roman-6a"/>
     <use x="531.396484375" xlink:href="#BitstreamVeraSans-Roman-20"/>
     <use x="563.18359375" xlink:href="#BitstreamVeraSans-Roman-2d"/>
     <use x="599.267578125" xlink:href="#BitstreamVeraSans-Roman-20"/>
     <use x="631.0546875" xlink:href="#BitstreamVeraSans-Roman-66"/>
     <use x="666.259765625" xlink:href="#BitstreamVeraSans-Roman-32"/>
     <use x="729.8828125" xlink:href="#BitstreamVeraSans-Roman-30"/>
     <use x="793.505859375" xlink:href="#BitstreamVeraSans-Roman-2c"/>
     <use x="825.29296875" xlink:href="#BitstreamVeraSans-Roman-20"/>
     <use x="857.080078125" xlink:href="#BitstreamVeraSans-Roman-66"/>
     <use x="892.28515625" xlink:href="#BitstreamVeraSans-Roman-32"/>
     <use x="955.908203125" xlink:href="#BitstreamVeraSans-Roman-31"/>
     <use x="1019.53125" xlink:href="#BitstreamVeraSans-Roman-2c"/>
     <use x="1051.31835938" xlink:href="#BitstreamVeraSans-Roman-20"/>
     <use x="1083.10546875" xlink:href="#BitstreamVeraSans-Roman-66"/>
     <use x="1118.31054688" xlink:href="#BitstreamVeraSans-Roman-32"/>
     <use x="1181.93359375" xlink:href="#BitstreamVeraSans-Roman-38"/>
    </g>
    <!-- 58 targets in 1..-1.0e-4 -->
    <g transform="translate(89.664 51.6828953218)scale(0.1666 -0.1666)">
     <use xlink:href="#BitstreamVeraSans-Roman-35"/>
     <use x="63.623046875" xlink:href="#BitstreamVeraSans-Roman-38"/>
     <use x="127.24609375" xlink:href="#BitstreamVeraSans-Roman-20"/>
     <use x="159.033203125" xlink:href="#BitstreamVeraSans-Roman-74"/>
     <use x="198.2421875" xlink:href="#BitstreamVeraSans-Roman-61"/>
     <use x="259.521484375" xlink:href="#BitstreamVeraSans-Roman-72"/>
     <use x="300.619140625" xlink:href="#BitstreamVeraSans-Roman-67"/>
     <use x="364.095703125" xlink:href="#BitstreamVeraSans-Roman-65"/>
     <use x="425.619140625" xlink:href="#BitstreamVeraSans-Roman-74"/>
     <use x="464.828125" xlink:href="#BitstreamVeraSans-Roman-73"/>
     <use x="516.927734375" xlink:href="#BitstreamVeraSans-Roman-20"/>
     <use x="548.71484375" xlink:href="#BitstreamVeraSans-Roman-69"/>
     <use x="576.498046875" xlink:href="#BitstreamVeraSans-Roman-6e"/>
     <use x="639.876953125" xlink:href="#BitstreamVeraSans-Roman-20"/>
     <use x="671.6640625" xlink:href="#BitstreamVeraSans-Roman-31"/>
     <use x="735.287109375" xlink:href="#BitstreamVeraSans-Roman-2e"/>
     <use x="767.07421875" xlink:href="#BitstreamVeraSans-Roman-2e"/>
     <use x="798.861328125" xlink:href="#BitstreamVeraSans-Roman-2d"/>
     <use x="834.9453125" xlink:href="#BitstreamVeraSans-Roman-31"/>
     <use x="898.568359375" xlink:href="#BitstreamVeraSans-Roman-2e"/>
     <use x="930.35546875" xlink:href="#BitstreamVeraSans-Roman-30"/>
     <use x="993.978515625" xlink:href="#BitstreamVeraSans-Roman-65"/>
     <use x="1055.50195312" xlink:href="#BitstreamVeraSans-Roman-2d"/>
     <use x="1091.5859375" xlink:href="#BitstreamVeraSans-Roman-34"/>
    </g>
    <!-- 5 instances -->
    <g transform="translate(89.664 70.3384509468)scale(0.1666 -0.1666)">
     <use xlink:href="#BitstreamVeraSans-Roman-35"/>
     <use x="63.623046875" xlink:href="#BitstreamVeraSans-Roman-20"/>
     <use x="95.41015625" xlink:href="#BitstreamVeraSans-Roman-69"/>
     <use x="123.193359375" xlink:href="#BitstreamVeraSans-Roman-6e"/>
     <use x="186.572265625" xlink:href="#BitstreamVeraSans-Roman-73"/>
     <use x="238.671875" xlink:href="#BitstreamVeraSans-Roman-74"/>
     <use x="277.880859375" xlink:href="#BitstreamVeraSans-Roman-61"/>
     <use x="339.16015625" xlink:href="#BitstreamVeraSans-Roman-6e"/>
     <use x="402.5390625" xlink:href="#BitstreamVeraSans-Roman-63"/>
     <use x="457.51953125" xlink:href="#BitstreamVeraSans-Roman-65"/>
     <use x="519.04296875" xlink:href="#BitstreamVeraSans-Roman-73"/>
    </g>
   </g>
   <g id="text_23">
    <!-- 0.0.0 -->
    <g style="fill:#808080;" transform="translate(295.678125 353.520655322)scale(0.1 -0.1)">
     <use xlink:href="#BitstreamVeraSans-Roman-30"/>
     <use x="63.623046875" xlink:href="#BitstreamVeraSans-Roman-2e"/>
     <use x="95.41015625" xlink:href="#BitstreamVeraSans-Roman-30"/>
     <use x="159.033203125" xlink:href="#BitstreamVeraSans-Roman-2e"/>
     <use x="190.8203125" xlink:href="#BitstreamVeraSans-Roman-30"/>
    </g>
   </g>
  </g>
 </g>
 <defs>
  <clipPath id="pcb5d491fc1">
   <rect height="345.6" width="446.4" x="85.2" y="13.4563428218"/>
  </clipPath>
 </defs>
</svg>
